<svg width="25" height="25" viewBox="0 0 25 25" fill="none" xmlns="http://www.w3.org/2000/svg">
<g clip-path="url(#clip0_527_2026)">
<path d="M11.2925 18.6594C10.3471 18.5994 9.46185 18.5804 8.58556 18.4801C6.64996 18.2583 4.72334 17.9737 2.8843 17.2863C2.02035 16.9637 1.18054 16.5939 0.541703 15.892C-0.139799 15.1436 -0.199865 14.2719 0.487812 13.4871C1.08679 12.8031 1.87608 12.4345 2.69062 12.1084C2.96513 11.9986 3.26266 11.937 3.55569 11.8877C3.78249 11.8502 3.93742 12.0048 3.98346 12.2076C4.02949 12.4121 4.00254 12.6378 3.78192 12.7482C3.56299 12.858 3.33002 12.9415 3.09986 13.0255C2.50032 13.244 1.91313 13.5011 1.43709 13.9257C0.870104 14.4321 0.805546 14.8433 1.45224 15.3878C2.39029 16.1771 3.54503 16.4819 4.68966 16.7861C5.47333 16.9945 6.27384 17.1491 7.07491 17.2768C7.77999 17.3894 8.4963 17.4382 9.20868 17.502C9.86323 17.5603 10.52 17.6012 11.1752 17.6493C11.1931 17.6191 11.2111 17.5883 11.229 17.558C11.0022 17.3463 10.7687 17.1412 10.5498 16.9211C10.2556 16.6259 10.2186 16.4606 10.3584 16.1945C10.4847 15.9536 10.9029 15.8668 11.0982 16.0578C11.7028 16.6505 12.299 17.2516 12.8974 17.8505C13.0984 18.0516 13.0473 18.2919 12.8924 18.4532C12.3069 19.0616 11.7045 19.6543 11.0876 20.2307C10.8793 20.4251 10.6054 20.3831 10.442 20.2044C10.241 19.9848 10.236 19.7243 10.4532 19.4935C10.7131 19.2185 10.9893 18.9591 11.2925 18.6583V18.6594Z" fill="#cc0000"/>
<path d="M15.1687 17.5922C15.8603 17.5087 16.5525 17.432 17.243 17.3407C17.8678 17.2578 18.4949 17.1821 19.1129 17.0628C20.5511 16.7844 21.9731 16.4404 23.2289 15.6405C23.4843 15.478 23.7088 15.241 23.8919 14.9968C24.1209 14.6904 24.0395 14.4232 23.7324 14.096C23.2345 13.5655 22.5704 13.3028 21.9164 13.0305C21.7064 12.9431 21.4847 12.8832 21.2792 12.7863C20.9447 12.6283 20.8863 12.1488 21.1945 11.9527C21.3275 11.8681 21.5594 11.8423 21.7093 11.895C22.6933 12.2406 23.674 12.6109 24.4291 13.3722C25.1836 14.1335 25.197 15.1581 24.4291 15.9228C23.8043 16.5446 23.0515 16.9541 22.2392 17.2236C21.2046 17.5664 20.1464 17.8482 19.0843 18.093C18.4112 18.2482 17.7134 18.3031 17.0235 18.377C16.2045 18.465 15.3837 18.5333 14.5625 18.5933C14.238 18.6168 14.0061 18.4 14 18.1188C13.9932 17.8135 14.2043 17.6269 14.5501 17.6124C14.755 17.6034 14.9588 17.5692 15.1637 17.5463C15.1654 17.5619 15.1676 17.5776 15.1693 17.5927L15.1687 17.5922Z" fill="#cc0000"/>
<path d="M11.7585 7.99441V9.66716C12.1969 9.66716 12.6303 9.66716 13.0636 9.66716C13.9624 9.66772 14.4457 10.1405 14.4373 11.0296C14.4328 11.5068 14.4373 11.9886 14.3744 12.4597C14.3037 12.9874 13.8344 13.3538 13.309 13.3583C12.8166 13.3628 12.3243 13.3622 11.832 13.3572C11.2414 13.351 10.7603 12.8894 10.7542 12.2906C10.7384 10.8391 10.7328 9.38706 10.7379 7.93559C10.7396 7.46166 11.2785 6.9995 11.8511 6.98213C12.5343 6.96197 13.2186 6.97037 13.9018 6.97821C14.1909 6.98157 14.4586 7.23086 14.4345 7.46951C14.4081 7.72832 14.2122 7.98769 13.8855 7.97928C13.2932 7.9636 12.7004 7.97424 12.1082 7.97592C12.0004 7.97592 11.8926 7.98713 11.7585 7.99441ZM11.7478 10.6744C11.7478 11.1892 11.7495 11.6777 11.7467 12.1656C11.7461 12.313 11.8045 12.3746 11.9594 12.3718C12.3687 12.3639 12.7779 12.3673 13.1871 12.3701C13.373 12.3712 13.4476 12.2799 13.4465 12.1018C13.4437 11.7113 13.4454 11.3214 13.4459 10.931C13.4459 10.75 13.3572 10.6716 13.1759 10.6727C12.7128 10.6766 12.2497 10.6738 11.7484 10.6738L11.7478 10.6744Z" fill="#cc0000"/>
<path d="M15.4752 10.1747C15.4752 9.54671 15.4696 8.91929 15.4769 8.29131C15.4836 7.67565 16.077 6.9967 16.8001 7.02078C17.1369 7.03199 17.4776 7.05047 17.8111 7.0163C18.3034 6.96589 18.9995 7.56137 19.0848 8.05995C19.1241 8.28795 19.155 8.52099 19.1567 8.75179C19.1645 9.7523 19.1572 10.7534 19.1606 11.7544C19.1634 12.5023 18.8159 13.1477 17.9941 13.3068C17.4159 13.4188 16.7832 13.4967 16.2258 13.1829C15.78 12.932 15.4735 12.5555 15.4724 12.0037C15.4719 11.3942 15.4724 10.7847 15.4724 10.1753C15.4735 10.1753 15.4741 10.1753 15.4752 10.1753V10.1747ZM16.4632 10.1881C16.4632 10.7517 16.461 11.3153 16.4638 11.8788C16.4655 12.1964 16.6417 12.3707 16.9522 12.3723C17.1706 12.3735 17.3895 12.3735 17.6079 12.3723C17.9357 12.3707 18.1535 12.1824 18.1563 11.8525C18.1653 10.7254 18.1653 9.59825 18.1563 8.47113C18.1535 8.15742 17.9733 8.00729 17.6589 8.00561C17.431 8.00449 17.2037 8.00561 16.9758 8.00561C16.5991 8.00449 16.4649 8.1367 16.4632 8.52491C16.4604 9.07951 16.4627 9.6341 16.4632 10.1887V10.1881Z" fill="#cc0000"/>
<path d="M8.7231 10.6738C8.00286 10.6738 7.3034 10.6733 6.60393 10.6738C6.24802 10.6738 6.02741 10.499 6.01393 10.2021C5.99934 9.86546 6.18178 9.67667 6.57137 9.67051C7.23659 9.65986 7.90238 9.66715 8.5676 9.66659C8.60353 9.66659 8.63945 9.66154 8.71243 9.65594C8.71243 9.15065 8.72254 8.64535 8.69896 8.14173C8.69615 8.08179 8.5109 7.98488 8.40817 7.98207C7.77944 7.96639 7.1507 7.97591 6.52141 7.97087C6.31146 7.96919 6.10319 7.90477 6.05828 7.68069C6.02628 7.52271 6.05435 7.33225 6.11835 7.18267C6.15708 7.09192 6.3137 6.99893 6.41868 6.99725C7.18158 6.98885 7.94616 6.97372 8.70682 7.02022C9.35239 7.05943 9.71785 7.60226 9.72346 8.24425C9.73412 9.55399 9.73693 10.8643 9.72177 12.174C9.71391 12.8356 9.20307 13.3667 8.51371 13.36C7.84849 13.3538 7.1827 13.36 6.51748 13.3566C6.2396 13.3555 6.02011 13.1426 6.01337 12.8793C6.00607 12.5975 6.21883 12.3735 6.51804 12.3701C7.15576 12.3634 7.79403 12.3617 8.43231 12.3701C8.64451 12.3729 8.72871 12.2984 8.72534 12.0855C8.71748 11.6228 8.7231 11.1601 8.7231 10.6716V10.6738Z" fill="#cc0000"/>
<path d="M20.6398 7.67839C19.9623 7.76522 19.3212 7.04649 19.297 6.38881C19.2712 5.68017 19.9005 4.99112 20.6073 5.00009C21.3612 5.01017 21.9843 5.56196 21.9866 6.2454C21.9888 7.135 21.4819 7.67447 20.6404 7.67783L20.6398 7.67839ZM21.0047 6.37089C20.9969 6.10704 20.875 6.03981 20.6426 6.03085C20.381 6.02077 20.3182 6.1709 20.2951 6.3608C20.2727 6.54959 20.4506 6.70645 20.6539 6.69356C20.8683 6.68012 20.9918 6.56472 21.0053 6.37033L21.0047 6.37089Z" fill="#cc0000"/>
</g>
<defs>
<clipPath id="clip0_527_2026">
<rect width="25" height="25" fill="white"/>
</clipPath>
</defs>
</svg>
