<svg width="16" height="16" viewBox="0 0 16 16" fill="none" xmlns="http://www.w3.org/2000/svg">
<g clip-path="url(#clip0_2423_4770)">
<path d="M13.2964 13.031C13.5833 12.9561 13.8164 12.8918 14.0516 12.8348C14.5853 12.7051 15.042 12.9508 15.2181 13.4571C15.3985 13.9771 15.2244 14.5087 14.7382 14.7017C14.1201 14.9475 13.4831 15.151 12.8418 15.3282C12.364 15.4601 11.9442 15.17 11.7238 14.5962C11.3778 13.6944 11.0129 12.7979 10.7239 11.8771C10.5424 11.3002 10.2313 11.1114 9.64486 11.1472C8.87489 11.1947 8.09966 11.1641 7.32653 11.1578C6.24858 11.1483 5.44487 10.5302 5.17486 9.4881C4.94492 8.60423 4.72659 7.71719 4.52303 6.82699C4.33423 6.00218 4.64643 5.32504 5.3278 5.02233C6.07666 4.68903 6.76646 4.91896 7.29805 5.63408C7.40036 5.77225 7.62291 5.88932 7.79378 5.89671C8.49519 5.92624 9.1987 5.90304 9.90116 5.91042C10.6384 5.9178 11.0899 6.33021 11.0793 6.96833C11.0688 7.58746 10.6289 7.98088 9.9212 7.99354C9.30628 8.00408 8.69137 8.00303 8.07751 8.0083C8.06274 8.0083 8.04692 8.02518 7.97731 8.06737C8.02161 8.26038 8.087 8.47239 8.11442 8.68967C8.15239 8.9987 8.31061 9.09363 8.61121 9.07887C9.04893 9.05672 9.48981 9.0641 9.92858 9.07465C11.1415 9.10418 11.998 9.67901 12.46 10.7991C12.7542 11.5122 13.0021 12.2431 13.2943 13.031H13.2964Z" fill="#CC0000"/>
<path d="M5.19388 14.2291C3.49364 13.9876 2.13829 12.7588 1.78812 11.0733C1.37361 9.08091 1.02343 7.07479 0.6606 5.07183C0.543523 4.42422 0.88315 3.95275 1.49912 3.83568C2.01172 3.73758 2.53488 4.12573 2.65301 4.74064C3.0074 6.58433 3.33965 8.43224 3.68771 10.278C3.94085 11.6249 4.68761 12.2378 6.05666 12.2378C6.81186 12.2378 7.566 12.2325 8.32119 12.2399C9.0574 12.2472 9.50883 12.6575 9.49934 13.2957C9.4909 13.9148 9.05107 14.3103 8.3444 14.323C7.92355 14.3304 5.81512 14.3188 5.19283 14.2302L5.19388 14.2291Z" fill="#CC0000"/>
<path d="M3.78906 2.20094C3.79117 1.35504 4.48414 0.645195 5.31317 0.639921C6.13164 0.634648 6.85203 1.35187 6.86469 2.18406C6.87735 3.03313 6.14008 3.78411 5.30473 3.77145C4.47254 3.75879 3.78801 3.04895 3.79012 2.20199L3.78906 2.20094Z" fill="#CC0000"/>
</g>
<defs>
<clipPath id="clip0_2423_4770">
<rect width="16" height="16" fill="white"/>
</clipPath>
</defs>
</svg>
