<svg width="25" height="25" viewBox="0 0 25 25" fill="none" xmlns="http://www.w3.org/2000/svg">
<path d="M6.25 11.25V13.75H18.75V11.25C18.75 9.87109 19.8711 8.75 21.25 8.75H22.5C22.5 6.67969 20.8203 5 18.75 5H6.25C4.17969 5 2.5 6.67969 2.5 8.75H3.75C5.12891 8.75 6.25 9.87109 6.25 11.25ZM22.5 10H21.25C20.5586 10 20 10.5586 20 11.25V15H5V11.25C5 10.5586 4.44141 10 3.75 10H2.5C1.12109 10 0 11.1211 0 12.5C0 13.4219 0.507812 14.2188 1.25 14.6523V19.375C1.25 19.7188 1.53125 20 1.875 20H4.375C4.71875 20 5 19.7188 5 19.375V18.75H20V19.375C20 19.7188 20.2812 20 20.625 20H23.125C23.4688 20 23.75 19.7188 23.75 19.375V14.6523C24.4922 14.2188 25 13.4219 25 12.5C25 11.1211 23.8789 10 22.5 10Z" fill="#CC0000"/>
</svg>
