<svg width="16" height="16" viewBox="0 0 16 16" fill="none" xmlns="http://www.w3.org/2000/svg">
<path d="M7.91992 16C4.60742 16 1.91992 13.3125 1.91992 10C1.91992 7.15 5.98867 1.80313 7.12617 0.365625C7.31367 0.13125 7.5918 0 7.8918 0H7.94805C8.24805 0 8.52617 0.13125 8.71367 0.365625C9.85117 1.80313 13.9199 7.15 13.9199 10C13.9199 13.3125 11.2324 16 7.91992 16ZM4.91992 10.5C4.91992 10.225 4.69492 10 4.41992 10C4.14492 10 3.91992 10.225 3.91992 10.5C3.91992 12.4344 5.48555 14 7.41992 14C7.69492 14 7.91992 13.775 7.91992 13.5C7.91992 13.225 7.69492 13 7.41992 13C6.03867 13 4.91992 11.8813 4.91992 10.5Z" fill="#CC0000"/>
</svg>
