<svg width="25" height="25" viewBox="0 0 25 25" fill="none" xmlns="http://www.w3.org/2000/svg">
<path d="M17.3613 2.5C16.3457 3.44238 15.4287 4.43311 14.6162 5.42822C13.2852 3.59473 11.6348 1.73486 9.76562 0C4.96777 4.45166 1.5625 10.252 1.5625 13.75C1.5625 19.9634 6.45947 25 12.5 25C18.5405 25 23.4375 19.9634 23.4375 13.75C23.4375 11.1489 20.8994 5.78418 17.3613 2.5ZM16.4106 19.1333C15.353 19.8735 14.0488 20.3125 12.6396 20.3125C9.1167 20.3125 6.25 17.9814 6.25 14.1968C6.25 12.3115 7.43701 10.6504 9.8042 7.8125C10.1426 8.20215 14.6299 13.9326 14.6299 13.9326L17.4927 10.667C17.6948 11.0015 17.8789 11.3286 18.043 11.6421C19.3784 14.1904 18.8149 17.4512 16.4106 19.1333Z" fill="#CC0000"/>
</svg>
