<svg width="16" height="16" viewBox="0 0 16 16" fill="none" xmlns="http://www.w3.org/2000/svg">
<path d="M12.3044 6.66922L10.5639 5.14337C10.4546 5.04971 10.318 4.99507 10.1737 4.99507H8.04293V4.37068H10.0878C10.4117 4.37068 10.6732 4.10922 10.6732 3.78532C10.6732 3.46141 10.4117 3.19995 10.0878 3.19995H4.82732C4.50341 3.19995 4.24195 3.46141 4.24195 3.78532C4.24195 4.10922 4.50341 4.37068 4.82732 4.37068H6.87219V4.99507H3.00488C2.67707 4.99507 2.41561 5.26044 2.41561 5.58434V7.2819H1.17073V5.56483C1.17073 5.24873 0.917073 4.99507 0.600976 4.99507H0.569756C0.253659 4.99507 0 5.24873 0 5.56483V10.1736C0 10.4897 0.253659 10.7434 0.569756 10.7434H0.600976C0.917073 10.7434 1.17073 10.4897 1.17073 10.1736V8.45654H2.41561V10.357C2.41561 10.6848 2.68098 10.9463 3.00488 10.9463H3.53951C3.69561 10.9463 3.8478 11.0087 3.95707 11.118L5.20195 12.3629C5.31122 12.4721 5.46341 12.5346 5.61951 12.5346H11.3054C11.4615 12.5346 11.6137 12.4721 11.7229 12.3629L12.3395 11.7463C12.4488 11.637 12.5112 11.4848 12.5112 11.3287V7.1102C12.5112 6.93849 12.4371 6.77849 12.3083 6.66532L12.3044 6.66922ZM4.71415 8.65556C4.28097 8.65556 3.92976 8.30434 3.92976 7.87117C3.92976 7.438 4.28097 7.08678 4.71415 7.08678C5.14732 7.08678 5.49854 7.438 5.49854 7.87117C5.49854 8.30434 5.14732 8.65556 4.71415 8.65556ZM7.0439 8.65556C6.61073 8.65556 6.25951 8.30434 6.25951 7.87117C6.25951 7.438 6.61073 7.08678 7.0439 7.08678C7.47707 7.08678 7.82829 7.438 7.82829 7.87117C7.82829 8.30434 7.47707 8.65556 7.0439 8.65556ZM9.37366 8.65556C8.94049 8.65556 8.58927 8.30434 8.58927 7.87117C8.58927 7.438 8.94049 7.08678 9.37366 7.08678C9.80683 7.08678 10.158 7.438 10.158 7.87117C10.158 8.30434 9.80683 8.65556 9.37366 8.65556Z" fill="#CC0000"/>
<path d="M14.9194 6.3103H14.4198C13.8228 6.3103 13.3389 6.79427 13.3389 7.39128V11.4771C13.3389 12.0741 13.8228 12.5581 14.4198 12.5581H14.9194C15.5164 12.5581 16.0003 12.0741 16.0003 11.4771V7.39128C16.0003 6.79427 15.5164 6.3103 14.9194 6.3103Z" fill="#CC0000"/>
</svg>
