<svg width="16" height="16" viewBox="0 0 16 16" fill="none" xmlns="http://www.w3.org/2000/svg">
<g clip-path="url(#clip0_2423_4756)">
<path d="M2.97589 3.86394H16.0041V2.23999H2.97589C1.36412 2.23999 0.0568384 3.64065 0.0568384 5.35798C0.0568384 7.07531 1.36412 8.47597 2.97589 8.47597H13.0525C13.7671 8.47597 14.3476 9.04435 14.3476 9.74265C14.3476 10.3922 13.8401 10.9241 13.1946 10.9931V10.9728H0V12.6658H13.1946V12.6252C14.7374 12.5521 15.9716 11.2895 15.9716 9.74265C15.9716 8.19584 14.6643 6.85202 13.0525 6.85202H2.97589C2.26135 6.85202 1.68079 6.18214 1.68079 5.35798C1.68079 4.53382 2.26135 3.86394 2.97589 3.86394Z" fill="#CC0000"/>
</g>
<defs>
<clipPath id="clip0_2423_4756">
<rect width="16" height="16" fill="white"/>
</clipPath>
</defs>
</svg>
