<svg width="25" height="25" viewBox="0 0 25 25" fill="none" xmlns="http://www.w3.org/2000/svg">
<g clip-path="url(#clip0_1092_5067)">
<path d="M23.7062 1.80997C23.4631 1.26744 22.7687 1.24574 22.4779 1.75789C21.1324 4.0973 18.7235 5.55563 15.9718 5.55563H12.4996C7.89888 5.55563 4.16624 9.28827 4.16624 13.889C4.16624 14.1928 4.20097 14.4836 4.23135 14.7787C7.00045 12.7952 10.9978 11.1112 16.6662 11.1112C17.0482 11.1112 17.3607 11.4237 17.3607 11.8056C17.3607 12.1876 17.0482 12.5001 16.6662 12.5001C5.75479 12.5001 1.12805 19.1884 0.103745 21.7015C-0.182713 22.4089 0.155828 23.2162 0.863294 23.507C1.5751 23.8022 2.38239 23.4593 2.67753 22.7562C2.74263 22.5999 3.58465 20.6772 5.79819 18.8239C7.20444 20.7292 9.87805 22.5478 13.3893 22.1746C20.2036 21.6798 24.9996 15.5687 24.9996 8.08601C24.9996 5.9072 24.5308 3.65025 23.7062 1.80997Z" fill="#CC0000"/>
</g>
<defs>
<clipPath id="clip0_1092_5067">
<rect width="25" height="25" fill="white"/>
</clipPath>
</defs>
</svg>
