<svg width="25" height="25" viewBox="0 0 25 25" fill="none" xmlns="http://www.w3.org/2000/svg">
<path d="M7.08646 12.1533C6.37396 11.1475 5.95833 9.92188 5.95833 8.59375C5.95833 5.1416 8.79349 2.34375 12.2917 2.34375C15.7898 2.34375 18.625 5.1416 18.625 8.59375C18.625 9.92188 18.2094 11.1475 17.4969 12.1533C17.3138 12.4121 17.0961 12.7051 16.8635 13.0176C16.2253 13.8818 15.4633 14.917 14.8943 15.9375C14.3797 16.8652 14.1174 17.832 13.9888 18.7451H16.3984C16.5073 18.1592 16.6904 17.5879 16.9823 17.0605C17.4721 16.1816 18.0807 15.3564 18.6893 14.5312C18.9466 14.1846 19.2039 13.8379 19.4513 13.4863C20.426 12.1045 21 10.415 21 8.59375C21 3.84766 17.101 0 12.2917 0C7.48229 0 3.58333 3.84766 3.58333 8.59375C3.58333 10.415 4.15729 12.1045 5.13698 13.4912C5.38438 13.8428 5.64167 14.1895 5.89896 14.5361C6.50755 15.3564 7.11615 16.1816 7.60599 17.0654C7.89792 17.5928 8.08099 18.1641 8.18985 18.75H10.5896C10.4609 17.8369 10.1987 16.8652 9.68412 15.9424C9.1151 14.9219 8.35313 13.8867 7.71484 13.0225C7.48229 12.71 7.26953 12.417 7.08646 12.1582V12.1533ZM12.2917 6.25C13.6029 6.25 14.6667 7.2998 14.6667 8.59375C14.6667 9.02344 15.0229 9.375 15.4583 9.375C15.8938 9.375 16.25 9.02344 16.25 8.59375C16.25 6.43555 14.4786 4.6875 12.2917 4.6875C11.8563 4.6875 11.5 5.03906 11.5 5.46875C11.5 5.89844 11.8563 6.25 12.2917 6.25ZM12.2917 25C14.4786 25 16.25 23.252 16.25 21.0938V20.3125H8.33333V21.0938C8.33333 23.252 10.1047 25 12.2917 25Z" fill="#CC0000"/>
</svg>
