<svg width="16" height="16" viewBox="0 0 16 16" fill="none" xmlns="http://www.w3.org/2000/svg">
<path d="M6.25 1H1.75C1.33437 1 1 1.33437 1 1.75V6.25C1 6.55312 1.18125 6.82812 1.4625 6.94375C1.74375 7.05937 2.06562 6.99687 2.28125 6.78125L3.53125 5.53125L6 8L3.53125 10.4688L2.28125 9.21875C2.06562 9.00313 1.74375 8.94062 1.4625 9.05625C1.18125 9.17188 1 9.44687 1 9.75V14.25C1 14.6656 1.33437 15 1.75 15H6.25C6.55312 15 6.82812 14.8188 6.94375 14.5375C7.05937 14.2563 6.99687 13.9344 6.78125 13.7188L5.53125 12.4688L8 10L10.4688 12.4688L9.21875 13.7188C9.00313 13.9344 8.94062 14.2563 9.05625 14.5375C9.17188 14.8188 9.44687 15 9.75 15H14.25C14.6656 15 15 14.6656 15 14.25V9.75C15 9.44687 14.8188 9.17188 14.5375 9.05625C14.2563 8.94062 13.9344 9.00313 13.7188 9.21875L12.4688 10.4688L10 8L12.4688 5.53125L13.7188 6.78125C13.9344 6.99687 14.2563 7.05937 14.5375 6.94375C14.8188 6.82812 15 6.55312 15 6.25V1.75C15 1.33437 14.6656 1 14.25 1H9.75C9.44687 1 9.17188 1.18125 9.05625 1.4625C8.94062 1.74375 9.00313 2.06562 9.21875 2.28125L10.4688 3.53125L8 6L5.53125 3.53125L6.78125 2.28125C6.99687 2.06562 7.05937 1.74375 6.94375 1.4625C6.82812 1.18125 6.55312 1 6.25 1Z" fill="#CC0000"/>
</svg>
