<svg width="16" height="16" viewBox="0 0 16 16" fill="none" xmlns="http://www.w3.org/2000/svg">
<g clip-path="url(#clip0_2423_4746)">
<path d="M0.641012 5.26519C0.737849 5.82068 0.852794 6.91143 1.12441 7.96006C2.01641 11.4048 3.88544 14.0907 7.03461 15.7362C7.60855 16.0358 8.19193 16.1054 8.77138 15.8147C10.2759 15.0616 11.5852 14.0527 12.6181 12.6793C14.2753 10.4768 15.0988 7.95683 15.3264 5.21256C15.4311 3.95015 15.3697 3.02297 13.6888 2.35816C11.9662 1.67716 10.2806 0.897358 8.58794 0.139425C8.17067 -0.0476287 7.80458 -0.0451994 7.38732 0.141045C5.63481 0.92489 3.87285 1.69092 2.10931 2.45128C0.977186 2.93957 0.614244 3.48372 0.641012 5.26519Z" fill="#CC0000"/>
<path d="M0.641012 5.26513C0.614244 3.48366 0.977186 2.93951 2.1101 2.45122C3.87285 1.69086 5.63481 0.924829 7.3881 0.140984C7.80537 -0.0452604 8.17146 -0.0468799 8.58873 0.139364C10.2814 0.897297 11.9678 1.67709 13.6896 2.3581C15.3705 3.02291 15.4319 3.95008 15.3272 5.2125C15.0996 7.95676 14.2753 10.4775 12.6189 12.6793C11.5859 14.0526 10.2767 15.0616 8.77216 15.8147C8.19193 16.1045 7.60855 16.0357 7.0354 15.7361C3.88623 14.0907 2.0172 11.4047 1.1252 7.96C0.852794 6.91137 0.737849 5.81981 0.641012 5.26513ZM7.01178 8.99811C6.52602 8.48392 6.10324 8.0264 5.66945 7.57942C5.30257 7.20126 4.82547 7.16239 4.51449 7.46848C4.16729 7.8102 4.18619 8.26285 4.58456 8.6815C5.17188 9.29853 5.7655 9.90909 6.36384 10.514C6.79606 10.9504 7.21018 10.9537 7.63531 10.5188C8.89105 9.23456 10.1428 7.94705 11.3915 6.65548C11.7875 6.24575 11.8135 5.82953 11.4899 5.47567C11.1781 5.13557 10.7002 5.16067 10.3066 5.5534C9.90193 5.95666 9.50356 6.36883 9.10913 6.78262C8.42261 7.50249 7.74081 8.22722 7.01178 8.99811Z" fill="#CC0000"/>
<path d="M7.01139 8.99802C7.74043 8.22794 8.42222 7.50321 9.10874 6.78253C9.50396 6.36874 9.90154 5.95657 10.3062 5.55331C10.6999 5.16058 11.1777 5.13548 11.4895 5.47558C11.8131 5.82863 11.7871 6.24485 11.3911 6.65539C10.1432 7.94696 8.89066 9.23528 7.63493 10.5187C7.20979 10.9536 6.79568 10.9503 6.36345 10.5139C5.76511 9.909 5.1707 9.29844 4.58417 8.68141C4.1858 8.26276 4.16691 7.81011 4.5141 7.46839C4.82508 7.1623 5.30218 7.20117 5.66906 7.57933C6.10286 8.02631 6.52563 8.48383 7.01139 8.99802Z" fill="white"/>
</g>
<defs>
<clipPath id="clip0_2423_4746">
<rect width="16" height="16" fill="white"/>
</clipPath>
</defs>
</svg>
