<svg width="18" height="18" viewBox="0 0 18 18" fill="none" xmlns="http://www.w3.org/2000/svg">
<path d="M15.8402 3.92229V14.8727C15.8148 14.8827 15.8173 14.907 15.8116 14.9277C15.7039 15.3137 15.3777 15.5653 14.9756 15.5653C10.9969 15.566 7.01809 15.5653 3.03933 15.566C2.94514 15.566 2.85379 15.5539 2.76459 15.5239C2.37888 15.3936 2.16729 15.0839 2.16694 14.6447C2.16587 11.1334 2.16801 7.62167 2.16016 4.11032C2.15909 3.65682 2.50127 3.25541 2.99223 3.27325C3.48106 3.29109 3.97131 3.2729 4.46085 3.27968C4.57646 3.28146 4.60358 3.24507 4.59929 3.13731C4.59144 2.9375 4.5968 2.73697 4.59751 2.53645C4.59822 2.31094 4.72775 2.16108 4.92185 2.16001C5.1238 2.15859 5.25975 2.30987 5.26082 2.5393C5.26153 2.74411 5.26724 2.94892 5.25867 3.15337C5.25439 3.25755 5.29114 3.27861 5.38784 3.27825C7.8045 3.27611 10.2212 3.27611 12.6378 3.27896C12.7309 3.27896 12.7491 3.24899 12.7466 3.16443C12.7413 2.95106 12.7427 2.73733 12.7452 2.5236C12.7477 2.31094 12.8851 2.16108 13.0728 2.16001C13.2686 2.15859 13.4071 2.30809 13.4092 2.52753C13.4114 2.72769 13.4189 2.92858 13.4064 3.12803C13.3982 3.25684 13.4453 3.28075 13.5619 3.27932C14.0515 3.27397 14.541 3.27682 15.0306 3.27789C15.3428 3.27861 15.574 3.42276 15.7331 3.68537C15.7777 3.75887 15.8048 3.84272 15.8402 3.92193V3.92229ZM9.0048 14.908V14.9052C10.8652 14.9052 12.7259 14.9052 14.5863 14.9052C14.7198 14.9052 14.8532 14.9034 14.987 14.9037C15.0787 14.9037 15.1444 14.8616 15.1683 14.776C15.1843 14.7175 15.1815 14.6526 15.1815 14.5905C15.1826 13.3488 15.1829 12.1067 15.1829 10.865C15.1829 8.63072 15.1822 6.39603 15.1815 4.1617C15.1815 3.98009 15.1362 3.92621 14.972 3.9255C14.4825 3.92336 13.993 3.92657 13.5031 3.92336C13.4228 3.923 13.4046 3.95476 13.4074 4.02647C13.4117 4.12852 13.4128 4.23128 13.4067 4.33333C13.3971 4.50031 13.2708 4.63019 13.1134 4.64304C12.9415 4.65731 12.8151 4.56775 12.7638 4.40041C12.7341 4.30371 12.747 4.20595 12.7456 4.1089C12.7427 3.92585 12.7441 3.92585 12.5579 3.92585C10.239 3.92585 7.91974 3.92621 5.60085 3.92657C5.52949 3.92657 5.45813 3.93049 5.38748 3.92478C5.2915 3.91693 5.24868 3.94798 5.25796 4.05145C5.26652 4.14422 5.26545 4.23877 5.25725 4.33154C5.23941 4.52779 5.0999 4.65017 4.91079 4.64411C4.73559 4.6384 4.60536 4.50138 4.59822 4.31121C4.59466 4.22236 4.59073 4.1328 4.59822 4.04431C4.60643 3.94976 4.57182 3.92336 4.47941 3.92407C3.98987 3.92728 3.50033 3.92407 3.01043 3.92478C2.86271 3.92478 2.82917 3.96046 2.82882 4.10533C2.8281 4.59487 2.83167 5.08476 2.82489 5.5743C2.82311 5.68955 2.86914 5.70383 2.96654 5.70383C6.33159 5.70204 9.69665 5.70276 13.0613 5.70311C13.1234 5.70311 13.1862 5.70276 13.248 5.71061C13.4121 5.73166 13.5188 5.86296 13.5177 6.0353C13.5163 6.20193 13.3992 6.33466 13.2355 6.35036C13.1827 6.35536 13.1288 6.35357 13.0753 6.35357C9.71021 6.35357 6.34515 6.35357 2.9801 6.35286C2.89375 6.35286 2.82275 6.33716 2.82311 6.4756C2.82775 9.18627 2.82668 11.8969 2.82739 14.6076C2.82739 14.8745 2.86022 14.9066 3.12853 14.9066C5.08705 14.9073 7.04557 14.9066 9.00408 14.9066L9.0048 14.908Z" fill="#404252"/>
<path d="M12.077 8.9176C12.0834 8.99931 12.0099 9.07781 11.935 9.15524C11.3502 9.75967 10.765 10.3641 10.1799 10.9682C9.53619 11.6333 8.89251 12.2987 8.24847 12.9634C8.05829 13.1597 7.89131 13.1757 7.67009 13.0234C7.15343 12.6684 6.63749 12.313 6.11976 11.9594C5.9881 11.8695 5.90318 11.7553 5.93565 11.5908C5.96276 11.4531 6.05411 11.3664 6.1929 11.3321C6.30244 11.305 6.39343 11.3489 6.47906 11.4074C6.90759 11.7021 7.3379 11.9944 7.76214 12.2955C7.86598 12.3694 7.92342 12.3622 8.01262 12.2691C9.14156 11.0959 10.2751 9.92701 11.4076 8.7574C11.454 8.70958 11.4986 8.65856 11.5507 8.61789C11.6585 8.53439 11.7762 8.52226 11.8993 8.58756C12.0164 8.64964 12.0727 8.74741 12.0767 8.91689L12.077 8.9176Z" fill="#404252"/>
<path d="M14.3652 6.35461C14.1108 6.35461 14.0059 6.29859 13.9464 6.13267C13.8782 5.94249 14.0045 5.73269 14.205 5.71128C14.2971 5.70165 14.3909 5.70236 14.4837 5.707C14.6821 5.71699 14.8091 5.84865 14.8077 6.03633C14.8063 6.21902 14.6696 6.34854 14.4716 6.35425C14.4363 6.35532 14.4006 6.35425 14.3652 6.35461Z" fill="#404252"/>
</svg>
