<svg width="18" height="18" viewBox="0 0 18 18" fill="none" xmlns="http://www.w3.org/2000/svg">
<path d="M11.7687 1.46556C11.9628 1.54044 12.1662 1.59444 12.3343 1.72764C12.668 1.99296 12.8282 2.34144 12.8289 2.76264C12.8307 4.24116 12.8289 5.71932 12.8289 7.19784C12.8289 8.3718 12.8329 9.54576 12.8253 10.7194C12.8242 10.8749 12.8703 10.9087 13.0129 10.8997C13.3542 10.8781 13.6494 10.9782 13.8754 11.2511C14.0346 11.443 14.0835 11.6683 14.0911 11.907C14.0968 12.0935 14.0907 12.2803 14.095 12.4668C14.099 12.6407 14.2174 12.7663 14.3834 12.7822C14.5242 12.7955 14.661 12.6896 14.6998 12.5316C14.7124 12.4801 14.7157 12.425 14.7157 12.3718C14.7164 10.6722 14.7146 8.973 14.72 7.27344C14.7204 7.15032 14.6822 7.12368 14.5706 7.1082C13.9986 7.02864 13.6468 6.6906 13.4928 6.14484C13.4575 6.01992 13.4596 5.88276 13.4564 5.75064C13.451 5.50512 13.456 5.2596 13.4539 5.01408C13.4528 4.86936 13.4992 4.74948 13.6044 4.64616C13.9021 4.35384 14.1926 4.05432 14.4928 3.76452C14.5749 3.68532 14.5666 3.64248 14.49 3.56796C14.1912 3.27708 13.8985 2.97972 13.6044 2.6838C13.5118 2.59092 13.4402 2.49012 13.4733 2.34612C13.523 2.13012 13.7556 2.03184 13.9417 2.15172C13.9824 2.178 14.0198 2.21112 14.0544 2.24568C14.4298 2.62044 14.8032 2.99736 15.1801 3.37032C15.291 3.47976 15.3432 3.59964 15.3428 3.76056C15.3388 6.6438 15.3356 9.52704 15.3442 12.4099C15.3457 12.9326 14.9835 13.2908 14.6275 13.3837C14.1145 13.5176 13.5417 13.1407 13.4758 12.6148C13.4445 12.3646 13.464 12.1147 13.4553 11.8645C13.4463 11.601 13.0939 11.4052 12.8624 11.5319C12.8224 11.5538 12.8296 11.5891 12.8296 11.6215C12.8289 12.3977 12.8296 13.1735 12.8282 13.9496C12.8282 14.0159 12.8451 14.0465 12.9168 14.0515C13.5892 14.1005 14.0954 14.6365 14.0922 15.385C14.0911 15.6452 14.0936 15.9055 14.0907 16.1658C14.0878 16.4311 13.9654 16.5542 13.7023 16.5542C10.1854 16.5546 6.66861 16.5546 3.15177 16.5542C2.89113 16.5542 2.77377 16.438 2.77305 16.178C2.77233 15.854 2.77053 15.5297 2.78097 15.2057C2.80041 14.6146 3.31845 14.0868 3.91245 14.0548C4.02477 14.0486 4.02225 13.9939 4.02225 13.9136C4.02225 12.8772 4.02477 11.8408 4.02477 10.8047C4.02513 8.16228 4.02477 5.51952 4.02441 2.87712C4.02441 2.1438 4.30773 1.73988 4.99605 1.4958C5.02341 1.48608 5.05041 1.47528 5.07777 1.46484C7.30797 1.46484 9.53817 1.46484 11.7684 1.46484L11.7687 1.46556ZM4.66053 8.28792H4.66161C4.66161 10.1542 4.66233 12.02 4.65981 13.8863C4.65981 13.9972 4.67277 14.0479 4.80741 14.0476C7.21365 14.0429 9.61989 14.0429 12.0265 14.0468C12.1658 14.0468 12.2079 14.013 12.2076 13.869C12.2036 11.5218 12.2058 9.17424 12.2061 6.82668C12.2061 5.48604 12.2072 4.1454 12.2043 2.80476C12.2032 2.35188 11.9498 2.09088 11.5081 2.09052C9.46041 2.08908 7.41237 2.09052 5.36469 2.09268C5.18577 2.09268 5.01549 2.12544 4.87293 2.25108C4.68429 2.4174 4.65909 2.63304 4.65945 2.86596C4.66197 4.67316 4.66089 6.48036 4.66089 8.28756L4.66053 8.28792ZM8.42577 15.9293V15.9304C9.76101 15.9304 11.0962 15.9304 12.4318 15.9304C12.7314 15.9304 13.0309 15.9271 13.33 15.9332C13.4258 15.935 13.4607 15.9106 13.4564 15.8108C13.4485 15.6294 13.4524 15.4476 13.4528 15.2662C13.4528 15.1758 13.4287 15.0919 13.3869 15.0138C13.2552 14.7668 13.0413 14.6682 12.7688 14.6682C10.1275 14.6689 7.48653 14.6682 4.84521 14.6682C4.58025 14.6682 4.31493 14.666 4.04997 14.6693C3.67053 14.674 3.40305 14.9429 3.39837 15.3205C3.39657 15.4678 3.40809 15.6161 3.39513 15.7622C3.38325 15.9001 3.43221 15.9325 3.56541 15.9322C5.18541 15.9278 6.80541 15.9293 8.42577 15.9293ZM14.716 4.46328L14.6811 4.446C14.5 4.6314 14.3197 4.81716 14.1375 5.00112C14.104 5.03496 14.09 5.07024 14.0904 5.11776C14.094 5.38704 14.0889 5.65668 14.0983 5.92596C14.1076 6.19092 14.3319 6.43464 14.5843 6.47748C14.6768 6.49332 14.7243 6.48576 14.7186 6.36912C14.7081 6.15888 14.7157 5.94792 14.7157 5.73732C14.7157 5.31252 14.7157 4.88772 14.7157 4.46292L14.716 4.46328Z" fill="#5B5D6B"/>
<path d="M8.42437 7.12512C7.51141 7.12512 6.59845 7.12584 5.68513 7.12512C5.40073 7.12512 5.28481 7.00812 5.28445 6.7248C5.28409 5.52204 5.28409 4.31928 5.28445 3.11688C5.28445 2.8422 5.39353 2.72736 5.66389 2.727C7.50457 2.72592 9.34561 2.72628 11.1863 2.727C11.4577 2.727 11.5664 2.83788 11.5668 3.11256C11.5682 4.32504 11.5679 5.53752 11.5668 6.75C11.5668 7.01388 11.4556 7.12548 11.1924 7.12584C10.2697 7.12692 9.34669 7.1262 8.42401 7.1262V7.12512H8.42437ZM8.43373 3.3516V3.35052C7.63849 3.35052 6.84325 3.35232 6.04801 3.34836C5.94181 3.34764 5.90473 3.36996 5.90545 3.48552C5.91049 4.44276 5.91121 5.4 5.90545 6.35688C5.90473 6.4854 5.94829 6.50772 6.06493 6.50736C7.64065 6.5034 9.21637 6.50304 10.7921 6.50736C10.9152 6.50736 10.9465 6.47568 10.9462 6.35364C10.9411 5.3964 10.9411 4.43916 10.9469 3.48228C10.9476 3.3642 10.9084 3.34908 10.8043 3.34944C10.0141 3.35376 9.22393 3.35196 8.43337 3.35196L8.43373 3.3516Z" fill="#5B5D6B"/>
</svg>
