<svg width="18" height="18" viewBox="0 0 18 18" fill="none" xmlns="http://www.w3.org/2000/svg">
<path d="M8.76998 4.7761C8.76998 5.1991 8.7743 5.6221 8.7671 6.0451C8.7653 6.16138 8.79914 6.21286 8.91614 6.2125C9.03422 6.2125 9.1469 6.25642 9.2621 6.26974C9.47666 6.29422 9.56486 6.45442 9.53606 6.59302C9.50258 6.75322 9.36218 6.81658 9.1523 6.76978C8.48018 6.62038 7.82858 6.68554 7.22306 7.0135C6.16322 7.5877 5.64266 8.49958 5.69306 9.69658C5.74814 11.0055 6.7511 12.0945 8.0417 12.3163C9.5717 12.5791 11.0761 11.5038 11.3058 9.9817C11.3631 9.60262 11.3515 9.22642 11.2565 8.8531C11.2133 8.68354 11.2975 8.53414 11.4466 8.50102C11.5924 8.46862 11.713 8.5561 11.7569 8.72998C11.7907 8.86426 11.8213 8.99926 11.8264 9.13858C11.8296 9.22426 11.857 9.27106 11.9607 9.2707C12.8283 9.26674 13.6955 9.26746 14.5631 9.26998C14.6538 9.26998 14.6819 9.24622 14.6743 9.15082C14.6268 8.54674 14.5141 7.95706 14.3021 7.3879C14.2873 7.3483 14.2715 7.30762 14.2647 7.26622C14.2405 7.1197 14.3086 7.00558 14.4403 6.96454C14.5617 6.9271 14.6949 6.99226 14.7485 7.1269C14.8893 7.47898 14.9958 7.84186 15.0653 8.21446C15.4235 10.1369 15.0444 11.9016 13.8906 13.4802C12.9125 14.8187 11.6007 15.6819 9.98066 16.0405C8.13314 16.4495 6.40226 16.1298 4.82042 15.0908C3.6569 14.3265 2.8235 13.2815 2.30294 11.9876C1.94474 11.097 1.78562 10.1707 1.83494 9.21526C1.91774 7.61722 2.49446 6.21466 3.57194 5.02774C4.58282 3.91426 5.83814 3.22234 7.3127 2.94766C8.52446 2.72194 9.71534 2.83894 10.8724 3.26914C11.0373 3.33034 11.1186 3.46678 11.0743 3.60142C11.0236 3.75586 10.8727 3.81886 10.6913 3.75154C10.1128 3.53626 9.51554 3.41422 8.90066 3.36382C8.78114 3.3541 8.76746 3.39226 8.76818 3.49054C8.77142 3.91894 8.76962 4.34734 8.76962 4.77574L8.76998 4.7761ZM8.76998 14.2769C8.76998 14.7107 8.77178 15.1441 8.76854 15.5779C8.76782 15.6665 8.78654 15.7039 8.88518 15.6873C9.03242 15.6629 9.18218 15.6531 9.33014 15.6341C10.5743 15.4739 11.659 14.9634 12.6033 14.1433C12.6684 14.0868 12.6846 14.0565 12.613 13.9856C12.0006 13.3794 11.3915 12.7695 10.7853 12.1568C10.7079 12.0783 10.6611 12.0823 10.5761 12.1489C10.0861 12.5327 9.53426 12.7739 8.9111 12.8351C8.79374 12.8466 8.7653 12.8941 8.7671 13.0075C8.7743 13.4301 8.76998 13.8535 8.76998 14.2761V14.2769ZM3.77318 9.78154V9.78046C3.33938 9.78046 2.90558 9.78118 2.47214 9.77974C2.39474 9.77974 2.33426 9.78082 2.34866 9.88882C2.37386 10.0793 2.38106 10.2722 2.41202 10.4612C2.60642 11.6366 3.08558 12.6795 3.86642 13.5835C3.95534 13.6865 4.00034 13.6753 4.0871 13.5875C4.67786 12.9902 5.2715 12.3955 5.87054 11.8062C5.96198 11.7162 5.94794 11.6629 5.8781 11.5725C5.50082 11.0851 5.26502 10.5368 5.20058 9.9205C5.18978 9.81754 5.15522 9.77614 5.04254 9.77794C4.61954 9.78514 4.19654 9.78082 3.77354 9.78082L3.77318 9.78154ZM13.2664 9.78118C12.8437 9.78118 12.4207 9.78766 11.9985 9.77722C11.8678 9.77398 11.8354 9.8269 11.8239 9.93742C11.7598 10.5541 11.5189 11.0995 11.1402 11.5841C11.0697 11.6744 11.0635 11.7169 11.1489 11.8008C11.7511 12.3937 12.3495 12.9909 12.9427 13.5932C13.0381 13.6901 13.0806 13.6753 13.1627 13.5803C14.0757 12.5215 14.5703 11.2928 14.6769 9.9025C14.6851 9.79234 14.6416 9.77938 14.5509 9.7801C14.1228 9.78334 13.6948 9.78154 13.2667 9.7819L13.2664 9.78118ZM8.25626 14.2765C8.25626 13.8539 8.25086 13.4312 8.25986 13.0089C8.26238 12.8909 8.22386 12.8487 8.1137 12.8376C7.4747 12.7721 6.91382 12.5168 6.41342 12.1226C6.3551 12.0769 6.32774 12.0711 6.27302 12.1262C5.65526 12.7483 5.03498 13.3686 4.4129 13.9867C4.35242 14.0468 4.35134 14.0799 4.4165 14.1368C4.95578 14.6081 5.55374 14.9814 6.21866 15.2514C6.83678 15.5027 7.48046 15.6297 8.14142 15.6899C8.23934 15.6989 8.25878 15.665 8.25806 15.5765C8.25446 15.1434 8.25662 14.7099 8.25626 14.2769V14.2765ZM8.25662 4.77358H8.25626C8.25626 4.34554 8.25338 3.9175 8.25842 3.48946C8.2595 3.38506 8.23646 3.34474 8.12414 3.36526C7.98806 3.39046 7.84874 3.39838 7.71086 3.4153C6.47642 3.56614 5.4011 4.06978 4.46006 4.8751C4.36394 4.95718 4.35638 5.0065 4.44998 5.09902C5.05118 5.69338 5.6477 6.29206 6.24278 6.89254C6.3119 6.96238 6.35798 6.97282 6.43862 6.9091C6.93506 6.51598 7.49594 6.27334 8.12882 6.2089C8.2271 6.19882 8.2613 6.15994 8.25986 6.05734C8.2541 5.6293 8.25734 5.20126 8.25734 4.77322L8.25662 4.77358ZM3.7667 9.26854C4.18934 9.26854 4.61198 9.26458 5.03462 9.27142C5.14226 9.27322 5.18582 9.24154 5.19734 9.13498C5.26682 8.4985 5.50802 7.93186 5.9105 7.43506C5.96054 7.3735 5.96414 7.33714 5.9051 7.27882C5.29022 6.66826 4.67642 6.05626 4.06658 5.44066C3.98666 5.36002 3.94634 5.37766 3.8801 5.45362C3.6227 5.74882 3.3941 6.06418 3.19502 6.40078C2.69174 7.25146 2.42678 8.17522 2.34974 9.15766C2.34182 9.2599 2.38394 9.2707 2.46674 9.26998C2.90018 9.26746 3.33362 9.2689 3.7667 9.26926V9.26854Z" fill="#5B5D6B"/>
<path d="M16.2262 3.11326C16.2006 3.63166 15.9533 4.01038 15.4997 4.25878C15.3262 4.35382 15.1516 4.44922 14.9626 4.50826C14.811 4.55578 14.843 4.6105 14.9316 4.69258C15.0335 4.78726 15.1314 4.88626 15.2279 4.9867C15.5472 5.31898 15.5497 5.74126 15.2336 6.07498C15.1415 6.17218 15.0461 6.26614 14.9496 6.35902C14.7833 6.51922 14.6724 6.5203 14.509 6.36082C14.3174 6.17398 14.1241 5.98822 13.9409 5.79346C13.8527 5.69986 13.798 5.6887 13.7008 5.78806C13.2061 6.29242 12.7036 6.78886 12.2042 7.28926C12.0221 7.47178 11.8162 7.60822 11.5512 7.63054C11.4846 7.6363 11.4482 7.68202 11.4068 7.72342C11.1952 7.93546 10.9853 8.14966 10.7707 8.35882C10.5238 8.59966 10.194 8.66122 9.89879 8.5291C9.60179 8.3959 9.42359 8.09494 9.44627 7.74934C9.45851 7.56106 9.54455 7.40338 9.67775 7.27054C9.89015 7.05922 10.1011 6.8461 10.3135 6.63478C10.3596 6.5887 10.4017 6.54442 10.4082 6.4735C10.4312 6.22762 10.5518 6.03106 10.7232 5.86006C11.234 5.34922 11.7424 4.83586 12.2564 4.32862C12.3396 4.24654 12.3486 4.19902 12.2586 4.11514C12.0592 3.92902 11.8694 3.7321 11.6783 3.53698C11.5192 3.37498 11.5188 3.25438 11.674 3.09418C11.7708 2.9941 11.8684 2.8951 11.9684 2.79826C12.2752 2.50198 12.7075 2.49478 13.0222 2.78386C13.1482 2.89978 13.268 3.02218 13.3872 3.14566C13.4466 3.20722 13.4686 3.20362 13.5042 3.12046C13.6241 2.84074 13.7353 2.55418 13.9272 2.3137C14.271 1.88278 14.7253 1.7233 15.2538 1.85506C15.7492 1.97818 16.0642 2.31118 16.1905 2.81158C16.2154 2.90986 16.2355 3.00994 16.2262 3.11434V3.11326ZM10.2055 8.07982C10.3085 8.07838 10.3747 8.02834 10.437 7.9657C10.6667 7.73422 10.9007 7.50706 11.1268 7.27198C11.2178 7.1773 11.3172 7.12222 11.449 7.12222C11.5904 7.12222 11.7053 7.05922 11.8036 6.96058C12.3212 6.44218 12.8378 5.9227 13.3584 5.40718C13.4293 5.33698 13.4426 5.29378 13.3624 5.21854C13.1791 5.04682 13.0016 4.8679 12.8296 4.68502C12.7547 4.60546 12.7079 4.59934 12.6265 4.68142C12.1117 5.2027 11.5919 5.71858 11.0731 6.23626C10.9954 6.31366 10.9219 6.40546 10.9255 6.51238C10.9331 6.73738 10.8078 6.87598 10.6602 7.01566C10.4503 7.21402 10.2491 7.42138 10.0475 7.62838C9.96395 7.71442 9.92579 7.81486 9.98483 7.93474C10.0327 8.03194 10.1123 8.07226 10.2052 8.07946L10.2055 8.07982ZM14.8898 2.32594C14.6724 2.33566 14.4456 2.44474 14.2908 2.68342C14.1155 2.95414 14.0064 3.25582 13.8948 3.55606C13.8707 3.62122 13.8962 3.65326 13.9376 3.69358C14.0752 3.82822 14.2105 3.96538 14.3452 4.1029C14.3797 4.13818 14.4103 4.17454 14.4679 4.1515C14.7991 4.01866 15.1454 3.91426 15.4298 3.6871C15.6858 3.48262 15.774 3.14674 15.6653 2.8339C15.5645 2.54338 15.2668 2.33134 14.8898 2.32558V2.32594ZM12.5171 3.09526C12.372 3.0841 12.2903 3.18202 12.2291 3.27634C12.169 3.3685 12.2863 3.41026 12.3353 3.46066C12.5768 3.7105 12.8249 3.9535 13.0704 4.19938C13.5881 4.71742 14.1047 5.23618 14.6242 5.75206C14.6598 5.78734 14.6936 5.8705 14.7653 5.81542C14.9197 5.69626 15.0464 5.53282 14.8492 5.3359C14.1299 4.61806 13.4113 3.89986 12.6928 3.18166C12.6424 3.13126 12.5894 3.0877 12.5174 3.09562L12.5171 3.09526Z" fill="#5B5D6B"/>
<path d="M8.50492 11.3231C7.68556 11.3299 6.94432 10.4767 7.34212 9.51769C7.58908 8.92153 7.92748 8.37865 8.2936 7.85161C8.40772 7.68745 8.605 7.67233 8.71264 7.82713C9.11944 8.40997 9.5068 9.00397 9.73828 9.68581C9.9964 10.4465 9.3934 11.3281 8.50492 11.3231ZM8.50492 10.8108C8.99848 10.8155 9.37612 10.3583 9.25408 9.88525C9.12412 9.38161 8.83468 8.95465 8.56504 8.51941C8.51284 8.43553 8.4862 8.48377 8.45596 8.53129C8.19424 8.94097 7.93756 9.35425 7.78528 9.81973C7.62652 10.3046 7.99444 10.8058 8.50492 10.8108Z" fill="#5B5D6B"/>
<path d="M11.0283 2.77269C10.8468 2.71581 10.6351 2.64453 10.4202 2.58333C10.0455 2.47677 9.66099 2.41917 9.27615 2.36229C9.10407 2.33673 9.00687 2.21145 9.03099 2.06745C9.05583 1.91841 9.20055 1.83453 9.37191 1.85649C9.93351 1.92813 10.485 2.04153 11.0193 2.23197C11.0794 2.25357 11.142 2.27121 11.1978 2.30109C11.3152 2.36409 11.3695 2.46705 11.3299 2.59557C11.2914 2.72049 11.2 2.78889 11.0283 2.77269Z" fill="#5B5D6B"/>
<path d="M15.5198 6.69745C15.6386 6.70321 15.7239 6.77773 15.7664 6.89833C15.9302 7.36021 16.058 7.83181 16.1296 8.31781C16.135 8.35453 16.1444 8.39089 16.1509 8.42761C16.1764 8.57521 16.0879 8.71669 15.9511 8.74729C15.8132 8.77825 15.6753 8.68609 15.649 8.53021C15.5641 8.02441 15.4496 7.52689 15.2739 7.04377C15.212 6.87385 15.3362 6.70393 15.5198 6.69745Z" fill="#5B5D6B"/>
<path d="M8.50732 1.81332C8.64412 1.81116 8.7658 1.92708 8.76976 2.06316C8.77408 2.20068 8.65924 2.31948 8.51956 2.32272C8.37952 2.32596 8.26 2.21292 8.25784 2.0754C8.25568 1.93716 8.37124 1.81548 8.50732 1.81332Z" fill="#5B5D6B"/>
<path d="M16.2248 9.53749C16.2194 9.67249 16.0942 9.78481 15.9566 9.77833C15.8216 9.77185 15.7054 9.64441 15.7133 9.51157C15.7212 9.37801 15.8504 9.26101 15.9815 9.26893C16.1158 9.27721 16.2306 9.40357 16.2248 9.53749Z" fill="#5B5D6B"/>
</svg>
