<svg width="25" height="25" viewBox="0 0 25 25" fill="none" xmlns="http://www.w3.org/2000/svg">
<path d="M0.556591 6.13191H4.86044C5.11577 7.28792 6.15173 8.15493 7.38736 8.15493C8.62299 8.15493 9.65895 7.28722 9.91429 6.13191H24.4434C24.7509 6.13191 25 5.88379 25 5.57746C25 5.27113 24.7509 5.02302 24.4434 5.02302H9.91429C9.65825 3.8677 8.62299 3 7.38666 3C6.15034 3 5.11508 3.8677 4.85974 5.02302H0.556591C0.249075 5.02302 0 5.27113 0 5.57746C0 5.88379 0.249075 6.13191 0.556591 6.13191ZM7.38666 4.10888C8.20138 4.10888 8.86094 4.76659 8.86094 5.57746C8.86094 6.38833 8.20068 7.04604 7.38666 7.04604C6.57265 7.04604 5.91239 6.38833 5.91239 5.57746C5.91239 4.76659 6.57265 4.10888 7.38666 4.10888Z" fill="#CC0000"/>
<path d="M24.4434 11.9196H21.6841C21.4288 10.7636 20.3928 9.89655 19.1572 9.89655C17.9215 9.89655 16.8856 10.7642 16.6303 11.9196H0.556591C0.249075 11.9196 0 12.1677 0 12.474C0 12.7803 0.249075 13.0285 0.556591 13.0285H16.6303C16.8856 14.1845 17.9215 15.0515 19.1572 15.0515C20.3928 15.0515 21.4288 14.1838 21.6841 13.0285H24.4434C24.7509 13.0285 25 12.7803 25 12.474C25 12.1677 24.7509 11.9196 24.4434 11.9196ZM19.1572 13.9426C18.3425 13.9426 17.6829 13.2849 17.6829 12.474C17.6829 11.6631 18.3432 11.0054 19.1572 11.0054C19.9712 11.0054 20.6315 11.6631 20.6315 12.474C20.6315 13.2849 19.9712 13.9426 19.1572 13.9426Z" fill="#CC0000"/>
<path d="M24.4434 18.8154H13.6428C13.3874 17.6594 12.3515 16.7924 11.1158 16.7924C9.88019 16.7924 8.84424 17.6601 8.5889 18.8154H0.556591C0.249075 18.8154 0 19.0636 0 19.3699C0 19.6762 0.249075 19.9243 0.556591 19.9243H8.5889C8.84424 21.0803 9.88019 21.9473 11.1158 21.9473C12.3515 21.9473 13.3874 21.0796 13.6428 19.9243H24.4434C24.7509 19.9243 25 19.6762 25 19.3699C25 19.0636 24.7509 18.8154 24.4434 18.8154ZM11.1158 20.8385C10.3011 20.8385 9.64156 20.1808 9.64156 19.3699C9.64156 18.559 10.3018 17.9013 11.1158 17.9013C11.9298 17.9013 12.5901 18.559 12.5901 19.3699C12.5901 20.1808 11.9298 20.8385 11.1158 20.8385Z" fill="#CC0000"/>
</svg>
