<svg width="18" height="18" viewBox="0 0 18 18" fill="none" xmlns="http://www.w3.org/2000/svg">
<path d="M8.81093 14.3284L8.99993 14.4738L9.18893 14.3284C9.20189 14.3183 10.499 13.3182 11.7845 11.9243C13.5356 10.026 14.4233 8.3448 14.4233 6.92676C14.4233 3.93624 11.9905 1.503 8.99957 1.503C6.00869 1.503 3.57617 3.93624 3.57617 6.92676C3.57617 8.34444 4.46393 10.026 6.21497 11.9243C7.50053 13.3182 8.79761 14.3183 8.81057 14.3284H8.81093ZM4.19681 6.92676C4.19681 4.27824 6.35141 2.12364 8.99993 2.12364C11.6485 2.12364 13.8031 4.27824 13.8031 6.92676C13.8031 9.57528 9.94817 12.9139 8.99993 13.6854C8.05169 12.9143 4.19681 9.612 4.19681 6.92676Z" fill="#5B5D6B"/>
<path d="M12.0331 6.60492C12.0331 4.93272 10.6726 3.57228 9.00041 3.57228C7.32821 3.57228 5.96777 4.93272 5.96777 6.60492C5.96777 8.27712 7.32821 9.63756 9.00041 9.63756C10.6726 9.63756 12.0331 8.27712 12.0331 6.60492ZM11.4124 6.60492C11.4124 7.93512 10.3303 9.01692 9.00041 9.01692C7.67057 9.01692 6.58841 7.93476 6.58841 6.60492C6.58841 5.27508 7.67057 4.19292 9.00041 4.19292C10.3303 4.19292 11.4124 5.27508 11.4124 6.60492Z" fill="#5B5D6B"/>
<path d="M12.2885 12.8822L11.8237 13.347C11.8774 13.3668 11.9307 13.3873 11.9818 13.4082C12.6665 13.6894 13.0751 14.0598 13.0751 14.3989C13.0751 14.738 12.6665 15.1085 11.9818 15.3896C11.1916 15.7144 10.1343 15.8929 9.00493 15.8929C7.87561 15.8929 6.81829 15.714 6.02809 15.3896C5.34337 15.1085 4.93477 14.738 4.93477 14.3989C4.93477 14.0598 5.34337 13.6894 6.02809 13.4082C6.08173 13.3862 6.13681 13.365 6.19333 13.3445L5.72821 12.8794C4.82641 13.2664 4.33105 13.8042 4.33105 14.3989C4.33105 14.9936 4.85233 15.5592 5.79877 15.9484C6.65989 16.3022 7.79857 16.497 9.00493 16.497C10.2113 16.497 11.35 16.3022 12.2111 15.9484C13.1575 15.5596 13.6788 15.0091 13.6788 14.3989C13.6788 13.7887 13.1856 13.2689 12.2881 12.8822H12.2885Z" fill="#5B5D6B"/>
</svg>
