<svg width="18" height="18" viewBox="0 0 18 18" fill="none" xmlns="http://www.w3.org/2000/svg">
<path d="M3.27568 6.14556C3.4492 5.8302 3.61804 5.53932 3.77212 5.24088C4.1062 4.59324 4.54612 4.05 5.20528 3.70368C5.69164 3.44844 6.2086 3.34296 6.75256 3.34296C8.26672 3.34296 9.78088 3.34152 11.295 3.34404C12.5903 3.3462 13.5508 3.9186 14.1783 5.05116C14.3759 5.40756 14.5736 5.76432 14.7716 6.12216C14.8389 6.10668 14.8346 6.04116 14.8648 6.00264C15.0066 5.82444 15.183 5.715 15.4174 5.715C15.7097 5.715 16.002 5.7132 16.2944 5.71572C16.65 5.71824 16.8873 5.9562 16.8884 6.30828C16.8891 6.4836 16.8891 6.65892 16.8887 6.8346C16.888 7.20252 16.6572 7.43184 16.285 7.43436C16.1687 7.43508 16.0524 7.43436 15.9113 7.43436C16.0024 7.53984 16.0841 7.6248 16.1547 7.71804C16.3145 7.92864 16.3962 8.1684 16.3966 8.433C16.3977 9.61992 16.4002 10.8065 16.3959 11.9934C16.3944 12.3613 16.2281 12.6558 15.9351 12.8729C15.8595 12.9287 15.8325 12.9845 15.8339 13.0752C15.839 13.3733 15.8364 13.6714 15.8364 13.9698C15.8364 14.3665 15.5603 14.7024 15.1636 14.7341C14.6045 14.7784 14.0418 14.7776 13.4824 14.7334C13.1152 14.7042 12.8348 14.3784 12.8214 14.0094C12.8146 13.8168 12.8139 13.6235 12.8214 13.4309C12.8254 13.3232 12.7966 13.2926 12.6839 13.3009C11.1852 13.4111 9.6844 13.4622 8.18176 13.4327C7.25908 13.4143 6.3364 13.3776 5.41624 13.3009C5.28592 13.2901 5.22328 13.3114 5.23696 13.4604C5.25028 13.6055 5.2402 13.7524 5.2402 13.8985C5.2402 14.4155 4.94032 14.7409 4.42912 14.7532C3.96184 14.7643 3.49348 14.7636 3.0262 14.7524C2.52508 14.7402 2.2234 14.4144 2.22268 13.909C2.22232 13.6282 2.2198 13.3477 2.22448 13.0673C2.22592 12.9838 2.20324 12.9316 2.13232 12.8797C1.813 12.6472 1.66 12.3293 1.66072 11.9333C1.66252 10.8576 1.67224 9.78156 1.6564 8.70624C1.64956 8.22708 1.74064 7.80372 2.13412 7.46928C2.0002 7.4124 1.8796 7.43904 1.76368 7.43688C1.40944 7.43004 1.17256 7.19712 1.1704 6.84432C1.16896 6.65136 1.16788 6.4584 1.17076 6.26544C1.17544 5.96628 1.41808 5.72076 1.71724 5.7168C2.03296 5.71284 2.34868 5.71104 2.6644 5.71752C2.94736 5.72328 3.13852 5.88024 3.27568 6.14628V6.14556ZM9.04072 12.8696C9.409 12.8696 9.77764 12.8801 10.1456 12.8675C11.1672 12.8329 12.1878 12.7829 13.2074 12.7051C13.9058 12.6522 14.6042 12.6043 15.3004 12.5273C15.659 12.4877 15.8368 12.2792 15.8368 11.92C15.8368 10.7683 15.835 9.61668 15.8386 8.46504C15.8393 8.26452 15.7731 8.10324 15.6294 7.96608C15.3886 7.73604 15.1409 7.5114 14.9174 7.26552C14.7845 7.11936 14.6459 7.0992 14.4674 7.12548C13.531 7.26372 12.5882 7.3386 11.6442 7.39332C10.4822 7.46064 9.31864 7.43472 8.15548 7.43724C7.02688 7.4394 5.90188 7.3764 4.77904 7.26336C4.3672 7.22196 3.95464 7.18632 3.54568 7.11972C3.39664 7.0956 3.28252 7.12836 3.17236 7.24356C2.92648 7.50132 2.66584 7.74504 2.40952 7.99272C2.28496 8.11296 2.2216 8.25876 2.2216 8.43012C2.2216 9.60516 2.22088 10.7802 2.2234 11.9552C2.22412 12.2717 2.42752 12.4938 2.74576 12.5258C3.61696 12.6137 4.4896 12.6817 5.36332 12.7386C6.58804 12.8182 7.81276 12.8851 9.04072 12.8689V12.8696ZM9.04756 3.91824C9.04756 3.91428 9.04756 3.91032 9.04756 3.90636C8.2876 3.90636 7.52728 3.9096 6.76732 3.90528C5.92276 3.9006 5.2042 4.1886 4.67968 4.85784C4.2862 5.35968 4.03924 5.95548 3.721 6.50592C3.6724 6.5898 3.72784 6.58944 3.78508 6.5952C4.13896 6.63048 4.49284 6.66684 4.84636 6.70248C5.85832 6.80472 6.8728 6.8616 7.88944 6.87384C10.0109 6.89904 12.1302 6.87024 14.2395 6.59916C14.3662 6.58296 14.3723 6.55452 14.3162 6.45516C14.0634 6.00804 13.8309 5.54904 13.5609 5.11272C13.1066 4.37868 12.4355 3.96 11.5726 3.92544C10.732 3.89196 9.88924 3.91824 9.04756 3.91824ZM14.3457 14.1937C14.3457 14.1937 14.3457 14.1919 14.3457 14.1912C14.5617 14.1912 14.7777 14.1944 14.9933 14.1901C15.21 14.1858 15.2741 14.1185 15.2752 13.9057C15.2763 13.684 15.2698 13.4618 15.2788 13.2404C15.2835 13.1296 15.2514 13.1026 15.1424 13.1126C14.5854 13.1645 14.0282 13.212 13.4702 13.2538C13.3838 13.2602 13.3787 13.3002 13.3791 13.3639C13.3805 13.5446 13.3791 13.7257 13.3805 13.9064C13.382 14.1188 13.4453 14.1869 13.6628 14.1919C13.8903 14.1973 14.1178 14.193 14.3453 14.193L14.3457 14.1937ZM3.71524 14.1912C3.71524 14.1912 3.71524 14.1898 3.71524 14.189C3.94312 14.189 4.171 14.1937 4.39888 14.1876C4.62208 14.1818 4.67788 14.1199 4.67896 13.9018C4.67968 13.7264 4.67716 13.5511 4.68004 13.3758C4.68112 13.3034 4.67392 13.2595 4.5814 13.2527C4.02304 13.2109 3.46468 13.1645 2.90704 13.1137C2.7994 13.104 2.77996 13.1472 2.78176 13.2397C2.78608 13.4615 2.7832 13.6836 2.78428 13.9057C2.785 14.1142 2.84368 14.1826 3.0496 14.189C3.27136 14.1962 3.49348 14.1905 3.7156 14.1905L3.71524 14.1912ZM2.26408 6.87636V6.87492C2.33392 6.87492 2.40412 6.87492 2.47396 6.87492C2.5438 6.87492 2.61436 6.87888 2.68384 6.8742C2.86384 6.86196 2.92972 6.71256 2.86276 6.55452C2.7634 6.32052 2.6068 6.23268 2.362 6.27588C2.30548 6.28596 2.24572 6.27624 2.1874 6.27768C2.04268 6.28128 1.85116 6.23088 1.76548 6.30396C1.66396 6.39036 1.74748 6.58908 1.72912 6.73776C1.71616 6.84288 1.75 6.88608 1.86196 6.87852C1.99552 6.86952 2.13016 6.87636 2.26444 6.87636H2.26408ZM15.7943 6.87492V6.87564C15.8177 6.87564 15.8411 6.87564 15.8642 6.87564C16.3523 6.876 16.3491 6.876 16.3304 6.38892C16.3268 6.29244 16.2936 6.27264 16.2069 6.27552C16.0323 6.28092 15.8552 6.29316 15.6827 6.273C15.4516 6.24636 15.3058 6.31944 15.2068 6.53724C15.1193 6.72948 15.1881 6.8688 15.4095 6.87456C15.5376 6.8778 15.6662 6.87528 15.7943 6.87528V6.87492Z" fill="#5B5D6B"/>
<path d="M9.01159 12.3037C8.33335 12.3037 7.65547 12.3048 6.97723 12.3037C6.25903 12.3023 5.89147 11.8454 6.04699 11.1478C6.10495 10.8875 6.16327 10.6268 6.22591 10.3676C6.32887 9.9414 6.66079 9.68328 7.10107 9.68328C8.38123 9.68328 9.66139 9.68328 10.9415 9.684C11.4081 9.684 11.7281 9.93672 11.8347 10.3885C11.8984 10.6585 11.9596 10.9289 12.0219 11.1989C12.1634 11.8138 11.7865 12.2972 11.1511 12.3026C10.4379 12.3084 9.72475 12.3041 9.01159 12.3044V12.3037ZM9.03211 11.7421V11.7428C9.73267 11.7428 10.4336 11.7439 11.1341 11.7425C11.4239 11.7418 11.5402 11.5996 11.4776 11.3162C11.4171 11.0441 11.3401 10.7752 11.2835 10.5023C11.2457 10.3198 11.1349 10.2445 10.9642 10.2442C9.67363 10.2424 8.38303 10.2431 7.09279 10.2442C6.92791 10.2442 6.81703 10.3176 6.77959 10.4886C6.72271 10.75 6.66079 11.0099 6.60139 11.2705C6.51967 11.6298 6.61075 11.7421 6.98191 11.7421C7.66519 11.7421 8.34847 11.7421 9.03175 11.7421H9.03211Z" fill="#5B5D6B"/>
<path d="M4.10257 9.10944C4.34197 9.10944 4.58137 9.10584 4.82077 9.11016C5.17069 9.117 5.39893 9.34128 5.41009 9.69012C5.41621 9.8766 5.41477 10.0638 5.40901 10.2506C5.39857 10.5901 5.15701 10.8302 4.81465 10.8338C4.33009 10.8385 3.84553 10.8389 3.36097 10.8324C3.03193 10.8281 2.79001 10.5793 2.78461 10.2521C2.78137 10.0595 2.78137 9.86688 2.78497 9.67428C2.79109 9.35136 3.01105 9.12132 3.33181 9.1116C3.58849 9.10404 3.84553 9.11016 4.10221 9.11016C4.10221 9.11016 4.10221 9.1098 4.10221 9.10944H4.10257ZM4.09609 9.67284C4.09609 9.67284 4.09609 9.67104 4.09609 9.67032C3.99709 9.67032 3.89773 9.67032 3.79873 9.67032C3.31957 9.6696 3.32353 9.6696 3.34117 10.1527C3.34513 10.2582 3.38581 10.2784 3.47725 10.2776C3.89125 10.2744 4.30561 10.2737 4.71961 10.2762C4.80493 10.2769 4.85137 10.2586 4.84741 10.1617C4.84201 10.0393 4.84237 9.91656 4.84741 9.79452C4.85101 9.70488 4.81825 9.6696 4.72645 9.67176C4.51657 9.67608 4.30669 9.6732 4.09645 9.6732L4.09609 9.67284Z" fill="#5B5D6B"/>
<path d="M13.9738 9.11016C14.2136 9.11016 14.453 9.10656 14.6927 9.11088C15.0408 9.11772 15.2712 9.35172 15.2748 9.6966C15.2766 9.87768 15.277 10.0591 15.2756 10.2402C15.2723 10.5721 15.0408 10.8252 14.7111 10.8313C14.2146 10.8407 13.7175 10.8392 13.2207 10.8313C12.9039 10.8263 12.6677 10.5818 12.6537 10.2564C12.6454 10.0638 12.6454 9.87048 12.6537 9.67788C12.6677 9.3384 12.8974 9.11628 13.2376 9.11016C13.4831 9.10584 13.7286 9.10944 13.9738 9.1098V9.11016ZM13.9684 10.274C14.0674 10.274 14.1668 10.274 14.2658 10.274C14.7208 10.274 14.7154 10.274 14.7179 9.82116C14.7186 9.69264 14.6736 9.66636 14.5577 9.66888C14.2604 9.67536 13.963 9.67032 13.6656 9.6696C13.1764 9.66852 13.1789 9.66816 13.2117 10.1585C13.2178 10.2514 13.2513 10.2773 13.3388 10.2755C13.5486 10.2708 13.7585 10.274 13.9684 10.274Z" fill="#5B5D6B"/>
<path d="M4.11413 11.4253C4.40609 11.4253 4.69805 11.4224 4.98965 11.4264C5.18585 11.4289 5.30933 11.538 5.30969 11.6982C5.30969 11.8577 5.18441 11.9844 4.99757 11.9858C4.39637 11.9905 3.79517 11.9905 3.19397 11.9851C2.99741 11.9833 2.88689 11.8688 2.88869 11.6978C2.89049 11.5294 3.00245 11.4293 3.20369 11.4271C3.50717 11.4239 3.81065 11.4264 4.11449 11.4264V11.4257L4.11413 11.4253Z" fill="#5B5D6B"/>
<path d="M13.9652 11.425C14.2625 11.425 14.5599 11.4221 14.8572 11.426C15.0588 11.4286 15.1683 11.5286 15.1704 11.6989C15.1726 11.8674 15.0617 11.9826 14.8655 11.9844C14.265 11.9898 13.6642 11.9891 13.0637 11.9833C12.8772 11.9815 12.752 11.8537 12.752 11.6957C12.752 11.5344 12.8722 11.4293 13.0727 11.4268C13.3701 11.4232 13.6674 11.4257 13.9648 11.4257V11.4246L13.9652 11.425Z" fill="#5B5D6B"/>
</svg>
