<svg width="18" height="18" viewBox="0 0 18 18" fill="none" xmlns="http://www.w3.org/2000/svg">
<g clip-path="url(#clip0_2735_5930)">
<path d="M0.000393864 5.38703C0.0890134 5.11248 0.152426 4.82929 0.316273 4.58298C0.73889 3.94797 1.33166 3.61929 2.09418 3.60517C2.62708 3.59537 3.15997 3.60321 3.69327 3.60282C3.84294 3.60282 3.97961 3.63498 4.03435 3.79266C4.10052 3.98406 3.96385 4.14879 3.7295 4.15585C3.46601 4.1633 3.20251 4.15703 2.93902 4.15742C2.63456 4.1582 2.32971 4.15311 2.02525 4.16213C1.22019 4.18605 0.569922 4.81478 0.565983 5.61334C0.555743 7.87057 0.545108 10.1278 0.573073 12.3846C0.582526 13.133 1.2324 13.7409 2.00044 13.7492C3.646 13.7672 5.29196 13.7578 6.93792 13.7586C8.98208 13.7594 11.0262 13.7586 13.07 13.7586C13.1515 13.7586 13.2327 13.7539 13.313 13.7817C13.4473 13.828 13.5119 13.9151 13.5048 14.0575C13.4977 14.1959 13.4162 14.2689 13.291 14.2987C13.235 14.312 13.1748 14.3112 13.1165 14.3112C9.46181 14.3112 5.80714 14.312 2.15247 14.31C1.16584 14.3097 0.408437 13.7696 0.092952 12.8447C0.0504146 12.7196 0.0307214 12.587 0 12.458C0 10.1007 0 7.74388 0 5.38664L0.000393864 5.38703Z" fill="#5B5D6B"/>
<path d="M8.98952 13.0224C6.71101 13.0224 4.43211 13.02 2.15361 13.0251C1.78692 13.0259 1.52539 12.8835 1.36036 12.5592C1.29735 12.4348 1.29262 12.3015 1.29262 12.1674C1.29262 10.0266 1.3001 7.88548 1.28907 5.74474C1.28671 5.27604 1.62307 4.88461 2.19221 4.88617C6.24586 4.89755 10.2995 4.89206 14.3532 4.89206C14.8451 4.89206 15.3378 4.90696 15.829 4.88774C16.313 4.86892 16.7128 5.1976 16.71 5.76592C16.6994 7.88901 16.6967 10.0125 16.712 12.136C16.716 12.7047 16.3142 13.0338 15.8085 13.0302C13.5359 13.0142 11.2629 13.0232 8.98991 13.0228L8.98952 13.0224ZM8.99897 7.27127V7.27048C6.67911 7.27048 4.35925 7.27205 2.03939 7.26734C1.88302 7.26734 1.82788 7.30186 1.82946 7.46855C1.83733 8.46009 1.83655 9.45201 1.82946 10.4435C1.82828 10.6004 1.86609 10.6471 2.03112 10.6467C6.67635 10.642 11.322 10.642 15.9672 10.6467C16.1382 10.6467 16.1673 10.5898 16.1665 10.4381C16.161 9.4579 16.1645 8.47813 16.1649 7.49797C16.1649 7.34683 16.0901 7.27114 15.9404 7.27087C13.6265 7.27087 11.3125 7.27087 8.99858 7.27087L8.99897 7.27127ZM8.99976 6.71745C9.31012 6.71745 9.62088 6.71745 9.93125 6.71745C11.9467 6.71745 13.9617 6.71588 15.9771 6.72216C16.1386 6.72255 16.1756 6.6747 16.1677 6.52487C16.1555 6.29817 16.1657 6.0699 16.1645 5.84241C16.163 5.49255 16.1031 5.43254 15.7581 5.43214C13.901 5.43136 12.0439 5.43058 10.1869 5.43058C7.52119 5.43058 4.85591 5.43058 2.19024 5.43058C1.92162 5.43058 1.83379 5.51765 1.83261 5.78671C1.83143 6.02008 1.83182 6.25345 1.83261 6.48683C1.83379 6.71588 1.83497 6.71627 2.05711 6.71627C4.37106 6.71627 6.68541 6.71627 8.99937 6.71627L8.99976 6.71745ZM9.00764 11.197C6.68187 11.197 4.3561 11.1986 2.02993 11.1939C1.88066 11.1939 1.82119 11.2237 1.83064 11.3837C1.84403 11.6104 1.83418 11.8387 1.833 12.0662C1.83143 12.4196 1.89523 12.4847 2.24971 12.4847C5.74723 12.4854 9.24474 12.4858 12.7423 12.4862C13.7557 12.4862 14.7695 12.4854 15.7829 12.4843C16.0885 12.4843 16.163 12.4078 16.1634 12.0995C16.1634 11.872 16.1531 11.6437 16.1677 11.417C16.1787 11.2452 16.1342 11.1915 15.9495 11.1923C13.6355 11.1994 11.3212 11.197 9.00724 11.1974L9.00764 11.197Z" fill="#5B5D6B"/>
<path d="M10.495 3.6032C12.2993 3.6032 14.1036 3.59379 15.9079 3.60712C16.7822 3.61379 17.4195 4.03464 17.8082 4.81555C17.9366 5.07324 17.9969 5.3529 17.9969 5.64118C17.9985 7.86389 18.0044 10.0862 17.9953 12.3089C17.991 13.3707 17.065 14.2865 15.9937 14.3081C15.4667 14.3187 14.9393 14.312 14.412 14.3108C14.2087 14.3104 14.0713 14.1951 14.0717 14.0351C14.0721 13.8762 14.2091 13.7586 14.4116 13.757C14.9094 13.7539 15.4076 13.7594 15.9055 13.7547C16.6515 13.7476 17.2206 13.2969 17.4065 12.5768C17.4435 12.4333 17.4423 12.2877 17.4423 12.1422C17.4439 10.0246 17.4321 7.90704 17.449 5.78944C17.4561 4.88733 16.8693 4.28841 16.1501 4.17624C16.0237 4.15662 15.8933 4.15819 15.7649 4.15819C12.2209 4.15702 8.6769 4.15702 5.13251 4.15623C5.04468 4.15623 4.95566 4.16172 4.86941 4.15074C4.7158 4.13113 4.59804 4.00327 4.61025 3.86795C4.62403 3.71342 4.72525 3.63223 4.87138 3.60555C4.92258 3.59614 4.97654 3.60242 5.02932 3.60242C6.85133 3.60242 8.67296 3.60242 10.495 3.60242V3.6032Z" fill="#5B5D6B"/>
<path d="M4.77488 10.4243C4.4842 10.4262 4.33887 10.2815 4.33887 9.99016C4.34005 9.23906 4.34438 8.48796 4.34162 7.73686C4.34162 7.62978 4.36959 7.59173 4.47948 7.59801C4.71855 7.61134 4.95881 7.58742 5.19749 7.62311C5.47871 7.66508 5.64807 7.8455 5.65989 8.12633C5.66383 8.21929 5.66146 8.31263 5.66186 8.40559C5.66304 8.58837 5.61223 8.74878 5.46571 8.8692C5.43342 8.89587 5.39049 8.92097 5.45429 8.95784C5.65634 9.07511 5.69061 9.27397 5.71542 9.47949C5.73669 9.6552 5.72291 9.83014 5.6851 9.99997C5.62917 10.2494 5.40703 10.4071 5.10808 10.4232C4.99741 10.4291 4.88594 10.424 4.77488 10.424V10.4243ZM4.78157 9.57166C4.78157 9.63559 4.78157 9.69992 4.78157 9.76385C4.78157 10.0321 4.78118 10.0282 5.04979 10.0145C5.1774 10.0082 5.24751 9.94741 5.26327 9.82817C5.28335 9.67795 5.28769 9.52538 5.25893 9.37594C5.22388 9.19356 5.09784 9.12296 4.86901 9.15944C4.70831 9.18493 4.80402 9.31554 4.78433 9.39752C4.77094 9.45243 4.78196 9.51361 4.78196 9.57166H4.78157ZM4.78118 8.37853H4.78236C4.78236 8.47148 4.78236 8.56444 4.78236 8.6574C4.78236 8.69858 4.78512 8.7331 4.83907 8.74878C5.0234 8.80291 5.17583 8.71113 5.21482 8.52208C5.2353 8.42363 5.23688 8.32597 5.22034 8.22791C5.18804 8.03573 5.10927 7.98748 4.87807 8.01023C4.70122 8.02749 4.80717 8.16085 4.78354 8.23929C4.77054 8.28204 4.78118 8.33146 4.78118 8.37814V8.37853Z" fill="#5B5D6B"/>
<path d="M3.20994 7.59993C3.5207 7.59875 3.52858 7.59757 3.57781 7.89645C3.70188 8.65069 3.82043 9.40532 3.93584 10.1611C3.97601 10.4251 3.96853 10.4196 3.69676 10.4286C3.56718 10.4329 3.52267 10.4031 3.50574 10.2631C3.46241 9.90305 3.45099 9.91089 3.08942 9.90265C2.94763 9.89951 2.87989 9.94305 2.88264 10.0854C2.88304 10.1145 2.88028 10.1439 2.87595 10.1725C2.83617 10.4298 2.83577 10.4247 2.56873 10.4286C2.45254 10.4306 2.42064 10.4059 2.44151 10.2815C2.58291 9.43552 2.71683 8.58793 2.84956 7.74034C2.86571 7.6364 2.90155 7.5811 3.01734 7.59797C3.08036 7.60699 3.14574 7.59953 3.20994 7.59993ZM3.19498 8.33887C3.12802 8.38868 3.13314 8.43771 3.12605 8.48281C3.08312 8.75227 3.04295 9.02251 2.99608 9.29157C2.9563 9.52063 2.95984 9.52847 3.19222 9.52573C3.38679 9.52338 3.40018 9.50612 3.36316 9.31001C3.35331 9.25863 3.34937 9.20646 3.33913 9.15508C3.28517 8.88955 3.28675 8.61342 3.19498 8.33887Z" fill="#5B5D6B"/>
<path d="M15.1859 8.93667C15.3974 9.08023 15.4781 9.27516 15.4691 9.51324C15.4624 9.69288 15.4907 9.87408 15.4305 10.0506C15.3355 10.3295 15.0791 10.484 14.7506 10.4554C14.4281 10.4275 14.213 10.24 14.1685 9.94664C14.1614 9.90075 14.1591 9.85369 14.1555 9.8074C14.1323 9.51128 14.1327 9.51638 14.4265 9.51559C14.5309 9.51559 14.5762 9.54069 14.5703 9.65052C14.5659 9.72543 14.5766 9.80191 14.5884 9.87683C14.6065 9.99214 14.6817 10.0423 14.7967 10.0463C14.9058 10.0498 14.983 10.0031 15.0059 9.89958C15.0472 9.70974 15.0496 9.51677 15.0023 9.32733C14.9704 9.19946 14.8692 9.15436 14.7475 9.16181C14.4962 9.17711 14.6148 8.98962 14.5911 8.88294C14.562 8.75272 14.6455 8.74449 14.744 8.74959C14.9106 8.75861 15.0019 8.68761 15.0236 8.51151C15.039 8.38678 15.0315 8.26755 15.0118 8.14714C14.9925 8.03221 14.9157 7.97848 14.8015 7.97809C14.6868 7.9777 14.6132 8.03339 14.5892 8.14635C14.5781 8.19734 14.5655 8.25068 14.5695 8.30167C14.5777 8.41032 14.5336 8.4362 14.4281 8.43581C14.1398 8.43463 14.1398 8.43973 14.1669 8.14243C14.1988 7.79061 14.4289 7.58195 14.7975 7.57136C15.1614 7.56077 15.4234 7.77727 15.4675 8.12517C15.5167 8.51425 15.4498 8.71664 15.187 8.93707L15.1859 8.93667Z" fill="#5B5D6B"/>
<path d="M6.11665 9.00918C6.11665 8.72364 6.10523 8.43771 6.11941 8.15296C6.13753 7.78467 6.39551 7.56463 6.77283 7.57208C7.16945 7.58032 7.41168 7.81644 7.41759 8.2012C7.41798 8.23611 7.41995 8.27102 7.41995 8.30593C7.41719 8.59852 7.43964 8.53342 7.17851 8.55067C7.03672 8.56009 6.98749 8.50988 7.00048 8.37417C7.00718 8.30514 7.00245 8.23415 6.99536 8.16473C6.98394 8.04942 6.91462 7.98784 6.8004 7.97842C6.68815 7.96901 6.60465 8.01176 6.57117 8.12354C6.55463 8.17885 6.54163 8.23729 6.54163 8.29455C6.53927 8.77267 6.53927 9.25039 6.54163 9.72851C6.54163 9.78577 6.55542 9.84382 6.57078 9.89952C6.60229 10.0148 6.69051 10.049 6.80001 10.0439C6.90911 10.0388 6.9741 9.97561 6.99182 9.87363C7.00482 9.79989 7.00088 9.72263 7.00127 9.64693C7.00285 9.3759 7.07965 9.31864 7.35496 9.37669C7.40735 9.38767 7.42468 9.41042 7.42192 9.45749C7.41207 9.6485 7.44358 9.84147 7.38608 10.0297C7.29667 10.3219 7.04184 10.4831 6.70587 10.4561C6.36676 10.4286 6.13871 10.2325 6.12099 9.91756C6.10405 9.61555 6.11744 9.31197 6.11744 9.00918C6.11744 9.00918 6.11665 9.00918 6.11626 9.00918H6.11665Z" fill="#5B5D6B"/>
<path d="M13.0597 10.4259C12.8841 10.4259 12.7084 10.422 12.5327 10.4275C12.441 10.4302 12.4162 10.3961 12.4091 10.3071C12.3772 9.90505 12.5056 9.56421 12.7773 9.27004C12.9471 9.08609 13.1208 8.90606 13.2216 8.66877C13.2905 8.50678 13.3024 8.34166 13.285 8.17339C13.2732 8.05808 13.2098 7.97846 13.0798 7.97728C12.9581 7.97611 12.8833 8.0318 12.8526 8.15182C12.8305 8.23811 12.825 8.32558 12.8333 8.41226C12.8431 8.51776 12.8088 8.55346 12.6982 8.55306C12.3992 8.55306 12.3992 8.55816 12.4122 8.25929C12.4351 7.73881 12.8065 7.46779 13.3106 7.60428C13.6293 7.69057 13.8108 8.06043 13.7325 8.46089C13.6773 8.74211 13.5434 8.98254 13.3638 9.20336C13.2133 9.38849 13.031 9.5493 12.916 9.76267C12.8088 9.96192 12.8415 10.0164 13.0637 10.016C13.2102 10.016 13.3579 10.027 13.5024 10.0113C13.6797 9.99251 13.7352 10.0655 13.71 10.2278C13.7073 10.2451 13.7073 10.2631 13.71 10.2804C13.7262 10.3902 13.6899 10.4373 13.5686 10.4298C13.3996 10.4192 13.2291 10.4271 13.0593 10.4271L13.0597 10.4259Z" fill="#5B5D6B"/>
<path d="M11.7312 9.01743C11.7312 9.43162 11.7273 9.8458 11.7336 10.26C11.7355 10.3843 11.7096 10.4345 11.5705 10.4302C11.2834 10.4208 11.283 10.4294 11.283 10.147C11.283 9.58105 11.2787 9.01547 11.2861 8.4495C11.2881 8.30594 11.2491 8.24593 11.1002 8.25966C11.0282 8.26633 10.9242 8.29927 10.9321 8.15729C10.938 8.05139 10.8958 7.93333 11.0845 7.93882C11.2326 7.94314 11.3346 7.83645 11.3819 7.70271C11.4378 7.54464 11.5622 7.59798 11.6607 7.60544C11.7643 7.61328 11.7265 7.71291 11.7269 7.77527C11.7296 8.18945 11.7285 8.60364 11.7285 9.01782C11.7292 9.01782 11.7296 9.01782 11.7304 9.01782L11.7312 9.01743Z" fill="#5B5D6B"/>
<path d="M9.01454 8.81704C9.08464 8.81704 9.15633 8.82527 9.22486 8.81547C9.38831 8.79154 9.42337 8.86097 9.4277 9.01589C9.43243 9.18455 9.37295 9.2222 9.22013 9.21043C9.06298 9.19788 8.90425 9.20337 8.74631 9.20886C8.65494 9.212 8.61122 9.19592 8.61004 9.08767C8.60728 8.81743 8.60098 8.81782 8.87393 8.81782C8.9208 8.81782 8.96767 8.81782 9.01454 8.81782V8.81704Z" fill="#5B5D6B"/>
<path d="M4.53489 5.78432C4.69953 5.78628 4.83384 5.92513 4.83187 6.09025C4.8299 6.24322 4.69283 6.37422 4.5341 6.37501C4.37026 6.37579 4.22925 6.23263 4.23555 6.07182C4.24146 5.92003 4.38483 5.78236 4.53489 5.78432Z" fill="#5B5D6B"/>
<path d="M13.175 6.07219C13.1801 5.91412 13.3156 5.78155 13.4692 5.78391C13.6342 5.78665 13.7685 5.92628 13.765 6.09062C13.761 6.25457 13.6212 6.38008 13.4499 6.37341C13.2915 6.36714 13.1698 6.23378 13.175 6.07219Z" fill="#5B5D6B"/>
<path d="M4.53449 12.1376C4.37497 12.1403 4.23554 11.9995 4.23633 11.8364C4.23712 11.6783 4.36513 11.55 4.52464 11.5473C4.69282 11.5445 4.82792 11.6704 4.83304 11.8356C4.83776 11.9901 4.6944 12.1352 4.53449 12.138V12.1376Z" fill="#5B5D6B"/>
<path d="M13.4596 12.1383C13.2977 12.1356 13.1685 11.9948 13.174 11.8281C13.1799 11.663 13.3004 11.5465 13.4651 11.5472C13.6317 11.548 13.7668 11.6802 13.7672 11.8434C13.7679 11.9967 13.6171 12.1411 13.4592 12.1383H13.4596Z" fill="#5B5D6B"/>
</g>
<defs>
<clipPath id="clip0_2735_5930">
<rect width="18" height="18" fill="white"/>
</clipPath>
</defs>
</svg>
