<svg width="18" height="18" viewBox="0 0 18 18" fill="none" xmlns="http://www.w3.org/2000/svg">
<path d="M16.5367 9.06192C16.5104 13.2109 13.2221 16.5596 9.05874 16.5848C4.83306 16.6104 1.51386 13.2379 1.4865 9.11556C1.45842 4.90464 4.83162 1.53864 9.01302 1.5408C13.1732 1.5426 16.51 4.89384 16.5367 9.06192ZM9.01554 1.9818C5.12394 2.00196 1.96746 5.07204 1.93254 9.00108C1.89726 12.9611 5.04618 16.1251 8.97882 16.1413C12.9028 16.1575 16.0899 13.0223 16.0863 9.05724C16.0827 5.103 12.9305 2.016 9.01554 1.9818Z" fill="#5B5D6B"/>
<path d="M15.1502 9.07345C15.1621 12.4279 12.4189 15.1971 9.03091 15.2093C5.60839 15.2219 2.86735 12.4258 2.86231 9.07598C2.85727 5.68514 5.61271 2.92718 8.98951 2.91818C12.4077 2.90882 15.1718 5.70386 15.1502 9.07345ZM9.01075 14.764C9.37111 14.7715 9.72643 14.7334 10.0785 14.6657C11.1096 14.4673 12.015 14.0145 12.8026 13.3215C12.8696 13.2624 12.8635 13.2304 12.8052 13.1746C12.6644 13.0396 12.528 12.9003 12.3919 12.7602C12.2569 12.6216 12.2421 12.5057 12.3422 12.4024C12.4484 12.2929 12.5625 12.3073 12.7101 12.4517C12.8383 12.577 12.9693 12.6997 13.0903 12.8319C13.1684 12.9168 13.2163 12.9258 13.2944 12.8268C13.4449 12.6371 13.5993 12.4506 13.7358 12.2501C14.311 11.4045 14.6156 10.4659 14.7049 9.45146C14.716 9.32258 14.6872 9.2729 14.5486 9.28154C14.3596 9.29342 14.1692 9.28586 13.9795 9.2837C13.8268 9.2819 13.7253 9.19154 13.7246 9.06302C13.7239 8.9363 13.8279 8.84522 13.9806 8.84342C14.1652 8.84126 14.3506 8.83082 14.5339 8.84702C14.6941 8.86142 14.7214 8.79374 14.7013 8.65946C14.6678 8.43625 14.6498 8.21018 14.6077 7.98878C14.4122 6.95666 13.9579 6.0509 13.262 5.26466C13.2123 5.2085 13.1835 5.20201 13.1281 5.26033C12.983 5.41298 12.8318 5.56058 12.6795 5.70602C12.56 5.82014 12.4398 5.82554 12.3454 5.72978C12.2454 5.62826 12.249 5.51918 12.3656 5.39678C12.5038 5.25206 12.6446 5.10914 12.7908 4.97234C12.8682 4.89998 12.8628 4.8575 12.7821 4.78874C12.5215 4.56554 12.2486 4.36034 11.9552 4.1825C11.1679 3.70586 10.3107 3.44918 9.39667 3.36818C9.27247 3.35702 9.21631 3.3815 9.22675 3.5237C9.24007 3.7073 9.23035 3.89234 9.22891 4.07702C9.22747 4.24694 9.14611 4.3463 9.01003 4.34738C8.87647 4.34846 8.78899 4.24478 8.78755 4.07846C8.78575 3.8783 8.78251 3.67778 8.78899 3.47762C8.79223 3.38402 8.75875 3.35702 8.67091 3.36854C8.49883 3.39122 8.32567 3.4049 8.15431 3.43046C7.03615 3.59678 6.05839 4.0619 5.21311 4.8107C5.14687 4.86938 5.15479 4.9007 5.21311 4.95614C5.35495 5.09006 5.49139 5.22938 5.62783 5.3687C5.76355 5.50694 5.77759 5.62142 5.67643 5.72654C5.57311 5.83346 5.45827 5.82265 5.31967 5.68729C5.18395 5.55482 5.04787 5.42198 4.91935 5.28266C4.85095 5.2085 4.81315 5.20094 4.73971 5.28482C4.40743 5.66318 4.12915 6.07646 3.90307 6.52574C3.56539 7.19642 3.38719 7.9103 3.31411 8.65478C3.29935 8.80742 3.33715 8.85926 3.49519 8.8463C3.67843 8.83118 3.86419 8.83982 4.04851 8.84414C4.19647 8.84738 4.28935 8.93342 4.29295 9.0587C4.29655 9.18902 4.19791 9.28082 4.04311 9.28334C3.85879 9.28658 3.67411 9.28442 3.48943 9.28442C3.29791 9.28442 3.29575 9.28513 3.31663 9.47882C3.35083 9.79705 3.39259 10.1142 3.47107 10.4253C3.70075 11.3339 4.11871 12.1432 4.74331 12.8448C4.81099 12.9208 4.84879 12.919 4.91395 12.8491C5.03995 12.7149 5.17315 12.5867 5.30419 12.4571C5.45719 12.3059 5.55907 12.2897 5.66995 12.3973C5.78263 12.5064 5.76427 12.6216 5.60947 12.7768C5.48671 12.8999 5.36863 13.0284 5.23939 13.1443C5.15263 13.2221 5.14939 13.2635 5.24371 13.3452C6.32587 14.2823 7.58155 14.7517 9.01003 14.7636L9.01075 14.764Z" fill="#5B5D6B"/>
<path d="M9.12885 10.0134C8.58669 10.013 8.22201 9.74268 8.09709 9.33876C7.97433 8.94204 8.12265 8.52012 8.48301 8.27316C9.25629 7.74396 10.0325 7.21908 10.8075 6.6924C11.0603 6.52068 11.3148 6.35184 11.565 6.17688C11.6787 6.09732 11.7907 6.05016 11.9052 6.16032C12.0189 6.27012 11.9808 6.37956 11.9001 6.498C11.2032 7.52004 10.5102 8.54532 9.81501 9.5688C9.62205 9.8532 9.35493 10.0076 9.12885 10.013V10.0134ZM9.00933 8.55684C8.72745 8.55612 8.49957 8.78724 8.50173 9.07128C8.50389 9.34236 8.73609 9.57132 9.00861 9.5706C9.28401 9.56988 9.51117 9.34668 9.51513 9.072C9.51945 8.79048 9.29085 8.55756 9.00897 8.55684H9.00933ZM10.8759 7.21548C10.7665 7.2252 10.7222 7.29216 10.6639 7.33068C10.2643 7.59528 9.87009 7.86744 9.47193 8.1342C9.41577 8.17164 9.40317 8.2008 9.46617 8.23284C9.65121 8.32608 9.77109 8.48304 9.88629 8.6742C10.2182 8.18496 10.5393 7.71192 10.8759 7.21584V7.21548Z" fill="black"/>
<path d="M9.00342 12.7696C8.50842 12.7696 8.01306 12.7699 7.51806 12.7696C7.32042 12.7696 7.24014 12.6922 7.23906 12.4952C7.2369 12.137 7.23654 11.7788 7.23906 11.4206C7.24014 11.2367 7.32654 11.1532 7.5123 11.1528C8.50806 11.1521 9.50346 11.1524 10.4992 11.1539C10.6969 11.1539 10.7786 11.2352 10.7797 11.4311C10.7815 11.7893 10.7815 12.1475 10.7793 12.5057C10.7782 12.6922 10.6979 12.7688 10.5053 12.7692C10.0049 12.7706 9.50454 12.7696 9.00414 12.7696H9.00342ZM8.99118 12.326V12.3275C9.39114 12.3275 9.7911 12.325 10.1911 12.3293C10.2911 12.3304 10.3473 12.3156 10.3397 12.1946C10.3297 12.0323 10.3347 11.8685 10.3387 11.7054C10.3408 11.6266 10.3185 11.5942 10.2328 11.5942C9.41706 11.597 8.6013 11.597 7.78554 11.5942C7.70094 11.5942 7.6761 11.624 7.67826 11.7043C7.68258 11.862 7.68618 12.0204 7.67682 12.1777C7.66998 12.2918 7.69842 12.3322 7.82226 12.3293C8.21142 12.3203 8.60094 12.326 8.99046 12.326H8.99118Z" fill="black"/>
</svg>
