<svg width="16" height="17" viewBox="0 0 16 17" fill="none" xmlns="http://www.w3.org/2000/svg">
<path d="M15.6444 4.58365L12.3851 1.31595C12.3712 1.30207 12.3566 1.28894 12.3413 1.27618C12.3379 1.27318 12.3338 1.27093 12.3304 1.26793C12.3188 1.25855 12.3069 1.24955 12.2945 1.24129C12.2912 1.23904 12.2874 1.23717 12.284 1.23492C12.271 1.22666 12.2579 1.21841 12.244 1.21091C12.2414 1.20941 12.2388 1.20865 12.2365 1.20715C12.2216 1.19928 12.2066 1.19215 12.1912 1.18577C12.1897 1.18502 12.1879 1.18464 12.186 1.18389C12.1695 1.17714 12.1531 1.17114 12.1362 1.16589C12.1344 1.16514 12.1325 1.16514 12.1306 1.16439C12.1138 1.15951 12.0969 1.15501 12.0797 1.15163C12.0749 1.1505 12.07 1.15013 12.0651 1.14938C12.0505 1.14675 12.0363 1.1445 12.0214 1.143C12.0015 1.14112 11.9817 1.14 11.9615 1.14C11.9413 1.14 11.9214 1.14112 11.9016 1.143C11.8866 1.1445 11.872 1.14713 11.8575 1.14975C11.853 1.1505 11.8481 1.15088 11.8436 1.152C11.826 1.15538 11.8088 1.15988 11.792 1.16514C11.7905 1.16551 11.7886 1.16589 11.7871 1.16626C11.7699 1.17151 11.753 1.17789 11.7362 1.18464C11.7347 1.18502 11.7332 1.18577 11.7321 1.18614C11.7164 1.1929 11.7007 1.2004 11.6857 1.20828C11.6834 1.20941 11.6812 1.21016 11.6793 1.21128C11.6655 1.21878 11.652 1.22704 11.6385 1.23567C11.6355 1.23754 11.6322 1.23942 11.6288 1.24167C11.6161 1.2503 11.6041 1.25968 11.5921 1.26906C11.5888 1.27168 11.585 1.27393 11.582 1.27693C11.5667 1.28932 11.5521 1.30282 11.5383 1.3167L8.27892 4.5844C8.04505 4.81887 8.04505 5.19892 8.27892 5.4334C8.5128 5.66787 8.89187 5.66787 9.12575 5.4334L11.3631 3.19028V15.2597C11.3631 15.5914 11.6311 15.86 11.9619 15.86C12.2927 15.86 12.5606 15.5914 12.5606 15.2597V3.18953L14.798 5.43264C14.9147 5.5497 15.0681 5.6086 15.2212 5.6086C15.3742 5.6086 15.5277 5.55007 15.6444 5.43264C15.8783 5.19817 15.8783 4.81812 15.6444 4.58365Z" fill="#CC0000"/>
<path d="M6.87511 11.5666L4.63773 13.8097V1.74026C4.63773 1.40862 4.3698 1.14 4.03901 1.14C3.70821 1.14 3.44028 1.40862 3.44028 1.74026V13.8097L1.2029 11.5666C0.969022 11.3321 0.589952 11.3321 0.356073 11.5666C0.122194 11.8011 0.122194 12.1811 0.356073 12.4156L3.61503 15.6829C3.62925 15.6972 3.64384 15.7103 3.65919 15.7231C3.66555 15.7283 3.67228 15.7328 3.67865 15.7377C3.68763 15.7444 3.69661 15.7516 3.70634 15.758C3.71457 15.7632 3.7228 15.7681 3.73103 15.773C3.73964 15.7782 3.74787 15.7835 3.75648 15.788C3.76509 15.7925 3.77407 15.7966 3.78268 15.8007C3.79166 15.8049 3.80026 15.8094 3.80962 15.8131C3.81822 15.8169 3.82683 15.8195 3.83581 15.8229C3.84554 15.8262 3.8549 15.83 3.865 15.833C3.87398 15.8356 3.88259 15.8375 3.89157 15.8397C3.90167 15.8424 3.9114 15.845 3.92188 15.8472C3.93236 15.8491 3.94284 15.8506 3.95294 15.8521C3.96192 15.8532 3.97053 15.8551 3.97951 15.8559C3.99897 15.8577 4.0188 15.8589 4.03863 15.8589C4.05846 15.8589 4.07792 15.8577 4.09776 15.8559C4.10674 15.8551 4.11572 15.8532 4.12432 15.8521C4.1348 15.8506 4.14528 15.8495 4.15538 15.8472C4.16549 15.8454 4.17559 15.8424 4.18569 15.8397C4.19468 15.8375 4.20366 15.8356 4.21226 15.833C4.22199 15.83 4.23172 15.8262 4.24145 15.8229C4.25006 15.8199 4.25904 15.8169 4.26765 15.8131C4.27663 15.8094 4.28561 15.8049 4.29459 15.8007C4.30319 15.7966 4.31218 15.7928 4.32078 15.788C4.32939 15.7835 4.33762 15.7778 4.34623 15.773C4.35446 15.7681 4.36307 15.7632 4.3713 15.758C4.38066 15.7516 4.38964 15.7444 4.39899 15.7377C4.40535 15.7328 4.41209 15.7283 4.41845 15.7231C4.43379 15.7103 4.44876 15.6972 4.46261 15.6829L7.72156 12.4156C7.95544 12.1811 7.95544 11.8011 7.72156 11.5666C7.48769 11.3321 7.10862 11.3321 6.87474 11.5666H6.87511Z" fill="#CC0000"/>
</svg>
