<svg width="18" height="18" viewBox="0 0 18 18" fill="none" xmlns="http://www.w3.org/2000/svg">
<path d="M3.9612 16.6082C3.86112 16.5423 3.74124 16.5161 3.64656 16.4336C3.44496 16.2576 3.33984 16.0448 3.33984 15.7752C3.34092 11.885 3.34056 7.99451 3.34128 4.10435C3.34128 3.63527 3.68148 3.29435 4.14912 3.29399C5.007 3.29327 5.86488 3.29147 6.72276 3.29615C6.8322 3.29687 6.86172 3.26987 6.86424 3.15827C6.8718 2.79971 7.21956 2.47067 7.581 2.46563C7.70412 2.46383 7.82832 2.45663 7.95072 2.46743C8.07384 2.47859 8.11164 2.43935 8.10624 2.31443C8.09292 2.00015 8.21784 1.74455 8.49072 1.58327C8.88744 1.34891 9.75828 1.37699 9.94764 1.99295C9.98436 2.11247 10.0067 2.23199 9.99444 2.35547C9.9858 2.44115 10.0175 2.46959 10.1014 2.46599C10.2194 2.46095 10.3379 2.46455 10.4563 2.46491C10.8973 2.46599 11.2174 2.76155 11.235 3.19895C11.2397 3.31667 11.3063 3.29255 11.3707 3.29255C12.2088 3.29327 13.0476 3.31055 13.8853 3.28643C14.3681 3.27275 14.7688 3.68279 14.7673 4.16339C14.7551 8.02403 14.7605 11.8847 14.7605 15.7457C14.7605 16.1856 14.5646 16.4513 14.1449 16.583C14.1319 16.587 14.1215 16.5992 14.1096 16.6075H3.9612V16.6082ZM4.55196 9.95219C4.55196 11.4951 4.55196 13.0385 4.55196 14.5814C4.55196 14.6999 4.54836 14.8183 4.55376 14.9364C4.56132 15.1013 4.65204 15.1877 4.81584 15.1877C7.1328 15.1884 9.45012 15.188 11.7671 15.1909C11.8621 15.1909 11.8952 15.1686 11.8927 15.0685C11.8859 14.8075 11.8866 14.5458 11.8916 14.2848C11.8985 13.9021 12.216 13.5918 12.5962 13.5907C12.8575 13.59 13.1189 13.5835 13.3799 13.5939C13.5124 13.5993 13.5512 13.5662 13.5512 13.4265C13.5466 10.6412 13.5476 7.85591 13.5476 5.07023C13.5476 5.03567 13.5491 5.00111 13.5476 4.96655C13.5397 4.80239 13.4497 4.71383 13.2863 4.71383C12.6354 4.71311 11.9849 4.71491 11.334 4.71203C11.2552 4.71203 11.2138 4.72967 11.181 4.80887C11.0615 5.09903 10.8325 5.24303 10.5233 5.24447C9.54228 5.24807 8.56128 5.24699 7.58028 5.24519C7.275 5.24447 7.05144 5.10227 6.92652 4.82435C6.888 4.73867 6.84624 4.71131 6.75408 4.71167C6.13308 4.71599 5.51172 4.71383 4.89072 4.71383C4.62468 4.71383 4.55232 4.78655 4.55232 5.05655C4.55232 6.68843 4.55232 8.32031 4.55232 9.95183L4.55196 9.95219ZM14.4059 9.95723C14.4059 8.02439 14.4059 6.09155 14.4059 4.15871C14.4059 3.83255 14.2475 3.65075 13.9458 3.64967C13.0778 3.64607 12.2102 3.64967 11.3423 3.64679C11.2537 3.64679 11.2346 3.67955 11.2368 3.75803C11.2411 3.91571 11.2462 4.07411 11.2361 4.23107C11.2292 4.33943 11.2674 4.36139 11.3682 4.36067C11.9993 4.35635 12.6307 4.37183 13.2614 4.35311C13.5732 4.34375 13.9076 4.63499 13.9066 4.99247C13.8968 7.89659 13.9012 10.8011 13.9044 13.7052C13.9044 13.8132 13.8724 13.8902 13.795 13.9633C13.2643 14.4641 12.7355 14.9666 12.2088 15.4717C12.1444 15.5333 12.0752 15.543 11.9939 15.543C9.6024 15.5423 7.21092 15.543 4.81944 15.5426C4.45404 15.5426 4.19808 15.287 4.19772 14.9209C4.197 11.6024 4.197 8.28395 4.19772 4.96583C4.19772 4.62383 4.46376 4.35959 4.80504 4.35923C5.4462 4.35887 6.087 4.35707 6.72816 4.36139C6.82716 4.36211 6.87 4.34195 6.8628 4.23287C6.85308 4.08563 6.85128 3.93659 6.86352 3.78935C6.87396 3.66407 6.8232 3.64607 6.71304 3.64643C5.88972 3.65075 5.06604 3.64859 4.24272 3.64895C3.84384 3.64895 3.6948 3.79979 3.6948 4.20371C3.6948 8.03483 3.6948 11.8663 3.6948 15.6974C3.6948 16.097 3.84888 16.2536 4.24308 16.2536C7.45788 16.2536 10.6727 16.2536 13.8875 16.2536C14.2356 16.2536 14.4055 16.0859 14.4055 15.7413C14.4055 13.8135 14.4055 11.8854 14.4055 9.95759L14.4059 9.95723ZM9.04188 4.89131C9.52032 4.89131 9.9984 4.89239 10.4768 4.89095C10.7371 4.89023 10.8826 4.74767 10.884 4.48991C10.8865 4.07555 10.8862 3.66155 10.884 3.24719C10.8826 2.99555 10.7065 2.82167 10.4563 2.81987C10.254 2.81843 10.052 2.82095 9.84972 2.81879C9.70536 2.81735 9.6456 2.75723 9.64272 2.61215C9.6402 2.49875 9.63948 2.38535 9.64272 2.27195C9.64812 2.08259 9.56244 1.94759 9.39396 1.87307C9.17292 1.77479 8.94072 1.78127 8.72004 1.86551C8.54472 1.93247 8.45436 2.07683 8.45796 2.27159C8.46012 2.38499 8.45976 2.49839 8.45796 2.61179C8.45616 2.75651 8.39712 2.81771 8.25276 2.81951C8.05548 2.82203 7.8582 2.81951 7.66092 2.82059C7.38768 2.82167 7.21668 2.98907 7.21524 3.26051C7.21344 3.66479 7.2138 4.06907 7.21524 4.47335C7.21632 4.74659 7.36212 4.89095 7.63608 4.89167C8.10444 4.89275 8.5728 4.89167 9.04152 4.89167L9.04188 4.89131ZM12.2459 14.9612C12.6073 14.6127 12.9392 14.2931 13.3003 13.9449C13.0271 13.9449 12.8014 13.9395 12.576 13.9467C12.4129 13.9521 12.2531 14.1181 12.2477 14.2859C12.2408 14.4965 12.2459 14.7078 12.2459 14.9612Z" fill="#5B5D6B"/>
<path d="M10.13 12.4661C10.9778 12.4661 11.826 12.4661 12.6738 12.4661C12.7181 12.4661 12.7634 12.4618 12.8066 12.4697C12.9006 12.4866 12.9546 12.546 12.9539 12.6432C12.9532 12.7397 12.8995 12.7994 12.8056 12.8171C12.7674 12.8243 12.7271 12.8199 12.6875 12.8199C10.9868 12.8199 9.28583 12.8203 7.58519 12.8207C7.54559 12.8207 7.50527 12.825 7.46711 12.8181C7.37423 12.8019 7.31195 12.7433 7.30871 12.6504C7.30547 12.5492 7.36991 12.4873 7.46819 12.4682C7.50635 12.461 7.54667 12.4661 7.58627 12.4661C8.43407 12.4661 9.28223 12.4661 10.13 12.4661Z" fill="#5B5D6B"/>
<path d="M10.1152 7.43437C9.2624 7.43437 8.40956 7.43437 7.55672 7.43437C7.39904 7.43437 7.31012 7.37389 7.3058 7.26733C7.30148 7.15429 7.39832 7.08157 7.55528 7.08157C9.266 7.08157 10.9767 7.08157 12.6871 7.08157C12.7263 7.08157 12.7666 7.07797 12.8052 7.08481C12.9002 7.10137 12.9531 7.16149 12.9542 7.25725C12.9553 7.35445 12.8991 7.41349 12.8066 7.43221C12.7638 7.44085 12.718 7.43545 12.6738 7.43545C11.8209 7.43545 10.9681 7.43545 10.1152 7.43545V7.43473V7.43437Z" fill="#5B5D6B"/>
<path d="M10.1408 10.1286C9.30776 10.1286 8.47508 10.1286 7.64204 10.1286C7.58768 10.1286 7.53332 10.1304 7.47932 10.1257C7.37564 10.1167 7.31408 10.0515 7.30976 9.95399C7.30544 9.85175 7.37708 9.79595 7.47248 9.77579C7.5056 9.76895 7.54124 9.77363 7.5758 9.77363C9.27104 9.77363 10.9666 9.77363 12.6619 9.77363C12.8768 9.77363 12.9582 9.82439 12.9546 9.95507C12.9513 10.0803 12.8725 10.1286 12.6687 10.1286C11.826 10.1286 10.9832 10.1286 10.1404 10.1286H10.1408Z" fill="#5B5D6B"/>
<path d="M6.59523 9.95903C6.59415 10.3802 6.28527 10.692 5.87091 10.6895C5.44611 10.6869 5.14515 10.3763 5.14551 9.94211C5.14623 9.52487 5.45727 9.21203 5.87235 9.21167C6.29103 9.21167 6.59631 9.52703 6.59523 9.95903ZM6.24027 9.94931C6.23955 9.73979 6.07251 9.56375 5.87631 9.56591C5.66067 9.56843 5.50083 9.73331 5.50047 9.95327C5.50047 10.1704 5.66751 10.3385 5.88027 10.3356C6.08007 10.3331 6.24099 10.1603 6.24027 9.94931Z" fill="#5B5D6B"/>
<path d="M5.14556 7.31663C5.14556 7.23815 5.14268 7.15931 5.14628 7.08083C5.15096 6.97103 5.20892 6.90191 5.3216 6.90695C5.42816 6.91163 5.49008 6.97679 5.49908 7.08623C5.51528 7.28243 5.51456 7.28099 5.68628 7.17947C5.90192 7.05203 6.12224 6.93251 6.33356 6.79895C6.434 6.73559 6.51212 6.75215 6.5798 6.83063C6.63812 6.89831 6.59672 7.04663 6.506 7.09847C6.22916 7.25723 5.95016 7.41131 5.67152 7.56719C5.5772 7.62011 5.48396 7.67447 5.38856 7.72487C5.26688 7.78895 5.16176 7.73531 5.14808 7.59671C5.13908 7.50419 5.14628 7.41023 5.14628 7.31663C5.14592 7.31663 5.14556 7.31663 5.1452 7.31663H5.14556Z" fill="#5B5D6B"/>
<path d="M5.1456 12.7062C5.1456 12.6274 5.14236 12.5482 5.14632 12.4697C5.15172 12.3613 5.20572 12.2882 5.31984 12.2918C5.42784 12.2951 5.48832 12.3617 5.4984 12.4708C5.49984 12.4855 5.4984 12.5003 5.4984 12.515C5.50128 12.6684 5.5056 12.6716 5.63808 12.5942C5.87172 12.4574 6.10752 12.3239 6.33684 12.1802C6.43764 12.1172 6.52764 12.1302 6.57876 12.2191C6.62952 12.307 6.6216 12.4168 6.51504 12.4769C6.1338 12.6929 5.75184 12.9071 5.36736 13.1173C5.2608 13.1756 5.15748 13.1058 5.14704 12.9719C5.1402 12.8837 5.1456 12.7944 5.14524 12.7058L5.1456 12.7062Z" fill="#5B5D6B"/>
</svg>
