<svg width="18" height="18" viewBox="0 0 18 18" fill="none" xmlns="http://www.w3.org/2000/svg">
<path d="M8.99959 1.476C4.84411 1.476 1.47559 4.84452 1.47559 9C1.47559 13.1555 4.84411 16.524 8.99959 16.524C13.1551 16.524 16.5236 13.1555 16.5236 9C16.5236 4.84452 13.1551 1.476 8.99959 1.476ZM8.99959 16.0182C5.12347 16.0182 1.98139 12.8761 1.98139 9C1.98139 5.12388 5.12347 1.9818 8.99959 1.9818C12.8757 1.9818 16.0178 5.12388 16.0178 9C16.0178 12.8761 12.8757 16.0182 8.99959 16.0182Z" fill="#5B5D6B"/>
<path d="M8.99978 3.13596C5.76122 3.13596 3.13574 5.76144 3.13574 9C3.13574 12.2386 5.76122 14.864 8.99978 14.864C12.2383 14.864 14.8638 12.2386 14.8638 9C14.8638 5.76144 12.2383 3.13596 8.99978 3.13596ZM8.99978 14.4698C5.97902 14.4698 3.52994 12.0208 3.52994 9C3.52994 5.97924 5.97902 3.53016 8.99978 3.53016C12.0205 3.53016 14.4696 5.97924 14.4696 9C14.4696 12.0208 12.0205 14.4698 8.99978 14.4698Z" fill="#5B5D6B"/>
<path d="M11.4765 5.75999C11.3174 5.75999 11.1885 5.88887 11.1885 6.04799V8.71199H9.27041V6.04799C9.27041 5.89895 9.14945 5.77799 9.00041 5.77799C8.85137 5.77799 8.73041 5.89895 8.73041 6.04799V8.71199H6.81233V6.04799C6.81233 5.88887 6.68345 5.75999 6.52433 5.75999C6.36521 5.75999 6.23633 5.88887 6.23633 6.04799V11.9516C6.23633 12.1108 6.36521 12.2396 6.52433 12.2396C6.68345 12.2396 6.81233 12.1108 6.81233 11.9516V9.28763H8.73041V11.9516C8.73041 12.1007 8.85137 12.2216 9.00041 12.2216C9.14945 12.2216 9.27041 12.1007 9.27041 11.9516V9.28763H11.1885V11.9516C11.1885 12.1108 11.3174 12.2396 11.4765 12.2396C11.6356 12.2396 11.7645 12.1108 11.7645 11.9516V6.04799C11.7645 5.88887 11.6356 5.75999 11.4765 5.75999Z" fill="#5B5D6B"/>
</svg>
