<svg width="18" height="18" viewBox="0 0 18 18" fill="none" xmlns="http://www.w3.org/2000/svg">
<path d="M15.2746 8.41752C15.0907 8.41752 14.9071 8.42076 14.7231 8.4168C14.4589 8.41104 14.2763 8.22996 14.2684 7.9668C14.2641 7.82352 14.2655 7.67988 14.2677 7.53624C14.2717 7.26696 14.4499 7.06896 14.7163 7.06248C15.0971 7.05312 15.4787 7.0524 15.8596 7.06248C16.1325 7.06968 16.3017 7.26084 16.3042 7.5348C16.3053 7.67376 16.3057 7.81272 16.3042 7.95168C16.301 8.23176 16.1221 8.41248 15.8398 8.4168C15.6515 8.41968 15.4633 8.41752 15.275 8.41716L15.2746 8.41752ZM15.3034 7.52688C15.2048 7.52688 15.1061 7.5258 15.0075 7.52688C14.7109 7.53084 14.7404 7.48332 14.7328 7.80048C14.7299 7.92072 14.7767 7.95672 14.8909 7.95348C15.1148 7.94736 15.3391 7.95348 15.563 7.95132C15.8917 7.94808 15.8488 7.99992 15.8542 7.64136C15.8557 7.55136 15.8171 7.52364 15.7333 7.5258C15.59 7.5294 15.4463 7.52688 15.3031 7.52652L15.3034 7.52688Z" fill="#5B5D6B"/>
<path d="M15.2898 9.30528C15.0702 9.30528 14.8502 9.30672 14.6306 9.30492C14.4495 9.30312 14.3469 9.216 14.3477 9.0702C14.3484 8.93124 14.4495 8.84016 14.622 8.83872C15.0659 8.83548 15.5101 8.83548 15.954 8.83872C16.1268 8.84016 16.2301 8.93088 16.2323 9.06732C16.2344 9.20952 16.1261 9.3024 15.9493 9.3042C15.7297 9.30636 15.5097 9.30492 15.2901 9.30492L15.2898 9.30528Z" fill="#5B5D6B"/>
<path d="M17.5439 4.90824C17.5393 4.65156 17.3575 4.47012 17.1001 4.46724C16.8711 4.46436 16.6421 4.46868 16.4128 4.4658C16.2274 4.46364 16.0791 4.53456 15.9754 4.68576C15.9203 4.7664 15.898 4.74408 15.8609 4.67532C15.7238 4.42296 15.5841 4.17168 15.4433 3.92112C14.9735 3.0852 14.2532 2.65284 13.2999 2.64168C12.1011 2.62728 10.9016 2.62764 9.70277 2.64168C8.74949 2.65284 8.02805 3.08268 7.55681 3.91788C7.41569 4.16808 7.27565 4.419 7.13957 4.67208C7.09601 4.75344 7.07189 4.75848 7.01681 4.67892C6.92537 4.54644 6.79325 4.47084 6.62981 4.46832C6.37853 4.46472 6.12689 4.46364 5.87525 4.46832C5.63657 4.473 5.46089 4.64976 5.45441 4.88844C5.45009 5.0544 5.45009 5.22072 5.45441 5.38704C5.46017 5.60772 5.61317 5.77512 5.83529 5.80644C5.93105 5.81976 6.02825 5.82408 6.12113 5.832C6.12401 5.84712 6.12725 5.85288 6.12545 5.8554C6.11069 5.87736 6.09629 5.90004 6.07901 5.9202C5.96813 6.05016 5.89577 6.192 5.85833 6.34788C6.01853 6.3468 6.17837 6.34608 6.33749 6.34572C6.35981 6.30504 6.38897 6.26724 6.42497 6.23268C6.63521 6.03036 6.84617 5.82876 7.05317 5.6232C7.11149 5.56524 7.17521 5.55732 7.25009 5.5674C8.03237 5.67324 8.81789 5.74164 9.60665 5.78232C10.5085 5.82876 11.4103 5.83524 12.3121 5.82048C13.4605 5.80176 14.6063 5.73228 15.7443 5.56776C15.8249 5.55624 15.8901 5.5692 15.9517 5.63076C16.1486 5.82732 16.3491 6.02028 16.5514 6.21144C16.667 6.32052 16.717 6.453 16.7167 6.60852C16.7163 7.04412 16.7167 7.47936 16.7167 7.91496C16.7167 8.33688 16.7174 8.75916 16.7167 9.18108C16.7159 9.52668 16.582 9.66816 16.24 9.70092C15.2043 9.80028 14.1671 9.8748 13.1271 9.92052C12.9205 9.92952 12.7138 9.93852 12.5068 9.94608C12.5831 10.1005 12.6209 10.2575 12.6386 10.4022C12.7257 10.399 12.8128 10.3954 12.9003 10.3925C13.3575 10.3774 13.8147 10.3507 14.2715 10.3266C14.363 10.3219 14.4044 10.3518 14.4001 10.4479C14.3947 10.5646 14.3983 10.6816 14.399 10.7982C14.4011 11.1571 14.6405 11.4203 14.9959 11.43C15.3771 11.4408 15.7594 11.4408 16.141 11.43C16.4924 11.4199 16.7318 11.1614 16.7357 10.8108C16.7383 10.5908 16.7379 10.3705 16.7357 10.1506C16.735 10.0832 16.7498 10.0321 16.8077 9.98892C17.0641 9.79704 17.1721 9.53928 17.1695 9.21852C17.1627 8.40132 17.1587 7.58376 17.1713 6.76656C17.1767 6.42312 17.1141 6.11676 16.8736 5.86116C16.8697 5.8572 16.8751 5.8446 16.8765 5.82948C16.96 5.82336 17.0446 5.8212 17.1285 5.81076C17.3971 5.77728 17.5414 5.6124 17.5436 5.33952C17.5447 5.19588 17.5457 5.05224 17.5432 4.90824H17.5439ZM6.54521 5.35608C6.46457 5.3568 6.38393 5.35608 6.30293 5.35608C6.26693 5.35608 6.23129 5.35608 6.19529 5.35608C5.90117 5.35608 5.83925 5.27508 5.90405 4.98348C5.91737 4.92408 5.95373 4.91616 6.00161 4.91616C6.18089 4.91616 6.36053 4.91436 6.53981 4.91724C6.61181 4.91832 6.78281 5.12676 6.78425 5.20812C6.78533 5.28156 6.66689 5.355 6.54521 5.35608ZM15.4441 5.1462C14.539 5.24736 13.6322 5.31108 12.7217 5.3406C11.9855 5.36436 11.2497 5.36652 10.5146 5.35068C9.51953 5.32944 8.52629 5.26428 7.53701 5.14368C7.44845 5.13288 7.42253 5.10768 7.46825 5.02668C7.67345 4.66344 7.85597 4.28508 8.08853 3.9402C8.45609 3.3948 8.98889 3.1158 9.65021 3.10824C10.2694 3.10104 10.889 3.1068 11.5082 3.1068V3.10608C12.1007 3.10608 12.6929 3.10536 13.2855 3.10608C14.0577 3.10716 14.6362 3.447 15.0225 4.11228C15.1935 4.40712 15.3526 4.70916 15.5204 5.00616C15.574 5.10156 15.5585 5.13324 15.4441 5.1462ZM16.2861 10.751C16.2839 10.9166 16.2364 10.9631 16.0658 10.9649C15.8998 10.9667 15.7342 10.9652 15.5683 10.9652C15.3933 10.9649 15.2187 10.9634 15.0437 10.9652C14.9141 10.9667 14.8537 10.9004 14.8511 10.7766C14.8486 10.6466 14.8533 10.5167 14.849 10.3867C14.8465 10.3043 14.8832 10.2809 14.9609 10.2751C15.358 10.2442 15.7547 10.21 16.1515 10.1725C16.2487 10.1635 16.2926 10.1884 16.2883 10.2938C16.2818 10.4461 16.2883 10.5984 16.2861 10.751ZM17.0925 5.26392C17.1058 5.33304 17.0597 5.35788 16.9946 5.3568C16.8959 5.355 16.7973 5.35644 16.6987 5.35644C16.6 5.35644 16.501 5.3604 16.4027 5.35536C16.2447 5.34672 16.1993 5.2434 16.2641 5.10336C16.3351 4.94964 16.4391 4.89564 16.6033 4.91436C16.7185 4.92768 16.8362 4.91688 16.9528 4.91724C16.9798 4.91724 17.014 4.9086 17.0324 4.92156C17.1627 5.01408 17.0702 5.15016 17.0925 5.26464V5.26392Z" fill="#5B5D6B"/>
<path d="M13.8355 8.82288C13.7855 8.532 13.7153 8.24328 13.635 7.95888C13.5605 7.695 13.3128 7.51536 13.0392 7.51428C12.2774 7.51176 11.5157 7.51212 10.7539 7.5132C10.8039 7.587 10.8515 7.6644 10.8968 7.74468C10.9425 7.82604 10.9861 7.90416 11.0279 7.97904C11.6784 7.97904 12.3289 7.97904 12.9794 7.97832C13.1126 7.97832 13.1886 8.03664 13.2181 8.16588C13.2671 8.38008 13.3229 8.59284 13.3689 8.8074C13.4053 8.97732 13.3229 9.07812 13.1483 9.07884C13.1076 9.07884 13.0673 9.07884 13.0266 9.07884C13.0266 9.14508 13.0259 9.20988 13.0255 9.27072C13.0248 9.3726 13.0075 9.46512 12.9765 9.54756C13.0381 9.54756 13.1 9.5472 13.1616 9.54648C13.5702 9.54324 13.8996 9.19548 13.8355 8.82252V8.82288Z" fill="#5B5D6B"/>
<path d="M1.88996 8.74765C2.02388 8.50429 2.1542 8.27965 2.273 8.04925C2.53076 7.54921 2.8706 7.12981 3.37964 6.86269C3.75512 6.66541 4.15436 6.58405 4.57412 6.58441C5.74304 6.58441 6.91232 6.58333 8.08124 6.58549C9.08132 6.58729 9.82292 7.02937 10.3075 7.90345C10.4601 8.17885 10.6124 8.45389 10.7654 8.73037C10.8172 8.71849 10.814 8.66773 10.8374 8.63821C10.9468 8.50069 11.0833 8.41609 11.264 8.41609C11.4897 8.41609 11.7154 8.41465 11.9412 8.41645C12.2158 8.41861 12.3987 8.60221 12.3998 8.87401C12.4002 9.00937 12.4005 9.14473 12.3998 9.28009C12.3991 9.56413 12.2212 9.74125 11.9336 9.74305C11.844 9.74377 11.754 9.74305 11.6452 9.74305C11.7154 9.82441 11.7784 9.89029 11.8332 9.96193C11.9566 10.1243 12.0196 10.3097 12.02 10.5138C12.0211 11.43 12.0229 12.3462 12.0193 13.2628C12.0182 13.5468 11.89 13.774 11.6636 13.9417C11.6053 13.9849 11.5844 14.0278 11.5855 14.098C11.5894 14.328 11.5873 14.5584 11.5873 14.7884C11.5873 15.0948 11.3742 15.354 11.0678 15.3785C10.6362 15.4127 10.2016 15.412 9.77 15.3778C9.48632 15.3554 9.26996 15.1038 9.25988 14.819C9.25448 14.6704 9.25412 14.521 9.25988 14.3723C9.26312 14.2891 9.2408 14.2654 9.15368 14.2718C7.99664 14.3568 6.8378 14.3964 5.67752 14.3734C4.96508 14.3593 4.253 14.3309 3.54236 14.2718C3.44156 14.2636 3.39332 14.2798 3.40376 14.395C3.4142 14.5069 3.40628 14.6203 3.40628 14.7334C3.40628 15.1326 3.1748 15.3835 2.78024 15.3932C2.41952 15.4019 2.05808 15.4012 1.697 15.3925C1.31036 15.3832 1.07708 15.1315 1.07672 14.7413C1.07672 14.5246 1.07456 14.3078 1.07816 14.0915C1.07924 14.027 1.06196 13.9867 1.00724 13.9468C0.760639 13.7675 0.642559 13.5216 0.643279 13.216C0.644719 12.3854 0.651919 11.5549 0.640039 10.7244C0.634639 10.3543 0.704839 10.0278 1.00904 9.76933C0.905719 9.72541 0.812479 9.74593 0.722839 9.74413C0.449599 9.73873 0.266719 9.55909 0.264919 9.28657C0.263839 9.13753 0.262759 8.98885 0.264919 8.83981C0.268519 8.60905 0.456079 8.41933 0.686839 8.41609C0.930559 8.41285 1.17428 8.41177 1.418 8.41645C1.63652 8.42077 1.78412 8.54209 1.88996 8.74729V8.74765ZM6.341 13.9388C6.6254 13.9388 6.9098 13.9471 7.19384 13.9374C7.9826 13.9108 8.77064 13.8719 9.55796 13.8121C10.0969 13.7711 10.6365 13.7344 11.1736 13.675C11.4505 13.6444 11.588 13.4834 11.588 13.2062C11.588 12.317 11.5866 11.4282 11.5894 10.539C11.5898 10.3842 11.539 10.2596 11.4278 10.1538C11.2417 9.97633 11.0505 9.80281 10.8781 9.61273C10.7755 9.50005 10.6686 9.48421 10.5307 9.50473C9.8078 9.61129 9.07988 9.66925 8.35124 9.71173C7.45412 9.76393 6.55556 9.74377 5.65772 9.74557C4.78652 9.74737 3.91784 9.69841 3.05096 9.61129C2.73272 9.57925 2.41448 9.55189 2.09876 9.50041C1.98392 9.48169 1.89536 9.50689 1.8104 9.59617C1.62068 9.79525 1.41944 9.98317 1.22144 10.1747C1.12532 10.2676 1.07636 10.3799 1.07636 10.5124C1.07636 11.4196 1.07564 12.3268 1.0778 13.234C1.07816 13.4784 1.23512 13.6498 1.48136 13.6746C2.15384 13.7423 2.82776 13.7948 3.50204 13.8388C4.4474 13.9003 5.39312 13.9518 6.34136 13.9396L6.341 13.9388ZM6.3464 7.02793C6.3464 7.02505 6.3464 7.02181 6.3464 7.01893C5.7596 7.01893 5.1728 7.02145 4.586 7.01821C3.93404 7.01461 3.37928 7.23709 2.97428 7.75369C2.67044 8.14105 2.47964 8.60113 2.23412 9.02593C2.19668 9.09073 2.23952 9.09037 2.28344 9.09469C2.55668 9.12205 2.82956 9.14977 3.1028 9.17749C3.884 9.25669 4.66736 9.30025 5.45216 9.30961C7.09016 9.32905 8.72636 9.30673 10.3546 9.09757C10.4522 9.08497 10.4572 9.06337 10.4137 8.98633C10.2186 8.64109 10.0389 8.28649 9.83048 7.94989C9.47984 7.38325 8.96144 7.05997 8.29544 7.03333C7.64672 7.00741 6.99584 7.02757 6.34604 7.02757L6.3464 7.02793ZM10.4367 14.9609C10.4367 14.9609 10.4367 14.9594 10.4367 14.9587C10.6034 14.9587 10.7701 14.9612 10.9368 14.958C11.1038 14.9548 11.1535 14.9026 11.1542 14.7384C11.1553 14.567 11.1499 14.3957 11.1571 14.225C11.1607 14.1394 11.1358 14.1185 11.052 14.1264C10.6221 14.1664 10.1916 14.2031 9.761 14.2355C9.6944 14.2405 9.69044 14.2715 9.6908 14.3208C9.69188 14.4605 9.6908 14.6002 9.69188 14.7398C9.69296 14.904 9.74192 14.9566 9.90968 14.9605C10.0854 14.9645 10.261 14.9616 10.4367 14.9616V14.9609ZM2.22944 14.9587C2.22944 14.9587 2.22944 14.9576 2.22944 14.9573C2.40548 14.9573 2.58116 14.9609 2.7572 14.9562C2.92928 14.9519 2.97284 14.904 2.97356 14.7355C2.97428 14.6002 2.97212 14.4648 2.97428 14.3294C2.97536 14.2736 2.9696 14.2398 2.89832 14.2344C2.46704 14.202 2.03612 14.1664 1.60556 14.1271C1.5224 14.1196 1.50728 14.1527 1.50872 14.2243C1.51232 14.3957 1.5098 14.567 1.51052 14.7384C1.51124 14.8993 1.55624 14.9522 1.71536 14.9573C1.88672 14.9627 2.05808 14.9584 2.22944 14.9584V14.9587ZM1.10912 9.31141V9.31033C1.16312 9.31033 1.21712 9.31033 1.27112 9.31033C1.32512 9.31033 1.37948 9.31321 1.43312 9.30961C1.57208 9.30025 1.62284 9.18469 1.57136 9.06265C1.49468 8.88193 1.37372 8.81425 1.18472 8.84773C1.14116 8.85529 1.09472 8.84773 1.04972 8.84917C0.938119 8.85169 0.790159 8.81317 0.723919 8.86969C0.645799 8.93665 0.709879 9.09001 0.695839 9.20449C0.685759 9.28585 0.712039 9.31897 0.798439 9.31321C0.901399 9.30637 1.00544 9.31141 1.10912 9.31141ZM11.5552 9.31033V9.31105C11.5732 9.31105 11.5912 9.31105 11.6092 9.31105C11.9862 9.31105 11.9836 9.31141 11.9692 8.93521C11.9664 8.86069 11.9408 8.84557 11.8742 8.84737C11.7392 8.85169 11.6028 8.86105 11.4696 8.84557C11.291 8.82505 11.1787 8.88121 11.102 9.04933C11.0343 9.19765 11.0876 9.30529 11.2582 9.30961C11.3572 9.31213 11.4562 9.30997 11.5552 9.30997V9.31033Z" fill="#5B5D6B"/>
<path d="M6.31899 13.5018C5.79555 13.5018 5.27211 13.5025 4.74831 13.5018C4.19355 13.5007 3.91023 13.1479 4.03011 12.6094C4.07475 12.4085 4.11975 12.2072 4.16835 12.0071C4.24791 11.678 4.50423 11.4786 4.84407 11.4786C5.83227 11.4786 6.82083 11.4786 7.80903 11.479C8.16903 11.479 8.41635 11.6741 8.49843 12.0229C8.54739 12.2314 8.59491 12.4402 8.64279 12.6486C8.75223 13.1234 8.46099 13.4968 7.97031 13.5007C7.41987 13.5054 6.86907 13.5018 6.31863 13.5022L6.31899 13.5018ZM6.33483 13.0684C6.87591 13.0687 7.41699 13.0694 7.95771 13.0684C8.18163 13.068 8.27127 12.9582 8.22267 12.7393C8.17623 12.5291 8.11647 12.3217 8.07291 12.1108C8.04375 11.9696 7.95807 11.9117 7.82631 11.9117C6.82983 11.9106 5.83371 11.9106 4.83723 11.9117C4.70979 11.9117 4.62411 11.9682 4.59567 12.1003C4.55175 12.3019 4.50387 12.5028 4.45815 12.704C4.39515 12.9816 4.46535 13.0684 4.75191 13.0684C5.27931 13.0684 5.80671 13.0684 6.33447 13.0684H6.33483Z" fill="#5B5D6B"/>
<path d="M2.52902 11.0358C2.7137 11.0358 2.89874 11.0329 3.08342 11.0365C3.35378 11.0419 3.52982 11.2151 3.53846 11.4844C3.54314 11.6284 3.54206 11.7731 3.53774 11.9171C3.52982 12.1792 3.34298 12.3646 3.0791 12.3671C2.70506 12.3707 2.33102 12.371 1.95662 12.366C1.70282 12.3628 1.51598 12.1705 1.51166 11.9182C1.50914 11.7695 1.50914 11.6208 1.51166 11.4721C1.51634 11.2226 1.68626 11.0452 1.93358 11.0376C2.13158 11.0318 2.3303 11.0365 2.52866 11.0365C2.52866 11.0365 2.52866 11.0362 2.52866 11.0358H2.52902ZM2.52398 11.4707C2.52398 11.4707 2.52398 11.4692 2.52398 11.4685C2.4473 11.4685 2.37098 11.4685 2.2943 11.4685C1.92458 11.4682 1.92746 11.4678 1.94114 11.8411C1.94402 11.9228 1.9757 11.938 2.0459 11.9376C2.36558 11.9351 2.68526 11.9344 3.00494 11.9365C3.07082 11.9369 3.10682 11.9228 3.10358 11.8483C3.09962 11.754 3.09962 11.659 3.10358 11.5646C3.10646 11.4955 3.0809 11.4682 3.01034 11.4696C2.84834 11.4732 2.68598 11.4707 2.52398 11.4707Z" fill="#5B5D6B"/>
<path d="M10.1492 11.0365C10.3343 11.0365 10.5193 11.0336 10.7044 11.0372C10.9733 11.0423 11.1511 11.223 11.1536 11.4894C11.1551 11.6294 11.1554 11.7691 11.154 11.9092C11.1515 12.1655 10.9726 12.361 10.718 12.3656C10.3346 12.3728 9.95089 12.3718 9.56749 12.3656C9.32305 12.3617 9.14053 12.173 9.12973 11.9218C9.12325 11.7731 9.12361 11.6237 9.12973 11.475C9.14053 11.2129 9.31801 11.0412 9.58045 11.0365C9.76981 11.0333 9.95953 11.0358 10.1489 11.0365H10.1492ZM10.1449 11.9351C10.2216 11.9351 10.2979 11.9351 10.3746 11.9351C10.726 11.9351 10.7216 11.9351 10.7238 11.5855C10.7242 11.4862 10.6896 11.466 10.6 11.4678C10.3706 11.4728 10.141 11.4689 9.91129 11.4685C9.53365 11.4678 9.53545 11.4674 9.56065 11.8458C9.56533 11.9174 9.59125 11.9376 9.65857 11.9362C9.82057 11.9326 9.98257 11.9351 10.1446 11.9351H10.1449Z" fill="#5B5D6B"/>
<path d="M2.53789 12.8236C2.76325 12.8236 2.98861 12.8214 3.21397 12.8243C3.36553 12.8261 3.46093 12.9107 3.46093 13.0342C3.46093 13.1573 3.36445 13.2552 3.22009 13.2563C2.75605 13.2599 2.29165 13.2599 1.82761 13.2556C1.67569 13.2541 1.59073 13.1656 1.59181 13.0338C1.59325 12.9038 1.67965 12.8264 1.83517 12.8246C2.06953 12.8221 2.30389 12.8239 2.53825 12.8239L2.53789 12.8236Z" fill="#5B5D6B"/>
<path d="M10.1424 12.8236C10.3721 12.8236 10.6018 12.8214 10.8311 12.8243C10.9866 12.8264 11.0712 12.9035 11.073 13.0352C11.0748 13.1652 10.9891 13.2545 10.8376 13.2556C10.3739 13.2595 9.91022 13.2592 9.44654 13.2548C9.30254 13.2534 9.2057 13.1548 9.20606 13.0327C9.20606 12.9082 9.29894 12.8268 9.45374 12.825C9.68342 12.8221 9.9131 12.8243 10.1424 12.8243V12.8236Z" fill="#5B5D6B"/>
</svg>
