<svg width="18" height="18" viewBox="0 0 18 18" fill="none" xmlns="http://www.w3.org/2000/svg">
<path d="M8.42392 12.6821C8.42392 12.5723 8.42032 12.4625 8.42536 12.353C8.42824 12.285 8.40376 12.2479 8.33824 12.2306C8.12044 12.1727 7.90372 12.1118 7.68592 12.0532C7.40764 11.9783 7.12936 11.9012 6.86584 11.7832C6.56056 11.6467 6.47524 11.3987 6.62716 11.115C6.71104 10.9588 6.91084 10.8785 7.1362 10.9289C7.32232 10.9706 7.50448 11.0293 7.68772 11.084C8.074 11.2 8.45704 11.3288 8.86348 11.3591C9.2944 11.3911 9.71884 11.3778 10.1004 11.1442C10.4756 10.9148 10.5342 10.7194 10.4849 10.2776C10.4709 10.1516 10.383 10.048 10.2772 9.97416C9.9658 9.75708 9.62164 9.61416 9.25624 9.51084C8.61148 9.32868 7.9606 9.1566 7.36912 8.82972C6.93352 8.58888 6.64012 8.21952 6.55912 7.72416C6.49 7.30116 6.62428 6.91236 6.86908 6.5628C7.11496 6.21216 7.45156 5.99112 7.85908 5.87268C8.0092 5.82912 8.15896 5.78196 8.31052 5.74416C8.39836 5.7222 8.42464 5.66856 8.42428 5.5872C8.42356 5.39892 8.42428 5.211 8.425 5.02272C8.42536 4.84308 8.4934 4.69512 8.65108 4.60584C8.82928 4.50504 9.00712 4.52664 9.17164 4.64652C9.3088 4.7466 9.34372 4.89636 9.35092 5.0526C9.35812 5.2092 9.35164 5.36616 9.3538 5.52276C9.3556 5.65488 9.38476 5.69124 9.51436 5.70744C9.82576 5.74668 10.1307 5.814 10.4327 5.89752C10.517 5.92092 10.599 5.95368 10.6793 5.9886C10.8899 6.0804 11.0732 6.30432 10.9324 6.61536C10.8348 6.83064 10.634 6.93504 10.3571 6.84468C10.112 6.7644 9.86104 6.70968 9.60868 6.66792C9.11224 6.58656 8.61652 6.5754 8.13844 6.7716C7.93684 6.8544 7.74748 6.957 7.61248 7.137C7.40908 7.40844 7.45264 7.74756 7.723 7.95024C7.9228 8.1 8.14888 8.20008 8.38324 8.2836C8.71408 8.40132 9.05464 8.48448 9.3916 8.5806C9.8632 8.71488 10.3215 8.88588 10.7283 9.16668C11.2344 9.51588 11.489 10.004 11.4555 10.6182C11.4357 10.9829 11.283 11.3076 11.0447 11.5891C10.86 11.8073 10.6307 11.9567 10.3679 12.0643C10.0904 12.1777 9.80452 12.2515 9.50644 12.2832C9.3682 12.2976 9.35524 12.3156 9.3538 12.4553C9.352 12.6216 9.3556 12.7876 9.35164 12.9539C9.34768 13.1105 9.29512 13.2516 9.1756 13.3553C9.02908 13.4827 8.85448 13.4766 8.68816 13.4111C8.52256 13.3459 8.4376 13.2066 8.42716 13.0295C8.42032 12.9139 8.42572 12.7976 8.42572 12.6817C8.425 12.6817 8.42464 12.6817 8.42392 12.6817V12.6821Z" fill="#5B5D6B"/>
<path d="M8.99959 1.476C4.84411 1.476 1.47559 4.84452 1.47559 9C1.47559 13.1555 4.84411 16.524 8.99959 16.524C13.1551 16.524 16.5236 13.1555 16.5236 9C16.5236 4.84452 13.1551 1.476 8.99959 1.476ZM8.99959 16.0182C5.12347 16.0182 1.98139 12.8761 1.98139 9C1.98139 5.12388 5.12347 1.9818 8.99959 1.9818C12.8757 1.9818 16.0178 5.12388 16.0178 9C16.0178 12.8761 12.8757 16.0182 8.99959 16.0182Z" fill="#5B5D6B"/>
</svg>
