<svg width="24" height="24" viewBox="0 0 24 24" fill="none" xmlns="http://www.w3.org/2000/svg">
<path d="M22.7978 13.6568L20.8837 6.81475C19.4817 1.86661 14.292 -1.04093 9.27744 0.346154C5.93443 1.26643 3.35976 3.93389 2.60489 7.2949L1.12209 13.9102C0.515499 16.6043 2.22745 19.2718 4.96387 19.872C5.32783 19.952 5.69179 19.992 6.05574 19.992H7.18806C7.74073 22.6995 10.4098 24.4467 13.1462 23.8999C15.1412 23.4997 16.6914 21.9659 17.0958 19.992H17.945C20.7354 19.992 23 17.7514 23 14.9905C23 14.5371 22.9326 14.0836 22.8113 13.6568H22.7978ZM12.1352 21.9926C10.8546 21.9926 9.72228 21.1924 9.29093 19.992H14.9794C14.5481 21.1924 13.4158 21.9926 12.1352 21.9926ZM20.3445 16.8044C19.7783 17.5513 18.8751 17.9914 17.9316 17.9914H6.05574C4.38423 17.9914 3.02276 16.6444 3.02276 14.9905C3.02276 14.7771 3.04972 14.5504 3.09016 14.337L4.57295 7.72169C5.46263 3.78718 9.42572 1.2931 13.4158 2.17337C16.0848 2.76021 18.2011 4.74747 18.9425 7.36158L20.8567 14.2036C21.1128 15.1106 20.9241 16.0709 20.3445 16.8177V16.8044Z" fill="#3F76DF"/>
</svg>
