<svg width="65" height="64" viewBox="0 0 65 64" fill="none" xmlns="http://www.w3.org/2000/svg">
<g clip-path="url(#clip0_1975_4707)">
<path d="M32.5226 64C15.1042 64.0626 0.652326 49.7628 0.509149 32.4698C0.365972 14.6756 14.3123 0.044723 32.3928 -1.97501e-05C50.8134 -0.0447625 64.3973 14.5906 64.4913 31.6734C64.5897 49.6823 50.442 63.9373 32.5226 64ZM32.5763 58.2013C46.9521 58.1968 58.6926 46.4698 58.706 32.1029C58.715 17.5347 47.0416 5.74942 32.536 5.81654C17.9543 5.88812 6.37045 17.3154 6.34808 31.9552C6.3257 46.5906 17.9275 58.0939 32.5807 58.2013H32.5763Z" fill="#D55A67"/>
<path d="M35.3816 27.1946C35.3816 29.6868 35.4039 32.179 35.3726 34.6712C35.3458 36.7427 34.3614 37.8345 32.5941 37.8568C30.7417 37.8792 29.6769 36.7562 29.6679 34.6712C29.6455 29.5526 29.6455 24.434 29.6679 19.3199C29.6769 17.2886 30.8312 16.0448 32.5986 16.0761C34.2809 16.1029 35.3502 17.3155 35.3726 19.3199C35.4039 21.9463 35.3816 24.5727 35.3816 27.1946Z" fill="#D55A67"/>
<path d="M36.321 46.1476C36.321 48.3087 34.6879 49.9463 32.5358 49.9508C30.4105 49.9552 28.7147 48.2819 28.7013 46.1655C28.6834 44.0313 30.4507 42.2684 32.585 42.2774C34.67 42.2863 36.3255 44 36.321 46.1476Z" fill="#D55A67"/>
</g>
<defs>
<clipPath id="clip0_1975_4707">
<rect width="63.9821" height="64" fill="white" transform="translate(0.509033)"/>
</clipPath>
</defs>
</svg>
