<svg width="220" height="35" viewBox="0 0 220 35" fill="none" xmlns="http://www.w3.org/2000/svg">
<g clip-path="url(#clip0_2543_5009)">
<path fill-rule="evenodd" clip-rule="evenodd" d="M19.4277 15.928C19.5056 23.1507 21.2419 29.0738 28.0382 34.5637H37.7825C30.0757 29.4461 23.7363 23.2895 19.4277 15.928Z" fill="#102155"/>
<path fill-rule="evenodd" clip-rule="evenodd" d="M20.1216 7.02985C20.6868 1.84462 22.6431 0.162462 25.1883 0C44.7548 0.324923 43.7699 17.776 23.5096 17.9723C38.5102 15.4135 29.9979 0.321539 20.1216 7.02985Z" fill="#FCB614"/>
<path fill-rule="evenodd" clip-rule="evenodd" d="M19.1772 7.02985C18.612 1.84462 16.6557 0.162462 14.1105 0C-3.44892 0.291077 -4.45415 14.3745 10.1674 17.4037C-4.45415 20.4329 -3.44892 34.5129 14.1105 34.8074C16.6523 34.6449 18.612 32.9628 19.1772 27.7775C9.98123 34.0222 1.33693 21.0015 13.9243 17.4477C1.19816 13.376 10.2046 0.937539 19.1772 7.02985Z" fill="#F48120"/>
<path d="M63.0182 27.9569C62.3683 27.1209 61.688 26.2544 60.9806 25.3575C60.6963 25.0021 60.4222 24.64 60.1446 24.2778C61.6372 23.5264 62.8286 22.5077 63.7086 21.2181C64.6462 19.8473 65.1166 18.2938 65.1166 16.5609C65.1166 13.7584 64.1351 11.5415 62.1686 9.90673C60.2022 8.27535 57.2711 7.45966 53.372 7.45966C51.9843 7.45966 50.6474 7.53073 49.3646 7.67627C48.0785 7.82181 46.9616 8.0655 46.0071 8.41412C45.4892 8.58673 45.0696 8.83381 44.7514 9.15196C44.4332 9.47012 44.2742 9.90335 44.2742 10.4517V31.6021C44.2742 32.7597 44.5416 33.5686 45.0763 34.0289C45.6111 34.4892 46.5283 34.7227 47.828 34.7227C48.4339 34.7227 49.0262 34.6855 49.6049 34.6144C50.1837 34.5433 50.6 34.4621 50.8606 34.3775V25.5809H54.0422L58.3576 32.2113C58.8483 32.9898 59.3763 33.6193 59.9382 34.0966C60.5034 34.5738 61.3191 34.8107 62.3852 34.8107C63.2212 34.8107 63.9726 34.5738 64.6394 34.0966C65.3028 33.6193 65.7665 32.9492 66.0271 32.0793C65.7089 31.5886 65.2892 30.9895 64.7714 30.2787C64.2502 29.5713 63.6646 28.7997 63.0148 27.9603L63.0182 27.9569ZM50.8166 13.0037C51.1923 12.9157 51.5816 12.8615 51.9877 12.831C52.3905 12.804 52.8406 12.787 53.3314 12.787C55.0643 12.787 56.3505 13.112 57.1899 13.7618C58.0259 14.4117 58.4456 15.3593 58.4456 16.6015C58.4456 17.8437 58.0056 18.8353 57.1222 19.4852C56.2388 20.135 55.0779 20.46 53.6326 20.46H50.8166V13.0037Z" fill="#102155"/>
<path d="M87.7868 8.92861C85.9489 7.94707 83.7997 7.4563 81.3391 7.4563C79.6603 7.4563 78.0459 7.72368 76.4957 8.25845C74.9456 8.79322 73.5511 9.60553 72.3225 10.6954C71.0905 11.7818 70.1089 13.1661 69.3779 14.8415C68.6468 16.5169 68.2812 18.5003 68.2812 20.7815C68.2812 23.8852 68.904 26.4745 70.1529 28.5425C71.4019 30.6105 73.1246 32.164 75.3179 33.1997C77.5111 34.2354 79.9819 34.7532 82.7302 34.7532C84.6222 34.7532 86.3077 34.5738 87.7868 34.2185C89.2659 33.8631 90.4268 33.3283 91.2662 32.6141C92.1056 31.9 92.5252 31.0098 92.5252 29.9369C92.5252 29.2938 92.356 28.688 92.0176 28.116C91.6791 27.5474 91.2425 27.0972 90.7077 26.7791C89.8852 27.2428 88.8157 27.6895 87.4957 28.116C86.1757 28.5458 84.7677 28.7591 83.2683 28.7591C81.4136 28.7591 79.8059 28.3394 78.452 27.5C77.3689 26.8298 76.6209 25.7975 76.1979 24.4098L90.2237 22.3385C91.2933 22.1963 92.1326 21.8375 92.7385 21.2689C93.3443 20.6969 93.6489 19.8609 93.6489 18.7541C93.6489 16.544 93.1311 14.5978 92.0954 12.9191C91.0597 11.2437 89.6246 9.91353 87.7868 8.93199V8.92861ZM75.7037 19.0554C75.8526 17.3258 76.4077 15.9618 77.3791 14.9769C78.4486 13.8871 79.7856 13.3455 81.3932 13.3455C83.0009 13.3455 84.0874 13.7754 84.8726 14.6317C85.6579 15.488 86.0843 16.4154 86.1588 17.4138L75.7071 19.0588L75.7037 19.0554Z" fill="#102155"/>
<path d="M131.912 8.42091C130.308 7.77784 128.575 7.4563 126.72 7.4563C124.544 7.4563 122.706 7.78799 121.206 8.44461C120.171 8.90153 119.216 9.42614 118.333 10.0117C117.409 9.25691 116.37 8.67138 115.212 8.25845C113.713 7.72368 112.109 7.4563 110.396 7.4563C108.541 7.4563 106.758 7.70676 105.045 8.2043C103.332 8.70522 101.887 9.36184 100.709 10.1843C99.9951 10.648 99.4535 11.1726 99.0778 11.7649C98.7055 12.3538 98.516 13.0951 98.516 13.9852V30.6308C98.516 32.0218 98.8646 32.9831 99.5584 33.5212C100.256 34.056 101.352 34.3234 102.848 34.3234C103.596 34.3234 104.294 34.2794 104.937 34.1914C105.58 34.1034 106.077 34.0052 106.436 33.8969V14.7908C106.866 14.5437 107.39 14.3 108.017 14.0698C108.639 13.8397 109.347 13.7212 110.132 13.7212C111.202 13.7212 112.095 14.0089 112.809 14.5775C113.523 15.1495 113.879 16.0397 113.879 17.2548V30.6341C113.879 32.0252 114.227 32.9865 114.921 33.5246C115.618 34.0594 116.732 34.3268 118.265 34.3268C119.013 34.3268 119.71 34.2828 120.354 34.1948C120.997 34.1068 121.494 34.0086 121.853 33.9003V16.236C121.853 15.8671 121.819 15.4981 121.751 15.1292C122.202 14.7941 122.706 14.4929 123.271 14.2289C124.002 13.8905 124.777 13.7212 125.6 13.7212C126.703 13.7212 127.597 14.0089 128.277 14.5775C128.954 15.1495 129.296 16.0397 129.296 17.2548V30.6341C129.296 32.0252 129.641 32.9865 130.338 33.5246C131.035 34.0594 132.149 34.3268 133.682 34.3268C134.43 34.3268 135.127 34.2828 135.77 34.1948C136.414 34.1068 136.894 34.0086 137.216 33.9003V17.0381C137.216 14.7197 136.735 12.8649 135.77 11.4738C134.806 10.0828 133.523 9.06399 131.915 8.4243L131.912 8.42091Z" fill="#102155"/>
<path d="M162.577 9.78491C160.363 8.23138 157.402 7.4563 153.692 7.4563C152.406 7.4563 151.079 7.55445 149.705 7.75076C148.331 7.94707 147.126 8.25845 146.094 8.6883C144.452 9.36522 143.633 10.4551 143.633 11.9545C143.633 12.5975 143.785 13.2101 144.086 13.7991C144.391 14.388 144.757 14.8246 145.183 15.1123C146.219 14.6825 147.386 14.3101 148.69 13.9886C149.993 13.6671 151.319 13.508 152.677 13.508C154.423 13.508 155.77 13.7754 156.718 14.3101C157.662 14.8449 158.136 15.7181 158.136 16.9298V17.5729L151.018 18.3209C148.057 18.6052 145.826 19.4006 144.327 20.7037C142.827 22.0068 142.079 23.8717 142.079 26.2951C142.079 29.1145 143.159 31.2366 145.318 32.6649C147.478 34.0898 150.375 34.8074 154.017 34.8074C156.051 34.8074 157.862 34.6212 159.449 34.2455C161.037 33.8698 162.367 33.3621 163.436 32.7191C164.15 32.3265 164.739 31.856 165.203 31.3009C165.667 30.7492 165.897 30.0249 165.897 29.1348V16.984C165.897 13.7381 164.79 11.3385 162.58 9.78491H162.577ZM158.19 28.0618C157.831 28.2751 157.253 28.4646 156.45 28.6237C155.648 28.7828 154.836 28.864 154.014 28.864C152.514 28.864 151.428 28.6068 150.747 28.0889C150.07 27.5711 149.729 26.884 149.729 26.0277C149.729 25.1714 150.084 24.5317 150.798 24.1018C151.512 23.6754 152.474 23.4249 153.689 23.3505L158.183 22.924V28.0618H158.19Z" fill="#102155"/>
<path d="M192.118 27.7945H180.681L190.777 15.4846C191.241 14.9126 191.623 14.3271 191.928 13.7179C192.229 13.112 192.382 12.4892 192.382 11.8462C192.382 11.0982 192.229 10.428 191.928 9.83908C191.623 9.25016 191.224 8.74247 190.723 8.31262H173.81C172.991 8.31262 172.331 8.55293 171.83 9.03355C171.329 9.51416 171.082 10.3095 171.082 11.4163C171.082 11.9883 171.17 12.5502 171.35 13.1019C171.529 13.6535 171.705 14.1105 171.884 14.4659H182.766L172.419 26.7757C171.993 27.3105 171.624 27.8926 171.322 28.5154C171.018 29.1415 170.866 29.7745 170.866 30.4142C170.866 31.1283 171.008 31.7883 171.295 32.3942C171.58 33 171.972 33.5179 172.473 33.9477H190.242C191.062 33.9477 191.715 33.7006 192.195 33.1997C192.676 32.7022 192.916 31.9135 192.916 30.844C192.916 30.2009 192.835 29.6052 192.676 29.0502C192.517 28.4985 192.331 28.0788 192.114 27.7945H192.118Z" fill="#102155"/>
<path d="M216.683 9.78491C214.47 8.23138 211.508 7.4563 207.798 7.4563C206.512 7.4563 205.186 7.55445 203.811 7.75076C202.437 7.94707 201.232 8.25845 200.2 8.6883C198.558 9.36522 197.739 10.4551 197.739 11.9545C197.739 12.5975 197.892 13.2101 198.193 13.7991C198.498 14.388 198.863 14.8246 199.29 15.1123C200.325 14.6825 201.493 14.3101 202.796 13.9886C204.099 13.6671 205.426 13.508 206.783 13.508C208.53 13.508 209.877 13.7754 210.824 14.3101C211.769 14.8449 212.242 15.7181 212.242 16.9298V17.5729L205.125 18.3209C202.163 18.6052 199.933 19.4006 198.433 20.7037C196.934 22.0068 196.186 23.8717 196.186 26.2951C196.186 29.1145 197.266 31.2366 199.425 32.6649C201.584 34.0898 204.482 34.8074 208.123 34.8074C210.158 34.8074 211.968 34.6212 213.556 34.2455C215.143 33.8698 216.473 33.3621 217.543 32.7191C218.257 32.3265 218.846 31.856 219.31 31.3009C219.773 30.7492 220.003 30.0249 220.003 29.1348V16.984C220.003 13.7381 218.897 11.3385 216.686 9.78491H216.683ZM212.297 28.0618C211.938 28.2751 211.359 28.4646 210.557 28.6237C209.755 28.7828 208.942 28.864 208.12 28.864C206.621 28.864 205.534 28.6068 204.854 28.0889C204.177 27.5711 203.835 26.884 203.835 26.0277C203.835 25.1714 204.19 24.5317 204.905 24.1018C205.619 23.6754 206.58 23.4249 207.795 23.3505L212.29 22.924V28.0618H212.297Z" fill="#102155"/>
</g>
<defs>
<clipPath id="clip0_2543_5009">
<rect width="220" height="34.804" fill="white"/>
</clipPath>
</defs>
</svg>
