<svg width="117" height="104" viewBox="0 0 117 104" fill="none" xmlns="http://www.w3.org/2000/svg">
<path fill-rule="evenodd" clip-rule="evenodd" d="M57.3999 47.53C57.6299 68.87 62.7599 86.37 82.8399 102.59H111.63C88.8599 87.47 70.1299 69.28 57.3999 47.53Z" fill="#102155"/>
<path fill-rule="evenodd" clip-rule="evenodd" d="M59.4499 21.24C61.1199 5.92 66.8999 0.950001 74.4099 0.470001C132.22 1.43 129.31 52.99 69.4499 53.57C113.77 46.01 88.6199 1.42 59.4399 21.24" fill="#FCB614"/>
<path fill-rule="evenodd" clip-rule="evenodd" d="M56.6599 21.24C54.9899 5.92 49.2099 0.950001 41.6899 0.470001C-10.1901 1.33 -13.1601 42.94 30.0399 51.89C-13.1601 60.84 -10.1901 102.44 41.6899 103.31C49.1999 102.83 54.9899 97.86 56.6599 82.54C29.4899 100.99 3.94994 62.52 41.1399 52.02C3.53994 40 30.1499 3.25 56.6599 21.25" fill="#F48120"/>
</svg>
