<svg width="24" height="24" viewBox="0 0 24 24" fill="none" xmlns="http://www.w3.org/2000/svg">
<g clip-path="url(#clip0_4615_26990)">
<path d="M19.5 0H4.5C2.425 0 0.75 1.78667 0.75 4V16C0.75 18.2133 2.425 20 4.5 20H7.225L11.4 23.76C11.75 24.08 12.2625 24.08 12.6125 23.76L16.7875 20H19.5C21.575 20 23.25 18.2133 23.25 16V4C23.25 1.78667 21.575 0 19.5 0ZM21.375 16C21.375 17.1067 20.5375 18 19.5 18H16.7875C16.35 18 15.9125 18.1733 15.575 18.4667L12 21.68L8.425 18.4667C8.0875 18.16 7.6625 18 7.2125 18H4.5C3.4625 18 2.625 17.1067 2.625 16V4C2.625 2.89333 3.4625 2 4.5 2H19.5C20.5375 2 21.375 2.89333 21.375 4V16Z" fill="#3F76DF"/>
<path d="M7.3125 7H12C12.5125 7 12.9375 6.54667 12.9375 6C12.9375 5.45333 12.5125 5 12 5H7.3125C6.8 5 6.375 5.45333 6.375 6C6.375 6.54667 6.8 7 7.3125 7Z" fill="#3F76DF"/>
<path d="M16.6875 9H7.3125C6.8 9 6.375 9.45333 6.375 10C6.375 10.5467 6.8 11 7.3125 11H16.6875C17.2 11 17.625 10.5467 17.625 10C17.625 9.45333 17.2 9 16.6875 9Z" fill="#3F76DF"/>
<path d="M16.6875 13H7.3125C6.8 13 6.375 13.4533 6.375 14C6.375 14.5467 6.8 15 7.3125 15H16.6875C17.2 15 17.625 14.5467 17.625 14C17.625 13.4533 17.2 13 16.6875 13Z" fill="#3F76DF"/>
</g>
<defs>
<clipPath id="clip0_4615_26990">
<rect width="24" height="24" fill="white"/>
</clipPath>
</defs>
</svg>
