<svg width="24" height="24" viewBox="0 0 24 24" fill="none" xmlns="http://www.w3.org/2000/svg">
<g clip-path="url(#clip0_4618_4625)">
<path d="M11.1493 0.2578C11.6649 -0.0843872 12.3399 -0.0843872 12.8555 0.2578L13.6899 0.806238C13.9712 0.98905 14.2993 1.07811 14.6321 1.05936L15.6305 0.998425C16.2493 0.960925 16.8305 1.29843 17.1071 1.85155L17.5571 2.74686C17.7071 3.04686 17.9509 3.28593 18.2462 3.43593L19.1509 3.89061C19.704 4.16718 20.0415 4.74843 20.004 5.36718L19.9431 6.36561C19.9243 6.69843 20.0134 7.03124 20.1962 7.3078L20.7493 8.14218C21.0915 8.6578 21.0915 9.3328 20.7493 9.84843L20.1962 10.6875C20.0134 10.9687 19.9243 11.2969 19.9431 11.6297L20.004 12.6281C20.0415 13.2469 19.704 13.8281 19.1509 14.1047L18.2555 14.5547C17.9555 14.7047 17.7165 14.9484 17.5665 15.2437L17.1118 16.1484C16.8352 16.7016 16.254 17.0391 15.6352 17.0016L14.6368 16.9406C14.304 16.9219 13.9712 17.0109 13.6946 17.1937L12.8602 17.7469C12.3446 18.0891 11.6696 18.0891 11.154 17.7469L10.3149 17.1937C10.0337 17.0109 9.70555 16.9219 9.37274 16.9406L8.3743 17.0016C7.75555 17.0391 7.1743 16.7016 6.89774 16.1484L6.44774 15.2531C6.29774 14.9531 6.05399 14.7141 5.75867 14.5641L4.85399 14.1094C4.30086 13.8328 3.96336 13.2516 4.00086 12.6328L4.0618 11.6344C4.08055 11.3016 3.99149 10.9687 3.80867 10.6922L3.26024 9.85311C2.91805 9.33749 2.91805 8.66249 3.26024 8.14686L3.80867 7.31249C3.99149 7.03124 4.08055 6.70311 4.0618 6.3703L4.00086 5.37186C3.96336 4.75311 4.30086 4.17186 4.85399 3.8953L5.7493 3.4453C6.0493 3.29061 6.29305 3.04686 6.44305 2.74686L6.89305 1.85155C7.16961 1.29843 7.75086 0.960925 8.36961 0.998425L9.36805 1.05936C9.70086 1.07811 10.0337 0.98905 10.3102 0.806238L11.1493 0.2578ZM15.7524 8.99999C15.7524 6.92811 14.0743 5.24999 12.0024 5.24999C9.93055 5.24999 8.25242 6.92811 8.25242 8.99999C8.25242 11.0719 9.93055 12.75 12.0024 12.75C14.0743 12.75 15.7524 11.0719 15.7524 8.99999ZM3.06336 20.7094L5.08367 15.9047C5.09305 15.9094 5.09774 15.9141 5.10242 15.9234L5.55242 16.8187C6.10086 17.9062 7.23992 18.5672 8.45867 18.4969L9.45711 18.4359C9.46649 18.4359 9.48055 18.4359 9.48992 18.4453L10.3243 18.9984C10.5634 19.1531 10.8165 19.275 11.079 19.3594L9.31649 23.5453C9.20867 23.8031 8.96961 23.9766 8.69305 24C8.41649 24.0234 8.1493 23.8969 7.9993 23.6625L6.48992 21.3516L3.86024 21.7406C3.59305 21.7781 3.32586 21.6703 3.15711 21.4594C2.98836 21.2484 2.95555 20.9578 3.05867 20.7094H3.06336ZM14.6884 23.5406L12.9259 19.3594C13.1884 19.275 13.4415 19.1578 13.6805 18.9984L14.5149 18.4453C14.5243 18.4406 14.5337 18.4359 14.5477 18.4359L15.5462 18.4969C16.7649 18.5672 17.904 17.9062 18.4524 16.8187L18.9024 15.9234C18.9071 15.9141 18.9118 15.9094 18.9212 15.9047L20.9462 20.7094C21.0493 20.9578 21.0118 21.2437 20.8477 21.4594C20.6837 21.675 20.4118 21.7828 20.1446 21.7406L17.5149 21.3516L16.0055 23.6578C15.8555 23.8922 15.5884 24.0187 15.3118 23.9953C15.0352 23.9719 14.7962 23.7937 14.6884 23.5406Z" fill="#F48120"/>
</g>
<defs>
<clipPath id="clip0_4618_4625">
<rect width="24" height="24" fill="white"/>
</clipPath>
</defs>
</svg>
