<svg width="24" height="24" viewBox="0 0 24 24" fill="none" xmlns="http://www.w3.org/2000/svg">
<path d="M23.6696 20.937L18.9966 16.2641C18.7857 16.0531 18.4998 15.936 18.1998 15.936H17.4358C18.7294 14.2814 19.4981 12.2004 19.4981 9.93655C19.4981 4.55114 15.1345 0.1875 9.74905 0.1875C4.36364 0.1875 0 4.55114 0 9.93655C0 15.322 4.36364 19.6856 9.74905 19.6856C12.0129 19.6856 14.0939 18.9169 15.7485 17.6233V18.3873C15.7485 18.6873 15.8656 18.9732 16.0766 19.1841L20.7495 23.8571C21.1901 24.2976 21.9025 24.2976 22.3384 23.8571L23.6649 22.5306C24.1055 22.09 24.1055 21.3776 23.6696 20.937ZM9.74905 15.936C6.43531 15.936 3.74963 13.255 3.74963 9.93655C3.74963 6.62281 6.43062 3.93713 9.74905 3.93713C13.0628 3.93713 15.7485 6.61812 15.7485 9.93655C15.7485 13.2503 13.0675 15.936 9.74905 15.936Z" fill="#F48120"/>
</svg>
