<svg xmlns="http://www.w3.org/2000/svg" xmlns:xlink="http://www.w3.org/1999/xlink" width="117.26" height="32" viewBox="0 0 117.26 32">
  <defs>
    <clipPath id="clip-path">
      <rect id="Retângulo_4857" data-name="Retângulo 4857" width="117.26" height="32" fill="#202020"/>
    </clipPath>
  </defs>
  <g id="Grupo_1425" data-name="Grupo 1425" clip-path="url(#clip-path)">
    <path id="Caminho_455" data-name="Caminho 455" d="M0,8.159a8.008,8.008,0,0,0,1.636,5.029,7.934,7.934,0,0,0,4.613,2.644,29.147,29.147,0,0,0,5.495.409c1.523.009,9.477.068,11.931.048a4.3,4.3,0,0,0,1.661-.147c.413-.16.48-.53.5-.934a2.549,2.549,0,0,0-.129-1.26c-.235-.425-.748-.44-1.822-.431-1.173.01-6.947-.028-8.663-.049a24.239,24.239,0,0,1-5.611-.362A4.509,4.509,0,0,1,6.284,9.534,6.36,6.36,0,0,1,6.14,8.183,7.015,7.015,0,0,1,6.694,5.7,4.485,4.485,0,0,1,8.413,3.8c1.5-.9,3.382-.806,5.073-.829,1.853-.025,8.9,0,9.486,0a9.3,9.3,0,0,0,.981-.026.854.854,0,0,0,.848-.716A4.306,4.306,0,0,0,24.812.976c-.115-.9-1.13-.762-1.8-.764C21.089.2,13.924.166,12.268.163A31.914,31.914,0,0,0,7.007.416,8.8,8.8,0,0,0,2.335,2.47,7.409,7.409,0,0,0,.1,6.874C.038,7.3.018,7.728,0,8.159" transform="translate(0 -0.132)" fill="#202020"/>
    <path id="Caminho_456" data-name="Caminho 456" d="M519.024,8.159a8.009,8.009,0,0,0,1.636,5.029,7.934,7.934,0,0,0,4.613,2.644,29.147,29.147,0,0,0,5.495.409c1.523.009,9.477.068,11.931.048a4.3,4.3,0,0,0,1.661-.147c.413-.16.48-.53.5-.934a2.549,2.549,0,0,0-.129-1.26c-.235-.425-.748-.44-1.822-.431-1.173.01-6.947-.028-8.663-.049a24.239,24.239,0,0,1-5.611-.362,4.509,4.509,0,0,1-3.321-3.571,6.36,6.36,0,0,1-.145-1.352,7.015,7.015,0,0,1,.555-2.487,4.484,4.484,0,0,1,1.719-1.9c1.5-.9,3.382-.806,5.073-.829,1.853-.025,8.9,0,9.486,0a9.3,9.3,0,0,0,.981-.026.854.854,0,0,0,.848-.716,4.3,4.3,0,0,0,.011-1.249c-.115-.9-1.13-.762-1.8-.764C540.113.2,532.948.166,531.292.163a31.915,31.915,0,0,0-5.261.253,8.8,8.8,0,0,0-4.672,2.053,7.408,7.408,0,0,0-2.238,4.4c-.059.429-.08.854-.1,1.285" transform="translate(-427.65 -0.132)" fill="#202020"/>
    <path id="Caminho_457" data-name="Caminho 457" d="M191.236,1.939c0-.639.084-1.278-.571-1.684a1.843,1.843,0,0,0-.9-.232,22.93,22.93,0,0,0-3.24.068c-.808.2-1.021.63-1.011,2.285.01,1.7-.006,11.266,0,12.009a2.52,2.52,0,0,0,.316,1.56c.385.506,1.121.466,1.691.467.735,0,1.473.019,2.207-.008.687-.026,1.3-.256,1.446-1a8.193,8.193,0,0,0,.057-1.6c0-1.7.015-11.33.014-11.873" transform="translate(-152.846 0)" fill="#202020"/>
    <path id="Caminho_458" data-name="Caminho 458" d="M455.666,1.939c0-.639.084-1.278-.571-1.684a1.843,1.843,0,0,0-.9-.232,22.93,22.93,0,0,0-3.24.068c-.808.2-1.021.63-1.011,2.285.01,1.7-.006,11.266,0,12.009a2.52,2.52,0,0,0,.316,1.56c.385.506,1.121.466,1.691.467.735,0,1.473.019,2.207-.008.687-.026,1.3-.256,1.446-1a8.2,8.2,0,0,0,.057-1.6c0-1.7.015-11.33.013-11.873" transform="translate(-370.723 0)" fill="#202020"/>
    <path id="Caminho_459" data-name="Caminho 459" d="M269.256,12.5c-.814-1.19-1.631-2.378-2.441-3.571S265.2,6.541,264.4,5.341c-.825-1.237-1.635-2.485-2.464-3.721a3.166,3.166,0,0,0-.674-.839,1.667,1.667,0,0,0-.967-.241c-.732-.021-3.072,0-3.509,0a3.662,3.662,0,0,0-.771.044.9.9,0,0,0-.728.64,1.266,1.266,0,0,0,.217.909c.274.485.6.95.9,1.419.55.856,3.168,4.9,3.976,6.13.008.012,1.58,2.382,2.365,3.552q.578.862,1.157,1.724a9.813,9.813,0,0,0,1.291,1.716,2.859,2.859,0,0,0,1.929.685c.711.038,3.586.028,4.307,0a2.772,2.772,0,0,0,1.928-.681,8.767,8.767,0,0,0,1.129-1.489c.433-.644,2.8-4.2,3.542-5.338.79-1.213,1.59-2.419,2.368-3.64.874-1.372,1.753-2.742,2.623-4.117a1.711,1.711,0,0,0,.388-.906.666.666,0,0,0-.585-.612,9.69,9.69,0,0,0-2.154.02c-.6.153-.895.779-1.205,1.257-.494.76-6.81,10.327-7.169,10.858a9.656,9.656,0,0,1-.919,1.225.893.893,0,0,1-.858.114c-.3-.1-.485-.423-.659-.672-.2-.289-.4-.581-.6-.872" transform="translate(-210.324 -0.431)" fill="#202020"/>
    <path id="Caminho_460" data-name="Caminho 460" d="M508.8,141c-1.16,0-1.374-.229-1.374-1.129v-6.211c0-.9.214-1.13,1.374-1.13h4.38c4.624,0,6.394.9,6.394,4.227,0,3.342-1.632,4.243-6.394,4.243ZM510.5,139.3c0,.351.137.534.564.534h1.969c2.167,0,3.312-.458,3.312-3.1,0-2.625-1.145-3.052-3.312-3.052h-1.969c-.427,0-.564.183-.564.534Z" transform="translate(-418.098 -109.197)" fill="#202020"/>
    <path id="Caminho_461" data-name="Caminho 461" d="M197.164,139.991c0,.9-.214,1.007-1.373,1.007h-.367c-1.1,0-1.327-.107-1.327-1.007v-2.213c0-.351-.138-.534-.565-.534h-4.395c-.427,0-.564.183-.564.534v2.213c0,.9-.214,1.007-1.374,1.007h-.366c-1.1,0-1.328-.107-1.328-1.007v-6.455c0-.9.214-1.007,1.374-1.007h.366c1.1,0,1.328.107,1.328,1.007v1.892c0,.351.137.534.564.534h4.395c.427,0,.565-.183.565-.534v-1.892c0-.9.214-1.007,1.374-1.007h.366c1.1,0,1.327.107,1.327,1.007Z" transform="translate(-152.847 -109.197)" fill="#202020"/>
    <path id="Caminho_462" data-name="Caminho 462" d="M269.189,116.177c-.382.107-.534-.061-.534-.6,0-.58.122-.58.458-.717l2.823-1.129c.32-.137.58-.046.58.793,0,.763-.137.779-.625.916Zm2.594,8.286c0,.9-.229,1.007-1.328,1.007h-.366c-1.16,0-1.374-.107-1.374-1.007v-6.455c0-.9.214-1.007,1.374-1.007h.366c1.1,0,1.328.107,1.328,1.007Z" transform="translate(-221.358 -93.669)" fill="#202020"/>
    <path id="Caminho_463" data-name="Caminho 463" d="M475.721,139.991c0,.9-.229,1.007-1.328,1.007h-.366c-1.16,0-1.374-.107-1.374-1.007v-6.455c0-.9.214-1.007,1.374-1.007h.366c1.1,0,1.328.107,1.328,1.007Z" transform="translate(-389.442 -109.197)" fill="#202020"/>
    <path id="Caminho_464" data-name="Caminho 464" d="M599.018,140.127c-5.463,0-6.471-1.831-6.471-4.441,0-2.625,1.008-4.456,6.471-4.456,5.494,0,6.471,1.831,6.471,4.456,0,2.61-.977,4.441-6.471,4.441m0-7.722c-2.9,0-3.235,1.267-3.235,3.266s.335,3.281,3.235,3.281c2.93,0,3.235-1.282,3.235-3.281,0-1.984-.305-3.266-3.235-3.266" transform="translate(-488.229 -108.127)" fill="#202020"/>
    <path id="Caminho_465" data-name="Caminho 465" d="M315.031,136.2a2.388,2.388,0,0,0,.524-1.582,2.2,2.2,0,0,0-2.29-2.256c-.055,0-.265-.009-.321-.009h-7.3a6.871,6.871,0,0,0-.8.025.789.789,0,0,0-.758.786c-.008.129-.007.392-.006.565v6.453a.559.559,0,0,0,.524.642c.143.015.488.024.9.024h7.624c.061,0,.293-.006.356-.009a2.449,2.449,0,0,0,2.547-2.506,2.5,2.5,0,0,0-1-2.133m-2.9-.5c-.1.012-.291.022-.406.022l-4.367-.009a.464.464,0,0,1-.192-.04.338.338,0,0,1-.186-.232,1.231,1.231,0,0,1-.018-.275c0-.831.007-.99.009-1.023.015-.311.083-.392.332-.392l1.219,0c1,0,1.212,0,1.947,0l1.158,0a3.227,3.227,0,0,1,.5.02.821.821,0,0,1,.765.932c0,.605-.257.944-.76,1m.181,3.616c-.08.01-.323.019-.413.019H307.27c-.245-.026-.283-.105-.3-.391,0-.037-.008-.2-.009-.88V137.6a1.362,1.362,0,0,1,.023-.264.292.292,0,0,1,.179-.211.9.9,0,0,1,.368-.055l4.324,0c.139,0,.352.012.459.025.6.074.874.4.874,1.071a1.014,1.014,0,0,1-.876,1.149" transform="translate(-250.543 -109.05)" fill="#202020" fill-rule="evenodd"/>
    <path id="Caminho_466" data-name="Caminho 466" d="M389.514,140.284c-.186-.019-.311-.095-.311-.4v-6.969c0-.168,0-.629.006-.766.02-.343.195-.4.578-.406.423,0,8.228-.008,8.228-.008.064,0,.314.007.381.01a2.385,2.385,0,0,1,2.555,2.429,2.324,2.324,0,0,1-1.666,2.39c-.094.028-.437.109-.5.127-.233.072-.381.157-.419.293-.047.171.1.336.273.505.244.241,2.442,2.5,2.463,2.522.119.123.076.271-.076.285-.2.018-2.132.011-2.364,0-.392-.025-.418-.038-.747-.353-.13-.125-2.653-2.7-2.705-2.752a1.419,1.419,0,0,0-1.273-.474h-1.206a1.479,1.479,0,0,0-.566.094.638.638,0,0,0-.356.424,1.4,1.4,0,0,0-.03.346v2.307c0,.306-.124.382-.311.4-.139.014-1.814.015-1.958,0m2.9-7.018c-.547.04-.607.36-.622.684-.008.107-.011.039-.01,1V134.4a1.669,1.669,0,0,0,.034.356.6.6,0,0,0,.351.4,1.047,1.047,0,0,0,.386.082h4.083c.17,0,1.876.184,1.876-1.037,0-1.077-1.584-.933-1.725-.936h-3.394v0c-.035,0-.079,0-.132,0h-.847Z" transform="translate(-320.684 -108.542)" fill="#202020" fill-rule="evenodd"/>
  </g>
</svg>
