<?xml version="1.0" encoding="utf-8"?>
<!-- Generator: Adobe Illustrator 28.2.0, SVG Export Plug-In . SVG Version: 6.00 Build 0)  -->
<svg version="1.1" id="Camada_1" xmlns="http://www.w3.org/2000/svg" xmlns:xlink="http://www.w3.org/1999/xlink" x="0px" y="0px"
	 viewBox="0 0 417.2 155.1" style="enable-background:new 0 0 417.2 155.1;" xml:space="preserve">
<g>
	<path d="M376,7.1c6.9,0,13.7,0,20.6,0c3,0,5.9,0.1,8.9,0.1c2.6,0,3.6,1.1,3.7,3.7c0,1.1,0,2.2-0.2,3.3c-0.2,1.5-1.1,2.3-2.6,2.4
		c-3.8,0.1-7.6,0.1-11.4,0.1c-0.4,0-0.8,0-1.2,0c-6.2,0-12.3,0-18.5,0c-4.3,0-8.6,0.1-12.9,0.2c-2.9,0.1-5.8,0.6-8.5,1.8
		c-4.5,2-7.4,5.3-8.8,10c-1.3,4.3-1.5,8.6-0.1,12.8c2.2,6.6,6.9,10.2,13.6,11.1c3.6,0.5,7.3,0.7,11,0.7c6.7,0.1,13.3,0.1,20,0.1
		c6.4,0,12.7,0.1,19.1,0.2c3.7,0,3.9,1.8,4,4.5c0,0.3-0.1,0.6-0.1,0.9c-0.2,3.3-0.7,3.9-4,4.1c-3.9,0.2-7.9,0.1-11.9,0.1
		c-7.9,0-15.7,0-23.6-0.1c-5.7,0-11.3-0.1-17-0.3c-5.2-0.2-10.4-0.6-15.3-2.2C330.4,57.1,324.4,50,323,39c-0.7-5.9-0.1-11.6,2.6-17
		c3.6-7.3,9.8-11.3,17.5-13.3c5.1-1.3,10.2-1.7,15.4-1.7C364.3,7,370.1,7.1,376,7.1L376,7.1z"/>
	<path d="M57.8,7.1c6.9,0,13.7,0,20.6,0c3,0,5.9,0.1,8.9,0.1c2.4,0,3.3,0.8,3.6,3.2c0.1,1.3,0,2.6-0.1,3.9c-0.2,1.3-1.2,2.2-2.6,2.2
		c-3.7,0.1-7.3,0.1-11,0.2c-0.6,0-1.2-0.1-1.8-0.1c-6.3,0-12.6,0-18.9,0c-4.1,0-8.1,0.1-12.2,0.2c-2.9,0.1-5.9,0.6-8.6,1.8
		c-4.3,2-7.2,5.2-8.7,9.8c-1.3,4.1-1.5,8.2-0.3,12.3c2,6.9,6.8,10.7,13.8,11.7c3.5,0.5,7,0.7,10.5,0.7c6.8,0.1,13.7,0.1,20.5,0.1
		c6.4,0,12.8,0.1,19.2,0.2c2.8,0,3.8,1,3.9,3.8c0,0.8,0,1.7,0,2.5c-0.1,1.8-1,2.8-2.7,3c-1.1,0.1-2.1,0.2-3.2,0.2
		c-7.9,0-15.7,0.1-23.6,0c-9-0.1-18-0.1-27-0.3C33,62.5,27.9,62.1,23,60.5C12.8,57.1,6.5,50.2,5,39.3c-1-7.5,0.2-14.5,4.6-20.8
		c3.8-5.4,9.2-8.3,15.4-9.9c5-1.1,10.2-1.5,15.4-1.5C46.2,7,52,7.1,57.8,7.1L57.8,7.1z"/>
	<path d="M209.8,65.6c-3.2,0-6.3,0.1-9.4,0c-2.8-0.1-5-1.7-6.5-4c-4.9-7.2-9.8-14.4-14.5-21.6c-5.6-8.4-11-17-16.5-25.4
		c-0.6-1-1.2-2-1.6-3c-0.8-2.1,0.6-4.1,3.1-4.1c5-0.1,10.1-0.1,15.1,0c1.9,0,3.2,1.2,4.2,2.8c3.9,5.9,7.8,11.8,11.7,17.6
		c5.6,8.3,11.3,16.5,16.9,24.8c1.2,1.8,2.7,2.5,4.2,1.7c0.6-0.3,1.2-0.9,1.6-1.5c5-7.4,10-14.8,14.9-22.2
		c4.4-6.7,8.9-13.4,13.2-20.2c1.4-2.1,3.1-3.2,5.6-3c1.3,0.1,2.6,0,3.8,0c1.2,0,2.4,0.2,3,1.3c0.7,1.2,0.1,2.2-0.5,3.2
		c-3.3,5.2-6.6,10.5-10,15.6c-7.4,11.3-14.9,22.5-22.3,33.7c-2.1,3.3-5.1,4.7-9,4.7c-2.4,0-4.7,0-7.1,0
		C209.8,65.7,209.8,65.7,209.8,65.6z"/>
	<path d="M300.2,35.2c0,7.6,0,15.3,0,22.9c0,0.4,0,0.8,0,1.2c-0.4,3.4-1.5,4.5-5.3,4.7c-3.3,0.2-6.7,0.1-10-0.1
		c-3.1-0.2-4.5-1.8-4.5-4.9c0-5.1,0-10.2,0-15.3c0-10.1,0-20.2,0-30.3c0-1,0.1-1.9,0.3-2.8c0.4-2.1,1.9-3.3,4.3-3.4
		c3.6-0.1,7.3-0.1,10.9,0c2.7,0.1,4.4,1.9,4.4,4.7C300.2,19.6,300.2,27.4,300.2,35.2L300.2,35.2z"/>
	<path d="M138.1,35.3c0,7.7,0,15.3,0,23c0,4.2-1.3,5.6-5.4,5.7c-3.4,0.1-6.9,0-10.3-0.1c-2.3-0.1-3.6-1.4-3.9-3.7
		c-0.1-1-0.2-2-0.2-3c0-7.9,0-15.8,0-23.7c0-6.7,0-13.5,0.1-20.2c0-0.7,0.1-1.4,0.2-2.1c0.4-2.5,1.8-3.9,4.4-3.9
		c3.6-0.1,7.3-0.1,10.9,0c2.8,0.1,4.3,1.9,4.3,4.8C138.1,19.7,138.1,27.5,138.1,35.3L138.1,35.3z"/>
	<path d="M325.7,135.7c3.3,2.8,2.9,7.6,1.1,9.7c-1.3,1.5-3,2.3-4.9,2.3c-7.6,0.1-15.3,0-22.9,0c-1.3,0-1.8-0.5-1.8-1.8
		c0-5.9,0-11.8,0-17.7c0-1.5,0.6-2.1,2-2.4c0.4-0.1,0.8-0.1,1.2-0.1c6.6,0,13.3,0,19.9,0c2.4,0,4.7,0.6,6,3
		C327.4,131.1,327.1,133.4,325.7,135.7z M312,144C312,143.9,312,143.9,312,144c2,0,3.9,0,5.9,0c2-0.1,3-1.1,3-3.1
		c0-1.8-0.9-2.8-2.9-2.8c-3.9-0.1-7.9,0-11.8,0c-0.8,0-1.4,0.4-1.4,1.2c0,1.2,0,2.4,0.1,3.6c0,0.9,0.5,1.1,1.3,1.1
		C308,143.9,310,144,312,144z M311.6,129.4L311.6,129.4c-1.3,0-2.6,0-3.8,0c-3.3,0-3.3,0-3.2,3.3c0,1.5,0.3,1.8,1.8,1.8
		c3.5,0,6.9,0,10.4,0c0.5,0,1.1,0,1.5-0.2c0.6-0.4,1.3-0.8,1.5-1.4c0.7-2.1-0.3-3.4-2.5-3.5C315.4,129.3,313.5,129.4,311.6,129.4z"
		/>
	<path d="M294.4,102.5c0-3.3,0-6.7,0-10c0-2.6,0.6-3.2,3.2-3.2c0.4,0,0.9,0,1.3,0c1.9,0.2,2.4,0.8,2.4,2.7c0,5.7,0,11.3,0,17
		c0,1.4-0.4,1.9-1.9,2.1c-2.8,0.4-5.1-0.3-7.3-2.3c-5.1-4.6-10.4-9-15.7-13.5c-0.9-0.7-1.8-1.5-2.8-2.3c0,0.4-0.1,0.7-0.1,1
		c0,5,0,9.9,0,14.9c0,1.5-0.6,2.1-2,2.2c-1,0.1-2,0.1-3,0c-1.4-0.1-1.9-0.7-2-2.1c0-5.7,0-11.4,0-17.1c0-1.7,0.6-2.3,2.3-2.4
		c2.7,0,5.4,0,8,0c1.5,0,2.8,0.7,3.9,1.7c4,3.6,8.1,7.1,12.1,10.7c0.3,0.3,0.7,0.5,1,0.8C294.2,102.6,294.3,102.6,294.4,102.5z"/>
	<path d="M363,147.8c-2.3,0-4.5,0.1-6.8,0c-0.5,0-1.1-0.5-1.5-0.9c-2.2-2.2-4.4-4.4-6.6-6.7c-1-1-2.1-1.6-3.5-1.6
		c-1.2,0-2.3,0-3.5,0c-1.7,0.1-2.2,0.7-2.2,2.3c0,1.8,0,3.5,0,5.3c0,1.4-0.2,1.6-1.6,1.6c-1.3,0-2.6,0-3.8,0c-0.9,0-1.2-0.4-1.2-1.2
		c0-6.4,0-12.9,0-19.3c0-1,0.4-1.3,1.3-1.3c7,0,14.1-0.1,21.1-0.1c1.3,0,2.7,0.2,4,0.6c2.5,0.9,3.9,3.2,3.7,5.9
		c-0.1,3-1.6,5-4.2,5.8c-0.4,0.1-0.9,0.2-1.3,0.3c-1.3,0.4-1.5,1-0.6,2c1.9,2,3.9,4,5.9,6c0.3,0.3,0.5,0.6,0.8,0.9
		C363.1,147.6,363,147.7,363,147.8z M347,129.8c-2,0-3.9,0-5.9,0c-1.7,0-2.1,0.4-2.2,2.1c0,0.4,0,0.8,0,1.2c0,1.1,0.7,1.7,1.7,1.7
		c4.2,0.1,8.3,0.1,12.5,0c1.9,0,3.2-1.3,3.1-2.7s-1.4-2.3-3.3-2.3C351,129.8,349,129.8,347,129.8z"/>
	<path d="M380.3,137c0-2.8,0-5.6,0-8.4c0-1.8,0.5-2.5,2.4-2.6c5.6,0,11.2,0,16.8,0.2c1.8,0,3.7,0.3,5.4,0.8c4.4,1.1,6.6,3.8,6.9,8.3
		c0.1,1.8,0,3.6-0.3,5.4c-0.7,3.8-3.2,6-7.6,6.6c-2.7,0.4-5.5,0.6-8.2,0.7c-4.2,0.1-8.3,0.1-12.5,0c-2.5-0.1-2.8-0.6-2.9-3.1
		C380.3,142.2,380.3,139.6,380.3,137z M388.2,136.9c0,2.2,0,4.5,0,6.7c0,0.9,0.4,1.3,1.3,1.3c2.5,0,5,0,7.4,0c3.3-0.1,5.4-1.6,6-4.4
		c0.4-1.8,0.5-3.8,0.3-5.7c-0.4-3.6-1.9-5.2-5.3-5.6c-2.8-0.3-5.7-0.2-8.6-0.2c-0.8,0-1.1,0.6-1.1,1.4
		C388.3,132.6,388.2,134.7,388.2,136.9z"/>
	<path d="M379.8,100.3c0-2.8,0-5.7,0-8.5c0-1.6,0.6-2.3,2.2-2.3c5.8,0,11.6-0.1,17.5,0.1c1.8,0,3.6,0.5,5.4,0.9
		c3.8,1,6.1,3.6,6.3,7.6c0.1,2,0.1,4.1-0.2,6.1c-0.6,3.8-3.3,5.7-6.8,6.4c-2.4,0.5-5,0.7-7.5,0.8c-4.6,0.1-9.3,0-13.9,0
		c-2.5,0-3-0.5-3-3C379.8,105.7,379.8,103,379.8,100.3z M387.8,100.4c0,2.2,0,4.4,0,6.6c0,1,0.5,1.5,1.3,1.5c2.9,0,5.8,0,8.7-0.3
		c2.4-0.2,4.3-1.6,4.7-4.1c0.3-2.1,0.4-4.3,0.2-6.4c-0.2-2.7-1.8-4.6-4.5-4.9c-3.1-0.3-6.2-0.3-9.3-0.3c-0.8,0-1.1,0.6-1.1,1.4
		C387.8,96,387.8,98.2,387.8,100.4z"/>
	<path d="M160.9,100.2c0-2.7,0-5.4,0-8c0-2,0.4-2.5,2.4-2.8c0.4-0.1,0.9-0.1,1.3-0.1c5.3,0.1,10.6,0.1,15.9,0.3
		c1.9,0.1,3.8,0.5,5.6,1c3.6,1.1,5.4,3.7,5.8,7.3c0.2,1.7,0.2,3.5-0.1,5.1c-0.7,4.4-2.9,6.6-7.4,7.3c-2.4,0.4-4.9,0.7-7.4,0.7
		c-4.2,0.1-8.5,0-12.7,0c-0.3,0-0.6,0-1,0c-2-0.2-2.5-0.8-2.5-2.7C160.9,105.6,160.9,102.9,160.9,100.2z M168.8,100.2
		c0,2.2,0,4.3,0,6.5c0,1,0.4,1.5,1.4,1.5c2.6,0,5.2,0,7.8-0.1c3-0.1,5-1.6,5.5-4.5c0.3-2.1,0.3-4.3,0.1-6.4
		c-0.3-2.5-1.9-4.2-4.5-4.4c-3-0.2-6-0.2-9.1-0.3c-0.9,0-1.2,0.6-1.2,1.4C168.8,95.9,168.8,98,168.8,100.2z"/>
	<path d="M220.3,136.8c0-2.9,0-5.8,0-8.7c0-1.6,0.3-2.1,1.9-2.2c1.5-0.1,3,0,4.5,0.1c1.1,0,1.5,0.8,1.5,1.8c0,1.8,0,3.5,0,5.3
		c0,1.4,0.3,1.7,1.7,1.7c3.7,0,7.4,0,11,0c1.4,0,1.7-0.3,1.7-1.7c0-1.6,0-3.2,0-4.8c0.1-1.8,0.4-2.2,2.1-2.4c1.5-0.1,2.9,0,4.4,0.1
		c0.9,0.1,1.3,0.6,1.4,1.5c0,2.5,0.1,5,0.1,7.5c0,3.6-0.1,7.3-0.1,10.9c0,1.3-0.7,1.8-1.8,1.9c-1.4,0.1-2.8,0.1-4.2,0
		c-1.3-0.1-1.8-0.6-1.9-2.1c-0.1-2,0-4,0-6c0-1.2-0.4-1.6-1.6-1.7c-3.7,0-7.4,0-11,0c-1.3,0-1.7,0.4-1.7,1.7c0,2,0,4,0,6
		c0,1.4-0.6,2-1.9,2c-1.3,0.1-2.6,0.1-4,0s-2-0.7-2-2.1C220.3,142.7,220.3,139.8,220.3,136.8z"/>
	<path d="M360.4,111.1c-4.2,0-8.4,0-12.6,0c-2.2,0-2.5-0.3-2.5-2.5c0-5.5,0.1-10.9,0-16.4c0-2.4,1.1-2.9,2.8-2.9
		c8.2,0,16.5,0,24.7,0c1.4,0,1.8,0.4,1.8,1.9c0,1.4-0.3,1.7-1.8,1.7c-6.8,0-13.7,0-20.5,0c-1.1,0-1.6,0.3-1.5,1.4
		c0.1,0.7,0.1,1.4,0,2.2c-0.1,1.2,0.5,1.5,1.6,1.5c6.6,0,13.1,0,19.7,0c1.6,0,1.8,0.3,1.8,1.8s-0.2,1.7-1.8,1.7
		c-6.4,0-12.9,0-19.3,0c-1.9,0-2,0.1-2,2c0,0.8,0,1.7,0,2.5c-0.1,0.9,0.3,1.3,1.3,1.3c1.6,0,3.2,0,4.8,0c5.4,0,10.9,0,16.3,0
		c1.7,0,1.9,0.2,1.9,2c0,1.5-0.4,1.9-2,1.9C368.9,111.1,364.6,111.1,360.4,111.1z"/>
	<path d="M152.3,111.1c-2.8,0.5-4.9-0.5-6.2-3s-3.3-3.2-6.1-3c-4.2,0.2-8.5,0.1-12.7,0.1c-1.5,0-2.8,0.5-3.7,1.7
		c-0.8,1.1-1.6,2.2-2.4,3.2c-0.7,0.9-3.7,1.3-4.5,0.6c-0.7-0.6-0.2-1.2,0.1-1.7c1.4-1.9,2.8-3.7,4.2-5.5c3.2-4.2,6.3-8.4,9.5-12.6
		c0.8-1.1,1.9-1.6,3.3-1.6c1.9,0,3.7,0,5.6,0c1.4,0,2.6,0.5,3.4,1.7c3.5,4.7,6.9,9.5,10.4,14.2c0.9,1.3,1.9,2.5,2.7,3.8
		c0.7,1.1,0.3,2-1,2.2c-0.1,0-0.2,0-0.2,0C153.9,111.1,153.1,111.1,152.3,111.1z M141.7,101.7c-1.9-2.6-3.5-4.9-5.3-7.2
		c-1.2-1.6-2.5-1.6-3.7,0c-1.5,2-3,4.1-4.6,6.1c-0.2,0.3-0.4,0.6-0.6,1.1C132.3,101.7,136.8,101.7,141.7,101.7z"/>
	<path d="M259.1,111.1c-3,0.6-5-0.7-6.4-3.2c-1.2-2.3-3-2.9-5.5-2.8c-4.3,0.2-8.7,0.1-13.1,0c-1.7,0-3,0.5-4,2
		c-0.7,1-1.4,1.9-2.1,2.9c-0.8,1-3.6,1.5-4.6,0.8c-0.7-0.5-0.4-1,0-1.5c1.1-1.5,2.3-3,3.4-4.5c3.3-4.4,6.7-8.9,10-13.3
		c1.1-1.5,2.4-2.3,4.4-2.1c1.5,0.1,3,0.1,4.5,0c1.9-0.1,3.2,0.7,4.2,2.2c4.2,5.7,8.3,11.4,12.4,17.1c0.3,0.5,0.6,1.4,0.4,1.8
		s-1.1,0.6-1.7,0.7C260.4,111.2,259.7,111.1,259.1,111.1z M234.2,101.7c4.7,0,9.3,0,14.1,0c-1.8-2.4-3.3-4.6-4.9-6.8
		c-1.5-2.1-2.7-2.1-4.3,0c-1.1,1.5-2.3,3.1-3.4,4.6C235.2,100.2,234.8,100.9,234.2,101.7z"/>
	<path d="M327.9,89.1c3.2,0,6.5,0,9.7,0c1.5,0,1.9,0.5,1.9,1.9c0,1.3-0.5,1.8-1.8,1.8c-5.1,0-10.2,0-15.3,0c-1.2,0-2.4,0.1-3.5,0.4
		c-4.1,1.1-5.3,3.6-4.8,7.7c0.5,4.3,3,6.1,8,6.2c5.5,0.1,11,0,16.5,0.1c2.1,0,2.4,0.5,2.2,2.5c-0.1,1.1-0.8,1.3-1.6,1.3
		c-1.6,0-3.2,0-4.8,0c-4.8,0-9.6,0-14.4-0.1c-2.3-0.1-4.7-0.3-7-0.9c-5.3-1.4-7.9-5.8-7.4-11.3c0.7-6.7,5.5-9.2,10.5-9.5
		C320,89,323.9,89.2,327.9,89.1C327.9,89.2,327.9,89.2,327.9,89.1z"/>
	<path d="M211.2,111.1c-3.5,0.7-5.6-0.9-7.4-3.9c-3-5-6.4-9.8-9.6-14.7c-0.3-0.4-0.5-0.8-0.7-1.2c-0.5-1.1-0.2-1.8,1.1-1.9
		c1.8-0.1,3.6-0.1,5.4,0c0.7,0.1,1.4,0.7,1.8,1.3c3.3,4.9,6.6,9.8,9.9,14.7c0.2,0.2,0.3,0.5,0.5,0.7c0.8,1.1,1.5,1.1,2.3,0.1
		c1.5-2,2.8-4.1,4.2-6.2c2-3.1,4.1-6.2,6.1-9.3c0.8-1.2,3.1-1.8,4.3-1c0.8,0.5,0.4,1.1,0.1,1.7c-2.2,3.5-4.5,7-6.7,10.5
		c-1.6,2.4-3.2,4.8-4.7,7.2c-1,1.6-2.4,2.3-4.2,2.2C212.7,111.1,212,111.1,211.2,111.1z"/>
	<path d="M294.1,126.2c-0.4,0.2-0.8,0.3-1,0.5c-4.4,4-8.7,8-13.1,12c-1,0.9-1.6,1.9-1.4,3.3c0.1,1.4,0,2.8,0,4.2
		c0,1-0.3,1.5-1.4,1.5c-1.8,0-3.6,0-5.4,0c-1,0-1.4-0.4-1.4-1.4c0-1.6,0-3.2,0-4.8c0-1.1-0.4-1.9-1.3-2.7c-4.5-3.9-9-7.9-13.4-11.9
		c-0.3-0.3-0.5-0.6-0.9-1.2c3.1,0,5.9,0,8.6,0c0.5,0,1,0.6,1.4,1c3.2,2.9,6.3,5.9,9.5,8.8c1.6,1.4,2.7,1.3,4.3-0.2
		c3.1-2.9,6.1-5.7,9.1-8.6c0.8-0.8,1.6-1.1,2.7-1s2.2,0,3.3,0C293.9,125.9,294,126.1,294.1,126.2z"/>
	<path d="M367.2,137c0-2.8,0-5.5,0-8.3c0-2.2,0.5-2.8,2.8-2.7c1.3,0,2.5,0.1,3.8,0.2c0.8,0.1,1.2,0.5,1.3,1.3c0,0.5,0.1,1,0.1,1.5
		c0,5.3,0,10.6,0,15.9c0,2.5-0.3,2.8-2.8,3c-0.9,0-1.8,0-2.6,0c-2.1-0.1-2.6-0.5-2.6-2.7c0-2.1,0-4.2,0-6.2
		C367.2,138.4,367.2,137.7,367.2,137z"/>
</g>
</svg>
