<?xml version="1.0" encoding="utf-8"?>
<!-- Generator: Adobe Illustrator 28.1.0, SVG Export Plug-In . SVG Version: 6.00 Build 0)  -->
<svg version="1.1" id="Camada_1" xmlns="http://www.w3.org/2000/svg" xmlns:xlink="http://www.w3.org/1999/xlink" x="0px" y="0px"
	 viewBox="0 0 444.8 182.9" style="enable-background:new 0 0 444.8 182.9;" xml:space="preserve">
<g>
	<path d="M389.8,21c6.9,0,13.7,0,20.6,0c3,0,5.9,0.1,8.9,0.1c2.6,0,3.6,1.1,3.7,3.7c0,1.1,0,2.2-0.2,3.3c-0.2,1.5-1.1,2.3-2.6,2.4
		c-3.8,0.1-7.6,0.1-11.4,0.1c-0.4,0-0.8,0-1.2,0c-6.2,0-12.3,0-18.5,0c-4.3,0-8.6,0.1-12.9,0.2c-2.9,0.1-5.8,0.6-8.5,1.8
		c-4.5,2-7.4,5.3-8.8,10c-1.3,4.3-1.5,8.6-0.1,12.8c2.2,6.6,6.9,10.2,13.6,11.1c3.6,0.5,7.3,0.7,11,0.7c6.7,0.1,13.3,0.1,20,0.1
		c6.4,0,12.7,0.1,19.1,0.2c3.7,0,3.9,1.8,4,4.5c0,0.3-0.1,0.6-0.1,0.9c-0.2,3.3-0.7,3.9-4,4.1c-3.9,0.2-7.9,0.1-11.9,0.1
		c-7.9,0-15.7,0-23.6-0.1c-5.7,0-11.3-0.1-17-0.3c-5.2-0.2-10.4-0.6-15.3-2.2c-10.4-3.5-16.4-10.6-17.8-21.6
		c-0.7-5.9-0.1-11.6,2.6-17c3.6-7.3,9.8-11.3,17.5-13.3c5.1-1.3,10.2-1.7,15.4-1.7C378.1,20.9,383.9,21,389.8,21
		C389.8,21,389.8,21,389.8,21z"/>
	<path d="M71.6,21c6.9,0,13.7,0,20.6,0c3,0,5.9,0.1,8.9,0.1c2.4,0,3.3,0.8,3.6,3.2c0.1,1.3,0,2.6-0.1,3.9c-0.2,1.3-1.2,2.2-2.6,2.2
		c-3.7,0.1-7.3,0.1-11,0.2c-0.6,0-1.2-0.1-1.8-0.1c-6.3,0-12.6,0-18.9,0c-4.1,0-8.1,0.1-12.2,0.2c-2.9,0.1-5.9,0.6-8.6,1.8
		c-4.3,2-7.2,5.2-8.7,9.8c-1.3,4.1-1.5,8.2-0.3,12.3c2,6.9,6.8,10.7,13.8,11.7c3.5,0.5,7,0.7,10.5,0.7c6.8,0.1,13.7,0.1,20.5,0.1
		c6.4,0,12.8,0.1,19.2,0.2c2.8,0,3.8,1,3.9,3.8c0,0.8,0,1.7,0,2.5c-0.1,1.8-1,2.8-2.7,3c-1.1,0.1-2.1,0.2-3.2,0.2
		c-7.9,0-15.7,0.1-23.6,0c-9-0.1-18-0.1-27-0.3c-5.1-0.1-10.2-0.5-15.1-2.1c-10.2-3.4-16.5-10.3-18-21.2c-1-7.5,0.2-14.5,4.6-20.8
		c3.8-5.4,9.2-8.3,15.4-9.9C43.8,21.4,49,21,54.2,21C60,20.9,65.8,21,71.6,21C71.6,21,71.6,21,71.6,21z"/>
	<path d="M223.6,79.5c-3.2,0-6.3,0.1-9.4,0c-2.8-0.1-5-1.7-6.5-4c-4.9-7.2-9.8-14.4-14.5-21.6c-5.6-8.4-11-17-16.5-25.4
		c-0.6-1-1.2-2-1.6-3c-0.8-2.1,0.6-4.1,3.1-4.1c5-0.1,10.1-0.1,15.1,0c1.9,0,3.2,1.2,4.2,2.8c3.9,5.9,7.8,11.8,11.7,17.6
		c5.6,8.3,11.3,16.5,16.9,24.8c1.2,1.8,2.7,2.5,4.2,1.7c0.6-0.3,1.2-0.9,1.6-1.5c5-7.4,10-14.8,14.9-22.2
		c4.4-6.7,8.9-13.4,13.2-20.2c1.4-2.1,3.1-3.2,5.6-3c1.3,0.1,2.6,0,3.8,0c1.2,0,2.4,0.2,3,1.3c0.7,1.2,0.1,2.2-0.5,3.2
		c-3.3,5.2-6.6,10.5-10,15.6c-7.4,11.3-14.9,22.5-22.3,33.7c-2.1,3.3-5.1,4.7-9,4.7c-2.4,0-4.7,0-7.1,0
		C223.6,79.6,223.6,79.6,223.6,79.5z"/>
	<path d="M314,49.1c0,7.6,0,15.3,0,22.9c0,0.4,0,0.8,0,1.2c-0.4,3.4-1.5,4.5-5.3,4.7c-3.3,0.2-6.7,0.1-10-0.1
		c-3.1-0.2-4.5-1.8-4.5-4.9c0-5.1,0-10.2,0-15.3c0-10.1,0-20.2,0-30.3c0-1,0.1-1.9,0.3-2.8c0.4-2.1,1.9-3.3,4.3-3.4
		c3.6-0.1,7.3-0.1,10.9,0c2.7,0.1,4.4,1.9,4.4,4.7C314,33.5,314,41.3,314,49.1C314,49.1,314,49.1,314,49.1z"/>
	<path d="M151.9,49.2c0,7.7,0,15.3,0,23c0,4.2-1.3,5.6-5.4,5.7c-3.4,0.1-6.9,0-10.3-0.1c-2.3-0.1-3.6-1.4-3.9-3.7
		c-0.1-1-0.2-2-0.2-3c0-7.9,0-15.8,0-23.7c0-6.7,0-13.5,0.1-20.2c0-0.7,0.1-1.4,0.2-2.1c0.4-2.5,1.8-3.9,4.4-3.9
		c3.6-0.1,7.3-0.1,10.9,0c2.8,0.1,4.3,1.9,4.3,4.8C151.9,33.6,151.9,41.4,151.9,49.2C151.9,49.2,151.9,49.2,151.9,49.2z"/>
	<path d="M339.5,149.6c3.3,2.8,2.9,7.6,1.1,9.7c-1.3,1.5-3,2.3-4.9,2.3c-7.6,0.1-15.3,0-22.9,0c-1.3,0-1.8-0.5-1.8-1.8
		c0-5.9,0-11.8,0-17.7c0-1.5,0.6-2.1,2-2.4c0.4-0.1,0.8-0.1,1.2-0.1c6.6,0,13.3,0,19.9,0c2.4,0,4.7,0.6,6,3
		C341.2,145,340.9,147.3,339.5,149.6z M325.8,157.9C325.8,157.8,325.8,157.8,325.8,157.9c2,0,3.9,0,5.9,0c2-0.1,3-1.1,3-3.1
		c0-1.8-0.9-2.8-2.9-2.8c-3.9-0.1-7.9,0-11.8,0c-0.8,0-1.4,0.4-1.4,1.2c0,1.2,0,2.4,0.1,3.6c0,0.9,0.5,1.1,1.3,1.1
		C321.8,157.8,323.8,157.9,325.8,157.9z M325.4,143.3C325.4,143.3,325.4,143.3,325.4,143.3c-1.3,0-2.6,0-3.8,0c-3.3,0-3.3,0-3.2,3.3
		c0,1.5,0.3,1.8,1.8,1.8c3.5,0,6.9,0,10.4,0c0.5,0,1.1,0,1.5-0.2c0.6-0.4,1.3-0.8,1.5-1.4c0.7-2.1-0.3-3.4-2.5-3.5
		C329.2,143.2,327.3,143.3,325.4,143.3z"/>
	<path d="M308.2,116.4c0-3.3,0-6.7,0-10c0-2.6,0.6-3.2,3.2-3.2c0.4,0,0.9,0,1.3,0c1.9,0.2,2.4,0.8,2.4,2.7c0,5.7,0,11.3,0,17
		c0,1.4-0.4,1.9-1.9,2.1c-2.8,0.4-5.1-0.3-7.3-2.3c-5.1-4.6-10.4-9-15.7-13.5c-0.9-0.7-1.8-1.5-2.8-2.3c0,0.4-0.1,0.7-0.1,1
		c0,5,0,9.9,0,14.9c0,1.5-0.6,2.1-2,2.2c-1,0.1-2,0.1-3,0c-1.4-0.1-1.9-0.7-2-2.1c0-5.7,0-11.4,0-17.1c0-1.7,0.6-2.3,2.3-2.4
		c2.7,0,5.4,0,8,0c1.5,0,2.8,0.7,3.9,1.7c4,3.6,8.1,7.1,12.1,10.7c0.3,0.3,0.7,0.5,1,0.8C308,116.5,308.1,116.5,308.2,116.4z"/>
	<path d="M376.8,161.7c-2.3,0-4.5,0.1-6.8,0c-0.5,0-1.1-0.5-1.5-0.9c-2.2-2.2-4.4-4.4-6.6-6.7c-1-1-2.1-1.6-3.5-1.6
		c-1.2,0-2.3,0-3.5,0c-1.7,0.1-2.2,0.7-2.2,2.3c0,1.8,0,3.5,0,5.3c0,1.4-0.2,1.6-1.6,1.6c-1.3,0-2.6,0-3.8,0c-0.9,0-1.2-0.4-1.2-1.2
		c0-6.4,0-12.9,0-19.3c0-1,0.4-1.3,1.3-1.3c7,0,14.1-0.1,21.1-0.1c1.3,0,2.7,0.2,4,0.6c2.5,0.9,3.9,3.2,3.7,5.9
		c-0.1,3-1.6,5-4.2,5.8c-0.4,0.1-0.9,0.2-1.3,0.3c-1.3,0.4-1.5,1-0.6,2c1.9,2,3.9,4,5.9,6c0.3,0.3,0.5,0.6,0.8,0.9
		C376.9,161.5,376.8,161.6,376.8,161.7z M360.8,143.7c-2,0-3.9,0-5.9,0c-1.7,0-2.1,0.4-2.2,2.1c0,0.4,0,0.8,0,1.2
		c0,1.1,0.7,1.7,1.7,1.7c4.2,0.1,8.3,0.1,12.5,0c1.9,0,3.2-1.3,3.1-2.7c-0.1-1.4-1.4-2.3-3.3-2.3
		C364.8,143.7,362.8,143.7,360.8,143.7z"/>
	<path d="M394.1,150.9c0-2.8,0-5.6,0-8.4c0-1.8,0.5-2.5,2.4-2.6c5.6,0,11.2,0,16.8,0.2c1.8,0,3.7,0.3,5.4,0.8
		c4.4,1.1,6.6,3.8,6.9,8.3c0.1,1.8,0,3.6-0.3,5.4c-0.7,3.8-3.2,6-7.6,6.6c-2.7,0.4-5.5,0.6-8.2,0.7c-4.2,0.1-8.3,0.1-12.5,0
		c-2.5-0.1-2.8-0.6-2.9-3.1C394.1,156.1,394.1,153.5,394.1,150.9z M402,150.8c0,2.2,0,4.5,0,6.7c0,0.9,0.4,1.3,1.3,1.3
		c2.5,0,5,0,7.4,0c3.3-0.1,5.4-1.6,6-4.4c0.4-1.8,0.5-3.8,0.3-5.7c-0.4-3.6-1.9-5.2-5.3-5.6c-2.8-0.3-5.7-0.2-8.6-0.2
		c-0.8,0-1.1,0.6-1.1,1.4C402.1,146.5,402,148.6,402,150.8z"/>
	<path d="M393.6,114.2c0-2.8,0-5.7,0-8.5c0-1.6,0.6-2.3,2.2-2.3c5.8,0,11.6-0.1,17.5,0.1c1.8,0,3.6,0.5,5.4,0.9
		c3.8,1,6.1,3.6,6.3,7.6c0.1,2,0.1,4.1-0.2,6.1c-0.6,3.8-3.3,5.7-6.8,6.4c-2.4,0.5-5,0.7-7.5,0.8c-4.6,0.1-9.3,0-13.9,0
		c-2.5,0-3-0.5-3-3C393.6,119.6,393.6,116.9,393.6,114.2z M401.6,114.3c0,2.2,0,4.4,0,6.6c0,1,0.5,1.5,1.3,1.5c2.9,0,5.8,0,8.7-0.3
		c2.4-0.2,4.3-1.6,4.7-4.1c0.3-2.1,0.4-4.3,0.2-6.4c-0.2-2.7-1.8-4.6-4.5-4.9c-3.1-0.3-6.2-0.3-9.3-0.3c-0.8,0-1.1,0.6-1.1,1.4
		C401.6,109.9,401.6,112.1,401.6,114.3z"/>
	<path d="M174.7,114.1c0-2.7,0-5.4,0-8c0-2,0.4-2.5,2.4-2.8c0.4-0.1,0.9-0.1,1.3-0.1c5.3,0.1,10.6,0.1,15.9,0.3
		c1.9,0.1,3.8,0.5,5.6,1c3.6,1.1,5.4,3.7,5.8,7.3c0.2,1.7,0.2,3.5-0.1,5.1c-0.7,4.4-2.9,6.6-7.4,7.3c-2.4,0.4-4.9,0.7-7.4,0.7
		c-4.2,0.1-8.5,0-12.7,0c-0.3,0-0.6,0-1,0c-2-0.2-2.5-0.8-2.5-2.7C174.7,119.5,174.7,116.8,174.7,114.1z M182.6,114.1
		c0,2.2,0,4.3,0,6.5c0,1,0.4,1.5,1.4,1.5c2.6,0,5.2,0,7.8-0.1c3-0.1,5-1.6,5.5-4.5c0.3-2.1,0.3-4.3,0.1-6.4
		c-0.3-2.5-1.9-4.2-4.5-4.4c-3-0.2-6-0.2-9.1-0.3c-0.9,0-1.2,0.6-1.2,1.4C182.6,109.8,182.6,111.9,182.6,114.1z"/>
	<path d="M234.1,150.7c0-2.9,0-5.8,0-8.7c0-1.6,0.3-2.1,1.9-2.2c1.5-0.1,3,0,4.5,0.1c1.1,0,1.5,0.8,1.5,1.8c0,1.8,0,3.5,0,5.3
		c0,1.4,0.3,1.7,1.7,1.7c3.7,0,7.4,0,11,0c1.4,0,1.7-0.3,1.7-1.7c0-1.6,0-3.2,0-4.8c0.1-1.8,0.4-2.2,2.1-2.4c1.5-0.1,2.9,0,4.4,0.1
		c0.9,0.1,1.3,0.6,1.4,1.5c0,2.5,0.1,5,0.1,7.5c0,3.6-0.1,7.3-0.1,10.9c0,1.3-0.7,1.8-1.8,1.9c-1.4,0.1-2.8,0.1-4.2,0
		c-1.3-0.1-1.8-0.6-1.9-2.1c-0.1-2,0-4,0-6c0-1.2-0.4-1.6-1.6-1.7c-3.7,0-7.4,0-11,0c-1.3,0-1.7,0.4-1.7,1.7c0,2,0,4,0,6
		c0,1.4-0.6,2-1.9,2c-1.3,0.1-2.6,0.1-4,0c-1.4-0.1-2-0.7-2-2.1C234.1,156.6,234.1,153.7,234.1,150.7z"/>
	<path d="M374.2,125c-4.2,0-8.4,0-12.6,0c-2.2,0-2.5-0.3-2.5-2.5c0-5.5,0.1-10.9,0-16.4c0-2.4,1.1-2.9,2.8-2.9c8.2,0,16.5,0,24.7,0
		c1.4,0,1.8,0.4,1.8,1.9c0,1.4-0.3,1.7-1.8,1.7c-6.8,0-13.7,0-20.5,0c-1.1,0-1.6,0.3-1.5,1.4c0.1,0.7,0.1,1.4,0,2.2
		c-0.1,1.2,0.5,1.5,1.6,1.5c6.6,0,13.1,0,19.7,0c1.6,0,1.8,0.3,1.8,1.8c0,1.5-0.2,1.7-1.8,1.7c-6.4,0-12.9,0-19.3,0
		c-1.9,0-2,0.1-2,2c0,0.8,0,1.7,0,2.5c-0.1,0.9,0.3,1.3,1.3,1.3c1.6,0,3.2,0,4.8,0c5.4,0,10.9,0,16.3,0c1.7,0,1.9,0.2,1.9,2
		c0,1.5-0.4,1.9-2,1.9C382.7,125,378.4,125,374.2,125z"/>
	<path d="M166.1,125c-2.8,0.5-4.9-0.5-6.2-3c-1.3-2.5-3.3-3.2-6.1-3c-4.2,0.2-8.5,0.1-12.7,0.1c-1.5,0-2.8,0.5-3.7,1.7
		c-0.8,1.1-1.6,2.2-2.4,3.2c-0.7,0.9-3.7,1.3-4.5,0.6c-0.7-0.6-0.2-1.2,0.1-1.7c1.4-1.9,2.8-3.7,4.2-5.5c3.2-4.2,6.3-8.4,9.5-12.6
		c0.8-1.1,1.9-1.6,3.3-1.6c1.9,0,3.7,0,5.6,0c1.4,0,2.6,0.5,3.4,1.7c3.5,4.7,6.9,9.5,10.4,14.2c0.9,1.3,1.9,2.5,2.7,3.8
		c0.7,1.1,0.3,2-1,2.2c-0.1,0-0.2,0-0.2,0C167.7,125,166.9,125,166.1,125z M155.5,115.6c-1.9-2.6-3.5-4.9-5.3-7.2
		c-1.2-1.6-2.5-1.6-3.7,0c-1.5,2-3,4.1-4.6,6.1c-0.2,0.3-0.4,0.6-0.6,1.1C146.1,115.6,150.6,115.6,155.5,115.6z"/>
	<path d="M272.9,125c-3,0.6-5-0.7-6.4-3.2c-1.2-2.3-3-2.9-5.5-2.8c-4.3,0.2-8.7,0.1-13.1,0c-1.7,0-3,0.5-4,2c-0.7,1-1.4,1.9-2.1,2.9
		c-0.8,1-3.6,1.5-4.6,0.8c-0.7-0.5-0.4-1,0-1.5c1.1-1.5,2.3-3,3.4-4.5c3.3-4.4,6.7-8.9,10-13.3c1.1-1.5,2.4-2.3,4.4-2.1
		c1.5,0.1,3,0.1,4.5,0c1.9-0.1,3.2,0.7,4.2,2.2c4.2,5.7,8.3,11.4,12.4,17.1c0.3,0.5,0.6,1.4,0.4,1.8c-0.2,0.4-1.1,0.6-1.7,0.7
		C274.2,125.1,273.5,125,272.9,125z M248,115.6c4.7,0,9.3,0,14.1,0c-1.8-2.4-3.3-4.6-4.9-6.8c-1.5-2.1-2.7-2.1-4.3,0
		c-1.1,1.5-2.3,3.1-3.4,4.6C249,114.1,248.6,114.8,248,115.6z"/>
	<path d="M341.7,103c3.2,0,6.5,0,9.7,0c1.5,0,1.9,0.5,1.9,1.9c0,1.3-0.5,1.8-1.8,1.8c-5.1,0-10.2,0-15.3,0c-1.2,0-2.4,0.1-3.5,0.4
		c-4.1,1.1-5.3,3.6-4.8,7.7c0.5,4.3,3,6.1,8,6.2c5.5,0.1,11,0,16.5,0.1c2.1,0,2.4,0.5,2.2,2.5c-0.1,1.1-0.8,1.3-1.6,1.3
		c-1.6,0-3.2,0-4.8,0c-4.8,0-9.6,0-14.4-0.1c-2.3-0.1-4.7-0.3-7-0.9c-5.3-1.4-7.9-5.8-7.4-11.3c0.7-6.7,5.5-9.2,10.5-9.5
		c3.9-0.2,7.8,0,11.7,0C341.7,103.1,341.7,103.1,341.7,103z"/>
	<path d="M225,125c-3.5,0.7-5.6-0.9-7.4-3.9c-3-5-6.4-9.8-9.6-14.7c-0.3-0.4-0.5-0.8-0.7-1.2c-0.5-1.1-0.2-1.8,1.1-1.9
		c1.8-0.1,3.6-0.1,5.4,0c0.7,0.1,1.4,0.7,1.8,1.3c3.3,4.9,6.6,9.8,9.9,14.7c0.2,0.2,0.3,0.5,0.5,0.7c0.8,1.1,1.5,1.1,2.3,0.1
		c1.5-2,2.8-4.1,4.2-6.2c2-3.1,4.1-6.2,6.1-9.3c0.8-1.2,3.1-1.8,4.3-1c0.8,0.5,0.4,1.1,0.1,1.7c-2.2,3.5-4.5,7-6.7,10.5
		c-1.6,2.4-3.2,4.8-4.7,7.2c-1,1.6-2.4,2.3-4.2,2.2C226.5,125,225.8,125,225,125z"/>
	<path d="M307.9,140.1c-0.4,0.2-0.8,0.3-1,0.5c-4.4,4-8.7,8-13.1,12c-1,0.9-1.6,1.9-1.4,3.3c0.1,1.4,0,2.8,0,4.2
		c0,1-0.3,1.5-1.4,1.5c-1.8,0-3.6,0-5.4,0c-1,0-1.4-0.4-1.4-1.4c0-1.6,0-3.2,0-4.8c0-1.1-0.4-1.9-1.3-2.7c-4.5-3.9-9-7.9-13.4-11.9
		c-0.3-0.3-0.5-0.6-0.9-1.2c3.1,0,5.9,0,8.6,0c0.5,0,1,0.6,1.4,1c3.2,2.9,6.3,5.9,9.5,8.8c1.6,1.4,2.7,1.3,4.3-0.2
		c3.1-2.9,6.1-5.7,9.1-8.6c0.8-0.8,1.6-1.1,2.7-1c1.1,0.1,2.2,0,3.3,0C307.7,139.8,307.8,140,307.9,140.1z"/>
	<path d="M381,150.9c0-2.8,0-5.5,0-8.3c0-2.2,0.5-2.8,2.8-2.7c1.3,0,2.5,0.1,3.8,0.2c0.8,0.1,1.2,0.5,1.3,1.3c0,0.5,0.1,1,0.1,1.5
		c0,5.3,0,10.6,0,15.9c0,2.5-0.3,2.8-2.8,3c-0.9,0-1.8,0-2.6,0c-2.1-0.1-2.6-0.5-2.6-2.7c0-2.1,0-4.2,0-6.2
		C381,152.3,381,151.6,381,150.9z"/>
</g>
</svg>
