<svg xmlns="http://www.w3.org/2000/svg" width="107.292" height="32" viewBox="0 0 107.292 32">
  <g id="new_city-01" transform="translate(-47.609 -56.904)">
    <path id="Caminho_498" data-name="Caminho 498" d="M59.413,137.921c-.863,0-2.048,0-2.731-.032-3.164-.1-5.56-1.106-7.126-2.975a9.208,9.208,0,0,1-1.946-6,8.006,8.006,0,0,1,1.939-5.451c1.545-1.714,3.9-2.668,7-2.831.228,0,1.086-.034,1.32-.034H74.783c.58,0,.683.116.7.514.016.271.011.649,0,.883-.02.428-.18.5-.683.5H62.133c-.492,0-1.946.057-2.476.125-3.869.505-5.74,2.565-5.738,6.3,0,4.074,1.88,6.275,5.74,6.732.655.075,1.864.141,2.636.141H76.139c.5,0,.653.068.683.5.014.262.016.863,0,1.113-.025.4-.121.517-.7.517H59.413Z" transform="translate(0 -49.198)" fill="#231f20" fill-rule="evenodd"/>
    <path id="Caminho_499" data-name="Caminho 499" d="M194.824,137.522c.96.018,1.887.039,2.879,0,.628-.023,1.12.014,1.288-.469a2.108,2.108,0,0,0,.082-.683V120.944a1.029,1.029,0,0,0-.193-.683.824.824,0,0,0-.644-.246c-.51-.032-1.02-.036-1.532-.039s-.958,0-1.366,0a3.794,3.794,0,0,0-1.4.143c-.405.228-.366.7-.369,1.252v15.206a.874.874,0,0,0,.325.781A1.95,1.95,0,0,0,194.824,137.522Z" transform="translate(-112.739 -48.716)" fill="#231f20"/>
    <path id="Caminho_500" data-name="Caminho 500" d="M244.12,123.1c.583.91.539,2.347.549,3.94v8.879a2.169,2.169,0,0,0,.134,1.052.624.624,0,0,0,.3.262c.2.082.239.093,1.791.121.517.011,1.218,0,2.276-.025.48-.016.8-.048.988-.455a3.719,3.719,0,0,0,.091-1.156c-.02-2.941,0-5.881,0-8.822a21.147,21.147,0,0,1,.071-2.114,4.063,4.063,0,0,1,.348-1.457c.574-1.159,1.9-1.3,3.357-1.327,1.165-.023,2.23-.025,4.2-.025h3.136a1.493,1.493,0,0,0,.662-.116c.344-.173.362-.683.319-1.466a.728.728,0,0,0-.262-.594,1.24,1.24,0,0,0-.706-.157H234.909c-1.038,0-1.138.016-1.366.139a.521.521,0,0,0-.228.269,1.764,1.764,0,0,0-.084.683,2.616,2.616,0,0,0,.075.81c.089.262.291.435.967.432h4.518c.683,0,1.636,0,2.306.032C242.682,122.062,243.613,122.312,244.12,123.1Z" transform="translate(-143.37 -48.452)" fill="#231f20"/>
    <path id="Caminho_501" data-name="Caminho 501" d="M391.441,137.693c-.981,0-2.119-.02-2.433-.052a.755.755,0,0,1-.159-.03h-.032c-.03-.011-.059-.02-.086-.034a.533.533,0,0,1-.3-.321v-.034c-.014-.036-.018-.057-.025-.077a.981.981,0,0,1-.023-.127,1.544,1.544,0,0,1-.014-.2v-4.614a1.937,1.937,0,0,0-.683-1.336c-3.186-2.631-12.27-10-12.361-10.078a.4.4,0,0,1-.139-.382c.039-.093.184-.152.4-.159s.954-.011,2.064-.011c1.224,0,2.8,0,3.132.011,1.27.02,1.27.02,1.821.444.048.039,6.755,5.642,8.865,7.361.159.13.3.228.4.316a3.058,3.058,0,0,0,.471.28,1.714,1.714,0,0,0,.721.152,1.757,1.757,0,0,0,.683-.132,3.462,3.462,0,0,0,.881-.578c1.149-.945,4.047-3.364,8.61-7.188l.4-.332a1.01,1.01,0,0,1,.892-.3h2.991c.335.014.4.089.4.089a.809.809,0,0,1-.262.346c-.114.1-11.753,9.905-12.247,10.379a2.026,2.026,0,0,0-.583,1.313v4.411a1.388,1.388,0,0,1,0,.175,1.151,1.151,0,0,1-.025.148.451.451,0,0,1-.018.059l-.016.048a.533.533,0,0,1-.3.319.708.708,0,0,1-.093.036h-.03a.756.756,0,0,1-.159.03C393.821,137.674,392.36,137.693,391.441,137.693Z" transform="translate(-253.016 -48.92)" fill="#231f20" fill-rule="evenodd"/>
    <path id="Caminho_502" data-name="Caminho 502" d="M133.158,83h-1.391a4.175,4.175,0,0,0-.551.018c-.13.018-.432.041-.517.2v.683c.055.123.228.2.514.214h1.891c.355-.018.542-.123.542-.3v-.624C133.647,83.08,133.47,83,133.158,83Z" transform="translate(-64.179 -20.156)" fill="#231f20" fill-rule="evenodd"/>
    <path id="Caminho_503" data-name="Caminho 503" d="M157.138,83h-1.391a4.175,4.175,0,0,0-.551.018c-.13.018-.43.041-.517.2v.683c.057.123.228.2.514.214h1.891c.355-.018.542-.123.542-.3v-.624C157.627,83.08,157.45,83,157.138,83Z" transform="translate(-82.701 -20.156)" fill="#231f20" fill-rule="evenodd"/>
    <path id="Caminho_504" data-name="Caminho 504" d="M55.478,57.237a5.611,5.611,0,0,0-.578-.02,4.629,4.629,0,0,0-.535.02c-.082.011-.255.073-.3.357v4.388L51.1,58.029c-.032-.043-.157-.207-.287-.364a1.206,1.206,0,0,0-.91-.455H48.791a3.993,3.993,0,0,0-.439.032.455.455,0,0,0-.412.357v6.35a.435.435,0,0,0,.41.371q.187.02.71.02a7.388,7.388,0,0,0,.8-.02.455.455,0,0,0,.43-.53V59.151c.278.369.728.974,1.345,1.821v.016L53.2,63.112s.7.954.7.958a.542.542,0,0,0,.533.3h.64a.269.269,0,0,0,.064,0,1.7,1.7,0,0,0,.33-.016c.207-.03.319-.214.319-.53V57.768C55.8,57.456,55.692,57.267,55.478,57.237Z" transform="translate(-0.256 -0.236)" fill="#231f20" fill-rule="evenodd"/>
    <path id="Caminho_505" data-name="Caminho 505" d="M95.542,62.715H91.106c-.2-.02-.228-.086-.246-.325V61.279a1.251,1.251,0,0,1,.018-.228.246.246,0,0,1,.148-.175.744.744,0,0,1,.307-.046H95.2c.13,0,.437,0,.455-.385V60.1c-.02-.346-.246-.391-.455-.391h-4.01a.407.407,0,0,1-.162-.032.284.284,0,0,1-.171-.2,1.044,1.044,0,0,1-.014-.228V58.4c0-.259.068-.325.275-.325H95.38c.137,0,.455,0,.473-.4v-.36c-.02-.357-.255-.405-.483-.405H90.355a5.958,5.958,0,0,0-.669.02.655.655,0,0,0-.628.653v5.833a.455.455,0,0,0,.437.533c.118.011.405.02.747.02h5.3c.228,0,.455-.048.483-.405v-.455a.4.4,0,0,0-.48-.4Z" transform="translate(-32.009 -0.006)" fill="#231f20" fill-rule="evenodd"/>
    <path id="Caminho_506" data-name="Caminho 506" d="M134.752,57.506h0a.683.683,0,0,0-.212-.255.886.886,0,0,0-.3-.139,1.536,1.536,0,0,0-.48-.036.949.949,0,0,0-.212.03.724.724,0,0,0-.214.091.419.419,0,0,0-.189.255l-1.557,5.267c-.036.018-.055.02-.055.023h-.02L130,58.036c-.039-.171-.068.407-.191.287a1.345,1.345,0,0,0-.376-.264c-.132-.064.13-.114-.016-.146a2.481,2.481,0,0,0-.376-.057.806.806,0,0,0-.137,0h-.228a.48.48,0,0,0-.107,0c-.127,0,.148.027,0,.059a1.88,1.88,0,0,0-.421.146,1.379,1.379,0,0,0-.369.259c-.121.118-.166-.412-.2-.259l-1.493,4.68h-.016a.13.13,0,0,1-.057-.018l-1.561-5.264a.455.455,0,0,0-.182-.262.644.644,0,0,0-.228-.1,1.125,1.125,0,0,0-.216-.03,1.468,1.468,0,0,0-.485.039.963.963,0,0,0-.294.132.651.651,0,0,0-.218.264.587.587,0,0,0-.03.378l1.541,5.235a2.259,2.259,0,0,0,.3.847c.157.143.337-.036.51.023a1.8,1.8,0,0,0,.483.1c.141,0,.259.014.353.014h.132a3.1,3.1,0,0,0,.423-.032,1.723,1.723,0,0,0,.455-.13c.155-.068.071.08.189-.046s.291,0,.325-.066L128.76,59.2h.059l.99,3.912a3.966,3.966,0,0,0,.228.747c.086.15.376,0,.535.064a1.77,1.77,0,0,0,.455.13,3.125,3.125,0,0,0,.423.032h.132a3.407,3.407,0,0,0,.346-.014,1.835,1.835,0,0,0,.485-.1,1.366,1.366,0,0,0,.485-.287c.157-.141,0,.369.075.13l1.8-5.959A.569.569,0,0,0,134.752,57.506Zm-6.043,1.616-.016-.043h0l.034.048Z" transform="translate(-58.069 -0.125)" fill="#231f20"/>
    <path id="Caminho_507" data-name="Caminho 507" d="M170.392,57.136c-.055-.132-.2-.2-.455-.228h-.712a.58.58,0,0,0-.544.25,4.4,4.4,0,0,1,.314.407c0,.02-.148.774-.269,1.331h1.165l.244-.858C170.346,57.381,170.455,57.293,170.392,57.136Z" transform="translate(-93.515 0)" fill="#231f20" fill-rule="evenodd"/>
    <path id="Caminho_508" data-name="Caminho 508" d="M122.079,57.135c.057-.132.207-.2.455-.228h.712a.576.576,0,0,1,.542.25,4.4,4.4,0,0,0-.314.407c0,.02.15.774.271,1.331l-1.106.175-.307-1.033C122.118,57.381,122.018,57.292,122.079,57.135Z" transform="translate(-57.507)" fill="#231f20" fill-rule="evenodd"/>
    <path id="Caminho_509" data-name="Caminho 509" d="M144.44,61.492h1.113c.307,0,.057-.014.2-.02s.471-.041.567-.2v-.683c-.064-.125-.25-.2-.564-.214H144.5c-.387.018-.592.123-.592.3v.615C143.905,61.4,144.1,61.492,144.44,61.492Z" transform="translate(-74.382 -2.677)" fill="#231f20" fill-rule="evenodd"/>
    <path id="Caminho_510" data-name="Caminho 510" d="M146.781,65.161c.052-.2.13-.31.184-.31s.141.152.191.351l.244-.291-.084-.683-.3-.2-.38.1-.248.348-.082.455Z" transform="translate(-76.236 -5.504)" fill="#231f20" fill-rule="evenodd"/>
    <path id="Caminho_511" data-name="Caminho 511" d="M134.668,79.4c.052.175.08.264.2.266s.166-.134.209-.266.6.034.6.034l.066.43-.337.471-.455.1-.5-.082-.264-.38v-.405Z" transform="translate(-66.875 -17.334)" fill="#231f20" fill-rule="evenodd"/>
    <path id="Caminho_512" data-name="Caminho 512" d="M158.718,79.4c.052.175.077.264.2.266s.166-.134.209-.266.6.034.6.034l.066.43-.339.471-.455.1-.494-.082-.264-.38v-.405Z" transform="translate(-85.451 -17.334)" fill="#231f20" fill-rule="evenodd"/>
  </g>
</svg>
