<svg width="178" height="92" viewBox="0 0 178 92" fill="none" xmlns="http://www.w3.org/2000/svg">
<g clip-path="url(#clip0_1142_5505)">
<path d="M55.0268 20.9895C54.5064 19.1559 45.2768 6.4574 43.6474 5.57469C42.0209 4.69199 13.2824 4.81047 11.5549 5.57469C9.82729 6.33892 0.939627 18.4776 0.28844 20.9036C-0.362747 23.3295 0.28844 85.593 0.28844 85.593L0.29736 85.6019C0.380617 89.1001 3.4968 91.9171 7.36527 91.9911L7.37419 91.997H47.8935L47.8994 91.9911C51.8422 91.9378 55.0238 89.0379 55.0268 85.4626C55.0268 85.4626 55.5471 22.8201 55.0268 20.9865" fill="#1D1D1B"/>
<path d="M38.4353 81.2742H16.8242V87.4946H38.4353V81.2742Z" fill="white"/>
<path d="M52.4214 14.4225C51.9516 12.5949 43.5962 2.07649 42.1243 1.19674C40.6525 0.316998 14.6466 0.435483 13.0826 1.19674C11.5186 1.958 3.47834 11.9196 2.88959 14.3366C2.30085 16.7567 2.88959 82.9893 2.88959 82.9893L2.89554 82.9953C2.97285 86.4817 5.79169 89.2927 9.29144 89.3667L9.29739 89.3756H18.7114V85.4479H18.7262C18.8362 84.2927 19.7461 82.779 20.8641 82.7524H34.2358C35.2735 82.7524 36.3915 84.269 36.5283 85.4479H36.5432V89.3756H45.9661L45.972 89.3697C49.5401 89.3164 52.4185 86.4254 52.4214 82.859C52.4214 82.859 52.8912 16.2472 52.4214 14.4196" fill="white"/>
<path d="M45.9665 89.9592H35.9608L35.9519 85.5161C35.8389 84.5356 34.8963 83.333 34.2392 83.333H20.8676C20.1569 83.3508 19.3987 84.5623 19.3095 85.5042L19.2976 85.6316V89.9563H9.05401L9.03617 89.9385C5.40558 89.74 2.51538 86.8609 2.31913 83.2412L2.31318 83.2352L2.30426 82.9953C2.28048 80.2879 1.72147 16.6619 2.3221 14.2004C2.94356 11.6501 11.0522 1.5404 12.8273 0.675469C14.1148 0.0475029 26.2555 0.00307135 27.6351 0.000109246C31.7177 -0.00877707 41.3249 0.0415787 42.4221 0.699166C44.001 1.64112 52.4546 12.2218 52.9839 14.2775C53.4596 16.1258 53.0493 76.0403 53.0017 82.865C52.9987 86.6328 49.9777 89.7608 46.2222 89.9444L46.2133 89.9533L45.9635 89.9592H45.9665ZM37.1264 88.801L45.9635 88.7951C49.2016 88.7477 51.8361 86.0877 51.8391 82.862C51.8926 76.4698 52.2732 16.6471 51.8569 14.5618C51.402 12.829 43.1001 2.45569 41.8245 1.69443C41.2209 1.41896 36.1244 1.14052 27.5727 1.16125C19.4522 1.17903 13.9572 1.46043 13.3328 1.72109C11.8818 2.42903 3.97832 12.3195 3.45499 14.4759C3.03573 16.2028 3.23496 56.2297 3.46986 82.8235L3.47878 82.9894C3.54717 86.1766 6.10731 88.724 9.30675 88.7951L9.54463 88.804H18.132V84.8763H18.242C18.5483 83.6499 19.5057 82.2104 20.8527 82.1807H34.2392C35.4642 82.1807 36.6358 83.5522 37.0075 84.8763H37.1145L37.1294 85.4568V88.804L37.1264 88.801Z" fill="#1D1D1B"/>
<path d="M42.0832 77.9774H13.0117L12.9998 77.9655C10.7013 77.8234 8.8756 75.8802 8.75369 73.4365H8.75072L8.74477 73.2736C8.7299 71.4015 8.37606 27.4232 8.75369 25.7614C9.11645 24.1678 14.1862 15.788 15.3875 15.1601C16.6452 14.5025 38.8391 14.5173 39.8679 15.1778C40.9473 15.868 46.2311 24.547 46.5344 25.8147C46.8347 27.0618 46.576 68.4661 46.5463 73.1847V73.2765C46.4958 75.7795 44.6076 77.8411 42.2586 77.9685L42.2526 77.9744H42.0832V77.9774ZM13.3477 77.2043H42.0802C44.114 77.1687 45.7673 75.3648 45.7702 73.1817V73.0899C45.8535 60.3055 46.0141 27.1862 45.7792 25.9925C45.4878 24.781 40.2218 16.3242 39.4487 15.8295C38.3098 15.3555 17.014 15.3644 15.7354 15.8532C14.992 16.2471 9.90144 24.2211 9.51192 25.9332C9.21755 27.2366 9.41677 60.3529 9.52084 73.1581L9.52679 73.2677C9.57139 75.427 11.1771 77.1539 13.1841 77.2013L13.3477 77.2072V77.2043Z" fill="#1D1D1B"/>
<path d="M68.4727 15.0979H71.8178V25.1661H84.5382V15.0979H87.8834V39.4642H84.5382V28.069H71.8178V39.4642H68.4727V15.0979Z" fill="#2E2D2C"/>
<path d="M105.022 23.4745C106.61 25 107.404 27.2453 107.404 30.2074C107.404 33.1695 106.705 35.4385 105.305 37.3075C103.907 39.1766 101.736 40.1097 98.7956 40.1097C96.3425 40.1097 94.3949 39.2833 92.9528 37.6304C91.5106 35.9776 90.7881 33.7589 90.7881 30.9716C90.7881 27.9858 91.5493 25.6102 93.0687 23.8389C94.5882 22.0705 96.6309 21.1848 99.197 21.1848C101.496 21.1848 103.437 21.949 105.025 23.4745H105.022ZM103.167 35.2933C103.904 33.7945 104.273 32.1268 104.273 30.2933C104.273 28.6345 104.005 27.2868 103.473 26.2471C102.628 24.612 101.174 23.7915 99.1108 23.7915C97.2791 23.7915 95.947 24.4876 95.1145 25.8827C94.2819 27.2779 93.8656 28.9574 93.8656 30.9242C93.8656 32.8911 94.2819 34.3899 95.1145 35.6517C95.947 36.9136 97.2672 37.5416 99.0781 37.5416C101.064 37.5416 102.426 36.7921 103.167 35.2933Z" fill="#2E2D2C"/>
<path d="M110.146 21.7004H112.994V24.2212C113.839 23.1815 114.731 22.435 115.673 21.9818C116.616 21.5286 117.665 21.3005 118.819 21.3005C121.35 21.3005 123.059 22.1803 123.948 23.9368C124.436 24.8995 124.68 26.2769 124.68 28.066V39.4612H121.632V28.2644C121.632 27.1803 121.471 26.3065 121.15 25.643C120.618 24.5381 119.652 23.9842 118.254 23.9842C117.544 23.9842 116.961 24.0553 116.506 24.2004C115.685 24.4433 114.963 24.9291 114.341 25.6608C113.842 26.2472 113.517 26.8515 113.366 27.4765C113.217 28.1015 113.14 28.9931 113.14 30.1543V39.4582H110.143V21.6945L110.146 21.7004Z" fill="#2E2D2C"/>
<path d="M138.441 22.2483C138.973 22.5801 139.58 23.1606 140.255 23.99V15.0178H143.136V39.467H140.439V36.9966C139.74 38.0926 138.914 38.8835 137.959 39.3693C137.005 39.8551 135.91 40.098 134.679 40.098C132.693 40.098 130.971 39.2656 129.517 37.6009C128.063 35.9362 127.338 33.7235 127.338 30.9569C127.338 28.371 128.001 26.1287 129.327 24.23C130.653 22.3342 132.547 21.3863 135.012 21.3863C136.377 21.3863 137.522 21.6737 138.444 22.2483H138.441ZM131.715 35.5659C132.524 36.8485 133.823 37.4913 135.61 37.4913C136.999 37.4913 138.137 36.8959 139.032 35.7081C139.925 34.5203 140.374 32.8141 140.374 30.5926C140.374 28.371 139.913 26.6856 138.991 25.6073C138.069 24.5291 136.933 23.99 135.577 23.99C134.067 23.99 132.845 24.5647 131.905 25.714C130.968 26.8633 130.499 28.5546 130.499 30.7881C130.499 32.6897 130.903 34.2833 131.715 35.5659Z" fill="#2E2D2C"/>
<path d="M156.404 28.6997C157.091 28.6108 157.552 28.3235 157.787 27.8377C157.92 27.5711 157.986 27.192 157.986 26.6944C157.986 25.6784 157.623 24.9378 156.895 24.4787C156.166 24.0196 155.125 23.7915 153.772 23.7915C152.208 23.7915 151.096 24.2121 150.442 25.0534C150.076 25.5184 149.836 26.2086 149.726 27.1268H146.928C146.984 24.9378 147.695 23.4153 149.068 22.5563C150.439 21.7003 152.03 21.2708 153.838 21.2708C155.937 21.2708 157.641 21.6677 158.949 22.4645C160.249 23.2613 160.897 24.4994 160.897 26.179V36.413C160.897 36.724 160.959 36.9729 161.087 37.1595C161.215 37.3491 161.483 37.4409 161.896 37.4409C162.03 37.4409 162.178 37.432 162.345 37.4172C162.511 37.3994 162.69 37.3757 162.877 37.3431V39.5499C162.41 39.6832 162.057 39.7661 161.813 39.7987C161.569 39.8313 161.236 39.8491 160.814 39.8491C159.782 39.8491 159.033 39.4847 158.566 38.7531C158.322 38.3651 158.149 37.82 158.048 37.1121C157.439 37.9089 156.562 38.5991 155.417 39.1856C154.275 39.7721 153.014 40.0653 151.638 40.0653C149.984 40.0653 148.631 39.5647 147.585 38.5635C146.535 37.5623 146.012 36.3094 146.012 34.8076C146.012 33.1606 146.529 31.884 147.561 30.9746C148.593 30.0682 149.949 29.5084 151.623 29.2981L156.401 28.6997H156.404ZM150.094 36.7774C150.728 37.275 151.477 37.5238 152.342 37.5238C153.398 37.5238 154.418 37.2809 155.405 36.7951C157.07 35.9894 157.903 34.6654 157.903 32.8318V30.4266C157.537 30.6577 157.064 30.8532 156.487 31.0072C155.91 31.1612 155.342 31.2738 154.789 31.3389L152.976 31.57C151.887 31.7151 151.073 31.9403 150.528 32.2513C149.607 32.7726 149.146 33.602 149.146 34.7394C149.146 35.6014 149.461 36.2827 150.094 36.7803V36.7774Z" fill="#2E2D2C"/>
<path d="M85.9058 44.5589C87.6155 46.1851 88.5641 48.0305 88.7544 50.098H85.5252C85.1594 48.5281 84.428 47.284 83.3367 46.3658C82.2425 45.4475 80.7082 44.9884 78.7338 44.9884C76.3253 44.9884 74.3807 45.8326 72.8969 47.518C71.4132 49.2035 70.6728 51.7894 70.6728 55.2728C70.6728 58.1253 71.3418 60.4387 72.6798 62.2131C74.0179 63.9874 76.0131 64.876 78.6654 64.876C81.1066 64.876 82.965 63.9429 84.2436 62.0738C84.9216 61.0904 85.4271 59.796 85.7601 58.1935H88.9893C88.7008 60.7587 87.7464 62.9091 86.1258 64.6449C84.1842 66.7362 81.5645 67.7788 78.267 67.7788C75.4243 67.7788 73.0396 66.9228 71.1069 65.2077C68.5646 62.9417 67.2949 59.4405 67.2949 54.71C67.2949 51.117 68.2494 48.1697 70.1584 45.8682C72.2219 43.3681 75.0705 42.1211 78.7011 42.1211C81.7994 42.1211 84.202 42.9327 85.9117 44.5589H85.9058Z" fill="#E40521"/>
<path d="M104.919 51.1584C106.506 52.6838 107.3 54.9291 107.3 57.8912C107.3 60.8533 106.601 63.1223 105.201 64.9914C103.803 66.8605 101.633 67.7935 98.6921 67.7935C96.239 67.7935 94.2914 66.9671 92.8492 65.3143C91.4071 63.6614 90.6846 61.4398 90.6846 58.6554C90.6846 55.6696 91.4458 53.2911 92.9652 51.5227C94.4846 49.7543 96.5274 48.8687 99.0935 48.8687C101.392 48.8687 103.334 49.6329 104.921 51.1584H104.919ZM103.063 62.9772C103.8 61.4783 104.169 59.8107 104.169 57.9771C104.169 56.3183 103.902 54.9706 103.369 53.9309C102.525 52.2958 101.071 51.4753 99.0073 51.4753C97.1756 51.4753 95.8435 52.1714 95.0109 53.5666C94.1784 54.9587 93.7621 56.6412 93.7621 58.6081C93.7621 60.5749 94.1784 62.0737 95.0109 63.3356C95.8435 64.5974 97.1637 65.2254 98.9746 65.2254C100.961 65.2254 102.323 64.476 103.063 62.9772Z" fill="#E40521"/>
<path d="M109.943 49.3843H112.792V51.905C113.636 50.8653 114.528 50.1189 115.471 49.6657C116.414 49.2125 117.463 48.9844 118.617 48.9844C121.147 48.9844 122.857 49.8641 123.746 51.6207C124.234 52.5833 124.478 53.9607 124.478 55.7498V67.145H121.43V55.9483C121.43 54.8642 121.269 53.9903 120.948 53.3268C120.416 52.222 119.45 51.668 118.052 51.668C117.341 51.668 116.759 51.7391 116.304 51.8843C115.483 52.1272 114.76 52.613 114.139 53.3446C113.639 53.9311 113.315 54.5354 113.164 55.1604C113.015 55.7854 112.938 56.677 112.938 57.8381V67.1421H109.94V49.3783L109.943 49.3843Z" fill="#E40521"/>
<path d="M138.167 49.9322C138.7 50.2639 139.306 50.8445 139.981 51.6739V42.7017H142.862V67.1509H140.166V64.6805C139.467 65.7765 138.64 66.5644 137.686 67.0531C136.731 67.5389 135.637 67.7818 134.406 67.7818C132.42 67.7818 130.698 66.9494 129.244 65.2847C127.79 63.62 127.064 61.4074 127.064 58.6407C127.064 56.0519 127.728 53.8125 129.054 51.9138C130.38 50.0181 132.274 49.0702 134.739 49.0702C136.104 49.0702 137.249 49.3575 138.17 49.9322H138.167ZM131.441 63.2498C132.25 64.5324 133.55 65.1751 135.337 65.1751C136.725 65.1751 137.864 64.5798 138.759 63.392C139.654 62.2042 140.1 60.498 140.1 58.2764C140.1 56.0548 139.639 54.3694 138.717 53.2912C137.796 52.213 136.66 51.6739 135.304 51.6739C133.793 51.6739 132.571 52.2485 131.632 53.3978C130.695 54.5471 130.225 56.2385 130.225 58.4719C130.225 60.3736 130.63 61.9672 131.441 63.2498Z" fill="#E40521"/>
<path d="M149.537 49.3843V61.1764C149.537 62.0828 149.68 62.8233 149.971 63.398C150.504 64.4584 151.497 64.9916 152.951 64.9916C155.038 64.9916 156.46 64.0615 157.212 62.2043C157.622 61.209 157.827 59.8435 157.827 58.1077V49.3843H160.825V67.148H157.994L158.027 64.5266C157.637 65.2019 157.155 65.7706 156.578 66.2357C155.434 67.1658 154.048 67.6279 152.416 67.6279C149.873 67.6279 148.143 66.7807 147.221 65.0894C146.721 64.183 146.472 62.9715 146.472 61.4578V49.3843H149.534H149.537Z" fill="#E40521"/>
<path d="M163.082 64.7931L173.656 52.0561H163.867V49.3843H177.688V51.8221L167.182 64.4762H178.006V67.148H163.088V64.7931H163.082Z" fill="#E40521"/>
<path d="M68.9424 74.6775H72.4541V75.2966H69.6263V76.828H72.1121V77.4293H69.6263V79.722H68.9395V74.6775H68.9424Z" fill="#1D1D1B"/>
<path d="M75.0857 74.6775H75.8617L77.6993 79.722H76.9471L76.4326 78.2113H74.4285L73.8814 79.722H73.1797L75.0857 74.6775ZM76.2126 77.6544L75.4455 75.4269L74.6278 77.6544H76.2126Z" fill="#1D1D1B"/>
<path d="M82.4629 75.0449C82.8168 75.3825 83.013 75.7646 83.0517 76.1912H82.3826C82.3083 75.8654 82.1567 75.6076 81.9307 75.4181C81.7047 75.2285 81.3865 75.1337 80.9762 75.1337C80.4767 75.1337 80.0752 75.3085 79.769 75.658C79.4627 76.0075 79.3081 76.5437 79.3081 77.2635C79.3081 77.8529 79.4478 78.3328 79.7244 78.7001C80.0009 79.0674 80.4142 79.251 80.9643 79.251C81.4698 79.251 81.8534 79.0585 82.118 78.6705C82.2578 78.4661 82.3618 78.1995 82.4302 77.8677H83.0993C83.0398 78.398 82.8406 78.8452 82.5075 79.2036C82.1061 79.6361 81.562 79.8523 80.8811 79.8523C80.2923 79.8523 79.7987 79.6746 79.4003 79.3192C78.874 78.8512 78.6123 78.1254 78.6123 77.145C78.6123 76.4015 78.8085 75.7913 79.204 75.3144C79.6322 74.796 80.2209 74.5383 80.9732 74.5383C81.6155 74.5383 82.1121 74.7072 82.4659 75.0419L82.4629 75.0449Z" fill="#1D1D1B"/>
<path d="M84.5205 74.6775H85.2133V79.722H84.5205V74.6775Z" fill="#1D1D1B"/>
<path d="M86.7236 74.6775H87.4105V79.1206H89.9736V79.722H86.7236V74.6775Z" fill="#1D1D1B"/>
<path d="M91.2969 74.6775H91.9897V79.722H91.2969V74.6775Z" fill="#1D1D1B"/>
<path d="M97.3329 74.6775V75.2788H95.6262V79.722H94.9304V75.2788H93.2236V74.6775H97.3329Z" fill="#1D1D1B"/>
<path d="M99.614 74.6775H100.39L102.228 79.722H101.475L100.961 78.2113H98.9569L98.4098 79.722H97.7051L99.6111 74.6775H99.614ZM100.741 77.6544L99.9738 75.4269L99.1561 77.6544H100.741Z" fill="#1D1D1B"/>
<path d="M103.488 74.6775H104.297L106.854 78.7622V74.6775H107.505V79.722H106.738L104.142 75.6402V79.722H103.488V74.6775Z" fill="#1D1D1B"/>
<path d="M109.096 74.6775H111.147C111.843 74.6775 112.384 74.9234 112.768 75.4151C113.11 75.8594 113.282 76.4281 113.282 77.1213C113.282 77.6574 113.181 78.1402 112.979 78.5727C112.622 79.3369 112.01 79.719 111.141 79.719H109.099V74.6746L109.096 74.6775ZM111.008 79.1385C111.24 79.1385 111.43 79.1148 111.579 79.0674C111.846 78.9785 112.063 78.8067 112.233 78.552C112.369 78.3476 112.465 78.0869 112.527 77.77C112.563 77.5804 112.578 77.4027 112.578 77.2397C112.578 76.6147 112.453 76.129 112.203 75.7824C111.953 75.4358 111.552 75.264 110.999 75.264H109.783V79.1385H111.008Z" fill="#1D1D1B"/>
<path d="M118.848 75.3973C119.184 75.8446 119.351 76.4163 119.351 77.1094C119.351 77.8618 119.158 78.4898 118.774 78.9874C118.325 79.5739 117.683 79.8672 116.847 79.8672C116.068 79.8672 115.456 79.6095 115.01 79.097C114.611 78.6023 114.415 77.9773 114.415 77.222C114.415 76.5407 114.585 75.9572 114.923 75.4714C115.361 74.8493 116.006 74.5383 116.862 74.5383C117.719 74.5383 118.417 74.8257 118.848 75.3973ZM118.245 78.6083C118.515 78.1758 118.649 77.6811 118.649 77.1183C118.649 76.5259 118.495 76.049 118.182 75.6876C117.87 75.3263 117.445 75.1456 116.907 75.1456C116.369 75.1456 115.955 75.3233 115.625 75.6817C115.295 76.0401 115.129 76.5674 115.129 77.2664C115.129 77.8263 115.271 78.2972 115.554 78.6794C115.836 79.0615 116.297 79.254 116.934 79.254C117.57 79.254 117.974 79.0378 118.245 78.6083Z" fill="#1D1D1B"/>
<path d="M124.73 74.6775H125.506L127.344 79.722H126.592L126.077 78.2113H124.073L123.526 79.722H122.821L124.727 74.6775H124.73ZM125.857 77.6544L125.09 75.4269L124.272 77.6544H125.857Z" fill="#1D1D1B"/>
<path d="M131.501 78.093C131.516 78.3803 131.584 78.6113 131.703 78.7891C131.932 79.1238 132.331 79.2897 132.907 79.2897C133.166 79.2897 133.398 79.2541 133.612 79.1801C134.022 79.0379 134.225 78.7831 134.225 78.4188C134.225 78.1433 134.138 77.9478 133.966 77.8323C133.791 77.7168 133.517 77.619 133.145 77.5331L132.458 77.3791C132.009 77.2784 131.694 77.1688 131.507 77.0473C131.186 76.837 131.025 76.5231 131.025 76.1024C131.025 75.6492 131.183 75.276 131.498 74.9857C131.813 74.6954 132.259 74.5503 132.836 74.5503C133.368 74.5503 133.817 74.6777 134.189 74.9324C134.561 75.1871 134.745 75.5959 134.745 76.1558H134.1C134.064 75.8862 133.993 75.6789 133.88 75.5337C133.672 75.2701 133.315 75.1398 132.815 75.1398C132.411 75.1398 132.119 75.2257 131.944 75.3945C131.769 75.5633 131.679 75.7618 131.679 75.984C131.679 76.2298 131.783 76.4135 131.989 76.526C132.125 76.6001 132.432 76.6919 132.907 76.8015L133.618 76.9615C133.96 77.0385 134.225 77.1451 134.412 77.2814C134.733 77.5183 134.894 77.859 134.894 78.3092C134.894 78.869 134.689 79.266 134.281 79.5089C133.874 79.7488 133.398 79.8702 132.86 79.8702C132.229 79.8702 131.736 79.7103 131.382 79.3904C131.025 79.0734 130.85 78.641 130.859 78.0959H131.504L131.501 78.093Z" fill="#1D1D1B"/>
<path d="M136.978 74.6775V77.7966C136.978 78.1639 137.046 78.466 137.186 78.7089C137.391 79.0762 137.736 79.2569 138.221 79.2569C138.804 79.2569 139.196 79.0584 139.407 78.6645C139.52 78.4483 139.577 78.1609 139.577 77.7966V74.6775H140.273V77.5093C140.273 78.1283 140.189 78.6082 140.02 78.94C139.711 79.5502 139.131 79.8523 138.274 79.8523C137.418 79.8523 136.838 79.5472 136.535 78.94C136.368 78.6052 136.282 78.1283 136.282 77.5093V74.6775H136.978Z" fill="#1D1D1B"/>
<path d="M143.305 74.6775H144.082L145.919 79.722H145.167L144.652 78.2113H142.648L142.101 79.722H141.396L143.302 74.6775H143.305ZM144.432 77.6544L143.665 75.4269L142.848 77.6544H144.432Z" fill="#1D1D1B"/>
<path d="M150.017 74.6775L151.471 78.9725L152.907 74.6775H153.674L151.828 79.722H151.099L149.256 74.6775H150.014H150.017Z" fill="#1D1D1B"/>
<path d="M155.048 74.6775H155.741V79.722H155.048V74.6775Z" fill="#1D1D1B"/>
<path d="M157.287 74.6775H159.339C160.035 74.6775 160.576 74.9234 160.959 75.4151C161.301 75.8594 161.474 76.4281 161.474 77.1213C161.474 77.6574 161.373 78.1402 161.17 78.5727C160.814 79.3369 160.201 79.719 159.333 79.719H157.29V74.6746L157.287 74.6775ZM159.199 79.1385C159.431 79.1385 159.621 79.1148 159.77 79.0674C160.038 78.9785 160.255 78.8067 160.424 78.552C160.561 78.3476 160.656 78.0869 160.718 77.77C160.754 77.5804 160.769 77.4027 160.769 77.2397C160.769 76.6147 160.644 76.129 160.394 75.7824C160.145 75.4358 159.743 75.264 159.19 75.264H157.974V79.1385H159.199Z" fill="#1D1D1B"/>
<path d="M164.254 74.6775H165.03L166.867 79.722H166.115L165.601 78.2113H163.597L163.049 79.722H162.345L164.251 74.6775H164.254ZM165.381 77.6544L164.613 75.4269L163.796 77.6544H165.381Z" fill="#1D1D1B"/>
<path d="M168.185 78.9727H168.904V79.7221H168.185V78.9727Z" fill="#1D1D1B"/>
<path d="M29.0447 32.0441C29.0447 33.922 27.5342 35.4445 25.6698 35.4445C23.8054 35.4445 22.2949 33.922 22.2949 32.0441C22.2949 30.1661 23.8054 28.6436 25.6698 28.6436C27.5342 28.6436 29.0447 30.1661 29.0447 32.0441Z" fill="#1D1D1B"/>
<path d="M29.7279 47.8083C29.7219 47.752 29.7189 47.6928 29.713 47.6335L29.3294 44.6833H34.1643C34.9493 44.6833 35.5945 44.0346 35.5945 43.2437V42.9653C35.5945 42.1744 34.9493 41.5257 34.1643 41.5257H28.9191L28.7437 40.1572C28.4671 38.0274 26.9269 36.4545 25.3182 36.6649C23.7126 36.8781 22.7521 38.7946 23.0287 40.9273L23.998 48.4037C24.0872 49.085 24.4857 51.9612 24.4857 51.9612H35.645L38.6958 61.1378H42.8289L38.7107 49.1235C38.7107 49.1235 38.4758 48.3741 37.9108 48.0719C37.3459 47.7668 36.3557 47.8083 36.3557 47.8083H29.7279Z" fill="#1D1D1B"/>
<path d="M31.5718 53.9607C30.9801 57.8352 27.6558 60.815 23.6476 60.815C19.2231 60.815 15.6222 57.1865 15.6222 52.7255C15.6222 49.1206 17.9742 46.0638 21.2153 45.0211L20.8466 41.7776C16.0058 43.0306 12.4287 47.4589 12.4287 52.7255C12.4287 58.9696 17.4509 64.0319 23.6476 64.0319C29.4309 64.0319 34.1914 59.6243 34.801 53.9578H31.5718V53.9607Z" fill="#1D1D1B"/>
</g>
<defs>
<clipPath id="clip0_1142_5505">
<rect width="178" height="92" fill="white"/>
</clipPath>
</defs>
</svg>
