<svg width="12" height="15" viewBox="0 0 12 15" fill="none" xmlns="http://www.w3.org/2000/svg">
<path d="M5.71953 7.11389C5.58064 6.66944 5.58341 5.81111 5.66397 5.81111C5.8973 5.81111 5.87508 6.83611 5.71953 7.11389ZM5.6723 8.425C5.45841 8.98611 5.19175 9.62778 4.88341 10.1667C5.39175 9.97222 5.96675 9.68889 6.63064 9.55833C6.27786 9.29167 5.93897 8.90833 5.6723 8.425ZM3.05841 11.8917C3.05841 11.9139 3.42508 11.7417 4.02786 10.775C3.84175 10.95 3.21953 11.4556 3.05841 11.8917ZM7.55564 4.44444H11.3334V13.5556C11.3334 13.925 11.0362 14.2222 10.6667 14.2222H1.33341C0.96397 14.2222 0.666748 13.925 0.666748 13.5556V0.666667C0.666748 0.297222 0.96397 0 1.33341 0H6.88897V3.77778C6.88897 4.14444 7.18897 4.44444 7.55564 4.44444ZM7.33341 9.21667C6.77786 8.87778 6.40841 8.41111 6.1473 7.72222C6.2723 7.20833 6.46953 6.42778 6.31953 5.93889C6.18897 5.12222 5.14175 5.20278 4.99175 5.75C4.85286 6.25833 4.98064 6.975 5.21675 7.88889C4.89453 8.65556 4.41953 9.68333 4.08341 10.2722C4.08064 10.2722 4.08064 10.275 4.07786 10.275C3.32508 10.6611 2.03341 11.5111 2.56397 12.1639C2.71953 12.3556 3.00841 12.4417 3.16119 12.4417C3.65841 12.4417 4.15286 11.9417 4.85841 10.725C5.57508 10.4889 6.36119 10.1944 7.05286 10.0806C7.65564 10.4083 8.36119 10.6222 8.83064 10.6222C9.64175 10.6222 9.6973 9.73333 9.37786 9.41667C8.99175 9.03889 7.86953 9.14722 7.33341 9.21667ZM11.139 2.91667L8.41675 0.194444C8.29175 0.0694444 8.1223 0 7.94453 0H7.77786V3.55556H11.3334V3.38611C11.3334 3.21111 11.264 3.04167 11.139 2.91667ZM9.08064 10.0083C9.19453 9.93333 9.01119 9.67778 7.89175 9.75833C8.9223 10.1972 9.08064 10.0083 9.08064 10.0083Z" fill="#102155"/>
</svg>
