<svg width="26" height="28" viewBox="0 0 26 28" fill="none" xmlns="http://www.w3.org/2000/svg">
<path d="M22.4431 16.3061C23.5723 16.5811 24.4023 17.1988 24.9235 18.2073C26.1057 20.5043 24.4892 23.3031 21.9075 23.3947C20.7011 23.4382 19.4948 23.414 18.2932 23.4044C18.0519 23.4044 17.9699 23.4623 17.9313 23.7181C17.5983 25.8702 15.7405 27.6653 13.5739 27.95C10.6882 28.3312 8.18862 26.4975 7.68194 23.6167C7.64334 23.4092 7.53235 23.4092 7.37794 23.4092C6.14261 23.4092 4.90728 23.4334 3.67195 23.3947C1.79966 23.332 0.269973 21.672 0.313402 19.7901C0.352006 18.1736 1.33641 16.8562 2.88539 16.3978C3.14597 16.3206 3.17975 16.2048 3.17975 15.9731C3.17975 13.7582 3.14115 11.5385 3.19423 9.32359C3.25696 6.57788 4.37647 4.29059 6.39836 2.45207C7.85566 1.13471 9.57836 0.333678 11.5279 0.0875771C14.3074 -0.264684 16.807 0.444664 18.9688 2.23493C20.87 3.81286 21.9896 5.85405 22.3563 8.29575C22.4335 8.80243 22.4383 9.32359 22.4431 9.83509C22.4528 11.8763 22.4431 13.9175 22.4431 15.9586V16.3061ZM12.8115 20.6925C15.7357 20.6925 18.6648 20.6925 21.589 20.6925C22.1922 20.6925 22.5879 20.345 22.5879 19.8287C22.5879 19.3172 22.1826 18.9649 21.5939 18.9601C21.3429 18.9601 21.0824 18.9794 20.8363 18.936C20.1221 18.8057 19.7216 18.2459 19.7216 17.4208C19.7216 14.9019 19.7264 12.3878 19.7167 9.86887C19.7167 9.33806 19.6781 8.79761 19.5768 8.27645C18.9061 4.80692 15.562 2.16737 11.6485 2.82364C8.21757 3.39787 5.94959 6.34143 5.91098 9.40079C5.8772 12.0355 5.89651 14.6702 5.89168 17.305C5.89168 17.4497 5.89168 17.5945 5.87238 17.7393C5.8 18.4341 5.24024 18.9456 4.54054 18.9553C4.31857 18.9553 4.09177 18.9505 3.8698 18.9553C3.31004 18.9794 2.92882 19.4861 3.05429 20.0265C3.15562 20.4608 3.49823 20.6876 4.05317 20.6876C6.96777 20.6876 9.8872 20.6876 12.8018 20.6876L12.8115 20.6925ZM10.4228 23.4237C10.6931 24.577 11.745 25.3249 12.9803 25.2719C14.0178 25.2284 15.0408 24.3792 15.1808 23.4237H10.4228Z" fill="#F48120"/>
</svg>
