<svg width="24" height="24" viewBox="0 0 64 64" fill="#3F76DF" xmlns="http://www.w3.org/2000/svg">
<path d="M53.5843 37.2711C56.1653 37.8997 58.0624 39.3116 59.2536 41.6168C61.9559 46.8669 58.2609 53.2641 52.36 53.4737C49.6026 53.573 46.8452 53.5178 44.0988 53.4958C43.5473 53.4958 43.3598 53.6281 43.2716 54.2127C42.5105 59.132 38.2641 63.235 33.3117 63.8858C26.716 64.7571 21.0026 60.5658 19.8444 53.9811C19.7562 53.5068 19.5025 53.5068 19.1496 53.5068C16.326 53.5068 13.5024 53.5619 10.6787 53.4737C6.39922 53.3303 2.9028 49.5361 3.00206 45.2345C3.0903 41.5396 5.34036 38.5284 8.8809 37.4806C9.47651 37.3041 9.55371 37.0394 9.55371 36.51C9.55371 31.4474 9.46548 26.3737 9.5868 21.3111C9.73019 15.0351 12.2891 9.80706 16.9105 5.60474C20.2415 2.59362 24.1791 0.762692 28.6351 0.200176C34.9882 -0.604993 40.7016 1.01638 45.6429 5.1084C49.9887 8.71512 52.5475 13.3807 53.3858 18.9617C53.5623 20.1198 53.5733 21.3111 53.5843 22.4802C53.6064 27.1458 53.5843 31.8113 53.5843 36.4769V37.2711V37.2711ZM31.569 47.2971C38.253 47.2971 44.9481 47.2971 51.6321 47.2971C53.0108 47.2971 53.9152 46.5029 53.9152 45.3227C53.9152 44.1536 52.9887 43.3484 51.6431 43.3374C51.0696 43.3374 50.474 43.3815 49.9114 43.2823C48.279 42.9844 47.3636 41.705 47.3636 39.8189C47.3636 34.0614 47.3746 28.3149 47.3526 22.5574C47.3526 21.3441 47.2643 20.1088 47.0327 18.9176C45.4996 10.9872 37.856 4.95398 28.9109 6.45403C21.0687 7.76656 15.8848 14.4947 15.7965 21.4875C15.7193 27.5098 15.7634 33.532 15.7524 39.5542C15.7524 39.8851 15.7524 40.216 15.7083 40.5469C15.5429 42.1352 14.2634 43.3043 12.6641 43.3264C12.1567 43.3264 11.6383 43.3153 11.131 43.3264C9.85152 43.3815 8.98017 44.5396 9.26694 45.775C9.49857 46.7676 10.2817 47.286 11.5501 47.286C18.212 47.286 24.885 47.286 31.547 47.286L31.569 47.2971ZM26.1093 53.5399C26.727 56.176 29.1315 57.8856 31.9551 57.7643C34.3265 57.665 36.6648 55.7238 36.9846 53.5399H26.1093Z" fill="#3F76DF"/>
</svg>
