<svg width="18" height="24" viewBox="0 0 18 24" fill="none" xmlns="http://www.w3.org/2000/svg">
<path d="M3 2.25C2.5875 2.25 2.25 2.5875 2.25 3V21C2.25 21.4125 2.5875 21.75 3 21.75H6.75V18.75C6.75 17.5078 7.75781 16.5 9 16.5C10.2422 16.5 11.25 17.5078 11.25 18.75V21.75H15C15.4125 21.75 15.75 21.4125 15.75 21V3C15.75 2.5875 15.4125 2.25 15 2.25H3ZM0 3C0 1.34531 1.34531 0 3 0H15C16.6547 0 18 1.34531 18 3V21C18 22.6547 16.6547 24 15 24H3C1.34531 24 0 22.6547 0 21V3ZM4.125 4.875C4.125 4.4625 4.4625 4.125 4.875 4.125H7.125C7.5375 4.125 7.875 4.4625 7.875 4.875V7.125C7.875 7.5375 7.5375 7.875 7.125 7.875H4.875C4.4625 7.875 4.125 7.5375 4.125 7.125V4.875ZM10.875 4.125H13.125C13.5375 4.125 13.875 4.4625 13.875 4.875V7.125C13.875 7.5375 13.5375 7.875 13.125 7.875H10.875C10.4625 7.875 10.125 7.5375 10.125 7.125V4.875C10.125 4.4625 10.4625 4.125 10.875 4.125ZM4.125 10.875C4.125 10.4625 4.4625 10.125 4.875 10.125H7.125C7.5375 10.125 7.875 10.4625 7.875 10.875V13.125C7.875 13.5375 7.5375 13.875 7.125 13.875H4.875C4.4625 13.875 4.125 13.5375 4.125 13.125V10.875ZM10.875 10.125H13.125C13.5375 10.125 13.875 10.4625 13.875 10.875V13.125C13.875 13.5375 13.5375 13.875 13.125 13.875H10.875C10.4625 13.875 10.125 13.5375 10.125 13.125V10.875C10.125 10.4625 10.4625 10.125 10.875 10.125Z" fill="#3F76DF"/>
</svg>
