<svg width="12" height="12" viewBox="0 0 12 12" fill="none" xmlns="http://www.w3.org/2000/svg">
<path d="M1.21229 2.65094C0.8152 2.25385 0.8152 1.60898 1.21229 1.21188C1.60939 0.814789 2.25426 0.814789 2.65135 1.21188L5.99713 4.56094L9.34783 1.21352C9.74492 0.81643 10.3898 0.81643 10.7869 1.21352C11.1856 1.61226 11.1856 2.25713 10.7869 2.65423L7.43783 6L10.7852 9.34906C11.1823 9.74615 11.1823 10.391 10.7852 10.7881C10.3881 11.1852 9.74328 11.1852 9.34618 10.7881L6.00041 7.43906L2.65135 10.7848C2.25426 11.1819 1.60939 11.1819 1.21229 10.7848C0.8152 10.3877 0.8152 9.74287 1.21229 9.34577L4.56135 6L1.21558 2.65094H1.21229Z" fill="#D55A67"/>
</svg>
