<svg width="16" height="16" viewBox="0 0 16 16" fill="none" xmlns="http://www.w3.org/2000/svg">
<path d="M15.2956 2.89668C15.9006 2.29158 15.9006 1.30892 15.2956 0.703823C14.6905 0.0987256 13.7078 0.0987256 13.1027 0.703823L8.00438 5.80715L2.89855 0.706324C2.29345 0.101226 1.3108 0.101226 0.705698 0.706324C0.0981005 1.31392 0.0981005 2.29658 0.705698 2.90168L5.80902 8L0.708199 13.1033C0.103101 13.7084 0.103101 14.6911 0.708199 15.2962C1.3133 15.9013 2.29595 15.9013 2.90105 15.2962L7.99937 10.1929L13.1027 15.2912C13.7078 15.8963 14.6905 15.8963 15.2956 15.2912C15.9006 14.6861 15.9006 13.7034 15.2956 13.0983L10.1922 8L15.2906 2.89668H15.2956Z" fill="#3F76DF"/>
</svg>
