<svg width="24" height="24" viewBox="0 0 24 24" fill="none" xmlns="http://www.w3.org/2000/svg">
<rect width="24" height="24" rx="12" fill="#D55A67"/>
<path d="M7.82812 16.5703C7.82812 16.85 7.93924 17.1183 8.13704 17.3161C8.33483 17.5139 8.60309 17.625 8.88281 17.625H15.2109C15.4907 17.625 15.7589 17.5139 15.9567 17.3161C16.1545 17.1183 16.2656 16.85 16.2656 16.5703V9.1875H7.82812V16.5703ZM13.8047 10.9453C13.8047 10.8521 13.8417 10.7627 13.9077 10.6967C13.9736 10.6308 14.063 10.5938 14.1562 10.5938C14.2495 10.5938 14.3389 10.6308 14.4048 10.6967C14.4708 10.7627 14.5078 10.8521 14.5078 10.9453V15.8672C14.5078 15.9604 14.4708 16.0498 14.4048 16.1158C14.3389 16.1817 14.2495 16.2188 14.1562 16.2188C14.063 16.2188 13.9736 16.1817 13.9077 16.1158C13.8417 16.0498 13.8047 15.9604 13.8047 15.8672V10.9453ZM11.6953 10.9453C11.6953 10.8521 11.7324 10.7627 11.7983 10.6967C11.8642 10.6308 11.9536 10.5938 12.0469 10.5938C12.1401 10.5938 12.2295 10.6308 12.2955 10.6967C12.3614 10.7627 12.3984 10.8521 12.3984 10.9453V15.8672C12.3984 15.9604 12.3614 16.0498 12.2955 16.1158C12.2295 16.1817 12.1401 16.2188 12.0469 16.2188C11.9536 16.2188 11.8642 16.1817 11.7983 16.1158C11.7324 16.0498 11.6953 15.9604 11.6953 15.8672V10.9453ZM9.58594 10.9453C9.58594 10.8521 9.62298 10.7627 9.68891 10.6967C9.75484 10.6308 9.84426 10.5938 9.9375 10.5938C10.0307 10.5938 10.1202 10.6308 10.1861 10.6967C10.252 10.7627 10.2891 10.8521 10.2891 10.9453V15.8672C10.2891 15.9604 10.252 16.0498 10.1861 16.1158C10.1202 16.1817 10.0307 16.2188 9.9375 16.2188C9.84426 16.2188 9.75484 16.1817 9.68891 16.1158C9.62298 16.0498 9.58594 15.9604 9.58594 15.8672V10.9453ZM16.6172 7.07813H13.9805L13.7739 6.66724C13.7302 6.5794 13.6628 6.5055 13.5793 6.45388C13.4959 6.40225 13.3996 6.37493 13.3015 6.375H10.79C10.6921 6.37463 10.5961 6.40184 10.5129 6.45353C10.4298 6.50521 10.3628 6.57928 10.3198 6.66724L10.1133 7.07813H7.47656C7.38332 7.07813 7.2939 7.11517 7.22797 7.1811C7.16204 7.24703 7.125 7.33645 7.125 7.42969V8.13282C7.125 8.22606 7.16204 8.31548 7.22797 8.38141C7.2939 8.44734 7.38332 8.48438 7.47656 8.48438H16.6172C16.7104 8.48438 16.7998 8.44734 16.8658 8.38141C16.9317 8.31548 16.9687 8.22606 16.9687 8.13282V7.42969C16.9687 7.33645 16.9317 7.24703 16.8658 7.1811C16.7998 7.11517 16.7104 7.07813 16.6172 7.07813Z" fill="#F9F9F9"/>
</svg>
