<svg width="24" height="24" viewBox="0 0 24 24" fill="none" xmlns="http://www.w3.org/2000/svg">
<path d="M22.9433 4.34502C23.851 3.43737 23.851 1.96338 22.9433 1.05573C22.0357 0.148088 20.5617 0.148088 19.654 1.05573L12.0066 8.71072L4.34783 1.05949C3.44018 0.151839 1.96619 0.151839 1.05855 1.05949C0.147151 1.97088 0.147151 3.44487 1.05855 4.35252L8.71353 12L1.0623 19.655C0.154652 20.5626 0.154652 22.0366 1.0623 22.9443C1.96994 23.8519 3.44393 23.8519 4.35158 22.9443L11.9991 15.2893L19.654 22.9368C20.5617 23.8444 22.0357 23.8444 22.9433 22.9368C23.851 22.0291 23.851 20.5551 22.9433 19.6475L15.2883 12L22.9358 4.34502H22.9433Z" fill="#3F76DF"/>
</svg>
