<svg width="10" height="10" viewBox="0 0 10 10" fill="none" xmlns="http://www.w3.org/2000/svg">
<path d="M6.64062 9.57324H8.60938C9.15283 9.57324 9.59375 9.13232 9.59375 8.58887V1.37012C9.59375 0.82666 9.15283 0.385742 8.60938 0.385742H6.64062C6.09717 0.385742 5.65625 0.82666 5.65625 1.37012V8.58887C5.65625 9.13232 6.09717 9.57324 6.64062 9.57324ZM0.40625 8.58887V1.37012C0.40625 0.82666 0.847168 0.385742 1.39062 0.385742H3.35938C3.90283 0.385742 4.34375 0.82666 4.34375 1.37012V8.58887C4.34375 9.13232 3.90283 9.57324 3.35938 9.57324H1.39062C0.847168 9.57324 0.40625 9.13232 0.40625 8.58887Z" fill="#C0BEBF"/>
</svg>
