<svg width="19" height="19" viewBox="0 0 19 19" fill="none" xmlns="http://www.w3.org/2000/svg">
<g clip-path="url(#clip0_3391_1718)">
<path d="M3.07143 0.5C1.65313 0.5 0.5 1.65313 0.5 3.07143V15.9286C0.5 17.3469 1.65313 18.5 3.07143 18.5H15.9286C17.3469 18.5 18.5 17.3469 18.5 15.9286V6.17723C18.5 5.4942 18.2308 4.83929 17.7487 4.35714L14.6429 1.25134C14.1607 0.769196 13.5058 0.5 12.8228 0.5H3.07143ZM3.07143 4.35714C3.07143 3.64598 3.64598 3.07143 4.35714 3.07143H12.0714C12.7826 3.07143 13.3571 3.64598 13.3571 4.35714V6.92857C13.3571 7.63973 12.7826 8.21429 12.0714 8.21429H4.35714C3.64598 8.21429 3.07143 7.63973 3.07143 6.92857V4.35714ZM9.5 10.7857C10.182 10.7857 10.836 11.0566 11.3183 11.5389C11.8005 12.0211 12.0714 12.6752 12.0714 13.3571C12.0714 14.0391 11.8005 14.6932 11.3183 15.1754C10.836 15.6577 10.182 15.9286 9.5 15.9286C8.81801 15.9286 8.16396 15.6577 7.68173 15.1754C7.19949 14.6932 6.92857 14.0391 6.92857 13.3571C6.92857 12.6752 7.19949 12.0211 7.68173 11.5389C8.16396 11.0566 8.81801 10.7857 9.5 10.7857Z" fill="white"/>
</g>
<defs>
<clipPath id="clip0_3391_1718">
<rect width="18" height="18" fill="white" transform="translate(0.5 0.5)"/>
</clipPath>
</defs>
</svg>
