<svg width="24" height="24" viewBox="0 0 24 24" fill="none" xmlns="http://www.w3.org/2000/svg">
<g clip-path="url(#clip0_2902_11855)">
<path d="M12 24C18.6281 24 24 18.6281 24 12C24 5.37188 18.6281 0 12 0C5.37188 0 0 5.37188 0 12C0 18.6281 5.37188 24 12 24ZM10.875 16.125V13.125H7.875C7.25156 13.125 6.75 12.6234 6.75 12C6.75 11.3766 7.25156 10.875 7.875 10.875H10.875V7.875C10.875 7.25156 11.3766 6.75 12 6.75C12.6234 6.75 13.125 7.25156 13.125 7.875V10.875H16.125C16.7484 10.875 17.25 11.3766 17.25 12C17.25 12.6234 16.7484 13.125 16.125 13.125H13.125V16.125C13.125 16.7484 12.6234 17.25 12 17.25C11.3766 17.25 10.875 16.7484 10.875 16.125Z" fill="#3F76DF"/>
</g>
<defs>
<clipPath id="clip0_2902_11855">
<rect width="24" height="24" fill="white"/>
</clipPath>
</defs>
</svg>
