<svg width="24" height="18" viewBox="0 0 24 18" fill="none" xmlns="http://www.w3.org/2000/svg">
<path d="M23.437 5.25H20.6306L19.8506 3.3C19.049 1.29516 17.136 0 14.9765 0H9.02339C6.86433 0 4.95089 1.29516 4.14886 3.3L3.36886 5.25H0.56292C0.196827 5.25 -0.0717672 5.59406 0.0172953 5.94891L0.298545 7.07391C0.360889 7.32422 0.585889 7.5 0.84417 7.5H1.78495C1.15542 8.04984 0.749952 8.84906 0.749952 9.75V12C0.749952 12.7556 1.0387 13.4377 1.49995 13.9655V16.5C1.49995 17.3283 2.17167 18 2.99995 18H4.49995C5.32823 18 5.99995 17.3283 5.99995 16.5V15H18V16.5C18 17.3283 18.6717 18 19.5 18H21C21.8282 18 22.5 17.3283 22.5 16.5V13.9655C22.9612 13.4381 23.25 12.7561 23.25 12V9.75C23.25 8.84906 22.8445 8.04984 22.2154 7.5H23.1562C23.4145 7.5 23.6395 7.32422 23.7018 7.07391L23.9831 5.94891C24.0717 5.59406 23.8031 5.25 23.437 5.25ZM6.93417 4.41422C7.27589 3.56016 8.10323 3 9.02339 3H14.9765C15.8967 3 16.724 3.56016 17.0657 4.41422L18 6.75H5.99995L6.93417 4.41422ZM4.49995 11.9906C3.59995 11.9906 2.99995 11.3925 2.99995 10.4953C2.99995 9.59812 3.59995 9 4.49995 9C5.39995 9 6.74995 10.3458 6.74995 11.243C6.74995 12.1402 5.39995 11.9906 4.49995 11.9906ZM19.5 11.9906C18.6 11.9906 17.25 12.1402 17.25 11.243C17.25 10.3458 18.6 9 19.5 9C20.4 9 21 9.59812 21 10.4953C21 11.3925 20.4 11.9906 19.5 11.9906Z" fill="#3F76DF"/>
</svg>
