<svg width="64" height="64" viewBox="0 0 64 64" fill="none" xmlns="http://www.w3.org/2000/svg">
<path d="M63.8901 30.33V34.51C63.8001 35.27 63.7201 36.04 63.6101 36.8C62.7701 42.5 60.6101 47.64 56.9701 52.12C52.0301 58.19 45.7001 61.96 37.9901 63.37C36.8501 63.58 35.6901 63.7 34.5401 63.86H30.3601C30.1601 63.82 29.9601 63.77 29.7601 63.74C28.4901 63.56 27.2001 63.47 25.9401 63.19C18.4301 61.54 12.2401 57.72 7.55005 51.63C2.19005 44.65 0.160053 36.71 1.31005 27.99C2.06005 22.34 4.21005 17.22 7.85005 12.83C15.4001 3.73 25.1301 -0.12 36.8401 1.28C42.5201 1.96 47.6001 4.23 52.0601 7.83C58.1901 12.78 61.9801 19.13 63.4001 26.89C63.6101 28.03 63.7301 29.18 63.8901 30.33ZM32.4401 58.95C47.0201 58.97 58.9601 47.09 58.9701 32.46C58.9801 17.79 47.1901 5.94 32.4701 5.89C17.8901 5.84 5.95005 17.74 5.94005 32.37C5.93005 47.04 17.7201 58.87 32.4401 58.95Z" fill="#3F76DF"/>
<path d="M28.1399 37.13C28.3299 36.95 28.4899 36.8 28.6499 36.65C33.3099 31.99 37.9699 27.34 42.6199 22.67C43.3999 21.88 44.2799 21.49 45.3799 21.84C46.9699 22.35 47.5799 24.21 46.6299 25.58C46.4699 25.81 46.2599 26.02 46.0599 26.22C40.7699 31.52 35.4699 36.81 30.1799 42.11C28.8199 43.47 27.4799 43.48 26.1299 42.13C23.6499 39.66 21.1899 37.18 18.7099 34.71C17.9499 33.95 17.6299 33.09 17.9599 32.04C18.4699 30.46 20.3399 29.83 21.6999 30.79C21.9499 30.97 22.1699 31.18 22.3899 31.4C24.1399 33.15 25.8899 34.9 27.6399 36.65C27.7999 36.81 27.9599 36.95 28.1399 37.13Z" fill="#3F76DF"/>
</svg>
