<svg width="19" height="18" viewBox="0 0 19 18" fill="none" xmlns="http://www.w3.org/2000/svg">
<path d="M5.09563 14.4999C5.47517 14.8413 5.85873 15.1767 6.23224 15.5251C6.49832 15.7731 6.76239 16.0261 7.00437 16.2962C7.3568 16.6898 7.34877 17.1899 7.0114 17.5112C6.67002 17.8365 6.22823 17.8295 5.83664 17.4439C4.72814 16.3525 3.62668 15.254 2.53726 14.1425C2.13061 13.7268 2.15169 13.3011 2.56638 12.8834C3.64475 11.797 4.72714 10.7146 5.81355 9.63622C6.21718 9.2356 6.70215 9.21853 7.04554 9.56996C7.37387 9.90632 7.35078 10.3883 6.97124 10.7799C6.52543 11.2387 6.0746 11.6936 5.61373 12.1364C5.46212 12.282 5.27135 12.3884 5.09764 12.5119C5.12977 12.5661 5.16291 12.6193 5.19504 12.6735C5.29544 12.6846 5.39485 12.7067 5.49525 12.7067C7.85482 12.7087 10.2144 12.7177 12.574 12.7067C14.314 12.6986 15.6233 11.7719 16.1816 10.1614C16.294 9.83604 16.3503 9.47959 16.3683 9.13419C16.3975 8.57492 16.6676 8.2245 17.1465 8.21245C17.6596 8.2004 18.012 8.56187 18.002 9.14122C17.9648 11.2869 16.533 13.4547 14.2498 14.1003C13.7618 14.2379 13.2407 14.3122 12.7336 14.3172C10.4242 14.3393 8.11488 14.3272 5.80551 14.3272C5.60671 14.3272 5.4079 14.3272 5.20909 14.3272C5.17194 14.3845 5.13479 14.4427 5.09764 14.4999H5.09563Z" fill="white"/>
<path d="M12.7888 5.29173C12.6031 5.29173 12.4163 5.29173 12.2305 5.29173C10.0105 5.29173 7.79053 5.28169 5.56953 5.29274C4.02225 5.30077 2.77419 5.89618 2.06531 7.31996C1.82132 7.80995 1.741 8.3913 1.64561 8.94154C1.54822 9.50281 1.22792 9.8703 0.774077 9.82412C0.257984 9.7719 -0.0522744 9.35321 0.00696581 8.77285C0.247943 6.43437 1.3715 4.74552 3.64673 3.96134C4.16884 3.78161 4.74719 3.69225 5.30144 3.68522C7.659 3.6561 10.0176 3.67317 12.3761 3.67317C12.5097 3.67317 12.6442 3.67317 12.8872 3.67317C12.7517 3.5075 12.6864 3.41311 12.6071 3.33379C12.086 2.80967 11.5548 2.29558 11.0397 1.76443C10.5467 1.25637 10.6531 0.61075 11.2546 0.350695C11.5859 0.208117 11.8771 0.295471 12.1161 0.531428C13.2477 1.65298 14.3762 2.77653 15.4938 3.91214C15.8502 4.27461 15.8452 4.71339 15.4777 5.0869C14.3712 6.21347 13.2537 7.33201 12.1281 8.4395C11.7727 8.78992 11.3048 8.78088 10.9795 8.46862C10.6551 8.15836 10.6401 7.65632 10.9754 7.28582C11.2947 6.93339 11.6452 6.60908 11.9805 6.2707C12.2677 5.98053 12.5518 5.68734 12.838 5.39616C12.8209 5.36101 12.8049 5.32587 12.7878 5.29073L12.7888 5.29173Z" fill="#F9F9F9"/>
</svg>
