<svg width="24" height="24" viewBox="0 0 22 24" fill="none" xmlns="http://www.w3.org/2000/svg">
<path d="M20 0C19.25 0 14 1.5 14 8.25V13.5C14 15.1547 15.3453 16.5 17 16.5H18.5V22.5C18.5 23.3297 19.1703 24 20 24C20.8297 24 21.5 23.3297 21.5 22.5V16.5V11.25V1.5C21.5 0.670312 20.8297 0 20 0ZM3.5 0.75C3.5 0.365625 3.21406 0.046875 2.82969 0.0046875C2.44531 -0.0375 2.10313 0.215625 2.01875 0.585938L0.598437 6.975C0.532812 7.27031 0.5 7.57031 0.5 7.87031C0.5 10.0219 2.14531 11.7891 4.25 11.9813V22.5C4.25 23.3297 4.92031 24 5.75 24C6.57969 24 7.25 23.3297 7.25 22.5V11.9813C9.35469 11.7891 11 10.0219 11 7.87031C11 7.57031 10.9672 7.27031 10.9016 6.975L9.48125 0.585938C9.39688 0.210938 9.04531 -0.0375 8.66562 0.0046875C8.28594 0.046875 8 0.365625 8 0.75V7.04062C8 7.29375 7.79375 7.5 7.54062 7.5C7.30156 7.5 7.10469 7.31719 7.08125 7.07812L6.49531 0.684375C6.4625 0.295313 6.13906 0 5.75 0C5.36094 0 5.0375 0.295313 5.00469 0.684375L4.42344 7.07812C4.4 7.31719 4.20312 7.5 3.96406 7.5C3.71094 7.5 3.50469 7.29375 3.50469 7.04062V0.75H3.5ZM5.76406 7.875H5.75H5.73594L5.75 7.84219L5.76406 7.875Z" fill="#3F76DF"/>
</svg>
