<svg width="48" height="48" viewBox="0 0 48 48" fill="none" xmlns="http://www.w3.org/2000/svg">
<path d="M6.75667 24.0303C6.75667 18.4503 6.75667 12.8628 6.75667 7.28276C6.76417 3.18026 9.16417 0.765258 13.2217 0.757758C17.3467 0.750258 21.4717 0.772758 25.5892 0.750258C27.5092 0.735258 29.0992 1.37276 30.4567 2.76776C33.4492 5.83526 36.4717 8.87276 39.5467 11.8653C40.9192 13.2003 41.5567 14.7753 41.5567 16.6278C41.5717 24.6828 41.5867 32.7303 41.5567 40.7853C41.5417 44.9478 39.1867 47.2503 35.0617 47.2503C27.7042 47.2503 20.3467 47.2503 12.9892 47.2503C9.20167 47.2503 6.76417 44.8353 6.75667 41.0328C6.74167 35.3703 6.75667 29.7003 6.75667 24.0378V24.0303ZM38.7667 18.1503C35.4817 18.1503 32.2942 18.1503 29.1067 18.1503C26.0167 18.1503 24.2992 16.4328 24.2917 13.3428C24.2842 10.4703 24.2617 7.59776 24.3067 4.72526C24.3217 3.77276 23.9917 3.45026 23.0467 3.46526C19.8517 3.51026 16.6567 3.46526 13.4692 3.48776C10.4542 3.51026 9.51667 4.47776 9.51667 7.52276C9.51667 18.5703 9.51667 29.6253 9.51667 40.6728C9.51667 43.6278 10.3867 44.5053 13.3492 44.5128C19.2517 44.5278 25.1542 44.5128 31.0567 44.5128C32.6767 44.5128 34.2892 44.5278 35.9092 44.4678C37.6567 44.4003 38.5717 43.5078 38.7517 41.7978C38.8042 41.3178 38.8417 40.8303 38.8417 40.3503C38.8417 33.4278 38.8417 26.5053 38.8417 19.5903C38.8417 19.1553 38.8042 18.7203 38.7742 18.1653L38.7667 18.1503ZM27.0742 3.91526C27.0442 4.14776 26.9842 4.38026 26.9842 4.60526C26.9842 7.51526 26.9617 10.4328 26.9842 13.3428C26.9992 14.9028 27.4642 15.3528 29.0317 15.3603C31.8967 15.3753 34.7692 15.3678 37.6342 15.3603C37.9267 15.3603 38.2117 15.2628 38.5342 15.2103C37.8442 13.7478 28.1317 4.20026 27.0592 3.91526H27.0742Z" fill="#3F76DF"/>
<path d="M31.4467 41.4677C30.5617 41.4677 29.6767 41.4752 28.7917 41.4677C27.8617 41.4527 27.2167 41.0552 27.2242 40.0427C27.2317 39.0902 27.8317 38.6927 28.7242 38.6927C30.5317 38.6927 32.3467 38.6927 34.1542 38.6927C35.0542 38.6927 35.6542 39.1202 35.6692 40.0427C35.6842 41.0402 35.0317 41.4602 34.0942 41.4752C33.2092 41.4902 32.3242 41.4752 31.4392 41.4752L31.4467 41.4677Z" fill="#3F76DF"/>
<path d="M16.8517 9.36781C15.9217 9.36781 14.9917 9.39031 14.0692 9.36781C13.2292 9.33781 12.6667 8.91031 12.6442 8.03281C12.6217 7.15531 13.1617 6.67531 14.0092 6.66031C15.9442 6.63031 17.8792 6.63031 19.8142 6.66781C20.6017 6.68281 21.1117 7.14031 21.1117 7.96531C21.1192 8.84281 20.6092 9.31531 19.7617 9.35281C18.7942 9.39781 17.8267 9.36031 16.8517 9.36031V9.36781Z" fill="#3F76DF"/>
<path d="M16.8065 15.2028C15.9215 15.2028 15.029 15.2028 14.144 15.2028C13.2215 15.2028 12.6515 14.7228 12.6365 13.8228C12.629 12.9003 13.229 12.4653 14.144 12.4653C15.959 12.4653 17.7815 12.4503 19.5965 12.4653C20.4665 12.4728 21.089 12.7953 21.074 13.8153C21.059 14.7978 20.489 15.1728 19.5965 15.1878C18.6665 15.2028 17.7365 15.1878 16.8065 15.1878V15.2028Z" fill="#3F76DF"/>
<path d="M33.4267 25.6278V32.1153H14.8867V25.6278H33.4267ZM33.7717 23.3778H14.5417C13.4917 23.3778 12.6367 24.2328 12.6367 25.2828V32.4603C12.6367 33.5103 13.4917 34.3653 14.5417 34.3653H33.7717C34.8217 34.3653 35.6767 33.5103 35.6767 32.4603V25.2828C35.6767 24.2328 34.8217 23.3778 33.7717 23.3778Z" fill="#3F76DF"/>
</svg>
