<svg width="64" height="64" viewBox="0 0 64 64" fill="none" xmlns="http://www.w3.org/2000/svg">
<g clip-path="url(#clip0_6141_710)">
<path d="M27.9021 30.492C27.9541 29.356 28.0101 28.656 28.0101 27.952C28.0181 20.088 28.0221 12.228 28.0101 4.36397C28.0101 2.71197 28.4741 1.34397 30.0261 0.531974C31.4701 -0.228026 33.0901 -0.244026 34.0941 0.919974C34.9581 1.92397 35.6021 3.46397 35.6261 4.77997C35.7661 12.44 35.6941 20.104 35.6941 27.764C35.6941 28.492 35.6941 29.22 35.6941 30.344C36.3301 29.868 36.7461 29.624 37.0741 29.296C39.5661 26.792 42.0181 24.252 44.5221 21.76C46.6021 19.684 48.7861 19.492 50.5101 21.16C52.2381 22.836 52.0661 25.272 50.0181 27.332C45.0821 32.292 40.1381 37.24 35.1781 42.172C32.8101 44.528 30.8421 44.52 28.4661 42.156C23.5061 37.22 18.5581 32.276 13.6261 27.312C11.6541 25.328 11.4901 22.716 13.1821 21.124C14.9221 19.48 17.0741 19.696 19.1701 21.788C21.5301 24.14 23.8501 26.528 26.1981 28.896C26.6421 29.344 27.1261 29.76 27.9061 30.48L27.9021 30.492Z" fill="#3F76DF"/>
<path d="M31.9021 56.04C37.0301 56.04 42.1581 56.044 47.2901 56.04C50.6141 56.036 51.9821 54.664 52.0141 51.292C52.0381 48.96 51.9901 46.628 52.0301 44.3C52.0741 41.712 53.5781 40.06 55.8181 40.052C58.0341 40.044 59.6301 41.724 59.6821 44.26C59.7381 46.856 59.7621 49.456 59.6821 52.052C59.4701 58.884 54.5181 63.864 47.6621 63.928C37.1381 64.024 26.6141 64.02 16.0901 63.928C9.03407 63.868 4.10607 58.788 4.02607 51.728C3.99807 49.196 3.98207 46.664 4.03407 44.136C4.08607 41.692 5.60207 40.088 7.78207 40.052C9.92607 40.02 11.5941 41.644 11.6741 44.024C11.7581 46.552 11.6741 49.084 11.7061 51.616C11.7421 54.616 13.1461 56.028 16.1181 56.04C21.3781 56.056 26.6421 56.044 31.9021 56.044V56.04Z" fill="#3F76DF"/>
</g>
<defs>
<clipPath id="clip0_6141_710">
<rect width="64" height="64" fill="white"/>
</clipPath>
</defs>
</svg>
