<svg width="18" height="16" viewBox="0 0 18 16" fill="none" xmlns="http://www.w3.org/2000/svg">
<path d="M12.3823 2.89999L15.0444 5.56214C15.1566 5.6743 15.1566 5.85728 15.0444 5.96944L8.59861 12.4153L5.85972 12.7193C5.49375 12.7606 5.18385 12.4507 5.22517 12.0847L5.52917 9.34583L11.975 2.89999C12.0872 2.78784 12.2701 2.78784 12.3823 2.89999ZM17.1635 2.22412L15.7233 0.783846C15.2747 0.335235 14.5457 0.335235 14.0941 0.783846L13.0493 1.82864C12.9372 1.94079 12.9372 2.12378 13.0493 2.23593L15.7115 4.89808C15.8236 5.01023 16.0066 5.01023 16.1187 4.89808L17.1635 3.85329C17.6122 3.40173 17.6122 2.67273 17.1635 2.22412ZM11.8333 10.6621V13.6667H2.38889V4.22221H9.17118C9.26562 4.22221 9.35417 4.18385 9.42205 4.11892L10.6026 2.93836C10.8269 2.71405 10.6675 2.33333 10.3517 2.33333H1.91667C1.13455 2.33333 0.5 2.96787 0.5 3.74999V14.1389C0.5 14.921 1.13455 15.5555 1.91667 15.5555H12.3056C13.0877 15.5555 13.7222 14.921 13.7222 14.1389V9.48159C13.7222 9.16579 13.3415 9.00937 13.1172 9.23072L11.9366 10.4113C11.8717 10.4792 11.8333 10.5677 11.8333 10.6621Z" fill="#3F76DF"/>
</svg>
