<svg width="20" height="16" viewBox="0 0 20 16" fill="none" xmlns="http://www.w3.org/2000/svg">
<path d="M0 13.3773C0 9.80547 0 6.23047 0 2.65547C0.0125 2.62734 0.03125 2.59922 0.0375 2.57109C0.240625 1.39297 1.26875 0.505469 2.45625 0.502344C7.48125 0.499219 12.5062 0.499219 17.5312 0.502344C18.8813 0.502344 19.9937 1.61797 19.9969 2.96797C20 6.33359 20 9.69922 19.9969 13.0648C19.9969 14.4148 18.8813 15.5273 17.5312 15.5305C12.5125 15.5336 7.49375 15.5305 2.475 15.5305C1.375 15.5305 0.396875 14.7836 0.09375 13.7305C0.059375 13.6148 0.03125 13.4961 0 13.3805L0 13.3773ZM2.1375 14.218C2.33438 14.2398 2.48437 14.2742 2.6375 14.2742C4.08125 14.2773 5.52812 14.2742 6.97187 14.2742C10.4281 14.2742 13.8844 14.2742 17.3406 14.2742C17.4969 14.2742 17.6531 14.243 17.8594 14.218C16.025 12.118 14.2344 10.0648 12.4344 8.00547C12.3656 8.06484 12.3094 8.10859 12.2563 8.15547C11.6719 8.65547 11.0906 9.15859 10.5062 9.65859C10.1375 9.97422 9.85625 9.97422 9.4875 9.65859C8.90312 9.15859 8.32187 8.65859 7.7375 8.15547C7.68125 8.10547 7.62188 8.05859 7.55938 8.00547C5.75625 10.068 3.96563 12.1211 2.1375 14.2148V14.218ZM2.30625 1.81797C2.35625 1.86484 2.4 1.91172 2.45 1.95234C4.91875 4.07422 7.39062 6.19609 9.85938 8.32109C9.975 8.42109 10.0437 8.40547 10.15 8.31484C12.4312 6.35234 14.7125 4.39297 16.9969 2.43047C17.2313 2.22734 17.4656 2.02422 17.7094 1.81484C17.4281 1.72422 2.53125 1.73359 2.30938 1.82109L2.30625 1.81797ZM18.7031 13.268C18.7219 13.1242 18.7469 13.0242 18.7469 12.9242C18.7469 9.64609 18.7469 6.36484 18.7469 3.08672C18.7469 2.94922 18.7094 2.81172 18.6812 2.63984C16.8969 4.17109 15.15 5.67109 13.3906 7.18359C15.1562 9.20547 16.9156 11.218 18.7031 13.268ZM1.34375 2.66484C1.23125 2.93984 1.20937 12.9367 1.31875 13.243C3.08437 11.2211 4.84062 9.20859 6.60938 7.18359C4.85 5.67422 3.10313 4.17422 1.34375 2.66172V2.66484Z" fill="#3F76DF"/>
</svg>
