<svg width="65" height="64" viewBox="0 0 65 64" fill="none" xmlns="http://www.w3.org/2000/svg">
<g clip-path="url(#clip0_2074_4951)">
<path d="M32.5223 64C15.104 64.0626 0.652082 49.7629 0.508905 32.4698C0.365728 14.6756 14.312 0.0447459 32.3926 3.1381e-06C50.8132 -0.0447396 64.3971 14.5906 64.491 31.6734C64.5894 49.6823 50.4418 63.9374 32.5223 64ZM32.576 58.2013C46.9519 58.1969 58.6924 46.4698 58.7058 32.1029C58.7147 17.5347 47.0413 5.74944 32.5358 5.81656C17.9541 5.88815 6.3702 17.3154 6.34783 31.9553C6.32546 46.5906 17.9273 58.094 32.5805 58.2013H32.576Z" fill="#D55A67"/>
<path d="M35.3813 27.1946C35.3813 29.6868 35.4037 32.179 35.3724 34.6711C35.3455 36.7427 34.3612 37.8345 32.5938 37.8568C30.7415 37.8792 29.6766 36.7562 29.6677 34.6711C29.6453 29.5526 29.6453 24.434 29.6677 19.3199C29.6766 17.2886 30.831 16.0447 32.5983 16.0761C34.2806 16.1029 35.35 17.3154 35.3724 19.3199C35.4037 21.9463 35.3813 24.5727 35.3813 27.1946Z" fill="#D55A67"/>
<path d="M36.321 46.1477C36.321 48.3087 34.6879 49.9463 32.5358 49.9508C30.4105 49.9553 28.7147 48.2819 28.7013 46.1656C28.6834 44.0313 30.4507 42.2685 32.585 42.2774C34.67 42.2864 36.3255 44 36.321 46.1477Z" fill="#D55A67"/>
</g>
<defs>
<clipPath id="clip0_2074_4951">
<rect width="63.9821" height="64" fill="white" transform="translate(0.508789)"/>
</clipPath>
</defs>
</svg>
