<svg width="12" height="16" viewBox="0 0 12 16" fill="none" xmlns="http://www.w3.org/2000/svg">
<path d="M11.4156 2.91812L9.08344 0.585625C8.70625 0.210687 8.19687 0 7.66875 0H2C0.895313 0 0 0.895313 0 2L0.000203125 14C0.000203125 15.1044 0.895516 16 2.0002 16H10C11.1 16 12 15.1 12 14V4.33125C12 3.80313 11.7906 3.29375 11.4156 2.91812ZM10.5 14C10.5 14.2761 10.2761 14.5 10 14.5H2.00062C1.72444 14.5 1.50063 14.2761 1.50063 14L1.5 2.00406C1.5 1.72794 1.72388 1.50406 2 1.50406H7V4C7 4.55219 7.44781 5 8 5H10.4719V14H10.5ZM7.15938 7.29063L6 8.77812L4.84062 7.29063C4.5875 6.9625 4.11875 6.90313 3.79063 7.15938C3.4625 7.4125 3.40313 7.88437 3.65937 8.2125L5.05 10L3.65844 11.7891C3.40356 12.1163 3.46313 12.5878 3.78931 12.8419C3.92813 12.9469 4.0875 13 4.22188 13C4.4455 13 4.66719 12.9004 4.81469 12.7109L6 11.2219L7.15812 12.7109C7.30625 12.9 7.52812 13 7.75 13C7.91016 13 8.07219 12.9482 8.21 12.8418C8.53625 12.5879 8.59562 12.1162 8.34087 11.789L6.95 10L8.34156 8.21094C8.59644 7.88375 8.53687 7.41219 8.21069 7.15812C7.88125 6.90312 7.4125 6.9625 7.15938 7.29063Z" fill="white"/>
</svg>
