<svg width="16" height="10" viewBox="0 0 16 10" fill="none" xmlns="http://www.w3.org/2000/svg">
<path d="M0 4.81318C0.2825 4.31318 0.68 3.90568 1.0675 3.49068C1.9475 2.55318 2.9225 1.73568 4.04 1.08818C4.9575 0.558176 5.93 0.175676 6.9875 0.0456764C8.0775 -0.0868236 9.1325 0.0731764 10.1525 0.470676C11.365 0.945676 12.4275 1.66318 13.4025 2.51818C14.105 3.13568 14.7425 3.81068 15.315 4.54818C15.5275 4.82318 15.53 5.04068 15.315 5.31318C14.2175 6.70568 12.94 7.89818 11.4 8.79318C10.4925 9.32068 9.5275 9.69568 8.48 9.81818C7.1475 9.97568 5.8925 9.70318 4.695 9.11818C3.035 8.30568 1.6725 7.11818 0.49 5.71568C0.3125 5.50568 0.1625 5.27318 0.0025 5.05068C0.0025 4.97068 0.0025 4.89068 0.0025 4.80818L0 4.81318ZM1.14 4.92568C1.4525 5.26318 1.7275 5.57818 2.02 5.87568C3.02 6.88818 4.125 7.76068 5.4425 8.33068C6.0825 8.60818 6.7475 8.79318 7.4475 8.83068C8.5525 8.89068 9.575 8.58818 10.545 8.08568C11.62 7.53068 12.55 6.78318 13.3975 5.92818C13.7125 5.61068 14.005 5.27318 14.32 4.93318C14.025 4.61318 13.7525 4.30068 13.465 4.00818C12.4625 2.98818 11.355 2.11318 10.0325 1.53818C9.3875 1.25818 8.7175 1.07068 8.0125 1.03318C6.9025 0.973176 5.8775 1.28318 4.9025 1.78818C3.965 2.27318 3.135 2.90568 2.38 3.63568C1.9575 4.04318 1.5625 4.48068 1.14 4.92068V4.92568Z" fill="#102155"/>
<path d="M10.7949 4.94067C10.7824 6.63817 9.40743 8.00817 7.72743 7.99317C6.02993 7.98067 4.65993 6.60567 4.67493 4.92567C4.68743 3.22817 6.06243 1.85817 7.74243 1.87317C9.43993 1.88567 10.8099 3.26067 10.7949 4.94067ZM9.76493 4.93817C9.76743 3.81067 8.86743 2.90567 7.73993 2.90317C6.61243 2.90067 5.70743 3.80067 5.70493 4.93067C5.70243 6.05817 6.60243 6.96317 7.73243 6.96567C8.85993 6.96817 9.76493 6.06817 9.76743 4.93817H9.76493Z" fill="#102155"/>
</svg>
