<svg width="18" height="17" viewBox="0 0 18 17" fill="none" xmlns="http://www.w3.org/2000/svg">
<g clip-path="url(#clip0_1902_2549)">
<path d="M0.765625 8.30077C1.06578 7.76952 1.48813 7.33655 1.89984 6.89561C2.83484 5.89952 3.87078 5.03092 5.05813 4.34295C6.03297 3.77983 7.06625 3.37342 8.18984 3.2353C9.34797 3.09452 10.4689 3.26452 11.5527 3.68686C12.8409 4.19155 13.9698 4.95389 15.0058 5.86233C15.7522 6.51842 16.4295 7.23561 17.0378 8.01921C17.2636 8.31139 17.2662 8.54249 17.0378 8.83202C15.8717 10.3115 14.5144 11.5786 12.8781 12.5295C11.9139 13.09 10.8886 13.4884 9.77562 13.6186C8.35984 13.7859 7.02641 13.4964 5.75406 12.8748C3.99031 12.0115 2.54266 10.7498 1.28625 9.25967C1.09766 9.03655 0.938281 8.78952 0.768281 8.55311C0.768281 8.46811 0.768281 8.38311 0.768281 8.29545L0.765625 8.30077ZM1.97687 8.4203C2.30891 8.77889 2.60109 9.11358 2.91188 9.42967C3.97438 10.5055 5.14844 11.4325 6.54828 12.0381C7.22828 12.333 7.93484 12.5295 8.67859 12.5694C9.85266 12.6331 10.9391 12.3117 11.9697 11.7778C13.1119 11.1881 14.1 10.3939 15.0005 9.48546C15.3352 9.14811 15.6459 8.78952 15.9806 8.42827C15.6672 8.08827 15.3777 7.75624 15.0722 7.44546C14.007 6.36171 12.8303 5.43202 11.4252 4.82108C10.7398 4.52358 10.028 4.32436 9.27891 4.28452C8.09953 4.22077 7.01047 4.55014 5.97453 5.0867C4.97844 5.60202 4.09656 6.27405 3.29438 7.04967C2.84547 7.48264 2.42578 7.94749 1.97687 8.41499V8.4203Z" fill="#F48120"/>
<path d="M12.2353 8.43623C12.222 10.2398 10.7611 11.6954 8.97608 11.6795C7.17248 11.6662 5.71686 10.2053 5.7328 8.42029C5.74608 6.6167 7.20701 5.16107 8.99201 5.17701C10.7956 5.19029 12.2512 6.65123 12.2353 8.43623ZM11.1409 8.43357C11.1436 7.2356 10.1873 6.27404 8.98936 6.27138C7.79139 6.26873 6.82983 7.22498 6.82717 8.4256C6.82451 9.62357 7.78076 10.5851 8.98139 10.5878C10.1794 10.5904 11.1409 9.6342 11.1436 8.43357H11.1409Z" fill="#F48120"/>
</g>
<defs>
<clipPath id="clip0_1902_2549">
<rect width="17" height="17" fill="white" transform="translate(0.5)"/>
</clipPath>
</defs>
</svg>
