<svg width="24" height="24" viewBox="0 0 16 16" fill="none" xmlns="http://www.w3.org/2000/svg">
<path d="M0.25 7.81251C0.5325 7.31251 0.93 6.905 1.3175 6.49001C2.1975 5.55251 3.1725 4.735 4.29 4.0875C5.2075 3.55751 6.18 3.17501 7.2375 3.04501C8.3275 2.91251 9.3825 3.07251 10.4025 3.47001C11.615 3.94501 12.6775 4.6625 13.6525 5.5175C14.355 6.135 14.9925 6.81001 15.565 7.54751C15.7775 7.82251 15.78 8.04001 15.565 8.31251C14.4675 9.70501 13.19 10.8975 11.65 11.7925C10.7425 12.32 9.7775 12.695 8.73 12.8175C7.3975 12.975 6.1425 12.7025 4.945 12.1175C3.285 11.305 1.9225 10.1175 0.74 8.71501C0.5625 8.50501 0.4125 8.27251 0.2525 8.05001C0.2525 7.97001 0.2525 7.89001 0.2525 7.80751L0.25 7.81251ZM1.39 7.92501C1.7025 8.26251 1.9775 8.57751 2.27 8.87501C3.27 9.88751 4.375 10.76 5.6925 11.33C6.3325 11.6075 6.9975 11.7925 7.6975 11.83C8.8025 11.89 9.825 11.5875 10.795 11.085C11.87 10.53 12.8 9.78251 13.6475 8.92751C13.9625 8.61 14.255 8.27251 14.57 7.93251C14.275 7.6125 14.0025 7.30001 13.715 7.00751C12.7125 5.98751 11.605 5.1125 10.2825 4.53751C9.6375 4.25751 8.9675 4.07001 8.2625 4.03251C7.1525 3.97251 6.1275 4.28251 5.1525 4.78751C4.215 5.27251 3.385 5.905 2.63 6.635C2.2075 7.0425 1.8125 7.48001 1.39 7.92001V7.92501Z" fill="#102155"/>
<path d="M11.045 7.94C11.0325 9.6375 9.65755 11.0075 7.97755 10.9925C6.28005 10.98 4.91005 9.605 4.92505 7.925C4.93755 6.2275 6.31255 4.8575 7.99255 4.8725C9.69005 4.885 11.06 6.26 11.045 7.94ZM10.015 7.9375C10.0175 6.81 9.11755 5.905 7.99005 5.9025C6.86255 5.9 5.95755 6.8 5.95505 7.93C5.95255 9.0575 6.85255 9.9625 7.98255 9.965C9.11005 9.9675 10.015 9.0675 10.0175 7.9375H10.015Z" fill="#102155"/>
</svg>
