<svg width="20" height="10" viewBox="0 0 20 10" fill="none" xmlns="http://www.w3.org/2000/svg">
<path d="M9.41875 7.29272C8.54375 7.13647 7.71562 6.98647 6.85625 6.83022C6.66875 7.33335 6.46875 7.87085 6.26874 8.41147C6.23749 8.49585 6.2125 8.58022 6.17187 8.65835C6.025 8.94897 5.72187 9.07085 5.44687 8.95522C5.15625 8.83335 5.02187 8.54585 5.13437 8.20522C5.28437 7.7521 5.45937 7.30835 5.625 6.86147C5.67812 6.71772 5.72812 6.57085 5.77499 6.43647C5.03125 6.0021 4.29375 5.57397 3.52187 5.12397C3.20937 5.4896 2.87187 5.88335 2.53749 6.2771C2.47187 6.3521 2.41249 6.43335 2.34374 6.50835C2.05937 6.82397 1.7375 6.86772 1.46874 6.63022C1.225 6.4146 1.225 6.06772 1.475 5.76772C1.81562 5.35835 2.1625 4.9521 2.50937 4.54272C2.55937 4.48335 2.60625 4.42397 2.64999 4.36772C2.24062 3.88335 1.80937 3.43335 1.45 2.93022C1.075 2.4021 0.75312 1.8271 0.431245 1.25835C0.212495 0.870849 0.306245 0.533349 0.62812 0.377099C0.95312 0.217724 1.24062 0.355224 1.45 0.767724C2.62812 3.09897 4.44062 4.72397 6.90937 5.58647C11.3719 7.14585 16.3687 5.1146 18.4906 0.886474C18.525 0.817724 18.5594 0.745849 18.5969 0.680224C18.7844 0.345849 19.075 0.233349 19.3719 0.380224C19.675 0.530224 19.7719 0.855224 19.6031 1.20835C19.1687 2.11772 18.6125 2.94585 17.9375 3.69585C17.7437 3.91147 17.5406 4.11772 17.3187 4.3521C17.7281 4.83647 18.1375 5.3146 18.5375 5.8021C18.8062 6.13022 18.7437 6.53022 18.4094 6.7146C18.1437 6.86147 17.8969 6.8021 17.6469 6.51147C17.2469 6.04897 16.8562 5.5771 16.475 5.1271C15.7219 5.56772 14.9844 5.99585 14.2187 6.44272C14.4 6.93647 14.5906 7.4646 14.7844 7.99272C14.8156 8.0771 14.85 8.15835 14.8719 8.24585C14.9531 8.5896 14.8094 8.88022 14.5156 8.98022C14.225 9.0771 13.9344 8.93647 13.8 8.6021C13.6156 8.1396 13.45 7.66772 13.2781 7.19897C13.2312 7.07397 13.1844 6.9521 13.1406 6.8396C12.2969 6.99272 11.4625 7.14272 10.5812 7.3021C10.5812 7.8271 10.5812 8.38022 10.5812 8.93335C10.5812 9.49272 10.3781 9.78647 10 9.78647C9.62187 9.78647 9.42187 9.49272 9.42187 8.93022C9.42187 8.38647 9.42187 7.84272 9.42187 7.29897L9.41875 7.29272Z" fill="#102155"/>
</svg>
