<svg width="18" height="24" viewBox="0 0 18 24" fill="none" xmlns="http://www.w3.org/2000/svg">
<path d="M10.5 6.375V0H1.125C0.501562 0 0 0.501562 0 1.125V22.875C0 23.4984 0.501562 24 1.125 24H16.875C17.4984 24 18 23.4984 18 22.875V7.5H11.625C11.0063 7.5 10.5 6.99375 10.5 6.375ZM13.5 17.4375C13.5 17.7469 13.2469 18 12.9375 18H5.0625C4.75313 18 4.5 17.7469 4.5 17.4375V17.0625C4.5 16.7531 4.75313 16.5 5.0625 16.5H12.9375C13.2469 16.5 13.5 16.7531 13.5 17.0625V17.4375ZM13.5 14.4375C13.5 14.7469 13.2469 15 12.9375 15H5.0625C4.75313 15 4.5 14.7469 4.5 14.4375V14.0625C4.5 13.7531 4.75313 13.5 5.0625 13.5H12.9375C13.2469 13.5 13.5 13.7531 13.5 14.0625V14.4375ZM13.5 11.0625V11.4375C13.5 11.7469 13.2469 12 12.9375 12H5.0625C4.75313 12 4.5 11.7469 4.5 11.4375V11.0625C4.5 10.7531 4.75313 10.5 5.0625 10.5H12.9375C13.2469 10.5 13.5 10.7531 13.5 11.0625ZM18 5.71406V6H12V0H12.2859C12.5859 0 12.8719 0.117188 13.0828 0.328125L17.6719 4.92188C17.8828 5.13281 18 5.41875 18 5.71406Z" fill="#3F76DF"/>
</svg>
