<svg width="24" height="20" viewBox="0 0 24 20" fill="none" xmlns="http://www.w3.org/2000/svg">
<path d="M11.6821 5.51084L4.00001 11.8379V18.6667C4.00001 18.8435 4.07025 19.0131 4.19528 19.1381C4.3203 19.2631 4.48987 19.3333 4.66668 19.3333L9.33585 19.3213C9.51208 19.3204 9.68079 19.2498 9.8051 19.1248C9.9294 18.9999 9.99918 18.8308 9.99918 18.6546V14.6667C9.99918 14.4899 10.0694 14.3203 10.1944 14.1953C10.3195 14.0702 10.489 14 10.6658 14H13.3325C13.5093 14 13.6789 14.0702 13.8039 14.1953C13.9289 14.3203 13.9992 14.4899 13.9992 14.6667V18.6517C13.9989 18.7394 14.0159 18.8263 14.0493 18.9074C14.0827 18.9886 14.1318 19.0623 14.1937 19.1244C14.2556 19.1866 14.3292 19.2358 14.4102 19.2695C14.4913 19.3031 14.5781 19.3204 14.6658 19.3204L19.3333 19.3333C19.5102 19.3333 19.6797 19.2631 19.8048 19.1381C19.9298 19.0131 20 18.8435 20 18.6667V11.8333L12.3196 5.51084C12.2293 5.43806 12.1168 5.39837 12.0008 5.39837C11.8849 5.39837 11.7724 5.43806 11.6821 5.51084ZM23.8167 9.81126L20.3333 6.94001V1.16876C20.3333 1.03615 20.2807 0.908977 20.1869 0.815209C20.0931 0.721441 19.966 0.668762 19.8333 0.668762H17.5C17.3674 0.668762 17.2402 0.721441 17.1465 0.815209C17.0527 0.908977 17 1.03615 17 1.16876V4.19418L13.2696 1.12501C12.9116 0.83042 12.4624 0.669351 11.9988 0.669351C11.5351 0.669351 11.0859 0.83042 10.7279 1.12501L0.180847 9.81126C0.130217 9.85311 0.0883288 9.90452 0.0575754 9.96256C0.0268221 10.0206 0.00780663 10.0841 0.00161555 10.1495C-0.00457554 10.2149 0.00217909 10.2809 0.0214935 10.3437C0.0408079 10.4065 0.0723035 10.4648 0.114181 10.5154L1.17668 11.8071C1.21844 11.8579 1.26981 11.8999 1.32785 11.9308C1.38588 11.9617 1.44944 11.9809 1.51489 11.9872C1.58033 11.9935 1.64638 11.9868 1.70925 11.9676C1.77212 11.9483 1.83057 11.9169 1.88126 11.875L11.6821 3.80251C11.7724 3.72973 11.8849 3.69004 12.0008 3.69004C12.1168 3.69004 12.2293 3.72973 12.3196 3.80251L22.1208 11.875C22.1715 11.9169 22.2298 11.9484 22.2926 11.9677C22.3554 11.987 22.4214 11.9938 22.4867 11.9876C22.5521 11.9814 22.6157 11.9624 22.6737 11.9316C22.7318 11.9009 22.7832 11.859 22.825 11.8083L23.8875 10.5167C23.9293 10.4658 23.9607 10.4071 23.9798 10.3441C23.9989 10.281 24.0053 10.2148 23.9987 10.1492C23.9922 10.0837 23.9727 10.0201 23.9414 9.96208C23.9102 9.90408 23.8678 9.85283 23.8167 9.81126Z" fill="#3F76DF"/>
</svg>
