<svg width="17" height="17" viewBox="0 0 17 17" fill="none" xmlns="http://www.w3.org/2000/svg">
<g clip-path="url(#clip0_2462_4503)">
<path d="M10.8446 6.15555C12.8283 8.14139 12.8011 11.3252 10.8565 13.2806C10.8529 13.2846 10.8485 13.2889 10.8446 13.2929L8.6133 15.5241C6.64535 17.4921 3.44361 17.4918 1.47596 15.5241C-0.491987 13.5565 -0.491987 10.3544 1.47596 8.3868L2.708 7.15476C3.03472 6.82804 3.59738 7.04519 3.61424 7.50691C3.63576 8.09534 3.74128 8.68652 3.93598 9.25742C4.00192 9.45072 3.95481 9.66455 3.81037 9.80899L3.37584 10.2435C2.44529 11.1741 2.41611 12.6893 3.33749 13.6289C4.26798 14.5778 5.79738 14.5835 6.735 13.6458L8.96625 11.4149C9.90228 10.4789 9.89836 8.96596 8.96625 8.03385C8.84337 7.9112 8.71959 7.8159 8.6229 7.74933C8.5545 7.70236 8.49802 7.64005 8.45797 7.56738C8.41793 7.49471 8.39542 7.41369 8.39224 7.33077C8.37909 6.97991 8.5034 6.61836 8.78065 6.34112L9.47971 5.64203C9.66302 5.45871 9.95059 5.4362 10.1632 5.58455C10.4066 5.75454 10.6346 5.9456 10.8446 6.15555ZM15.524 1.47583C13.5564 -0.491852 10.3546 -0.492117 8.38669 1.47583L6.15544 3.70708C6.15146 3.71107 6.14714 3.71538 6.14349 3.71937C4.19892 5.67477 4.17166 8.85858 6.15544 10.8444C6.36538 11.0544 6.59338 11.2454 6.83681 11.4154C7.04937 11.5637 7.33698 11.5412 7.52026 11.3579L8.21932 10.6588C8.49656 10.3816 8.62087 10.02 8.60773 9.66917C8.60455 9.58625 8.58204 9.50523 8.54199 9.43256C8.50194 9.35989 8.44547 9.29758 8.37706 9.25061C8.28038 9.18404 8.1566 9.08874 8.03371 8.96609C7.1016 8.03398 7.09768 6.52105 8.03371 5.58502L10.265 3.3541C11.2026 2.41648 12.732 2.42212 13.6625 3.37103C14.5839 4.31068 14.5547 5.82587 13.6241 6.75642L13.1896 7.19095C13.0452 7.33539 12.998 7.54921 13.064 7.74252C13.2587 8.31342 13.3642 8.9046 13.3857 9.49302C13.4026 9.95475 13.9652 10.1719 14.292 9.84518L15.524 8.61314C17.492 6.64556 17.492 3.44345 15.524 1.47583Z" fill="#F48120"/>
</g>
<defs>
<clipPath id="clip0_2462_4503">
<rect width="17" height="17" fill="white"/>
</clipPath>
</defs>
</svg>
