<svg width="24" height="24" viewBox="0 0 64 64" fill="none" xmlns="http://www.w3.org/2000/svg">
<path d="M52 0H12C6.46667 0 2 4.76444 2 10.6667V42.6667C2 48.5689 6.46667 53.3333 12 53.3333H19.2667L30.4 63.36C31.3333 64.2133 32.7 64.2133 33.6333 63.36L44.7667 53.3333H52C57.5333 53.3333 62 48.5689 62 42.6667V10.6667C62 4.76444 57.5333 0 52 0ZM57 42.6667C57 45.6178 54.7667 48 52 48H44.7667C43.6 48 42.4333 48.4622 41.5333 49.2444L32 57.8133L22.4667 49.2444C21.5667 48.4267 20.4333 48 19.2333 48H12C9.23333 48 7 45.6178 7 42.6667V10.6667C7 7.71556 9.23333 5.33333 12 5.33333H52C54.7667 5.33333 57 7.71556 57 10.6667V42.6667Z" fill="#3F76DF"/>
<path d="M19.5 18.6666H32C33.3667 18.6666 34.5 17.4577 34.5 15.9999C34.5 14.5421 33.3667 13.3333 32 13.3333H19.5C18.1333 13.3333 17 14.5421 17 15.9999C17 17.4577 18.1333 18.6666 19.5 18.6666Z" fill="#3F76DF"/>
<path d="M44.5 24H19.5C18.1333 24 17 25.2089 17 26.6667C17 28.1244 18.1333 29.3333 19.5 29.3333H44.5C45.8667 29.3333 47 28.1244 47 26.6667C47 25.2089 45.8667 24 44.5 24Z" fill="#3F76DF"/>
<path d="M44.5 34.6667H19.5C18.1333 34.6667 17 35.8756 17 37.3334C17 38.7912 18.1333 40.0001 19.5 40.0001H44.5C45.8667 40.0001 47 38.7912 47 37.3334C47 35.8756 45.8667 34.6667 44.5 34.6667Z" fill="#3F76DF"/>
</svg>
