<svg width="19" height="24" viewBox="0 0 19 24" fill="none" xmlns="http://www.w3.org/2000/svg">
<path d="M8.1493 0.2578C8.66492 -0.0843872 9.33992 -0.0843872 9.85555 0.2578L10.6899 0.806238C10.9712 0.98905 11.2993 1.07811 11.6321 1.05936L12.6305 0.998425C13.2493 0.960925 13.8305 1.29843 14.1071 1.85155L14.5571 2.74686C14.7071 3.04686 14.9509 3.28593 15.2462 3.43593L16.1509 3.89061C16.704 4.16718 17.0415 4.74843 17.004 5.36718L16.9431 6.36561C16.9243 6.69843 17.0134 7.03124 17.1962 7.3078L17.7493 8.14218C18.0915 8.6578 18.0915 9.3328 17.7493 9.84843L17.1962 10.6875C17.0134 10.9687 16.9243 11.2969 16.9431 11.6297L17.004 12.6281C17.0415 13.2469 16.704 13.8281 16.1509 14.1047L15.2555 14.5547C14.9555 14.7047 14.7165 14.9484 14.5665 15.2437L14.1118 16.1484C13.8352 16.7016 13.254 17.0391 12.6352 17.0016L11.6368 16.9406C11.304 16.9219 10.9712 17.0109 10.6946 17.1937L9.86024 17.7469C9.34461 18.0891 8.66961 18.0891 8.15399 17.7469L7.31492 17.1937C7.03367 17.0109 6.70555 16.9219 6.37274 16.9406L5.3743 17.0016C4.75555 17.0391 4.1743 16.7016 3.89774 16.1484L3.44774 15.2531C3.29774 14.9531 3.05399 14.7141 2.75867 14.5641L1.85399 14.1094C1.30086 13.8328 0.963362 13.2516 1.00086 12.6328L1.0618 11.6344C1.08055 11.3016 0.991487 10.9687 0.808675 10.6922L0.260237 9.85311C-0.0819504 9.33749 -0.0819504 8.66249 0.260237 8.14686L0.808675 7.31249C0.991487 7.03124 1.08055 6.70311 1.0618 6.3703L1.00086 5.37186C0.963362 4.75311 1.30086 4.17186 1.85399 3.8953L2.7493 3.4453C3.0493 3.29061 3.29305 3.04686 3.44305 2.74686L3.89305 1.85155C4.16961 1.29843 4.75086 0.960925 5.36961 0.998425L6.36805 1.05936C6.70086 1.07811 7.03367 0.98905 7.31024 0.806238L8.1493 0.2578ZM12.7524 8.99999C12.7524 6.92811 11.0743 5.24999 9.00242 5.24999C6.93055 5.24999 5.25242 6.92811 5.25242 8.99999C5.25242 11.0719 6.93055 12.75 9.00242 12.75C11.0743 12.75 12.7524 11.0719 12.7524 8.99999ZM0.0633621 20.7094L2.08367 15.9047C2.09305 15.9094 2.09774 15.9141 2.10242 15.9234L2.55242 16.8187C3.10086 17.9062 4.23992 18.5672 5.45867 18.4969L6.45711 18.4359C6.46649 18.4359 6.48055 18.4359 6.48992 18.4453L7.3243 18.9984C7.56336 19.1531 7.81649 19.275 8.07899 19.3594L6.31649 23.5453C6.20867 23.8031 5.96961 23.9766 5.69305 24C5.41649 24.0234 5.1493 23.8969 4.9993 23.6625L3.48992 21.3516L0.860237 21.7406C0.59305 21.7781 0.325862 21.6703 0.157112 21.4594C-0.0116379 21.2484 -0.0444504 20.9578 0.0586746 20.7094H0.0633621ZM11.6884 23.5406L9.92586 19.3594C10.1884 19.275 10.4415 19.1578 10.6805 18.9984L11.5149 18.4453C11.5243 18.4406 11.5337 18.4359 11.5477 18.4359L12.5462 18.4969C13.7649 18.5672 14.904 17.9062 15.4524 16.8187L15.9024 15.9234C15.9071 15.9141 15.9118 15.9094 15.9212 15.9047L17.9462 20.7094C18.0493 20.9578 18.0118 21.2437 17.8477 21.4594C17.6837 21.675 17.4118 21.7828 17.1446 21.7406L14.5149 21.3516L13.0055 23.6578C12.8555 23.8922 12.5884 24.0187 12.3118 23.9953C12.0352 23.9719 11.7962 23.7937 11.6884 23.5406Z" fill="#F48120"/>
</svg>
