<svg width="4" height="18" viewBox="0 0 4 18" fill="none" xmlns="http://www.w3.org/2000/svg">
<path d="M2.00002 3.39531C2.76287 3.39531 3.38128 2.77691 3.38128 2.01406C3.38128 1.25122 2.76287 0.632812 2.00002 0.632812C1.23718 0.632812 0.618774 1.25122 0.618774 2.01406C0.618774 2.77691 1.23718 3.39531 2.00002 3.39531Z" fill="#0B0B0B"/>
<path d="M2.00002 10.3813C2.76287 10.3813 3.38128 9.76287 3.38128 9.00002C3.38128 8.23718 2.76287 7.61877 2.00002 7.61877C1.23718 7.61877 0.618774 8.23718 0.618774 9.00002C0.618774 9.76287 1.23718 10.3813 2.00002 10.3813Z" fill="black"/>
<path d="M2.00002 17.3672C2.76287 17.3672 3.38128 16.7488 3.38128 15.9859C3.38128 15.2231 2.76287 14.6047 2.00002 14.6047C1.23718 14.6047 0.618774 15.2231 0.618774 15.9859C0.618774 16.7488 1.23718 17.3672 2.00002 17.3672Z" fill="black"/>
</svg>
