<svg width="24" height="24" viewBox="0 0 24 24" fill="none" xmlns="http://www.w3.org/2000/svg">
<path d="M19.3707 20.4779L18.5409 20.7541L17.1574 19.3707L17.4336 18.5409L16.6038 18.8171L14.9442 17.1574L13.5607 18.5409C12.9499 19.1517 11.9583 19.1517 11.3475 18.5409L5.26007 12.4535C4.64921 11.8426 4.64921 10.8511 5.26007 10.2402L10.2402 5.26007C10.8511 4.64921 11.8426 4.64921 12.4535 5.26007L18.5409 11.3475C19.1517 11.9583 19.1517 12.9499 18.5409 13.5607L17.1574 14.9442L21.5205 19.3072C23.0756 17.2843 24.0012 14.7513 24.0012 12.0019C24 5.37328 18.628 0 12.0006 0C5.37328 0 0 5.37328 0 12.0006C0 18.628 5.37328 24.0012 12.0006 24.0012C14.7501 24.0012 17.2831 23.0756 19.306 21.5205L19.0933 21.3078L19.3694 20.4779H19.3707Z" fill="#3F76DF"/>
</svg>
