<svg width="16" height="16" viewBox="0 0 16 16" fill="none" xmlns="http://www.w3.org/2000/svg">
<path d="M15.7797 13.958L12.6644 10.8427C12.5238 10.7021 12.3332 10.624 12.1332 10.624H11.6239C12.4863 9.52096 12.9987 8.13359 12.9987 6.62437C12.9987 3.03409 10.0896 0.125 6.49936 0.125C2.90909 0.125 0 3.03409 0 6.62437C0 10.2146 2.90909 13.1237 6.49936 13.1237C8.00859 13.1237 9.39596 12.6113 10.499 11.7489V12.2582C10.499 12.4582 10.5771 12.6488 10.7177 12.7894L13.833 15.9047C14.1267 16.1984 14.6017 16.1984 14.8923 15.9047L15.7766 15.0204C16.0703 14.7267 16.0703 14.2517 15.7797 13.958ZM6.49936 10.624C4.29021 10.624 2.49976 8.83665 2.49976 6.62437C2.49976 4.41521 4.28708 2.62476 6.49936 2.62476C8.70852 2.62476 10.499 4.41208 10.499 6.62437C10.499 8.83352 8.71165 10.624 6.49936 10.624Z" fill="#F48120"/>
</svg>
