<svg width="12" height="12" viewBox="0 0 12 12" fill="none" xmlns="http://www.w3.org/2000/svg">
<path d="M11.7808 10.7235L9.45798 8.39971C11.196 6.07711 10.7221 2.78529 8.39946 1.0475C6.07686 -0.690291 2.78527 -0.216817 1.04748 2.10579C-0.690547 4.42839 -0.216838 7.72021 2.10577 9.45823C3.97154 10.8543 6.53392 10.8543 8.39969 9.45823L10.7235 11.782C11.0155 12.0741 11.489 12.0741 11.7808 11.782C12.0729 11.49 12.0729 11.0165 11.7808 10.7247V10.7237V10.7235ZM5.27195 9.00961C3.20765 9.00961 1.53431 7.33627 1.53431 5.27197C1.53431 3.20767 3.20788 1.53457 5.27218 1.53457C7.33649 1.53457 9.00982 3.2079 9.00982 5.2722C9.00771 7.33557 7.33555 9.0075 5.27218 9.00984L5.27195 9.00961Z" fill="white"/>
</svg>
