<svg width="20" height="18" viewBox="0 0 20 18" fill="none" xmlns="http://www.w3.org/2000/svg">
<path d="M19.6585 8.57891C18.9233 8.25669 18.1894 7.93316 17.4543 7.6116C15.7767 6.87707 14.0979 6.14451 12.4204 5.40932C10.1714 4.42359 7.92313 3.43589 5.67416 2.45016C4.04202 1.7347 2.40856 1.0199 0.77576 0.30575C0.546918 0.205796 0.316103 0.241964 0.157624 0.400444C-0.00611682 0.564184 -0.042942 0.792368 0.0576696 1.02647C0.193133 1.34014 0.329255 1.65381 0.465376 1.96683C1.02564 3.25505 1.58657 4.54393 2.1475 5.83215C2.60584 6.88561 3.06352 7.93908 3.52384 8.99122C3.55145 9.05501 3.5508 9.1063 3.52384 9.16943C3.07799 10.1894 2.63411 11.2106 2.19024 12.2312C1.68455 13.3938 1.17821 14.5564 0.672518 15.719C0.466034 16.1938 0.258235 16.6679 0.0530664 17.1434C-0.0435996 17.367 -0.00545925 17.5833 0.154993 17.7503C0.3115 17.9121 0.54626 17.9575 0.759978 17.8635C1.56619 17.5103 2.37239 17.1559 3.1786 16.8021C4.87453 16.0584 6.57112 15.3146 8.2677 14.5715C9.92549 13.8449 11.5833 13.1189 13.2417 12.3923C14.4517 11.8623 15.6617 11.3316 16.8716 10.8016C17.8008 10.3945 18.73 9.98813 19.6592 9.58174C19.8775 9.48639 20.0011 9.31936 20.0011 9.08066C20.0011 8.84261 19.8788 8.67558 19.6598 8.57957L19.6585 8.57891ZM17.547 9.47061C17.547 9.47061 5.38022 10.0624 5.37233 10.0809C5.36444 10.0993 5.85237 9.08066 5.85237 9.08066L5.37233 7.97196C5.38022 7.99037 17.547 8.68939 17.547 8.68939C17.7627 8.68939 17.9205 8.86497 17.9205 9.08066C17.9205 9.29635 17.762 9.47061 17.547 9.47061Z" fill="#F48120"/>
</svg>
