<svg width="17" height="16" viewBox="0 0 17 16" fill="none" xmlns="http://www.w3.org/2000/svg">
<path d="M15.9967 5.20625C16.0967 5.47813 16.0123 5.78125 15.7967 5.975L14.4436 7.20625C14.4779 7.46563 14.4967 7.73125 14.4967 8C14.4967 8.26875 14.4779 8.53438 14.4436 8.79375L15.7967 10.025C16.0123 10.2188 16.0967 10.5219 15.9967 10.7937C15.8592 11.1656 15.6936 11.5219 15.5029 11.8656L15.3561 12.1187C15.1498 12.4625 14.9186 12.7875 14.6654 13.0938C14.4811 13.3188 14.1748 13.3937 13.8998 13.3062L12.1592 12.7531C11.7404 13.075 11.2779 13.3438 10.7842 13.5469L10.3936 15.3313C10.3311 15.6156 10.1123 15.8406 9.82481 15.8875C9.39356 15.9594 8.94981 15.9969 8.49669 15.9969C8.04356 15.9969 7.59981 15.9594 7.16856 15.8875C6.88106 15.8406 6.66231 15.6156 6.59981 15.3313L6.20919 13.5469C5.71544 13.3438 5.25294 13.075 4.83419 12.7531L3.09669 13.3094C2.82169 13.3969 2.51544 13.3188 2.33106 13.0969C2.07794 12.7906 1.84669 12.4656 1.64044 12.1219L1.49356 11.8687C1.30294 11.525 1.13731 11.1687 0.999813 10.7969C0.899813 10.525 0.984188 10.2219 1.19981 10.0281L2.55294 8.79688C2.51856 8.53438 2.49981 8.26875 2.49981 8C2.49981 7.73125 2.51856 7.46563 2.55294 7.20625L1.19981 5.975C0.984188 5.78125 0.899813 5.47813 0.999813 5.20625C1.13731 4.83438 1.30294 4.47813 1.49356 4.13438L1.64044 3.88125C1.84669 3.5375 2.07794 3.2125 2.33106 2.90625C2.51544 2.68125 2.82169 2.60625 3.09669 2.69375L4.83731 3.24688C5.25606 2.925 5.71856 2.65625 6.21231 2.45312L6.60294 0.66875C6.66544 0.384375 6.88419 0.159375 7.17169 0.1125C7.60294 0.0375 8.04669 0 8.49981 0C8.95294 0 9.39669 0.0375 9.82794 0.109375C10.1154 0.15625 10.3342 0.38125 10.3967 0.665625L10.7873 2.45C11.2811 2.65313 11.7436 2.92188 12.1623 3.24375L13.9029 2.69062C14.1779 2.60312 14.4842 2.68125 14.6686 2.90313C14.9217 3.20938 15.1529 3.53437 15.3592 3.87812L15.5061 4.13125C15.6967 4.475 15.8623 4.83125 15.9998 5.20312L15.9967 5.20625ZM8.49981 10.5C9.88106 10.5 10.9998 9.38125 10.9998 8C10.9998 6.61875 9.88106 5.5 8.49981 5.5C7.11856 5.5 5.99981 6.61875 5.99981 8C5.99981 9.38125 7.11856 10.5 8.49981 10.5Z" fill="#F9F9F9"/>
</svg>
