<svg width="20" height="20" viewBox="0 0 20 20" fill="none" xmlns="http://www.w3.org/2000/svg">
<path d="M15.5109 7.78931C15.5109 5.99084 15.5109 4.19542 15.5109 2.39695C15.5078 1.01069 14.4941 0 13.1017 0C11.001 0 8.90019 0 6.79943 0C5.3979 0 4.37805 1.01374 4.375 2.40916C4.375 7.4687 4.375 12.5282 4.375 17.5878C4.375 18.9832 5.39179 19.9969 6.79332 20C7.68492 20 8.57347 20 9.46508 20C10.6773 20 11.8865 20 13.0987 19.9969C13.3246 19.9969 13.5536 19.9664 13.7613 19.9145C14.8208 19.6366 15.5048 18.7298 15.5078 17.6031C15.5109 15.7924 15.5078 13.9847 15.5078 12.174V10.0031V7.79237L15.5109 7.78931ZM6.8208 18.9069C5.96584 18.9069 5.45286 18.3847 5.45286 17.5176V12.1374V9.98473V7.63969C5.45286 5.90229 5.45286 4.16794 5.45286 2.43053C5.45286 1.7771 5.80401 1.2916 6.38721 1.13588C6.50324 1.10534 6.64065 1.09008 6.81775 1.09008C8.89408 1.08702 10.9735 1.08702 13.0498 1.09008C13.9139 1.09008 14.43 1.60611 14.43 2.46718C14.43 7.48702 14.43 12.5069 14.43 17.5298C14.43 18.3786 13.9109 18.9069 13.0742 18.9069C10.9887 18.913 8.90324 18.913 6.81775 18.9069H6.8208Z" fill="#3F76DF"/>
<path d="M5.9353 9.76791C5.9353 7.63966 5.9353 5.50837 5.9353 3.38012C5.9353 3.02287 6.00859 2.94653 6.35973 2.94653C8.74752 2.94653 11.1384 2.94653 13.5261 2.94653C13.8773 2.94653 13.9506 3.02287 13.9506 3.38012C13.9506 7.63966 13.9506 11.8962 13.9506 16.1557C13.9506 16.516 13.8803 16.5893 13.5261 16.5893C11.1384 16.5893 8.74752 16.5893 6.35973 16.5893C6.00553 16.5893 5.9353 16.516 5.9353 16.1557C5.9353 14.0274 5.9353 11.8962 5.9353 9.76791ZM6.53378 3.5389V15.9878H13.3551V3.53585H6.53378V3.5389Z" fill="#3F76DF"/>
<path d="M9.94752 18.513C9.62996 18.513 9.37042 18.2565 9.37652 17.945C9.37958 17.6366 9.63607 17.3862 9.94446 17.3832C10.259 17.3832 10.5216 17.6427 10.5155 17.9542C10.5124 18.2626 10.259 18.5099 9.94752 18.513Z" fill="#3F76DF"/>
<path d="M9.96889 1.52066C10.2284 1.52066 10.488 1.51455 10.7475 1.52066C10.9704 1.52677 11.0864 1.63669 11.0864 1.826C11.0864 2.01226 10.9643 2.1344 10.7475 2.13745C10.2132 2.14356 9.67881 2.14356 9.14446 2.13745C8.92766 2.13745 8.80858 2.01532 8.80553 1.826C8.80553 1.63669 8.92156 1.52371 9.14446 1.51761C9.41927 1.5115 9.69408 1.51761 9.96889 1.51761V1.52066Z" fill="#3F76DF"/>
</svg>
