<svg width="20" height="19" viewBox="0 0 20 19" fill="none" xmlns="http://www.w3.org/2000/svg">
<path d="M7.99406 4.16564C7.6502 3.39313 7.60944 2.62999 7.90552 1.86685C8.12804 1.29297 8.49673 0.824971 9.01954 0.487671C10.1214 -0.223469 11.494 -0.150856 12.4858 0.671312C13.456 1.47568 13.7994 2.83144 13.3295 4.00308C12.8109 5.29607 11.6926 5.90039 10.0136 5.78749V6.67009H10.3196C13.1693 6.67009 16.019 6.67009 18.8687 6.6715C19.0163 6.6715 19.1685 6.6715 19.3109 6.70335C19.6918 6.78955 19.9832 7.13294 19.9846 7.53161C19.9902 9.20218 20.0244 10.8746 19.9701 12.5433C19.9115 14.3502 17.9945 15.7257 16.2246 15.2914C15.9539 15.2249 15.6887 15.1354 15.4039 15.0515C15.3641 15.1574 15.321 15.2806 15.2722 15.4015C14.339 17.7256 12.0988 18.6208 10.3242 18.5281C8.09431 18.4114 6.19091 16.6935 5.73883 14.5905C5.67824 14.3082 5.50507 14.1669 5.2193 14.1666C3.81388 14.1666 2.40847 14.153 1.00352 14.1731C0.432921 14.1806 -0.00556821 13.8476 5.34496e-05 13.1641C0.0220716 10.4938 0.00895441 7.82347 0.00895441 5.15318C0.00895441 4.46874 0.311119 4.16564 0.990871 4.16517C3.22361 4.16517 5.45681 4.16517 7.68955 4.16517H7.99359L7.99406 4.16564ZM10.0001 7.92513V8.21511C10.0001 9.88568 10.0005 11.5558 10.0001 13.2264C10.0001 13.8326 9.66978 14.1624 9.05749 14.1652C8.44098 14.168 7.82447 14.1656 7.20749 14.1656C7.1241 14.1656 7.04072 14.1656 6.93203 14.1656C6.95358 14.2757 6.96389 14.3516 6.98356 14.4252C7.52137 16.4761 9.49645 17.6562 11.554 17.1564C13.2236 16.7507 14.3662 15.2689 14.3746 13.4761C14.3826 11.7043 14.3765 9.93206 14.376 8.1603C14.376 8.08535 14.3671 8.00992 14.362 7.92513H10.0005H10.0001ZM15.625 7.92466V8.20715C15.625 9.87631 15.6419 11.5459 15.6128 13.2151C15.6058 13.6208 15.7744 13.8171 16.0986 13.9576C16.1769 13.9918 16.2565 14.0256 16.338 14.0495C17.5546 14.4069 18.7366 13.5079 18.7469 12.2023C18.7577 10.8372 18.7497 9.47202 18.7488 8.1069C18.7488 8.0474 18.7361 7.9879 18.7291 7.92466H15.6245H15.625ZM4.22989 12.4309H5.79458V7.43417H7.64083V5.90508H2.36396V7.45713H4.23035V12.4304L4.22989 12.4309ZM8.96473 2.92044C8.96473 3.84896 9.70164 4.58493 10.6306 4.58446C11.5385 4.58446 12.3003 3.81897 12.2965 2.91061C12.2932 2.00599 11.5479 1.27002 10.6325 1.26721C9.68946 1.2644 8.96473 1.98256 8.96473 2.92044Z" fill="#3F76DF"/>
</svg>
