<svg width="20" height="20" viewBox="0 0 20 20" fill="none" xmlns="http://www.w3.org/2000/svg">
<path d="M6.44115 0.961476C6.14038 0.234941 5.34745 -0.151762 4.58966 0.0552609L1.1523 0.992724C0.472638 1.18022 0 1.79738 0 2.50048C0 12.1642 7.83563 19.9998 17.4993 19.9998C18.2024 19.9998 18.8196 19.5272 19.0071 18.8475L19.9445 15.4101C20.1516 14.6523 19.7649 13.8594 19.0383 13.5586L15.2885 11.9962C14.6518 11.7306 13.9135 11.9142 13.4799 12.4493L11.9019 14.375C9.15199 13.0743 6.92551 10.8478 5.62478 8.09792L7.55049 6.52376C8.08562 6.08628 8.26921 5.35193 8.00359 4.71524L6.44115 0.965382V0.961476Z" fill="#102155"/>
</svg>
