<svg width="24" height="22" viewBox="0 0 24 22" fill="none" xmlns="http://www.w3.org/2000/svg">
<path d="M24 10.3333C24 9.34874 23.4604 8.49833 22.6667 8.03666V1.66708C22.6667 1.30249 22.3758 0.333328 21.3333 0.333328C21.0367 0.333328 20.7421 0.432495 20.5008 0.625828L16.9579 3.46041C15.1783 4.88291 12.9442 5.66666 10.6667 5.66666H2.66667C1.19375 5.66666 0 6.86041 0 8.33333V12.3333C0 13.8062 1.19375 15 2.66667 15H4.07083C4.01292 15.4367 3.98 15.8808 3.98 16.3333C3.98 17.9904 4.36583 19.5562 5.045 20.9558C5.26125 21.4012 5.73333 21.6667 6.22833 21.6667H9.32333C10.4087 21.6667 11.0604 20.4233 10.4025 19.56C9.71917 18.6633 9.31292 17.545 9.31292 16.3333C9.31292 15.8704 9.38042 15.4254 9.49667 15H10.6667C12.9442 15 15.1783 15.7837 16.9575 17.2062L20.5004 20.0408C20.7367 20.2299 21.0303 20.3331 21.3329 20.3333C22.3713 20.3333 22.6663 19.3842 22.6663 19V12.6304C23.4604 12.1683 24 11.3179 24 10.3333ZM20 16.2258L18.6229 15.1242C16.3729 13.3242 13.5467 12.3333 10.6667 12.3333V8.33333C13.5467 8.33333 16.3729 7.34249 18.6229 5.54249L20 4.44083V16.2258Z" fill="#F48120"/>
</svg>
