<svg width="56" height="56" viewBox="0 0 56 56" fill="none" xmlns="http://www.w3.org/2000/svg">
<path d="M39.9749 38.6418C39.9749 39.2656 39.8522 39.8669 39.6024 40.441C39.3525 41.0152 39.03 41.5712 38.6348 42.1046C38.2395 42.6381 37.7898 43.1535 37.2946 43.6462C36.7995 44.139 36.3088 44.6091 35.8319 45.0522C35.582 45.2827 35.314 45.5404 35.0278 45.8297C34.737 46.119 34.4599 46.4084 34.1964 46.7067C33.933 47.0006 33.6967 47.2763 33.4878 47.534C33.2788 47.7872 33.1516 47.9997 33.1016 48.1624H40.4882V51.2455H29.0358C29.004 51.0647 28.9859 50.8341 28.9859 50.5539V49.9616C28.9859 49.1705 29.1131 48.4472 29.372 47.7917C29.6264 47.1317 29.9626 46.5214 30.376 45.9518C30.7894 45.3822 31.2573 44.8532 31.7751 44.3605C32.2976 43.8677 32.8109 43.375 33.3242 42.8822C33.7195 42.5025 34.092 42.1453 34.4418 41.8108C34.787 41.4718 35.0959 41.1463 35.3594 40.8253C35.6229 40.5043 35.8319 40.1833 35.9772 39.8624C36.1271 39.5414 36.1998 39.2159 36.1998 38.8859C36.1998 38.1626 35.9909 37.6518 35.582 37.3579C35.1686 37.0641 34.6553 36.9149 34.0465 36.9149C33.6013 36.9149 33.1834 36.9872 32.7927 37.1228C32.402 37.263 32.0477 37.4257 31.7252 37.6156C31.4026 37.8055 31.1255 37.9953 30.8938 38.1807C30.6622 38.3705 30.4895 38.5242 30.3714 38.6373L28.5361 36.0695C29.263 35.3959 30.1125 34.8399 31.0756 34.4059C32.0432 33.9719 33.0789 33.7504 34.1874 33.7504C35.1959 33.7504 36.0635 33.8679 36.7904 34.094C37.5172 34.3245 38.1169 34.65 38.5893 35.0704C39.0618 35.4909 39.407 36.0017 39.6296 36.5984C39.8522 37.1997 39.9658 37.8778 39.9658 38.6327L39.9749 38.6418Z" fill="#CC0000"/>
<path d="M53.2893 34.1527V44.4147H55.1246V47.4255H53.2893V51.25H49.6687V47.4255H42.2549V44.7357C42.6183 44.0124 43.0726 43.1941 43.6177 42.281C44.1629 41.3678 44.7716 40.432 45.4394 39.4691C46.1072 38.5062 46.8158 37.5659 47.5609 36.6436C48.3059 35.7214 49.0464 34.8896 49.7914 34.1527H53.2893ZM49.6687 38.6418C49.0236 39.4826 48.3377 40.3958 47.6108 41.3813C46.884 42.3668 46.2707 43.3795 45.7755 44.4147H49.6687V38.6418Z" fill="#CC0000"/>
<path d="M48.9695 19.2976L45.5261 20.2108C42.437 11.2282 33.8738 4.75 23.8161 4.75C11.1644 4.75 0.875 14.9894 0.875 27.5796C0.875 40.1697 11.1644 50.4091 23.8161 50.4091C24.9472 50.4091 25.8603 49.5005 25.8603 48.3748C25.8603 47.2492 24.9472 46.3405 23.8161 46.3405C13.4222 46.3405 4.96351 37.923 4.96351 27.5796C4.96351 17.2362 13.4222 8.81864 23.8161 8.81864C31.984 8.81864 38.9527 14.0129 41.5648 21.2596L37.7079 22.2813C36.8948 22.4983 36.6177 23.5109 37.2128 24.1031L45.4352 32.3128C46.0303 32.9095 47.0479 32.6382 47.2705 31.829L50.3051 20.6358C50.5232 19.8266 49.7827 19.0806 48.965 19.2976H48.9695Z" fill="#CC0000"/>
<path d="M15.866 33.2305C14.9393 33.2305 14.1034 32.6021 13.8808 31.6663C13.6174 30.5723 14.2988 29.4783 15.3981 29.2161L22.4167 27.5525V15.7987C22.4167 14.673 23.3298 13.7643 24.461 13.7643C25.5922 13.7643 26.5053 14.673 26.5053 15.7987V30.7667L16.3476 33.1717C16.1886 33.2079 16.0296 33.226 15.8706 33.226L15.866 33.2305Z" fill="#CC0000"/>
</svg>
