<svg width="1280" height="510" viewBox="0 0 1280 510" fill="none" xmlns="http://www.w3.org/2000/svg">
<g opacity="0.35" clip-path="url(#clip0_106_566)">
<path d="M841.742 381.953C789.231 381.953 733.838 379.682 683.763 375.397C621.012 369.987 558.776 358.631 528.361 312.407C509.194 283.3 501.555 243.68 494.197 198.651C487.753 159.171 482.692 109.411 480.7 65.576C479.107 31.037 477.373 -33.3343 483.606 -76.3734C490.026 -120.7 508.327 -152.827 537.968 -171.888C583.966 -201.44 662.604 -204.905 732.01 -207.973C743.866 -208.488 755.911 -208.675 767.58 -208.839C780.397 -209.027 793.66 -209.237 807.063 -209.869C868.853 -212.797 937.603 -210.9 1017.25 -204.086C1092.02 -197.693 1144.7 -185.446 1176.38 -144.187C1192.03 -123.815 1201.05 -96.8392 1203.98 -61.7148C1206.37 -32.983 1207.21 11.8357 1205.9 42.5344C1202.36 126.482 1196.11 186.544 1185.63 237.287C1171.5 305.733 1141.77 343.831 1089.19 360.855C1039.39 376.966 978.352 378.745 913.749 380.618C907.165 380.806 900.534 380.993 893.926 381.204C877.078 381.742 859.598 382 841.766 382L841.742 381.953ZM807.368 -203.453C793.871 -202.821 780.561 -202.61 767.674 -202.423C756.051 -202.236 744.054 -202.048 732.291 -201.557C663.705 -198.536 585.981 -195.094 541.46 -166.479C513.458 -148.449 496.118 -117.844 489.979 -75.4367C483.84 -32.9362 485.551 30.9902 487.121 65.295C489.112 108.896 494.127 158.375 500.547 197.62C507.788 241.901 515.286 280.818 533.751 308.871C562.642 352.777 623.191 363.712 684.325 368.981C751.154 374.718 827.472 376.825 893.692 374.741C900.323 374.53 906.931 374.343 913.539 374.156C977.672 372.306 1038.27 370.549 1087.17 354.72C1137.95 338.282 1165.5 302.783 1179.28 235.976C1189.69 185.584 1195.9 125.826 1199.43 42.2534C1200.72 11.7655 1199.9 -32.702 1197.54 -61.1996C1194.72 -95.0361 1186.12 -120.911 1171.25 -140.276C1141.02 -179.639 1089.7 -191.441 1016.69 -197.67C937.322 -204.46 868.853 -206.357 807.368 -203.43V-203.453ZM842.914 356.991C799.752 356.991 756.262 355.423 712.702 352.308C675.82 349.662 625.276 346.056 594.908 328.822C550.481 303.602 536.586 248.855 528.853 198.627C518.356 130.486 514.138 51.7604 517.278 -17.4112L517.395 -19.9168C519.059 -56.6803 520.629 -91.3832 534.008 -116.86C565.899 -177.578 658.011 -181.114 747.1 -184.557C757.809 -184.978 768.54 -185.376 779.202 -185.891C829.277 -188.28 887.013 -187.952 950.796 -184.931C1003.45 -182.426 1062.8 -178.328 1101.07 -161.585C1155.08 -137.958 1166.46 -93.8419 1169.39 -15.4911C1171.9 51.7136 1166.98 130.462 1155.9 200.524C1148.63 246.42 1137.62 297.584 1098.7 323.834C1070.51 342.848 1026.39 347.836 983.601 351.301C937.369 355.071 890.364 356.945 842.961 356.945L842.914 356.991ZM539.679 -113.839C526.979 -89.6504 525.432 -55.6266 523.792 -19.6123L523.675 -17.1068C520.558 51.6434 524.753 129.924 535.18 197.644C542.678 246.35 556.011 299.341 598.048 323.202C627.151 339.734 676.827 343.27 713.124 345.869C804.181 352.402 895.004 352.074 983.015 344.909C1024.93 341.513 1068.12 336.666 1095.02 318.519C1128.2 296.133 1140.43 256.395 1149.45 199.54C1160.49 129.854 1165.39 51.5731 1162.88 -15.2335C1160.04 -90.9149 1149.29 -133.415 1098.42 -155.661C1061.16 -171.959 1002.49 -175.986 950.421 -178.468C886.849 -181.489 829.323 -181.817 779.46 -179.428C768.798 -178.913 758.043 -178.515 747.311 -178.094C656.043 -174.581 569.859 -171.256 539.702 -113.839H539.679Z" fill="#D2D4DA"/>
<path d="M735.641 337.931L733.087 337.884C707.453 337.533 683.06 335.893 660.565 333.037L657.987 332.709L657.753 330.11C643.764 167.811 633.313 1.25157 624.058 -154.584L623.87 -157.815L627.104 -157.979C632.891 -158.283 638.586 -158.799 644.092 -159.314C654.543 -160.274 665.345 -161.257 677.413 -160.859L679.92 -160.766L680.459 -158.307C693.51 -98.0802 711.108 -18.9567 731.424 58.8556C742.343 100.724 753.403 133.811 787.216 147.065C803.431 153.41 827.987 153.879 847.577 153.574C888.817 152.942 915.999 142.686 930.644 122.243C941.914 106.461 948.944 82.2718 955.154 58.8556C969.471 4.90449 982.03 -52.6527 994.192 -108.313C997.87 -125.149 1001.5 -141.869 1005.18 -158.33L1005.72 -160.766L1008.2 -160.859C1020.32 -161.328 1031.03 -160.321 1041.41 -159.337C1046.96 -158.822 1052.68 -158.283 1058.54 -157.979L1061.77 -157.815L1061.58 -154.584C1053.92 -18.5118 1043.19 159.546 1027.91 330.133L1027.68 332.732L1025.1 333.06C1000.92 336.081 977.18 337.65 952.553 337.907H949.952L949.366 335.402C944.843 315.615 939.36 294.985 933.057 274.074C932.214 271.288 931.393 268.384 930.55 265.457C923.942 242.509 916.467 216.494 896.386 207.83C882.537 201.859 861.472 201.367 842.82 201.367C821.216 201.367 794.714 202.702 781.287 213.192C768.118 223.472 762.588 242.088 756.73 261.781C755.98 264.286 755.254 266.792 754.481 269.274C748.037 290.278 741.898 312.547 736.227 335.448L735.618 337.931H735.641ZM842.82 194.904C862.128 194.904 883.967 195.443 898.94 201.905C921.81 211.764 929.753 239.325 936.736 263.654C937.58 266.558 938.4 269.415 939.22 272.201C945.289 292.363 950.608 312.266 955.036 331.421C977.625 331.116 999.487 329.641 1021.68 326.972C1036.7 158.632 1047.34 -16.8024 1054.93 -151.727C1050.08 -152.031 1045.37 -152.476 1040.77 -152.921C1031.33 -153.811 1021.58 -154.724 1010.9 -154.49C1007.43 -138.848 1003.96 -122.948 1000.47 -106.955C988.31 -51.2243 975.727 6.37973 961.363 60.4947C954.99 84.4964 947.773 109.318 935.869 125.99C919.959 148.235 891.09 159.358 847.647 160.014C827.449 160.318 802.095 159.827 784.825 153.059C748.178 138.705 736.555 104.166 725.144 60.4713C705.086 -16.4043 687.676 -94.4975 674.648 -154.49C663.963 -154.654 654.144 -153.764 644.631 -152.898C640.085 -152.476 635.399 -152.055 630.642 -151.75C639.781 2.25846 650.138 166.687 663.892 326.948C684.677 329.477 707.078 330.976 730.557 331.374C736.087 309.222 742.038 287.703 748.271 267.354C749.021 264.895 749.771 262.413 750.497 259.908C756.379 240.097 762.471 219.608 777.257 208.064C792.23 196.379 820.114 194.881 842.75 194.881L842.82 194.904Z" fill="#D2D4DA"/>
</g>
<defs>
<clipPath id="clip0_106_566">
<rect width="1280" height="510" fill="white"/>
</clipPath>
</defs>
</svg>
