<svg width="64" height="65" viewBox="0 0 64 65" fill="none" xmlns="http://www.w3.org/2000/svg">
<g clip-path="url(#clip0_1251_7708)">
<path d="M62.4983 22.5H55.0146L52.9346 17.3C50.7971 11.9537 45.6958 8.5 39.9371 8.5H24.062C18.3045 8.5 13.202 11.9537 11.0633 17.3L8.9833 22.5H1.5008C0.524546 22.5 -0.191705 23.4175 0.0457954 24.3638L0.795795 27.3638C0.962046 28.0313 1.56205 28.5 2.2508 28.5H4.75955C3.0808 29.9662 1.99955 32.0975 1.99955 34.5V40.5C1.99955 42.515 2.76955 44.3337 3.99955 45.7412V52.5C3.99955 54.7088 5.7908 56.5 7.99955 56.5H11.9995C14.2083 56.5 15.9995 54.7088 15.9995 52.5V48.5H47.9996V52.5C47.9996 54.7088 49.7908 56.5 51.9996 56.5H55.9996C58.2083 56.5 59.9996 54.7088 59.9996 52.5V45.7412C61.2296 44.335 61.9996 42.5162 61.9996 40.5V34.5C61.9996 32.0975 60.9183 29.9662 59.2408 28.5H61.7496C62.4383 28.5 63.0383 28.0313 63.2046 27.3638L63.9546 24.3638C64.1908 23.4175 63.4746 22.5 62.4983 22.5ZM18.4908 20.2712C19.402 17.9937 21.6083 16.5 24.062 16.5H39.9371C42.3908 16.5 44.5971 17.9937 45.5083 20.2712L47.9996 26.5H15.9995L18.4908 20.2712ZM11.9995 40.475C9.59955 40.475 7.99955 38.88 7.99955 36.4875C7.99955 34.095 9.59955 32.5 11.9995 32.5C14.3995 32.5 17.9995 36.0888 17.9995 38.4813C17.9995 40.8738 14.3995 40.475 11.9995 40.475ZM51.9996 40.475C49.5996 40.475 45.9996 40.8738 45.9996 38.4813C45.9996 36.0888 49.5996 32.5 51.9996 32.5C54.3996 32.5 55.9996 34.095 55.9996 36.4875C55.9996 38.88 54.3996 40.475 51.9996 40.475Z" fill="#CC0000"/>
</g>
<defs>
<clipPath id="clip0_1251_7708">
<rect width="64" height="64" fill="white" transform="translate(0 0.5)"/>
</clipPath>
</defs>
</svg>
