<svg width="56" height="56" viewBox="0 0 56 56" fill="none" xmlns="http://www.w3.org/2000/svg">
<path d="M16.8245 28.2354C16.3235 28.2767 16.1053 28.312 15.8813 28.312C12.1087 28.312 8.34198 28.2943 4.56935 28.3238C1.7104 28.3474 0.0657662 30.0333 0.0480819 32.8863C0.0421872 34.4897 0.0362925 36.099 0.0480819 37.7023C0.0657662 40.4198 1.55713 42.0645 4.2864 42.1706C5.32387 42.2118 5.65987 42.5655 5.79545 43.5617C6.22577 46.6682 7.96471 48.8552 10.8708 49.9929C16.0523 52.0207 21.2927 48.9141 22.1769 43.2965C22.3184 42.4005 22.6367 42.2059 23.4443 42.2177C26.5037 42.2531 29.5689 42.2472 32.6283 42.2177C33.371 42.2118 33.6599 42.4594 33.7483 43.2316C34.2199 47.5289 37.6388 50.5765 41.9302 50.5941C46.1862 50.6118 49.7525 47.5171 50.1887 43.3141C50.283 42.3887 50.6485 42.1647 51.4443 42.2236C51.7803 42.2472 52.1163 42.2236 52.4523 42.1941C54.5626 42.0468 55.8477 40.7735 55.8653 38.675C55.9007 34.643 55.883 30.611 55.8712 26.579C55.8712 25.1348 55.3584 23.8851 54.3327 22.8535C52.0102 20.531 49.7407 18.1436 47.3298 15.9213C46.5576 15.208 45.4258 14.5773 44.406 14.4889C41.8123 14.2708 39.1832 14.3238 36.5778 14.3887C34.4262 14.4476 33.6717 15.32 33.6599 17.4834C33.6481 20.5074 33.6599 23.5314 33.654 26.5554C33.654 26.9268 33.6127 27.2981 33.5891 27.6754C33.4712 27.7226 33.3533 27.7697 33.2413 27.8169C33.0232 27.5221 32.8228 27.2097 32.5811 26.9386C27.4291 21.1322 22.2889 15.32 17.1133 9.5373C13.3348 5.29309 14.8675 5.9474 8.83714 5.91203C6.61482 5.90024 5.64219 6.89645 5.63629 9.13056C5.6245 12.4139 5.63629 15.7032 5.63629 18.9866C5.63629 19.6939 5.65987 20.4072 5.6245 21.1146C5.57145 22.1874 5.0645 22.712 4.14492 22.7002C3.22535 22.6943 2.73608 22.1579 2.68892 21.0969C2.67124 20.6135 2.7184 20.1183 2.63587 19.6468C2.50619 18.9217 1.98156 18.4442 1.28598 18.6447C0.820293 18.7802 0.325135 19.2636 0.112924 19.7175C-0.087497 20.1478 0.0362925 20.7432 0.0539767 21.2619C0.124714 23.5019 1.74577 25.2291 3.87377 25.3352C6.16092 25.4531 8.00008 24.0325 8.16514 21.704C8.35966 18.9158 8.28892 16.1099 8.33019 13.3158C8.33608 12.8914 8.33019 12.467 8.33019 12.0426L8.68977 11.9718C11.3719 17.336 14.054 22.6944 16.8245 28.2354Z" fill="#FFFFF6"/>
<path d="M16.8245 28.2354C14.054 22.6943 11.3719 17.336 8.68977 11.9718L8.33019 12.0426C8.33019 12.467 8.33019 12.8914 8.33019 13.3158C8.28892 16.1158 8.35966 18.9158 8.16513 21.704C8.00008 24.0383 6.16092 25.4531 3.87377 25.3352C1.74577 25.2232 0.124714 23.5019 0.0539767 21.2619C0.0362925 20.7432 -0.087497 20.1478 0.112924 19.7175C0.325135 19.2636 0.820292 18.7802 1.28598 18.6447C1.98156 18.4442 2.50619 18.9217 2.63587 19.6468C2.7184 20.1183 2.67124 20.6135 2.68892 21.0969C2.73019 22.1579 3.21945 22.6943 4.14492 22.7002C5.0645 22.7061 5.57145 22.1874 5.6245 21.1146C5.65987 20.4072 5.63629 19.6939 5.63629 18.9866C5.63629 15.7032 5.6304 12.4139 5.63629 9.13055C5.64219 6.89645 6.61482 5.89434 8.83713 5.91203C14.8674 5.95329 13.3348 5.29308 17.1075 9.51961C22.283 15.3023 27.4232 21.1204 32.5752 26.9209C32.8169 27.192 33.0173 27.5044 33.2355 27.7992C33.3533 27.752 33.4712 27.7049 33.5832 27.6577C33.6068 27.2863 33.6481 26.915 33.6481 26.5377C33.6481 23.5137 33.6422 20.4897 33.654 17.4657C33.6658 15.3023 34.4203 14.424 36.5719 14.371C39.1832 14.3002 41.8064 14.2531 44.4001 14.4712C45.4199 14.5537 46.5517 15.1903 47.3239 15.9036C49.7348 18.1318 52.0043 20.5133 54.3268 22.8358C55.3584 23.8674 55.8653 25.1171 55.8653 26.5613C55.8771 30.5933 55.8948 34.6253 55.8594 38.6573C55.8418 40.7558 54.5567 42.0291 52.4464 42.1764C52.1104 42.2 51.7744 42.2295 51.4384 42.2059C50.6426 42.147 50.2771 42.3651 50.1828 43.2964C49.7466 47.4994 46.1803 50.5941 41.9243 50.5764C37.6329 50.5588 34.214 47.5112 33.7424 43.2139C33.6599 42.4476 33.3651 42.1941 32.6224 42.2C29.563 42.2236 26.4978 42.2295 23.4384 42.2C22.6308 42.1882 22.3125 42.3887 22.171 43.2788C21.2868 48.8964 16.0464 52.003 10.8649 49.9752C7.96471 48.8375 6.21987 46.6506 5.78956 43.544C5.65398 42.5537 5.31798 42.1941 4.2805 42.1529C1.55124 42.0468 0.0598714 40.4021 0.0421872 37.6847C0.0303977 36.0813 0.0362925 34.472 0.0421872 32.8687C0.0539767 30.0215 1.7045 28.3297 4.56345 28.3061C8.33608 28.2767 12.1028 28.3002 15.8755 28.2943C16.0936 28.2943 16.3176 28.259 16.8186 28.2177L16.8245 28.2354ZM50.3066 28.312C50.6072 27.2215 50.4363 26.467 49.6818 25.7537C47.8721 24.0324 46.1508 22.2228 44.3529 20.4838C44.0346 20.1714 43.5571 19.8826 43.1268 19.8472C42.054 19.7588 40.9634 19.7706 39.8847 19.8472C39.6077 19.8649 39.1243 20.2539 39.1184 20.4838C39.0594 22.8712 39.0653 25.2586 39.1125 27.64C39.1125 27.8699 39.5192 28.2826 39.7432 28.2826C43.2447 28.3238 46.7462 28.312 50.3007 28.312H50.3066ZM13.8771 46.5091C16.2763 46.5327 18.1921 44.7171 18.251 42.3651C18.31 40.0484 16.3942 38.0737 14.0481 38.0442C11.5723 38.0148 9.69187 39.8539 9.70366 42.3002C9.70955 44.6404 11.5369 46.4855 13.8771 46.5091ZM41.9361 38.0442C39.5133 38.056 37.7037 39.8893 37.7096 42.312C37.7213 44.7171 39.5605 46.5209 42.0009 46.5091C44.4001 46.5032 46.2451 44.6404 46.2333 42.2413C46.2216 39.8362 44.3706 38.0324 41.9361 38.0442Z" fill="#CC0000"/>
<path d="M50.3005 28.312C46.746 28.312 43.2445 28.3238 39.743 28.2825C39.519 28.2825 39.1182 27.8699 39.1123 27.64C39.0651 25.2526 39.0651 22.8653 39.1182 20.4838C39.1182 20.2539 39.6016 19.8649 39.8845 19.8472C40.9633 19.7705 42.0479 19.7588 43.1266 19.8472C43.551 19.8825 44.0285 20.1773 44.3527 20.4838C46.1447 22.2228 47.866 24.0383 49.6816 25.7537C50.4302 26.467 50.607 27.2156 50.3064 28.312H50.3005Z" fill="#FFFFF6"/>
<path d="M13.8771 46.5032C11.5369 46.4796 9.70952 44.6346 9.70363 42.2944C9.69773 39.8481 11.5782 38.0089 14.048 38.0384C16.3942 38.0678 18.3099 40.0426 18.251 42.3592C18.192 44.7171 16.2763 46.5268 13.8771 46.5032Z" fill="#FFFFF6"/>
<path d="M41.9361 38.0384C44.3765 38.0266 46.2215 39.8304 46.2333 42.2354C46.2451 44.6287 44.4001 46.4914 42.0009 46.5032C39.5605 46.5091 37.7154 44.7112 37.7095 42.3062C37.6977 39.8834 39.5133 38.0561 41.9361 38.0384Z" fill="#FFFFF6"/>
</svg>
