<?xml version="1.0" encoding="UTF-8"?>
<svg id="Camada_1" xmlns="http://www.w3.org/2000/svg" version="1.1" viewBox="0 0 800 800">
  <!-- Generator: Adobe Illustrator 29.3.0, SVG Export Plug-In . SVG Version: 2.1.0 Build 146)  -->
  <defs>
    <style>
      .st0 {
        fill: #c00;
      }
    </style>
  </defs>
  <path class="st0" d="M796.8,229c-11-107.3-82.3-129.9-145.1-140.2-31.5-5.3-87.7-10-123.9-11.3-31.5-2-105.6-3-127.8-3s-96.3,1-127.9,3c-35.9,1.3-92.3,6-123.9,11.3C85.4,99.5,14,122,3.1,229,.4,258.2-.3,296.4,0,337.2c1,67.7,6.7,113.6,10,145.5,2.3,21.9,11.3,87.3,22.9,121.2,15.9,46.5,30.5,60.1,47.5,74.1,31.2,25.2,82.4,33.2,93,35.2,57.8,10.3,174.7,12.3,226.2,12.3s168.3-1.7,226.1-12.3c11-2,62.1-9.7,93-35.2,16.9-14,31.5-27.6,47.5-74.1,11.7-33.9,20.9-99.3,23.3-121.2,3.3-31.9,9.3-77.7,10-145.5,1.3-40.8.3-79-2.7-108.3M757.6,409c-6.3,85.7-13.9,136.8-24.9,174-9.6,32.6-21.2,54.1-38.8,69.8-28.9,26.2-68.8,31.9-92,35.2-50.5,7.6-135.2,10-201.9,10s-151.5-2.7-201.9-10c-23.2-3.3-63.1-8.9-92-35.2-17.3-15.6-29.2-37.5-38.5-69.8-11-36.8-18.6-88.3-24.9-174-3.7-51.5-3-135.2,2.7-180,8.6-67.1,41.8-100.6,112.9-113.2,33.2-6,78-10.3,120.2-12.3,33.9-2.3,90-3.3,121.2-3,31.2-.3,87.3,1,121.2,3,42.5,2,87,6.3,120.2,12.3,71.4,12.6,104.6,46.5,112.9,113.2,6.6,44.8,7.6,128.5,3.7,180M584.2,129.3c-18.3,82-25.6,119.6-40.5,179-14.3,57.1-25.6,109.9-44.5,135.5-19.6,25.9-45.5,31.6-63.1,33.5-9.3,1-15.9,1.3-35.5,1.7-19.9,0-26.6-.7-35.9-1.7-17.6-2-43.8-7.6-63.1-33.5-19.3-25.6-30.2-78.4-44.5-135.5-15.6-59.1-22.6-97-41.2-179,0,0-18.3.7-26.6,1.3-11,.7-19.6,1.7-28.9,3,0,0,10.7,168.7,15.3,240.1,5,75.1,13.9,201.9,22.2,297.6,0,0,15.3,2.3,40.9,4,26.9,1.6,38.8,1.6,38.8,1.6,11-42.2,24.9-100.6,40.2-125.5,12.6-20.3,32.2-22.6,43.2-23.9,17.3-2.3,31.9-2.7,38.9-2.7,6.6-.3,21.2,0,38.8,2.7,11,1.7,30.6,3.7,43.2,23.9,15.6,24.9,29.2,83.3,40.2,125.5,0,0,11.9-.3,38.8-1.7,13.7-.6,27.3-1.9,40.9-4,8.3-95.6,17.3-222.2,22.2-297.5,4.7-71.4,15.3-240.1,15.3-240.1-9.3-1.3-17.9-2.3-28.9-3-7.7-.7-26.2-1.3-26.2-1.3h0Z"/>
</svg>