<svg width="100" height="100" viewBox="0 0 100 100" fill="none" xmlns="http://www.w3.org/2000/svg">
<rect width="100" height="100" fill="#CC0000"/>
<g clip-path="url(#clip0_811_4071)">
<path fill-rule="evenodd" clip-rule="evenodd" d="M16.8994 68.5627L18.1975 68.7015C18.8131 68.7688 18.8131 69.2481 18.8131 69.5928V71.1695H12.8082V69.5928C12.8082 69.2481 12.8752 68.7688 13.4907 68.7015L14.7889 68.5627V67.2635H7V68.5627L8.29814 68.7015C8.84253 68.7688 8.91372 69.2481 8.91372 69.5928V74.6634C8.91372 75.0082 8.84672 75.4875 8.29814 75.5548L7 75.6893V76.9927H14.7805V75.6893L13.4823 75.5548C12.8668 75.4833 12.7998 75.0082 12.7998 74.6634V73.1582H18.8047V74.6634C18.8047 75.0082 18.8047 75.4875 18.1892 75.5548L16.891 75.6893V76.9927H24.6715V75.6893L23.3734 75.5548C22.829 75.4833 22.7578 75.0082 22.7578 74.6634V69.5928C22.7578 69.2481 22.8248 68.7688 23.3734 68.7015L24.6715 68.5627V67.2635H16.891V68.5627H16.8994Z" fill="#FFFFF6"/>
<path fill-rule="evenodd" clip-rule="evenodd" d="M68.2935 75.1427H65.0188V69.1135H68.2935C70.2072 69.1135 70.8186 70.0049 70.8186 72.1281C70.8186 74.2514 70.203 75.1427 68.2935 75.1427ZM68.9761 67.2635H59.353V68.5627L60.513 68.7015C60.9234 68.7688 61.1956 68.9075 61.1956 69.5256V74.6634C61.1956 75.0082 61.1286 75.4875 60.513 75.5548L59.2148 75.6893V76.9927H68.9761C72.4559 76.9927 75.3244 75.6221 75.3244 72.1281C75.3244 68.6342 72.4559 67.2635 68.9761 67.2635Z" fill="#FFFFF6"/>
<path fill-rule="evenodd" clip-rule="evenodd" d="M80.7847 72.2627L82.6272 69.3153L84.6079 72.2627H80.7847ZM91.7728 75.5548C91.1573 75.4833 90.9521 75.0755 90.7511 74.8022L86.2452 67.8816C85.9019 67.4023 85.6967 67.2635 85.2193 67.2635H77.8492V68.5627L79.5535 68.7688C79.8257 68.7688 80.1691 69.1135 79.8969 69.5928L76.551 75.0082C76.417 75.2142 76.2788 75.4875 75.8685 75.5548L74.5703 75.6893V76.9927H80.7805V75.6893L79.7587 75.6221C79.2813 75.5548 79.0091 75.21 79.2813 74.8653L79.7587 74.0412H85.7637L86.1741 74.7265C86.5844 75.2773 86.1071 75.5506 85.6255 75.5506L84.5325 75.6851V76.9885H92.9956V75.6851L91.7686 75.5506L91.7728 75.5548Z" fill="#FFFFF6"/>
<path fill-rule="evenodd" clip-rule="evenodd" d="M52.3219 68.5627L53.6871 68.7015C54.2315 68.7688 54.3027 69.2481 54.3027 69.5928V74.4616L49.1813 67.6756C48.9091 67.3308 48.7039 67.2635 48.1595 67.2635H41.4678V68.5627L42.7659 68.7015C43.3815 68.7688 43.4485 69.2481 43.4485 69.5928V74.6634C43.4485 75.0082 43.3815 75.4875 42.7659 75.5548L41.4678 75.6893V76.9927H47.6779V75.6893L46.3798 75.5548C45.8354 75.4833 45.7642 75.0082 45.7642 74.6634V69.7989L50.8856 76.5849C51.1578 76.9297 51.363 76.9969 51.9074 76.9969H56.6142V69.597C56.6142 69.2523 56.6812 68.773 57.2968 68.7057L58.5949 68.5669V67.2678H52.3136V68.5669L52.3219 68.5627Z" fill="#FFFFF6"/>
<path fill-rule="evenodd" clip-rule="evenodd" d="M33.0716 75.4834C30.6135 75.4834 29.5918 74.4575 29.5918 72.124C29.5918 69.7905 30.6177 68.7646 33.0716 68.7646C35.5255 68.7646 36.5515 69.7947 36.5515 72.124C36.5515 74.4533 35.5297 75.4834 33.0716 75.4834ZM33.0716 66.9188C26.7233 66.9188 25.0859 69.7274 25.0859 72.1282C25.0859 74.5289 26.7233 77.3375 33.0716 77.3375C39.42 77.3375 41.0573 74.5962 41.0573 72.1282C41.0573 69.6601 39.42 66.9188 33.0716 66.9188Z" fill="#FFFFF6"/>
<path fill-rule="evenodd" clip-rule="evenodd" d="M30.191 28.7127C29.3241 30.3692 29.2404 32.627 29.1273 35.1119C28.9054 39.9891 29.2488 45.0765 29.8769 49.1633C30.438 52.8212 31.4305 56.0039 34.0645 57.5049C35.9154 58.5603 38.876 58.8125 41.623 59.0102C47.4521 59.4306 53.4194 59.418 59.1773 58.9471C62.1337 58.7074 64.8221 58.3627 66.5474 57.1896C68.8799 55.6087 69.6378 52.6656 70.1696 49.2852C70.8313 45.1017 71.2207 40.0017 71.0448 35.2338C70.8564 30.1254 70.0985 27.3672 66.7358 25.8872C64.2903 24.8109 60.421 24.5418 57.0542 24.382C53.4152 24.2097 49.5543 24.1466 45.932 24.319C39.4287 24.6301 32.4439 24.3989 30.191 28.7085M47.7452 22.7549C52.3558 22.5363 56.9998 22.7549 61.3632 23.1333C65.8271 23.5159 69.441 24.2055 71.5474 26.9594C72.5482 28.2712 73.1093 29.9782 73.2978 32.2276C73.4611 34.2037 73.4988 37.1553 73.4234 39.001C73.2308 43.6302 72.8874 47.9061 72.1127 51.6733C71.2668 55.7853 69.5624 58.4131 65.9905 59.5778C62.452 60.7298 57.942 60.7508 53.3691 60.8938C48.8843 61.0367 43.922 60.8769 39.7512 60.5196C35.3626 60.1412 31.6482 59.2961 29.8183 56.5043C28.5871 54.6249 28.093 51.9929 27.6324 49.1675C27.1927 46.4766 26.8828 43.2307 26.7572 40.5104C26.619 37.4832 26.5897 33.7538 26.9456 31.29C27.3267 28.6412 28.4154 26.4759 30.3836 25.2061C33.3107 23.3057 38.2772 23.0829 42.8709 22.8768C44.4748 22.8054 46.0702 22.8306 47.7452 22.7507V22.7549Z" fill="#FFFFF6"/>
<path fill-rule="evenodd" clip-rule="evenodd" d="M39.3118 25.9546C40.321 30.6384 41.4139 35.4777 42.6241 40.1279C43.2941 42.7136 44.006 45.0934 46.372 46.0226C47.4105 46.4304 48.939 46.4851 50.3711 46.4598C52.9213 46.422 54.8602 45.8292 55.9322 44.3282C56.686 43.2686 57.1508 41.6541 57.557 40.1237C58.7672 35.5366 59.7806 30.5837 60.8065 25.9504C61.9958 25.9041 62.9673 26.0807 64.0561 26.1396C63.4698 36.5709 62.7872 47.4479 61.8702 57.7531C60.3878 57.9381 58.8342 58.0516 57.1843 58.0684C56.8828 56.7482 56.5227 55.386 56.1206 54.0531C55.6307 52.4134 55.191 50.2775 53.6207 49.6006C52.6994 49.2012 51.3426 49.1633 50.0612 49.1633C48.4742 49.1633 46.8243 49.2853 45.9365 49.979C44.9147 50.782 44.563 52.3041 44.1275 53.742C43.6836 55.1968 43.29 56.6557 42.9382 58.0684C41.2967 58.0432 39.7305 57.9423 38.2523 57.7531C37.3645 47.3764 36.6945 36.7811 36.0664 26.1396C37.1552 26.0807 38.1309 25.9125 39.316 25.9504" fill="#FFFFF6"/>
</g>
<defs>
<clipPath id="clip0_811_4071">
<rect width="86" height="54.6667" fill="white" transform="translate(7 22.6666)"/>
</clipPath>
</defs>
</svg>
