<svg width="17" height="16" viewBox="0 0 17 16" fill="none" xmlns="http://www.w3.org/2000/svg">
<mask id="mask0_1754_2478" style="mask-type:luminance" maskUnits="userSpaceOnUse" x="9" y="14" width="4" height="1">
<path d="M12.8128 14.0527H9.52051V14.7201H12.8128V14.0527Z" fill="white"/>
</mask>
<g mask="url(#mask0_1754_2478)">
<path d="M12.8109 14.3864C12.8109 14.5702 12.0738 14.7201 11.1647 14.7201C10.2557 14.7201 9.51855 14.5702 9.51855 14.3864C9.51855 14.2025 10.2557 14.0527 11.1647 14.0527C12.0738 14.0527 12.8109 14.2025 12.8109 14.3864Z" fill="#2B5860"/>
</g>
<mask id="mask1_1754_2478" style="mask-type:luminance" maskUnits="userSpaceOnUse" x="4" y="14" width="4" height="1">
<path d="M7.31674 14.0527H4.02441V14.7201H7.31674V14.0527Z" fill="white"/>
</mask>
<g mask="url(#mask1_1754_2478)">
<path d="M7.31479 14.3864C7.31479 14.5702 6.57768 14.7201 5.66863 14.7201C4.75958 14.7201 4.02246 14.5702 4.02246 14.3864C4.02246 14.2025 4.75958 14.0527 5.66863 14.0527C6.57768 14.0527 7.31479 14.2025 7.31479 14.3864Z" fill="#2B5860"/>
</g>
<path d="M8.59103 1.71928C7.44535 1.87419 6.32011 2.35085 5.42127 3.06072C4.42199 3.85061 3.77681 4.8618 3.5572 5.98365C3.49081 6.32241 3.46357 6.69352 3.43293 7.08506C3.31717 8.61376 3.15715 9.54324 1.90763 9.54324C1.76293 9.54324 1.62845 9.62496 1.56376 9.75604C1.49907 9.88712 1.51269 10.042 1.60121 10.1595C3.28994 12.3998 6.18903 12.6602 8.22162 12.6602C8.27269 12.6602 8.32547 12.6602 8.37483 12.6602C8.41229 12.6602 8.45144 12.6602 8.49059 12.6602C8.54847 12.6602 8.60976 12.6602 8.67104 12.6602C8.73913 12.6602 8.80893 12.6602 8.88043 12.6602C9.83034 12.6602 10.833 12.6143 11.7267 12.2806C13.315 11.6882 14.6531 10.357 15.1348 8.88954C15.6796 7.23317 15.4259 5.55636 14.4216 4.16895C13.3048 2.62492 11.3863 1.6665 9.41497 1.6665C9.13919 1.6665 8.8617 1.68523 8.58933 1.72268" fill="url(#paint0_radial_1754_2478)"/>
<path d="M9.41707 1.28003C9.12427 1.28003 8.82806 1.30046 8.53866 1.33961C7.3266 1.50304 6.13325 2.00863 5.18164 2.75937C4.10917 3.60713 3.41632 4.69663 3.17969 5.9104C3.10989 6.2713 3.07925 6.67135 3.05031 7.05608C3.00435 7.66041 2.95838 8.28517 2.76602 8.69373C2.63494 8.97292 2.43917 9.15847 1.90804 9.15847C1.61694 9.15847 1.34967 9.3236 1.22029 9.58406C1.09091 9.84452 1.11815 10.1577 1.2952 10.3893C3.08776 12.7674 6.10772 13.0432 8.22373 13.0432C8.2765 13.0432 8.32757 13.0432 8.38035 13.0432C8.4178 13.0432 8.45525 13.0432 8.4944 13.0432C8.55228 13.0432 8.61187 13.0432 8.67485 13.0432C8.74295 13.0432 8.81274 13.0432 8.88424 13.0432C9.8699 13.0432 10.9134 12.9939 11.865 12.6398C12.6566 12.3436 13.4125 11.8652 14.0474 11.2558C14.7335 10.597 15.2374 9.81898 15.5047 9.00867C15.806 8.09451 15.8809 7.17694 15.7294 6.27981C15.5881 5.44056 15.2544 4.65407 14.7386 3.94249C14.1564 3.13899 13.3597 2.46656 12.4353 2.00182C11.5007 1.53027 10.4589 1.28173 9.42048 1.28173M9.42048 2.05119C12.8847 2.05119 15.9677 5.14435 14.7743 8.77034C14.2943 10.2309 12.9545 11.4141 11.5961 11.9214C10.7092 12.2516 9.67413 12.2772 8.88424 12.2772C8.74635 12.2772 8.61527 12.2772 8.4944 12.2772C8.45355 12.2772 8.41439 12.2772 8.37694 12.2772C8.32757 12.2772 8.2765 12.2772 8.22543 12.2772C6.2405 12.2772 3.49803 12.0354 1.91144 9.92963C4.08534 9.92963 3.65635 7.50039 3.93723 6.06021C4.36622 3.86419 6.53841 2.38825 8.64591 2.10396C8.90467 2.06821 9.16513 2.05289 9.42048 2.05289" fill="#3D3D3D"/>
<path d="M7.21401 12.8235C7.28721 13.673 6.65734 14.4203 5.80957 14.4935C4.9601 14.5667 4.21278 13.9369 4.13958 13.0891C4.06637 12.2396 4.69624 11.4923 5.54401 11.4191C6.39348 11.3459 7.14081 11.9758 7.21401 12.8235Z" fill="#3D3D3D"/>
<path d="M6.12651 12.9395C6.12651 13.2152 5.93244 13.4382 5.69411 13.4382C5.45579 13.4382 5.26172 13.2152 5.26172 12.9395C5.26172 12.6637 5.45579 12.439 5.69411 12.439C5.93244 12.439 6.12651 12.662 6.12651 12.9395Z" fill="#515252"/>
<path d="M12.505 12.8235C12.5782 13.673 11.9484 14.4203 11.1006 14.4935C10.2511 14.5667 9.50379 13.9369 9.43059 13.0891C9.35739 12.2396 9.98726 11.4923 10.835 11.4191C11.6845 11.3459 12.4318 11.9758 12.505 12.8235Z" fill="#3D3D3D"/>
<path d="M11.4175 12.9395C11.4175 13.2152 11.2235 13.4382 10.9851 13.4382C10.7468 13.4382 10.5527 13.2152 10.5527 12.9395C10.5527 12.6637 10.7468 12.439 10.9851 12.439C11.2235 12.439 11.4175 12.662 11.4175 12.9395Z" fill="#515252"/>
<path d="M8.12119 5.87798C8.12119 6.28654 7.79093 6.61679 7.38237 6.61679C6.97381 6.61679 6.64355 6.28654 6.64355 5.87798C6.64355 5.46941 6.97381 5.13916 7.38237 5.13916C7.79093 5.13916 8.12119 5.46941 8.12119 5.87798Z" fill="#3D3D3D"/>
<path d="M11.6476 5.76225C11.6476 6.17082 11.3173 6.50107 10.9087 6.50107C10.5002 6.50107 10.1699 6.17082 10.1699 5.76225C10.1699 5.35369 10.5002 5.02344 10.9087 5.02344C11.3173 5.02344 11.6476 5.35369 11.6476 5.76225Z" fill="#3D3D3D"/>
<path d="M9.15686 9.83763C8.52699 9.83763 7.91755 9.63335 7.42898 9.25713C6.9336 8.87581 6.61356 8.34808 6.55227 7.81184C6.52844 7.60075 6.67995 7.41009 6.89104 7.38626C7.10213 7.36242 7.29279 7.51393 7.31662 7.72502C7.41025 8.54385 8.3891 9.0903 9.21303 9.06817C10.2617 9.04093 10.9545 8.41277 11.0975 7.80844C11.1469 7.60245 11.3529 7.47308 11.5606 7.52244C11.7665 7.57181 11.8959 7.7778 11.8466 7.98548C11.7308 8.47916 11.4125 8.93709 10.9494 9.27586C10.4694 9.62654 9.87524 9.82231 9.23346 9.83933C9.20793 9.83933 9.18239 9.83933 9.15686 9.83933" fill="#3D3D3D"/>
<defs>
<radialGradient id="paint0_radial_1754_2478" cx="0" cy="0" r="1" gradientUnits="userSpaceOnUse" gradientTransform="translate(9.66819 3.92163) rotate(90.34) scale(10.3196 14.0596)">
<stop stop-color="#F9FAFB"/>
<stop offset="0.74" stop-color="#CFDADF"/>
<stop offset="1" stop-color="#F1F3F5"/>
</radialGradient>
</defs>
</svg>
