<svg width="16" height="16" viewBox="0 0 16 16" fill="none" xmlns="http://www.w3.org/2000/svg">
<path d="M5.78588 11.2387C6.20184 11.7599 6.62358 12.4109 6.8449 12.8009C7.11524 13.3128 7.22771 13.6603 7.42524 14.2774C7.54635 14.6184 7.65593 14.72 7.89095 14.72C8.14687 14.72 8.26366 14.547 8.35377 14.2788C8.54049 13.6963 8.68684 13.2515 8.91753 12.8312C9.37098 12.0195 9.93402 11.2986 10.487 10.6065C10.6369 10.4104 11.6051 9.26774 12.0412 8.3666C12.0412 8.3666 12.5769 7.37678 12.5769 5.99335C12.5769 4.70003 12.0485 3.80249 12.0485 3.80249L10.5266 4.21053L9.6024 6.64505L9.37387 6.98028L9.32845 7.04156L9.26717 7.11797L9.16048 7.23981L9.00836 7.39192L8.1858 8.06237L6.12831 9.25044L5.78516 11.2402L5.78588 11.2387Z" fill="#34A853"/>
<path d="M3.65918 8.19868C4.16166 9.34565 5.12912 10.3535 5.78516 11.2388L9.26717 7.11659C9.26717 7.11659 8.77695 7.75748 7.88806 7.75748C6.89753 7.75748 6.09731 6.96664 6.09731 5.96961C6.09731 5.28547 6.50895 4.81543 6.50895 4.81543L4.14652 5.44839L3.65918 8.19868Z" fill="#FBBC04"/>
<path d="M9.30521 1.49341C10.4608 1.8654 11.4499 2.64831 12.0483 3.8025L9.26701 7.11726C9.26701 7.11726 9.67865 6.63929 9.67865 5.95875C9.67865 4.93794 8.81932 4.17593 7.89078 4.17593C7.01271 4.17593 6.50879 4.8161 6.50879 4.8161V2.72833L9.30521 1.49341Z" fill="#4285F4"/>
<path d="M4.2998 2.95615C4.99044 2.13071 6.20518 1.28003 7.88131 1.28003C8.69378 1.28003 9.30583 1.49342 9.30583 1.49342L6.50941 4.81539H4.52833L4.2998 2.95615Z" fill="#1A73E8"/>
<path d="M3.65942 8.19855C3.65942 8.19855 3.2002 7.29381 3.2002 5.98391C3.2002 4.74537 3.68177 3.66256 4.29959 2.95679L6.50919 4.81602L3.65942 8.19855Z" fill="#EA4335"/>
</svg>
