<svg width="16" height="17" viewBox="0 0 16 17" fill="none" xmlns="http://www.w3.org/2000/svg">
<g clip-path="url(#clip0_973_4483)">
<path d="M15.6246 6H13.7536L13.2336 4.7C12.6993 3.36344 11.424 2.5 9.98426 2.5H6.01551C4.57614 2.5 3.30051 3.36344 2.76582 4.7L2.24582 6H0.375199C0.131136 6 -0.0479262 6.22938 0.0114488 6.46594L0.198949 7.21594C0.240511 7.38281 0.390511 7.5 0.562699 7.5H1.18989C0.770199 7.86656 0.499886 8.39937 0.499886 9V10.5C0.499886 11.0037 0.692386 11.4584 0.999886 11.8103V13.5C0.999886 14.0522 1.4477 14.5 1.99989 14.5H2.99989C3.55207 14.5 3.99989 14.0522 3.99989 13.5V12.5H11.9999V13.5C11.9999 14.0522 12.4477 14.5 12.9999 14.5H13.9999C14.5521 14.5 14.9999 14.0522 14.9999 13.5V11.8103C15.3074 11.4587 15.4999 11.0041 15.4999 10.5V9C15.4999 8.39937 15.2296 7.86656 14.8102 7.5H15.4374C15.6096 7.5 15.7596 7.38281 15.8011 7.21594L15.9886 6.46594C16.0477 6.22938 15.8686 6 15.6246 6ZM4.6227 5.44281C4.85051 4.87344 5.40207 4.5 6.01551 4.5H9.98426C10.5977 4.5 11.1493 4.87344 11.3771 5.44281L11.9999 7H3.99989L4.6227 5.44281ZM2.99989 10.4937C2.39989 10.4937 1.99989 10.095 1.99989 9.49687C1.99989 8.89875 2.39989 8.5 2.99989 8.5C3.59989 8.5 4.49989 9.39719 4.49989 9.99531C4.49989 10.5934 3.59989 10.4937 2.99989 10.4937ZM12.9999 10.4937C12.3999 10.4937 11.4999 10.5934 11.4999 9.99531C11.4999 9.39719 12.3999 8.5 12.9999 8.5C13.5999 8.5 13.9999 8.89875 13.9999 9.49687C13.9999 10.095 13.5999 10.4937 12.9999 10.4937Z" fill="#CC0000"/>
</g>
<defs>
<clipPath id="clip0_973_4483">
<rect width="16" height="16" fill="white" transform="translate(0 0.5)"/>
</clipPath>
</defs>
</svg>
