<svg width="26" height="26" viewBox="0 0 26 26" fill="none" xmlns="http://www.w3.org/2000/svg">
<rect width="26" height="26" rx="13" fill="#777986"/>
<path d="M13.0035 9.40623C11.016 9.40623 9.41289 11.0094 9.41289 12.9969C9.41289 14.9844 11.016 16.5875 13.0035 16.5875C14.991 16.5875 16.5941 14.9844 16.5941 12.9969C16.5941 11.0094 14.991 9.40623 13.0035 9.40623ZM13.0035 15.3312C11.7191 15.3312 10.6691 14.2844 10.6691 12.9969C10.6691 11.7094 11.716 10.6625 13.0035 10.6625C14.291 10.6625 15.3379 11.7094 15.3379 12.9969C15.3379 14.2844 14.2879 15.3312 13.0035 15.3312ZM17.5785 9.25935C17.5785 9.72498 17.2035 10.0969 16.741 10.0969C16.2754 10.0969 15.9035 9.72185 15.9035 9.25935C15.9035 8.79685 16.2785 8.42185 16.741 8.42185C17.2035 8.42185 17.5785 8.79685 17.5785 9.25935ZM19.9566 10.1094C19.9035 8.98748 19.6473 7.99373 18.8254 7.17498C18.0066 6.35623 17.0129 6.09998 15.891 6.04373C14.7348 5.9781 11.2691 5.9781 10.1129 6.04373C8.99414 6.09685 8.00039 6.3531 7.17852 7.17185C6.35664 7.9906 6.10352 8.98435 6.04727 10.1062C5.98164 11.2625 5.98164 14.7281 6.04727 15.8843C6.10039 17.0062 6.35664 18 7.17852 18.8187C8.00039 19.6375 8.99102 19.8937 10.1129 19.95C11.2691 20.0156 14.7348 20.0156 15.891 19.95C17.0129 19.8968 18.0066 19.6406 18.8254 18.8187C19.6441 18 19.9004 17.0062 19.9566 15.8843C20.0223 14.7281 20.0223 11.2656 19.9566 10.1094ZM18.4629 17.125C18.2191 17.7375 17.7473 18.2094 17.1316 18.4562C16.2098 18.8219 14.0223 18.7375 13.0035 18.7375C11.9848 18.7375 9.79414 18.8187 8.87539 18.4562C8.26289 18.2125 7.79102 17.7406 7.54414 17.125C7.17852 16.2031 7.26289 14.0156 7.26289 12.9969C7.26289 11.9781 7.18164 9.78748 7.54414 8.86873C7.78789 8.25623 8.25977 7.78435 8.87539 7.53748C9.79727 7.17185 11.9848 7.25623 13.0035 7.25623C14.0223 7.25623 16.2129 7.17498 17.1316 7.53748C17.7441 7.78123 18.216 8.2531 18.4629 8.86873C18.8285 9.7906 18.7441 11.9781 18.7441 12.9969C18.7441 14.0156 18.8285 16.2062 18.4629 17.125Z" fill="#FFFFF6" fill-opacity="0.964706"/>
</svg>
