<svg width="26" height="26" viewBox="0 0 26 26" fill="none" xmlns="http://www.w3.org/2000/svg">
<rect width="26" height="26" rx="13" fill="#777986"/>
<path d="M9.13375 19.0001H6.23125V9.65318H9.13375V19.0001ZM7.68094 8.37818C6.75281 8.37818 6 7.60943 6 6.6813C6 6.23549 6.1771 5.80794 6.49234 5.4927C6.80757 5.17746 7.23513 5.00037 7.68094 5.00037C8.12675 5.00037 8.5543 5.17746 8.86954 5.4927C9.18478 5.80794 9.36188 6.23549 9.36188 6.6813C9.36188 7.60943 8.60875 8.37818 7.68094 8.37818ZM19.9969 19.0001H17.1006V14.4501C17.1006 13.3657 17.0787 11.9751 15.5916 11.9751C14.0825 11.9751 13.8513 13.1532 13.8513 14.3719V19.0001H10.9519V9.65318H13.7356V10.9282H13.7762C14.1637 10.1938 15.1103 9.4188 16.5225 9.4188C19.46 9.4188 20 11.3532 20 13.8657V19.0001H19.9969Z" fill="#FFFFF6" fill-opacity="0.964706"/>
</svg>
