<svg width="28" height="28" viewBox="0 0 28 28" fill="none" xmlns="http://www.w3.org/2000/svg">
<rect width="28" height="28" rx="14" fill="#777986"/>
<path d="M21.2684 10.3356C21.094 9.67865 20.5799 9.16126 19.9272 8.98568C18.7442 8.66663 14.0002 8.66663 14.0002 8.66663C14.0002 8.66663 9.25634 8.66663 8.07326 8.98568C7.42057 9.16129 6.90651 9.67865 6.73204 10.3356C6.41504 11.5263 6.41504 14.0107 6.41504 14.0107C6.41504 14.0107 6.41504 16.4951 6.73204 17.6859C6.90651 18.3428 7.42057 18.8387 8.07326 19.0142C9.25634 19.3333 14.0002 19.3333 14.0002 19.3333C14.0002 19.3333 18.7441 19.3333 19.9272 19.0142C20.5799 18.8387 21.094 18.3428 21.2684 17.6859C21.5854 16.4951 21.5854 14.0107 21.5854 14.0107C21.5854 14.0107 21.5854 11.5263 21.2684 10.3356ZM12.4487 16.2664V11.7551L16.4137 14.0108L12.4487 16.2664Z" fill="#FFFFF6" fill-opacity="0.964706"/>
</svg>
