<svg width="56" height="56" viewBox="0 0 56 56" fill="none" xmlns="http://www.w3.org/2000/svg">
<g clip-path="url(#clip0_1252_7759)">
<path d="M2.24501 18.4279C2.58394 20.3721 2.98624 24.1897 3.9369 27.8599C7.05891 39.9164 13.6005 49.3173 24.6226 55.0763C26.6314 56.1249 28.6732 56.3687 30.7013 55.3512C35.9671 52.7154 40.5495 49.1841 44.1648 44.3774C49.9651 36.6685 52.8474 27.8486 53.6438 18.2436C54.0102 13.8252 53.7953 10.5801 47.9123 8.25326C41.8832 5.86974 35.9836 3.14045 30.0592 0.487684C28.5988 -0.167005 27.3175 -0.158503 25.8571 0.493352C19.7233 3.23681 13.5564 5.91792 7.38406 8.57919C3.42162 10.2882 2.15132 12.1927 2.24501 18.4279Z" fill="#FFFFF6"/>
<path d="M2.24501 18.4279C2.15132 12.1928 3.42162 10.2882 7.38681 8.57922C13.5564 5.91795 19.7233 3.23684 25.8598 0.493382C27.3203 -0.158472 28.6016 -0.164141 30.062 0.487714C35.9864 3.14048 41.8887 5.86977 47.915 8.25329C53.7981 10.5801 54.013 13.8252 53.6465 18.2437C52.8502 27.8486 49.9651 36.6713 44.1675 44.3774C40.5523 49.1841 35.9698 52.7155 30.704 55.3512C28.6732 56.3658 26.6314 56.1249 24.6254 55.0763C13.6033 49.3173 7.06166 39.9164 3.93965 27.86C2.98624 24.1897 2.58394 20.3693 2.24501 18.4279ZM24.5427 31.4933C22.8425 29.6936 21.3628 28.0924 19.8445 26.5279C18.5605 25.2044 16.8906 25.0683 15.8022 26.1396C14.587 27.3356 14.6531 28.9199 16.0474 30.3852C18.103 32.5448 20.1807 34.6818 22.2749 36.7989C23.7877 38.3265 25.2371 38.3378 26.7251 36.8159C31.1201 32.3209 35.5014 27.8146 39.8717 23.2941C41.2577 21.8601 41.3486 20.4033 40.2161 19.1648C39.1249 17.9744 37.4523 18.0623 36.0746 19.4369C34.6582 20.8483 33.2639 22.2908 31.8834 23.7391C29.4806 26.2587 27.0943 28.7952 24.5427 31.4933Z" fill="#CC0000"/>
<path d="M24.5394 31.4931C27.091 28.7978 29.4773 26.2612 31.8801 23.7388C33.2634 22.2906 34.6549 20.848 36.0712 19.4366C37.449 18.062 39.1216 17.9742 40.2128 19.1645C41.3453 20.4002 41.2544 21.857 39.8684 23.2939C35.5009 27.8144 31.1168 32.3235 26.7218 36.8156C25.2338 38.3376 23.7844 38.3262 22.2716 36.7986C20.1774 34.6815 18.097 32.5445 16.0441 30.3849C14.6498 28.9197 14.5837 27.3354 15.7989 26.1394C16.8873 25.0681 18.5572 25.2041 19.8412 26.5276C21.3595 28.0921 22.8392 29.6934 24.5394 31.4931Z" fill="#FFFFF6"/>
</g>
<defs>
<clipPath id="clip0_1252_7759">
<rect width="56" height="56" fill="white"/>
</clipPath>
</defs>
</svg>
