<svg width="64" height="65" viewBox="0 0 64 65" fill="none" xmlns="http://www.w3.org/2000/svg">
<g clip-path="url(#clip0_1248_7693)">
<path d="M31.5509 64.4893C39.178 64.4893 46.8021 64.4989 54.4292 64.4829C57.0534 64.4797 58.3019 62.8983 57.9231 60.1342C57.8716 59.7646 57.8019 59.395 57.7625 59.0222C56.9564 51.2441 50.4778 44.8642 43.1294 44.7485C36.2144 44.6424 29.2934 44.636 22.3784 44.6264C20.9723 44.6264 19.533 44.6424 18.1633 44.9317C10.6907 46.5162 6.05444 51.9384 5.17567 59.9768C4.83931 63.0751 6.02111 64.4861 8.97256 64.4861C16.4967 64.4893 24.0238 64.4861 31.5479 64.4861L31.5509 64.4893ZM21.7965 36.5044C21.9511 35.8359 22.042 35.4823 22.1147 35.1224C22.8783 31.4358 25.2995 28.9192 28.7691 28.4049C30.057 28.2153 31.3873 28.3503 32.6994 28.3246C35.4932 28.27 37.8144 29.2856 39.5901 31.6415C39.8356 31.9661 40.278 32.2683 40.6537 32.31C43.3294 32.5897 45.693 30.793 46.1839 28.0225C46.4233 26.6694 46.4839 25.268 46.496 23.8892C46.5536 16.574 41.1174 8.35237 31.2721 8.48736C22.0662 8.61271 15.627 16.6993 16.6694 26.3962C17.0936 30.3462 18.6209 33.7371 21.7965 36.5012V36.5044ZM37.3659 36.6394C36.4387 33.5764 35.5448 32.6572 33.4418 32.5607C32.1812 32.5029 30.9145 32.4965 29.654 32.5607C27.2601 32.6861 25.8753 34.3767 26.0237 36.9029C26.151 39.0917 27.6328 40.4159 30.1237 40.4416C33.6084 40.4802 37.0962 40.5123 40.584 40.4352C43.887 40.3613 46.9294 39.4613 49.5233 37.0894C53.505 33.4446 54.3777 28.7489 54.1565 23.4617C53.5777 9.74085 42.5204 -0.843079 29.1116 0.638607C19.842 1.66389 11.8786 8.6545 9.72406 18.2935C9.13923 20.9162 9.09983 23.6899 8.95438 26.4026C8.89378 27.5404 9.56346 28.3085 10.7725 28.2764C12.018 28.2442 12.4028 27.3989 12.4513 26.258C12.4755 25.6698 12.4513 25.0784 12.4604 24.4902C12.6998 9.99155 25.9601 0.439335 38.6659 5.76183C47.1415 9.31016 51.9899 18.316 50.2566 28.8935C49.602 32.8821 46.9991 35.418 43.2779 36.2762C41.3871 36.7101 39.372 36.5365 37.3629 36.6426L37.3659 36.6394Z" fill="white"/>
<path d="M31.5507 64.4891C24.0266 64.4891 16.4995 64.4891 8.97541 64.4891C6.02092 64.4891 4.83913 63.0782 5.17852 59.9798C6.05426 51.9382 10.6936 46.5193 18.1631 44.9412C19.5328 44.6519 20.9721 44.6326 22.3782 44.6358C29.2962 44.6455 36.2143 44.6487 43.1293 44.758C50.4746 44.8737 56.9563 51.2504 57.7623 59.0317C57.8017 59.4045 57.8714 59.7709 57.9229 60.1437C58.3017 62.9078 57.0532 64.4859 54.429 64.4924C46.8019 64.5052 39.1778 64.4988 31.5507 64.4956V64.4891Z" fill="#CC0000"/>
<path d="M21.7969 36.5042C18.6212 33.7401 17.097 30.3493 16.6698 26.3992C15.6243 16.7024 22.0636 8.61897 31.2725 8.49041C41.1178 8.35542 46.554 16.577 46.4964 23.8922C46.4843 25.2711 46.4267 26.6756 46.1843 28.0255C45.6934 30.7928 43.3298 32.5895 40.6541 32.3131C40.2784 32.2745 39.8329 31.9692 39.5905 31.6446C37.8178 29.2887 35.4967 28.273 32.6998 28.3276C31.3877 28.3534 30.0574 28.2152 28.7695 28.408C25.2999 28.9222 22.8787 31.4389 22.1151 35.1254C22.0424 35.4822 21.9515 35.8357 21.7969 36.5075V36.5042Z" fill="#CC0000"/>
<path d="M37.3655 36.6394C39.3715 36.5365 41.3897 36.7101 43.2806 36.273C46.9987 35.418 49.6047 32.8789 50.2592 28.8903C51.9925 18.3128 47.1441 9.30695 38.6685 5.75862C25.9597 0.439334 12.6994 9.99155 12.46 24.4902C12.4509 25.0784 12.4751 25.6698 12.4509 26.258C12.4054 27.4022 12.0176 28.2442 10.7721 28.2764C9.56306 28.3085 8.89338 27.5436 8.95398 26.4026C9.09943 23.6899 9.1358 20.9162 9.72366 18.2935C11.8782 8.6545 19.8416 1.66389 29.1111 0.638606C42.52 -0.84308 53.5773 9.74085 54.1531 23.4649C54.3743 28.7521 53.5046 33.4478 49.5198 37.0926C46.9259 39.4646 43.8866 40.3645 40.5806 40.4384C37.0958 40.5156 33.608 40.4866 30.1202 40.4449C27.6294 40.4159 26.1476 39.0917 26.0203 36.9062C25.8718 34.3767 27.2566 32.6861 29.6505 32.564C30.9111 32.4997 32.1777 32.5061 33.4383 32.564C35.5413 32.6636 36.4352 33.5796 37.3625 36.6426L37.3655 36.6394Z" fill="#CC0000"/>
</g>
<defs>
<clipPath id="clip0_1248_7693">
<rect width="64" height="64" fill="white" transform="translate(0 0.5)"/>
</clipPath>
</defs>
</svg>
